<svg xmlns="http://www.w3.org/2000/svg" viewBox="0 0 121.5 122.36"><defs><style>.cls-1{fill:#0c0c0c;}.cls-2{fill:#1c1c1c;}.cls-3{fill:#0e0e0e;}.cls-4{fill:#101010;}.cls-5{fill:#1a1a1a;}.cls-6{fill:#9f9f9f;}.cls-7{fill:#5e5e5e;}.cls-8{fill:#0f0f0f;}.cls-9{fill:#181818;}.cls-10{fill:#111;}.cls-11{fill:#0d0d0d;}.cls-12{fill:#2e2e2e;}.cls-13{fill:#121212;}.cls-14{fill:#636363;}.cls-15{fill:#040404;}.cls-16{fill:#050505;}.cls-17{fill:#090909;}.cls-18{fill:#0a0a0a;}.cls-19{fill:#191919;}.cls-20{fill:#ccc;}.cls-21{fill:#828282;}.cls-22{fill:#afafaf;}.cls-23{fill:#c7c7c7;}.cls-24{fill:#c2c2c2;}.cls-25{fill:#b5b5b5;}.cls-26{fill:#c3c3c3;}.cls-27{fill:#cbcbcb;}.cls-28{fill:#2d2d2d;}.cls-29{fill:#b9b9b9;}.cls-30{fill:#a5a5a5;}.cls-31{fill:#c6c6c6;}.cls-32{fill:#323232;}.cls-33{fill:#bdbdbd;}.cls-34{fill:#aeaeae;}.cls-35{fill:#222;}.cls-36{fill:#262626;}.cls-37{fill:#404040;}.cls-38{fill:#393939;}.cls-39{fill:#b3b3b3;}.cls-40{fill:#888;}.cls-41{fill:#bababa;}.cls-42{fill:#c4c4c4;}.cls-43{fill:#585858;}.cls-44{fill:#bebebe;}.cls-45{fill:#a8a8a8;}.cls-46{fill:#acacac;}.cls-47{fill:#adadad;}.cls-48{fill:#bfbfbf;}.cls-49{fill:#c1c1c1;}.cls-50{fill:#616161;}.cls-51{fill:#bbb;}.cls-52{fill:#999;}.cls-53{fill:#a1a1a1;}.cls-54{fill:#474747;}.cls-55{fill:#ababab;}.cls-56{fill:#838383;}.cls-57{fill:#282828;}.cls-58{fill:#9a9a9a;}.cls-59{fill:#8b8b8b;}.cls-60{fill:#b0b0b0;}.cls-61{fill:#b4b4b4;}.cls-62{fill:#aaa;}.cls-63{fill:#8a8a8a;}.cls-64{fill:#9b9b9b;}.cls-65{fill:#b7b7b7;}.cls-66{fill:#b1b1b1;}.cls-67{fill:#898989;}.cls-68{fill:#4e4e4e;}.cls-69{fill:#4b4b4b;}.cls-70{fill:#7d7d7d;}.cls-71{fill:#646464;}.cls-72{fill:#525252;}.cls-73{fill:#747474;}.cls-74{fill:#707070;}.cls-75{fill:#949494;}.cls-76{fill:#8e8e8e;}.cls-77{fill:#868686;}.cls-78{fill:#cacaca;}.cls-79{fill:#c8c8c8;}.cls-80{fill:#686868;}.cls-81{fill:#858585;}.cls-82{fill:#b6b6b6;}.cls-83{fill:#8c8c8c;}.cls-84{fill:#696969;}.cls-85{fill:#6a6a6a;}.cls-86{fill:#c9c9c9;}</style></defs><g id="Calque_2" data-name="Calque 2"><g id="extra-space"><g id="onomatopee"><path class="cls-1" d="M76.59,3.3V4a5.3,5.3,0,0,1,1.77-.41,2.43,2.43,0,0,1,.86,1.21V6.31l-.36.32-.34-.31V4.68c-.29-.53-.71-.42-1.1-.42l-.34.35V6c-.27.41-.82.45-.9.93-.35-.12-.31-.29-.31-.44a25.08,25.08,0,0,1-.26-3.13c0-.35-.27-.68-.24-1.1A4.43,4.43,0,0,1,75.76,0c.42,0,.23.76.83.69V3.06c-.23,0-.24-.14-.24-.31,0-.47,0-.94,0-1.41,0-.07-.07-.13-.1-.19a.25.25,0,0,0-.12,0l-.21.07c-.07,1.48-.07,1.48.3,2.3C76.37,3.49,76.39,3.25,76.59,3.3Z"/><path class="cls-2" d="M70.57,8.72A2.32,2.32,0,0,1,70.36,10c-.61,1-1.78,1.34-2.45.52-.28-.34-.74-.68-.7-1.26,0-.12-.14-.26-.27-.45a1.24,1.24,0,0,0,.29-1.06c.64-.78,1.45-.61,2.28-.62A3,3,0,0,1,70.57,8.72ZM68.78,7.9,68,8.69V9.9l.61.61A1.87,1.87,0,0,0,70,9.8a1.7,1.7,0,0,0-.21-1.69C69.44,8.15,69.25,7.74,68.78,7.9Z"/><path class="cls-3" d="M55.23,19.93a3.22,3.22,0,0,1,2.63-.09c.72.32.77,1,1,1.58.09.32-.19.65-.41.89A3.6,3.6,0,0,1,57,23.46a2.77,2.77,0,0,1-1.73-1.65Zm1.68.41c-.61-.37-.67-.36-1.21.25l.25.47v.79l.54.87h.63l1-.82V20.83C57.71,20.69,57.41,20.31,56.91,20.34Z"/><path class="cls-4" d="M72.74,8.82,71.11,8c-.5-.72-.21-1.6-.29-2.45.54.33.48.37.74.81A9,9,0,0,0,72.85,8.1c.37,0,.43-.24.59-.34A4.81,4.81,0,0,0,73,5.19l.37-.68c.2,0,.29,0,.34.13l-.18.18s0,.1.08.16A3.69,3.69,0,0,1,74,6.14c0,.46.3.82,0,1.38A2.29,2.29,0,0,1,72.74,8.82Z"/><path class="cls-4" d="M63.26,12.7A4.32,4.32,0,0,1,65,14v.39L63.9,13.23c-.54.15-1,0-1.19.46-.38.94.89,1.35.63,2.33-.24-.11-.39-.47-.56-.45s-.41-.41-.73-.29c-.27-.74-1-1.11-1.44-1.68s-1.12-.84-1.37-1.73c1.28.4,1.66,1.6,2.61,2.16L62,14c.4-.18.13-.64.4-.92S63.11,13.11,63.26,12.7Z"/><path class="cls-5" d="M59.34,15.54c1.08.05,1.63.87,2.3,1.49.29.64-.36,1.16-.17,1.75-1.13.83-1.57.83-2.49-.1a4.62,4.62,0,0,1-1.16-1.29c.39-.33.79-.07,1.15-.21a2.61,2.61,0,0,0,.65,1.43h1.06a1.37,1.37,0,0,0-.6-2.09,3.59,3.59,0,0,1-.54-.4A.48.48,0,0,1,59.34,15.54Z"/><path class="cls-6" d="M76.59,3.3c-.2,0-.22.19-.38.21-.37-.82-.37-.82-.3-2.3l.21-.07a.25.25,0,0,1,.12,0c0,.06.1.12.1.19,0,.47,0,.94,0,1.41,0,.17,0,.33.24.31Z"/><path class="cls-7" d="M56.91,20.34c-.42.06-.12.2,0,.39-.33.11-.7.09-1,.33l-.25-.47C56.24,20,56.3,20,56.91,20.34Z"/></g><g id="stars"><path class="cls-8" d="M84.51,11.94c0,.18-.12.46.24.48a.21.21,0,0,0,.24-.24.21.21,0,0,0,.24-.24.21.21,0,0,0,.24-.24h.24q0,.24.24.24c-.34.59-1.06.71-1.38,1.23a1.6,1.6,0,0,1-1-.65,3.29,3.29,0,0,0-.36-2l-.37.41A3.73,3.73,0,0,1,82,13.63a6.84,6.84,0,0,0-2.64.34,13.82,13.82,0,0,0,2.54,1.5c.08,0,.1.08.17,0a.55.55,0,0,1,.17-.13l.34.34v.6c-.72.19-.91.47-.82,1.23.24-.46.9-.59.82-1.23.47,0,.88-.49,1.39-.17a3,3,0,0,0,1.15,1.6c.1-.18.35-.23.34-.47h.24c.05.52-.14,1.09.18,1.6l-.54.56c-.43-.43-.83-.88-1.28-1.27a3.65,3.65,0,0,1-.89-1.43c-1.16.59-1.58,1.86-2.63,2.45-.17-.1-.13-.27-.12-.42s-.11-.28-.22-.39c.31-.62.85-1.18.69-2-.07-.3.33-.35.21-.74-.39-.48-1.12-.7-1.66-1.16s-1.31-.48-1.84-1.19a4.2,4.2,0,0,1,1.65-.12,9.36,9.36,0,0,0,1.34-.23c.5-.05.91-.45,1.46-.22.16-1.19.7-2.21.81-3.33C83.14,9,83.54,9,84,9.09c0,.46,0,.92,0,1.39s.37.77.25,1.22Q84.26,11.94,84.51,11.94Z"/><path class="cls-9" d="M41.31,11.7c-.13-.75.43-1.39.25-2.08.41-.28.5.34,1,0-.1.1,0,0,.1-.08.4.09.8.5,1.31.12-.21-.67-.82-.94-1.36-1.28a1.44,1.44,0,0,1-.74.43c0-.07-.1-.16-.08-.2a3.1,3.1,0,0,1,.75-1.14C43,7,43.5,6.5,44,6c.14-.14.29-.27.1-.57-.81.16-1.35.86-2.15,1.24A28.22,28.22,0,0,1,39.2,3.26c-.05,1-.54,1.89-.56,2.81a1.82,1.82,0,0,1-.94.56c.26-1.24,1-2.39.56-3.81.12-.23.68-.23.75-.71.24.15.31.4.44.63a6.4,6.4,0,0,0,1.26,1.75A7.89,7.89,0,0,1,41.93,6a16.2,16.2,0,0,1,3.23-1.34,2.77,2.77,0,0,1-1.42,2.45,4.15,4.15,0,0,0-.82.72,7,7,0,0,0,3,2.27l-.64.65c-1,0-2-.47-3.17-.2a1.77,1.77,0,0,0-.53,1.14Z"/><path class="cls-8" d="M41.31,11.7h.24V13a2,2,0,0,1-1.32.63A9.08,9.08,0,0,1,38.6,11a3.92,3.92,0,0,0-1.85,1.81c-.28.17-.49.06-.84.1a13.15,13.15,0,0,0,.87-3A9.78,9.78,0,0,1,34.6,8.66,4.24,4.24,0,0,0,33,8.1c-.29,0-.28,0-.6-.57.06-.26.38-.06.47-.27L32.67,7,33,6.67a.67.67,0,0,0,.62.23v.24c.06.48.6.41.84.73a2.08,2.08,0,0,1,1.7.47c.6-.18,1.08.44,1.7.19,0,.69-.7,1-.68,1.64s-.51,1.07-.42,1.86a8.22,8.22,0,0,1,1.14-1.1c.38-.24.54-.67.9-.91.73.1.74.1.82.85A7,7,0,0,1,41,12.65C41.11,12.33,41.05,12,41.31,11.7Z"/><path class="cls-10" d="M8.43,72.42l.83.42a6.64,6.64,0,0,1-2.58,2.08c.33.83,1.26,1.13,1.57,2-1.11.29-1.85-.72-2.93-.64a5.89,5.89,0,0,1-.73,2.9.72.72,0,0,1-.48.45c0-.39-.42-.12-.48-.38v-1.3q0-.25.24-.24c0,.27-.07.61.38.44a8.67,8.67,0,0,1,1-2.43c.63.42,1.34.29,2.21.59-.58-.51-.85-1-1.39-1.11v-.47A6.29,6.29,0,0,0,8,72.9a.19.19,0,0,1,.18-.24C8.29,72.64,8.44,72.64,8.43,72.42Z"/><path class="cls-5" d="M3.87,77.7q-.25,0-.24.24H3.39a2,2,0,0,0-.33-1.16,2.9,2.9,0,0,0-2,.28,2,2,0,0,1-1.07.1c.13-.5.59-.75.79-1.18a3.3,3.3,0,0,1,.93-1.29c-.08-.59.16-1.24-.25-1.79q0-.25-.24-.24v-.24h.24c.46.39.5,1,1,1.37a12.94,12.94,0,0,1-1.4,2.37c1.11.23,1.42-.61,1.94-1.11.27.26,0,.69.18.88C3.78,76.41,3.61,77.12,3.87,77.7Z"/><path class="cls-11" d="M86,11.94q-.26,0-.24-.24a.21.21,0,0,0,.24-.24.21.21,0,0,0,.24-.24.21.21,0,0,0,.24-.24,4.72,4.72,0,0,0,1.18-.74.72.72,0,0,1,.47,1c-.45.74-.54,1.59-.93,2.33-.15,0-.32-.07-.45.08s-.1.38.21.4q0,.24.24.24,0,.24.24.24,0,.24.24.24,0,.24.24.24,0,.24.24.24v.24a.21.21,0,0,1-.24.24,8.21,8.21,0,0,0-2.12-2,7.65,7.65,0,0,0,1.46-2.61Z"/><path class="cls-12" d="M8.43,72.42c0,.22-.14.22-.3.24A.19.19,0,0,0,8,72.9H5.67l-.36-.36V71c0-.16,0-.32-.24-.3,0-.6.35-.92.85-1.17l.35.33a4.72,4.72,0,0,0,.52,2.52Z"/><path class="cls-13" d="M1.47,72.42H1.23L.5,70.62c.28-.25.8,0,1-.43a9.87,9.87,0,0,1,1.67,2c.11.46.48.15.72.24a1.19,1.19,0,0,1-.44.53c-1,.08-1.11-.94-1.82-1C1.39,72.1,1.5,72.27,1.47,72.42Z"/><path class="cls-11" d="M87.87,15.78a.21.21,0,0,0,.24-.24,2,2,0,0,1,1.42.83.69.69,0,0,1-.88.35,7.55,7.55,0,0,0-2.57-.23c-.25.22-.46.4-.37.73h-.24V16.5q0-.26-.24-.24a.7.7,0,0,1,.42-.48Z"/><path class="cls-14" d="M33.63,7.14V6.9c.83,0,1.66,0,2.49,0A2.94,2.94,0,0,1,38,7.38c0,.32-.27.27-.42.23a1.87,1.87,0,0,1-.9-.47Z"/><path class="cls-12" d="M3.87,72.42c-.24-.09-.61.22-.72-.24h.57c.41-.28.63-.77,1.11-1C4.83,71.87,4.3,72.11,3.87,72.42Z"/><path class="cls-12" d="M4.83,71.22c0-.18-.12-.46.24-.48C5,70.92,5.19,71.2,4.83,71.22Z"/><path class="cls-14" d="M38,7.38a.17.17,0,0,1,.14-.22s.08.06.07.07A.17.17,0,0,1,38,7.38Z"/><path class="cls-8" d="M85.47,16.5q-.25,0-.24-.24Q85.47,16.24,85.47,16.5Z"/></g><g id="extra-planet"><path class="cls-15" d="M53.78,39a3.31,3.31,0,0,0-1,2.49c0,.11-.16.24-.24.36.12.3.46.6.24.86s-.1.69-.24,1c-.37.77,0,1.42.19,2.13a2.51,2.51,0,0,1,0,1.6c-.23.58-.36,1.21-.54,1.8a2.79,2.79,0,0,0,.1,2.06,1.65,1.65,0,0,1,.07.69,1,1,0,0,0,.16.54,11.39,11.39,0,0,1,1.24,2.94c.14.37.39.67.49,1a2.87,2.87,0,0,0,.47,1.12,12,12,0,0,0,.87.88l.27-.22a9.46,9.46,0,0,1,1.31,1.44H56.06l-.58-.59a12,12,0,0,1-1.41-1.45,7.66,7.66,0,0,1-.62-1.53,9.42,9.42,0,0,1-.6-1.54,3.41,3.41,0,0,0-1-2,1.37,1.37,0,0,1-.45-.88A7.38,7.38,0,0,1,52,47.67c.27-.46.64-1.06.15-1.66-.08-.1,0-.31,0-.47s.07-.47-.09-.7h-.39v.94c-.38.68-1.13,1-1.45,1.79-.12.3-.47.37-.73.51a8.53,8.53,0,0,0-1.35.82,2,2,0,0,1-2.28.24c.19.42-.12.57-.32.71a6.21,6.21,0,0,1-2.12,1.29c-.58.33-.29.92-.48,1.41-.91-.87.27-1.57.06-2.35-.22-.19-.64-.17-.7-.63s-.52-1.19,0-1.79c-.19-.13-.26-.36-.52-.32s-.36.53-.76.48l-.3-.27c-.07.35-.33.26-.56.27,0-.17.11-.41-.19-.48-.66.42-.59.45-.79.88A5.11,5.11,0,0,0,39,50.73s.13.06.2.09a7.59,7.59,0,0,1,.66,1c.18.41.7.51.7,1a6.69,6.69,0,0,1-.74,2l-2.85,1.26c-1.42.05-2.89-.78-4.49-.87-.07.41.37.49.47.75s-.09.73.1,1a3.71,3.71,0,0,1,.79-.45c.35-.1.73.26,1.12,0a.32.32,0,0,1,.42.13.34.34,0,0,0,.43.09c.64-.43,1.45,0,2.08-.47a2.34,2.34,0,0,1,1.4-.24c.32-.16.36-.48.52-.78l.18.51c.27.11.39-.07.52-.21a1.51,1.51,0,0,0,.75.45c.23,0-.07-.42.26-.41s-.06.44.35.43.42-.3.49-.63c0-.11.1-.11.21.1s-.16.44-.2.75a1,1,0,0,0,.84-.18,2.84,2.84,0,0,0,1,1.41c.11.46.48.15.72.24l.48.72a.6.6,0,0,0,.48.48c0,.36.3.2.48.24h.24c0,.18-.12.46.24.48a.56.56,0,0,0,.38.43c.32-.11.19-.56.54-.59.16.31-.07.55-.16.8.15.2.4.29.44.56.11.46.48.15.72.24a.59.59,0,0,0,.48.72c0,.18-.12.46.24.48-.09.38.26.6.32.9.32.19.55-.06.81-.14.18.33,0,.58-.14.84.37.15.06.59.33.79.28-.16-.07-.55.27-.7.2.44,0,.93.13,1.35.23.18.41.61.68.08.5,0,0,.58.34.71.13,0,.27,0,.38.16s0,.71,0,1.1a.2.2,0,0,0,.24.19,6.3,6.3,0,0,0,.72,1.94,4.66,4.66,0,0,0-.36,1.89c.12-.08.18-.26.45-.22a1.84,1.84,0,0,1,.63.71l.25.47c-.15.31-.43.58-.17.93a.58.58,0,0,0,.4-.59c0-.35,0-.7,0-1H55v.58c.06.26.52,0,.48.38q-.26,0-.24.24c-.49.26-.35,1-1,1.23-.35-.19-.59-.66-1.14-.61a6.9,6.9,0,0,0-.51,1c-.19.55-.7.71-1.11.94s-.67,0-.84-.48a4.45,4.45,0,0,1,.57-1.4,6,6,0,0,0,.64-1.4,11.67,11.67,0,0,0,.54-1.47,7.71,7.71,0,0,0,.18-1.48,19.78,19.78,0,0,0-1.64-2.62s-.14,0-.24-.06V66a1.58,1.58,0,0,0-.14-.25,7.88,7.88,0,0,1-1.38-2.19c-.3-.65-.5-1.48-1.3-1.88-.12,0-.18.34-.44.19s0-.58-.22-1c-1.21-.3-1.67-1.6-2.86-2.5,0,0-.2.15-.43,0A17.81,17.81,0,0,0,40,56.89a4.05,4.05,0,0,0-2.31,0c-1,.26-2.07.42-3.12.59a.79.79,0,0,1-.84-.21c-.63.4-.18,1-.47,1.69a3.06,3.06,0,0,1-1,.66.55.55,0,0,0-.56-.22A1.93,1.93,0,0,1,32,58c.71-.39.3-1.15.6-1.68-.55.23-.55.81-.84,1.2q-.26,0-.24.24h-.6c-.23-.19-.13-.45-.11-.66s-.35-.34-.25-.61c.16-.47.87-.34.95-.89a.67.67,0,0,0,.46-.39c-.12-.13-.25-.12-.43,0,0,.11,0,.26,0,.4H30.38c-.53-.56-.88-1.15-.21-1.89.16,0,.38-.12.59.09s.32-.2.58-.14.71.19.82.46c.24.55.7.63,1.16.76s1.23.3,1.84.48c1.84.54,2.76.2,3.85-1.42a2.93,2.93,0,0,1,.35-.36,1.55,1.55,0,0,0-.15-1c-.16-.25-.52-.54-.26-.93-.65-.25-1-.81-1.49-1.23V48.53l-.36-.36c-.57.08-1.24-.18-1.83.28l-.45-.35c0,.11-.13.24-.17.38-.12.39-.28.72-.87.68.55-.41.18-1.14.57-1.65-.22.18-.47.16-.66.26a7.27,7.27,0,0,0,.09,1.39c-.06.45-.45.11-.7.22a2.28,2.28,0,0,1-.89-1.27c.47-.34.4-1.27,1.41-1.22.15.2.52.06.87.09l1,1,.24-.51a2.59,2.59,0,0,1,1.54.2,2.62,2.62,0,0,0,1.08.51c.25-.27-.29-.27-.12-.53a2.89,2.89,0,0,1,1.58-1.19l.32.87.46-1c-.17-.36-.66-.9-.42-1.5a6.8,6.8,0,0,0,.23-2.13,2.09,2.09,0,0,0,.71-2,1.21,1.21,0,0,0,1.16.18.86.86,0,0,1,.28-.66,1.41,1.41,0,0,1,.25.86c0,.25-.12.55.2.66l-.61.6c-.11-.17-.21-.2-.42,0s-.36.07-.53.09a4.63,4.63,0,0,0-.54,3l.46.46v1.24a2.37,2.37,0,0,0,2.26-.89h1.21c.26.25.49.62,1,.45.18.7.13,1.46.73,2a6.26,6.26,0,0,0,4.16-3,3.18,3.18,0,0,1,.22-1.34,1.59,1.59,0,0,0,.07-1,11.07,11.07,0,0,1,0-2.23c-.18-.22-.4-.08-.59-.13-.53-.42-.89-1-1.55-1.33l.2-.23c.08-.27-.17-.36-.24-.55.21-.34.26-.79.65-1,.18,0,.35,0,.33.25s-.43.11-.48.36.33.42.25.76.32.51.53.72a2.23,2.23,0,0,0,.66.29c0-.2,0-.32-.08-.42s-.24-.11-.05-.26.3,0,.38-.2c-.16-.24-.12-.63-.49-.77-.23-.66-.83-1.18-.73-1.89l1-1a1.31,1.31,0,0,1,.65.71,5.42,5.42,0,0,0,.1,1.52,3,3,0,0,0,.38-1.76l.34-.7c.28.16.43.54.82.53.21.81-.39,1.33-.65,2v1c.6-.21.63-.86,1-1.17h.76A2.89,2.89,0,0,1,54.26,39c-.15.18-.33.08-.48.09-.1-.25.2-.42.19-.69-.52-.06-.61.39-1.06.67C53.33,39,53.56,39,53.78,39Zm-1.9.42c.1-.6-.39-.87-.73-1.23,0-1.61,0-1.61-.45-2V38c.3.11.2.52.48.72s.16.64,0,1l.18.17c-.08.13-.27.19-.25.26l1.19,1.2c.12-.18,0-.46,0-.73s0-.55.24-.73A1.07,1.07,0,0,0,51.88,39.46Zm-6.75,8.09c-.18-.11-.23-.35-.51-.33-.42.32-1,.38-1.35.79V49.1a.53.53,0,0,0,.74.26,2.13,2.13,0,0,0,1.12-.85Zm7.61,24.8a9.7,9.7,0,0,0-1,2.44c.36.12.54-.15.62-.37C52.56,73.78,53,73.16,52.74,72.35Zm-.67-30.28c-.8,1-.8,1-.19,2.45C51.6,43.73,52.22,43,52.07,42.07ZM32.63,57.83c-.05.39-.73.63-.35,1.13h.35ZM42,56.71c-.34,0-.49-.57-.9-.29v.33A1.13,1.13,0,0,0,42,56.71ZM30.46,54.82a1.56,1.56,0,0,0,1,0c-.15-.24-.29-.44-.59-.41Zm1.12,1.52c-.31,0-.43.18-.59.39a.64.64,0,0,0,.68,0A.28.28,0,0,0,31.58,56.34Z"/><path class="cls-15" d="M47.55,101.46v.88c-.45.22-.5-.18-.74-.25l.25-.29c-.18-.1-.23-.35-.47-.34,0-.31-.38-.39-.48-.65l.45-1.24c.13-.27-.41-.3-.13-.66.31-.06.55-.37.82-.64a8.82,8.82,0,0,0,.3-2.4,6.46,6.46,0,0,0-.18-.76A7,7,0,0,1,47,93.44a6.08,6.08,0,0,0-.5-2.18,2.21,2.21,0,0,1-.18-.89c0-1.56-.1-3.12,0-4.67a8.57,8.57,0,0,1,1-4.26c.27-.4,0-.82.37-1.19a2.16,2.16,0,0,0,.35-1.17,14.15,14.15,0,0,1,.52-2.3C49,75.35,49.68,74,50,72.55c.6-.6.54-1.55,1.15-2.17a1.24,1.24,0,0,0,.31-.83.46.46,0,0,1,.62-.47.36.36,0,0,1,0,.45,15.12,15.12,0,0,0-1.33,3.16,2.81,2.81,0,0,1-.19.53,6.08,6.08,0,0,0-.75,1.72,7.35,7.35,0,0,1-.49,1.72,2.93,2.93,0,0,0,0,1.07c-.18.37-.56.67-.47,1.12a4.16,4.16,0,0,1-.6,2.4c-.38.9-.58,1.84-.87,2.76a10.84,10.84,0,0,0-.21,3.26,12.62,12.62,0,0,0,.44,4.61,10.81,10.81,0,0,1,.25,1.33c.09.45.14.9.21,1.35a10.65,10.65,0,0,0,.76,1.87c0,1.38-.17,1.8-1.46,3.26.78.27.61,1.23,1.22,1.64-.28.18-.24.46-.23.73a.46.46,0,0,0,.54.11,7.88,7.88,0,0,1,2.7-.24A11.09,11.09,0,0,1,53,103.67c.26.49,1,.51,1.17,1.18.08.31.41.55.54.86a2.91,2.91,0,0,0,.72,1.14,4,4,0,0,1,.71,1.26,12.38,12.38,0,0,0,3.76,4.43c.6.42,1.08,1,1.68,1.45.92.7,1.85,1.38,2.71,2.17a3,3,0,0,0,1.4.66,3.84,3.84,0,0,1,1.56.6,3.17,3.17,0,0,0,1.45.52,7.72,7.72,0,0,1,2.46,1,11.32,11.32,0,0,0,3.43,1c.24,0,.44.15.64.2.54.14,1.14.21,1.67.35a7.6,7.6,0,0,0,1.49.44,3.92,3.92,0,0,1,1.11.48c.09,0,.17-.15.28-.25a7.7,7.7,0,0,0,3.54.06c.08,0,.15-.08.21-.07,1.19.13,2.32-.39,3.5-.24a2.71,2.71,0,0,0,1,.09c.44-.15,1,.1,1.26-.13s.72-.16,1-.4.92.13,1.35-.21c.69.37,1.21-.24,1.82-.33.37-.06.72-.34,1.1-.21s.7-.37,1.11-.25c0,.22.13.22.3.24a.19.19,0,0,1,.18.24,9,9,0,0,1-2.61.93,12.08,12.08,0,0,0-1.7.54c-1.55.72-3.15.35-4.73.43-.36,0-.69-.3-1.1-.23a3.13,3.13,0,0,0-1.11.22,15.38,15.38,0,0,1-2.08.49c-.44.17-.84-.27-1.33-.24-.92.06-1.84,0-2.62,0a6.88,6.88,0,0,0-3.34-1,6.45,6.45,0,0,1-2.84-.68,34.64,34.64,0,0,0-4.06-1.77c-.72-.18-1.41-.49-2.13-.65-.24-.05-.37-.27-.61-.27s-.26.34-.65.17c-.85-1.09-2.36-1.63-3.32-2.83-1.25-.63-2-1.8-3.14-2.6a13.15,13.15,0,0,1-3.45-4.33A10.45,10.45,0,0,0,54,106a5.75,5.75,0,0,1-.87-1.2,1.41,1.41,0,0,0-1-.78,4.38,4.38,0,0,1-1.58-.8c-.4-.29-.64-.07-1,.13-.25-.23-.77-.1-.81-.66-.24-.21-.59.06-.91-.18,0-.36,0-.75,0-1.14a.18.18,0,0,0-.23-.19,1.27,1.27,0,0,0-.5-1c-.37.19-.18.45-.2.68a1.4,1.4,0,0,1,.4.16C47.38,101.15,47.22,101.48,47.55,101.46Zm1.72,1.47a4.72,4.72,0,0,1,3.1.7c-.07-.79-.73-.85-1.12-1.21-.61,0-1.24,0-1.88,0,0,0-.09.11-.14.16Zm41.1,18.36a1.52,1.52,0,0,0,1.55-.31C91.38,120.72,91,121.05,90.37,121.29ZM47.91,97.87l.33-.06c0-.33.11-.63-.07-.91C47.83,97.16,47.61,97.44,47.91,97.87Z"/><path class="cls-16" d="M113.55,65.7a1.27,1.27,0,0,1-.75-1c-.1-.45-.56-.82-.67-1.27s-.55-.77-1-1a4.38,4.38,0,0,1-.73-.71,3.24,3.24,0,0,1,0-.54c0-.23-.21-.31-.26-.53.25-.31.26-.79.71-1V58.53l.49-.35a.44.44,0,0,0-.11-.41c-.33-.45-1-.51-1.24-1.05-.42.24-.65.73-1.16.59-.29.49-.87.08-1.28.43s-.85,0-1.39,0l-.3-.38.21-.24c-1-.53-2-.92-3-1.5s-1.88-1.06-2.81-1.62a6.22,6.22,0,0,0-3.52-1.1A7,7,0,0,1,94,52.43c-.55-.22-1.19.07-1.63-.41-1.51,0-3-.65-4.48-.48-.47.05-.84-.36-1.34-.26a2.37,2.37,0,0,1-1.35-.2c-.41-.16-.91-.19-1.3-.33a10.17,10.17,0,0,0-2.57-.17c-.43.41-1,.26-1.46.22-1.46-.13-2.88.33-4.34.26a.76.76,0,0,0-.33.08A36.45,36.45,0,0,1,71,52.63c-.88.28-1.73.66-2.61.94a7.23,7.23,0,0,0-2.05.85c-.44-.13-.62.23-.89.44l-2.55,2q-.25,0-.24-.24a7.94,7.94,0,0,1,2.89-2.41c.55-.33,1-.8,1.74-.74.24,0,.51-.29.76-.45a3.83,3.83,0,0,1,1.86-.75c.74,0,1.43-.47,2.2-.46.06,0,.12-.1.18-.14a5.12,5.12,0,0,1,3-1c.44,0,.77-.33,1.23-.27a2.07,2.07,0,0,0,1.12-.17c.48-.22,1.14,0,1.67-.29,1.3.13,2.56-.39,3.86-.26a2.67,2.67,0,0,0,1.48-.19c.6-.28,1.28.15,1.89.3a3,3,0,0,0,1.79,0,1.23,1.23,0,0,1,1.08.12,3,3,0,0,0,1.71.54,1.14,1.14,0,0,1,.9.46,6.26,6.26,0,0,1,3.38.75A9.07,9.07,0,0,0,97,52c1,.22,1.83.59,2.75.89.51.17.78.59,1.2.85a16.63,16.63,0,0,1,2.55,1.4c.29.26.7.18,1,.39a14,14,0,0,1,2.25,1.26c.65.58,1.51.24,2.24-.1a2.73,2.73,0,0,0,1.48-1.06c.35.58,0,1.21.6,1.4l.21-.21.6,1.23c0,.48-.32.57-.5.85.24.7-.3,1.37-.22,2.14a4.06,4.06,0,0,1,1.34,1.82c.37,1,1.17,1.65,1.54,2.6C114,65.82,113.73,65.66,113.55,65.7ZM89.18,50.33a4.52,4.52,0,0,0-1.74.18c-.55-.49-1.34.18-1.87-.4-.1.28-.43.15-.62.4,2.08.44,4.18.43,6.22.81l-.34-.52H89.65Z"/><path class="cls-17" d="M121,86.58a8.69,8.69,0,0,0-.49,3.28,1.48,1.48,0,0,1-.16.64,24.19,24.19,0,0,0-.64,2.39s-.18-.1-.31,0a32.41,32.41,0,0,0-.8,3.51c-.12.47-.07,1-.33,1.41s0,1-.34,1.44-.07,1.1-.26,1.67.22,1,1,1.53c-.27.46-.82.72-1,1.27a6,6,0,0,0-.11.66c-.34,0-.73.16-1-.2a5.06,5.06,0,0,0-2.38,2.55c-.37.66-.94,1.17-1.36,1.8-.29.45-.37,1-.82,1.35a40.93,40.93,0,0,0-3.22,3,19.81,19.81,0,0,1-2.15,1.46c-.88.57-1.74,1.17-2.64,1.71-.43.26-1,.23-1.32.58s-.91.38-1.26.75c-.06.06-.23,0-.35,0s-.25-.08-.24-.24c.8-.48,1.57-1,2.41-1.43a19.22,19.22,0,0,0,3.42-2.14,27.31,27.31,0,0,0,3.36-2.62c.49-.5.72-1.22,1.36-1.54v-.57c.69-.69,1.41-1.38,2.11-2.09a12.27,12.27,0,0,0,1.68-2.31l1.56-.76.29.23a2.23,2.23,0,0,0,.89-1.46c-.61-.47-.63-1.28-.93-2a8,8,0,0,0,.69-2.12,6.15,6.15,0,0,1,.34-1.41,3.81,3.81,0,0,0,.36-1.66,7.07,7.07,0,0,1,.53-2.29c.23-.78.55-1.53.84-2.29,0,0,.05-.07,0-.1-.16-.87.32-1.68.24-2.54,0-.33.11-.67-.18-1a.83.83,0,0,1,0-.8,5.18,5.18,0,0,0,.21-2.31c0-.79,0-1.59,0-2.39a2.35,2.35,0,0,0,0-.84c-.32-.77-.25-1.64-.58-2.39a1.25,1.25,0,0,1-.12-.55c.08-1.09-.47-2.09-.48-3.16-.53-.37,0-1-.45-1.51a5,5,0,0,1-.69-1.38,1.72,1.72,0,0,0-1-1V70q0-.26.24-.24a6.93,6.93,0,0,1,1.68,2.45,5.3,5.3,0,0,1,.5,1.11c0,.35.42.67.43,1s.25.71.28,1.1.25.69.25,1.09.29.5.42.77a5.9,5.9,0,0,1,.75,3.15,28.94,28.94,0,0,0,.28,3.6,16.49,16.49,0,0,0-.27,1.81c-.08,0-.16,0-.39.5-.08-.35.24-1,.16-1.82a10.83,10.83,0,0,0-.18-2.26,9.38,9.38,0,0,1-.29,1.91c-.16.63.16,1.33-.32,2,.39,0,.19.43.63.16C121,86.1,121,86.34,121,86.58Zm-.43-5.08c.41-1.92.28-2.82-.57-3.47C120.15,79.29,120.69,80.34,120.56,81.5Z"/><path class="cls-18" d="M56.91,59.7h.24a.56.56,0,0,1,.61.25c.14.24.37.24.72.22.56-.51.92-1.38,1.79-1.67q.24,0,.24.24c-.43.54-1.14.8-1.53,1.55l.54.27c.28-.22.91-.31,1-.87a1.29,1.29,0,0,1,.46-.78c.54-.63,1.37-.92,1.82-1.61h.63l.49,1c-.08.34-.64.46-.49.94A3,3,0,0,0,62,60.92c.54-.05.68-.59,1.06-.73a6.54,6.54,0,0,0,1-.73h.42V61c-.38.6-1.47,0-1.66,1,.7.11,1.2-.51,1.84-.43l.34.34c.17.29-.16.41-.24.6a1.59,1.59,0,0,1-1.42,1q-.26,0-.24.24L63,63.7a1,1,0,0,0-1.24.08c-.3.32-.78.15-1.11.46a1.74,1.74,0,0,1-1.29.26,2.55,2.55,0,0,1-1-1.08c-.16-.36-.58-.61-1-1-.85,1.6-2.13,2.71-3.08,4.1v1c.44.41.59,1.12,1.16,1.4s.63.89,1.23,1c.37.09.34.66.72.82a1.7,1.7,0,0,1-.24,1.2c-.3,0-.4.34-.62.48s-.49-.37-.82-.24v-.65c-.14-.12-.32-.27-.48-.43a.29.29,0,0,0-.48,0c-.15.3.27.36.24.61h-.48c.11-.31-.22-.47-.25-.83.29-.2.42-.7,1-.61.75.22.7,1.29,1.52,1.46a1,1,0,0,0-.25-1.43A26.09,26.09,0,0,1,54,68a3,3,0,0,1-.24-.26v-1c-.18-.09-.23-.34-.47-.33v-.64c-.63-.3-.7-1.08-1.2-1.52.11-.4-.21-.71-.25-1.08a4.6,4.6,0,0,1,.73-2.52c.18-.25.64-.07.72-.48.49,0,0-.59.36-.7.31.14-.1.55.1.62.52,0,.42-.44.68-.67.14.36-.08.71.16,1,.24-.07,0-.38.32-.48a3,3,0,0,0,.44,1c.31-.4.59.28.89,0,1,1,2.53,1.5,3.2,2.92,1-.17,1.76-1,2.71-1.09,0-.3-.11-.37-.21-.49s.27-.18.23-.37c.58-.31.94-1,1.73-1,.39,0,.59-.46.35-.88a5.36,5.36,0,0,0-2,1.38c-.22.24-.67-.29-.78.26-.25,0-.3-.25-.51-.36,1-.8,1.43-2.11,2.45-2.89-.07-.22.06-.44-.19-.63-.3.16-.7.24-.93.55s-.75.4-1,.79c.07.44-.36.79-.31,1.33-.61,0-1,.51-1.41.76C58.51,60.85,57.46,60.71,56.91,59.7Zm-4.6,3.41c.78,2,.78,2,1.36,2.49,1.3-.83,1.87-2.38,3.2-3.19-.72-.75-1.88-.82-2.6-1.54-.8.09-1.2.65-1.68,1.1l.21.23Zm12-1a1.1,1.1,0,0,1-.76.25c-.31,0-.55.07-.56.46h1C64.16,62.62,64.41,62.51,64.32,62.09Z"/><path class="cls-19" d="M64.8,34.4A9.25,9.25,0,0,1,67,33a10.6,10.6,0,0,1-.73,1.71v1.13c.32.42.82.43,1.16.71,0,.27-.09.43-.32.34a4.38,4.38,0,0,0-2-.22l-.34.39V39c-.31.13-.47.11-.49-.25,0-.16-.28-.26-.23-.5a2,2,0,0,0-.33-1.32h-.51c-.41.36-.76.92-1.56.94A6.4,6.4,0,0,1,63,35.68c-.44-.68-1.35-.54-1.91-1,0-.18.21-.24.34-.42.6.25,1.18.72,1.92.49a11.25,11.25,0,0,0,1.6-3,.33.33,0,0,1,.37,0C65.46,32.54,65,33.33,64.8,34.4Zm-.54-.23c-.18.3-.38.39-.42.68s-.52,0-.73.36l.52.31c-.33.5-.86.71-1,1.26.77.14,1-.78,1.57-.86.44.37-.17.49-.1.74s.34.32.26.63c0,.13-.18.44.25.54V36.2c.45-.11.72.51,1.17.1,0-.33.11-.71-.2-1,.44-.82.44-.82.2-1.38l-.88.82c-.16-.08-.38.09-.54-.1Z"/><path class="cls-20" d="M65.29,81.85l0,.46c-.19.39-.68.55-.8,1.14a1.06,1.06,0,0,0,.6-.41l.51.3c-.19.47-.57.66-.78,1s.13.36.24.52c-.06.39-.4.54-.64.81l-.17-.47c-.45.2-.56.7-.82,1a14.44,14.44,0,0,0-2.09,3c-.1.25,0,.54-.22.75a.84.84,0,0,1-.73-.12c.86-1,1.09-2.25,1.89-3.21.23-1.17,1.21-2,1.63-3a2.17,2.17,0,0,1,.65-.93A2.45,2.45,0,0,0,65.29,81.85Z"/><path class="cls-21" d="M59.31,64.5a1.74,1.74,0,0,0,1.29-.26c.33-.31.81-.14,1.11-.46a2.67,2.67,0,0,1-.14.77,5.11,5.11,0,0,1-1,1.23c-.13.17-.41.28-.19.62a6.23,6.23,0,0,1,.71-.41c.15-.06.17.07.17.19-.35.64-1,1-1.43,1.56L60,68c-.37.28-.56.75-1.1.87-.35-.45.63-1-.23-1.39l.78-.75c-.32-.36-.47.42-.79.17s0-.41.13-.58l-.21-.23c.33-.56,1-.66,1.4-1.22C59.89,64.53,59.35,65,59.31,64.5ZM60,65.64c.64-.43,1.12-.7,1.25-1.37A1.58,1.58,0,0,0,60,65.64Z"/><path class="cls-22" d="M57.15,71.94a1.7,1.7,0,0,0,.24-1.2,1.3,1.3,0,0,0,1,.23.18.18,0,0,0,.17-.23c.14,0,.32-.08.45.09.14.41-.3.49-.44.74,0,.13.26.18.22.41l-.92.68h-.14c-.26.15,0,.44-.11.55l-3.11,2.62c-.13.32.12.4.18.57l-1,1H53c.39-.34.26-.72.29-1.07A18.45,18.45,0,0,0,57.59,72C57.47,71.86,57.29,72,57.15,71.94Z"/><path class="cls-23" d="M71.64,114.89l-.28,0a4.1,4.1,0,0,0,.42-1.79l-.49-.37c.75-1.25.42-2.53.45-3.78-.2.25-.29.54-.55.7a.27.27,0,0,1-.12-.31c.46-1.13.63-2.35,1.18-3.46a2.26,2.26,0,0,0,0-.9c.1-.16.22-.13.43-.14,0,1.33-.8,2.45-.92,3.69.09.2.28.13.5.24a19.12,19.12,0,0,1-.16,3.09C71.84,112.82,72.25,113.92,71.64,114.89Z"/><path class="cls-24" d="M56,76.29c.28-.23.55-.49.81-.75.35.32,0,.43-.11.61.17.27.57-.08.72.3,0,.37-.42.51-.63.79s-.66.23-.82.61l.53.18a7.55,7.55,0,0,0-1.29,1.55c.09-.8-.14-1.38.31-1.91-.17-.31-.66-.25-.75-.65.06-.67.71-.82,1.09-1.22.2.13,0,.32.14.49-.15-.05-.22,0-.25.11s.06.08.07.07A.21.21,0,0,0,56,76.29Z"/><path class="cls-25" d="M108,107.76a1.74,1.74,0,0,1-1,1.45c-.43-.7.08-1.29.1-1.9a4.55,4.55,0,0,1,.47-1.71c.27-.57.28-1.29,1-1.55v-1.28l.34-.32s.12.07.13.12a6.3,6.3,0,0,1-.59,2.73,15,15,0,0,1-1.26,3C107.59,108.07,107.73,107.85,108,107.76Z"/><path class="cls-26" d="M62.2,108.68c.12.52-.44.88-.22,1.37.37,0,.08-.34.37-.41a5.75,5.75,0,0,1,.09,1.32l-.43.15c-.19.27.08.63-.17.9l-.38-.35c0-.31-.1-.77.08-1s-.29-.51,0-.78a.54.54,0,0,0,0-.86,2,2,0,0,1,.81-1.07l.32.27c-.06-1.12.63-2,.49-3l.6-.65a.25.25,0,0,1,.12.32c-.15.5-.32,1-.47,1.48s-.33,1.14-.48,1.72A.67.67,0,0,1,62.2,108.68Z"/><path class="cls-26" d="M90.72,114.92l-.38-.06c-.16-.29,0-.61-.07-.91s.37-.41,0-.63c.14-.27.41-.32.65-.42.16-.28-.09-.42-.22-.54a13.48,13.48,0,0,0,.77-2.75,5.83,5.83,0,0,1,1-2.42c.22.23.08.36,0,.54a10.83,10.83,0,0,0-1.07,4.1,7.14,7.14,0,0,1-.56,2.27C90.81,114.35,90.8,114.62,90.72,114.92Z"/><path class="cls-27" d="M64.59,106.84v-.71l.35-.34c.11.06.12.16.13.28,0,.33-.06.66,0,1a5.07,5.07,0,0,1-.31,2c-.19.48,0,1.1-.55,1.41,0-.92-.81-1.92.17-2.89l-.22-.26Z"/><path class="cls-28" d="M100.83,117.06q0,.24.24.24c-.41.56-1.13.63-1.67,1a25.61,25.61,0,0,1-2.9,1.62c-.06,0-.15,0-.23,0a.19.19,0,0,0-.18-.24c-.17,0-.32,0-.3-.24,0-.46.5-.09.64-.29.29-.43.87,0,1.15-.42s.77-.24,1.12-.48.76-.36,1-.71C100.23,117.7,100.45,117.2,100.83,117.06Z"/><path class="cls-29" d="M95.2,111.78c.2.08,0,.39.25.47.31-.47-.19-1.12.33-1.54l-.23-.26c-.06-.34.36-.49.33-.9.42.8-.13,1.47-.09,2.17s-.44,1.34-.2,2.09l-.56.44v1.48a7.06,7.06,0,0,1-.08-3.19c.11-.29-.12-.3-.13-.45S95,111.74,95.2,111.78Z"/><path class="cls-27" d="M61.23,66.18c0-.12,0-.25-.17-.19a6.23,6.23,0,0,0-.71.41c-.22-.34.06-.45.19-.62a5.11,5.11,0,0,0,1-1.23,2.67,2.67,0,0,0,.14-.77A1,1,0,0,1,63,63.7l.2.08c-.09.58-.84.53-1,1.09-.08.29-.5.44-.45.87C61.7,65.94,61.48,66.14,61.23,66.18Z"/><path class="cls-29" d="M68.38,104.55a2.79,2.79,0,0,1-.15,1.14c-.43,1-.51,2.09-1,3.08a1.37,1.37,0,0,0,0,.7.53.53,0,0,1-.24.5l.23.26c-.18.2-.51,0-.68.33a7,7,0,0,0,.23-1.38,2.14,2.14,0,0,1,.31-1.17c.32-.47,0-.94.18-1.38,0-.18.25-.1.38-.18s0-.43.09-.55C68.09,105.52,68.1,105,68.38,104.55Z"/><path class="cls-30" d="M106.35,103.36c.37-.09.45-.53.92-.44,0,.27-.29.38-.46.6.16.6-.19,1.15-.34,1.92a24,24,0,0,0-.6-2.6.53.53,0,0,1,0-.35c.49-1,.08-2,.31-3.14l.38-.2c.2.67-.36,1.33-.24,2.07A13.85,13.85,0,0,1,106.35,103.36Z"/><path class="cls-31" d="M75.39,109.29a1.41,1.41,0,0,1,.65-.47c.18-.08.3-.28.58-.54-.08,1-.82,1.45-1,2.18a8.83,8.83,0,0,0-.2,2.16L75,113c-.31-.15,0-.53-.25-.69l-.25.23c-.38-.46,0-.88.22-1.12A3,3,0,0,0,75.39,109.29Z"/><path class="cls-32" d="M116.91,69.78q-.25,0-.24.24a2,2,0,0,1-1.21-1.2c-.44-.93-1-1.83-1.43-2.75-.11-.22-.51,0-.48-.37.18,0,.46.12.48-.24.39,0,.15.47.45.59s.25.43.28.71a1,1,0,0,0,.25.47A4.92,4.92,0,0,1,116.24,69C116.39,69.34,116.75,69.46,116.91,69.78Z"/><path class="cls-33" d="M111.63,101.16v-.78L112,100s.13.1.13.15a13.44,13.44,0,0,0-.18,3.51l-.45.44c-.19-.47,0-.94-.11-1.39-.34-.1-.14.24-.25.31a1.76,1.76,0,0,1-.2.09c0-.67-.16-1.38.43-1.92C111.39,101.18,111.48,101.19,111.63,101.16Z"/><path class="cls-34" d="M84.06,106.64c-.56,2.23-1.07,4.25-1.58,6.31l-.27,0c0-.09-.11-.17-.1-.22.55-1.93,1-3.89,1.59-5.79C83.72,106.87,83.85,106.82,84.06,106.64Z"/><path class="cls-35" d="M55.26,32.06c.72.5,1.54.84,1.7,1.8-.32.25-.63.14-.92.13l-.68-1.41c-.47,0-.75.48-1.2.48C54,33,54,32.85,54,32.71Z"/><path class="cls-36" d="M24.68,55.75c.28.14.46.06.53.24l-.33.34c-.16-.1-.25-.32-.49-.23a4,4,0,0,1-.58-1.53c-.12-.69.34-1.25.56-1.82.48,0,.45.31.36.45-.33.51-.17,1-.23,1.57C24.46,55.14,25,55.34,24.68,55.75Z"/><path class="cls-37" d="M22.83,53.94c.07.47-.49.83-.19,1.34.13.22.41,0,.48,0s.14.19.09.28c-.26.38-.64.21-.93.24-.6-.21-.18-.92-.84-1.14.78-.46.06-1.33.8-1.72.26.35,0,.82.17,1.18C22.6,54.12,22.63,53.9,22.83,53.94Z"/><path class="cls-38" d="M57.85,31.88l-.57,1.17c-.5-.33-.48-1.24-1.31-1.2v-.67h1.3Z"/><path class="cls-39" d="M113.28,99.42c.36-.25.39-.66.58-1s.09-.69-.06-1a2.09,2.09,0,0,1,0-.71c.46,0-.07.69.47.46v2l-.47.5c.27.18.19.7.68.66a.56.56,0,0,1-.46.41c-.37.05-.08-.44-.39-.46l-.19.54C113.22,100.29,113.38,99.84,113.28,99.42Z"/><path class="cls-40" d="M51.39,97.78l-.6.3c.37.4.71.17,1,.29a.58.58,0,0,1-.16.81c.14.13.31.25.21.52-.35.19-.65.11-.91-.31l.63-.63c-.69.12-1.13.49-1.65.2.17-.64.79-.88,1.1-1.35C51.14,97.63,51.27,97.57,51.39,97.78Z"/><path class="cls-41" d="M103.49,112.57c-.12.2-.25.16-.36.17s-.07,0-.09-.07a.24.24,0,0,1-.05-.1,7.92,7.92,0,0,1,0-2,17.21,17.21,0,0,1,.58-2.38c.05-.12.17-.27.33-.25s.33.26.49.36c-.16.27-.44,0-.71.25.19.85-.29,1.7-.29,2.64C103.42,111.66,103.15,112.15,103.49,112.57Z"/><path class="cls-30" d="M70.53,107.16c.09.53.15.93-.24,1.2s-.12.71-.3,1.07a2.51,2.51,0,0,0-.34,1.74c-.36.2-.21.72-.72.82.2-.8.35-1.62.63-2.4S69.74,107.84,70.53,107.16Z"/><path class="cls-42" d="M98.28,113.19H97.8c-.22-.24-.06-.37.09-.51-.33-.53-.12-1.11-.2-1.72.65-.4.24-1.35,1-1.94C98.54,110.49,97.87,111.74,98.28,113.19Z"/><path class="cls-43" d="M50.43,38.58c.37.14.33.53.49.77-.08.22-.26.18-.38.2s0,.21.05.26.06.22.08.42a2.23,2.23,0,0,1-.66-.29c-.21-.21-.61-.36-.53-.72s-.36-.44-.25-.76.52,0,.48-.36c.21,0,.26.12.23.28-.06.35.19.48.49.81Z"/><path class="cls-20" d="M61.71,85.86A2.56,2.56,0,0,1,61,87c-.43.32-.49.9-.95,1.18.18.2.34.1.49.13v.24L59.24,89c.25-.83,1-1.25,1-2l1.18-1.34Q61.46,85.86,61.71,85.86Z"/><path class="cls-44" d="M86.27,108.19h.28c.21.27.1.58.09.86l-.44.44c.29.25.32.5,0,.74l.22.25c-.7.18-.59.86-.82,1.31-.14,0-.27,0-.36-.12A31.48,31.48,0,0,0,86.27,108.19Z"/><path class="cls-27" d="M81.15,113.17c-.29,0-.5.07-.62.34-.25-.54.21-.62.35-.87.17-.54-.2-1.17.24-1.7-.09-.26-.55-.33-.43-.75.17-.18.21.09.33.13.28-.14.36-.44.53-.77.26.69-.19,1.25-.22,1.85S81.15,112.52,81.15,113.17Z"/><path class="cls-45" d="M56.5,102.14a.31.31,0,0,1,0-.35c.34-.29.46.09.67.24-.12.88-.7,1.72-.29,2.77-.1.17-.35-.09-.57.08C56,103.89,56.56,103.12,56.5,102.14Z"/><path class="cls-24" d="M57.17,78.51c-.08.95-.77,1.33-.91,2l.18.22a1.81,1.81,0,0,1-1,0c.39-.31.16-.74.33-1.14A4.09,4.09,0,0,0,57.17,78.51Z"/><path class="cls-23" d="M101.06,110.11c.15.69-.32,1.31-.26,2s-.38,1.25-.19,1.9l-.36.35a.18.18,0,0,1-.14-.24,20.75,20.75,0,0,0,.47-3.13C100.62,110.73,100.6,110.73,101.06,110.11Z"/><path class="cls-39" d="M93.39,109.39a7.28,7.28,0,0,1,0,2.23c-.23.59,0,1.3-.59,1.87l-.32-.45c.17-.58.32-1.21.54-1.77S92.94,110.08,93.39,109.39Z"/><path class="cls-46" d="M115.66,93.69a1,1,0,0,1,.49,1.39,7.77,7.77,0,0,0-.21,2h-.47C115.42,96,115.92,94.93,115.66,93.69Z"/><path class="cls-33" d="M110.66,105.89c-.25.21-.4.57-.86.64-.37-1,.58-1.61.59-2.56.56.52.08.81,0,1.14C110.7,105.26,110.67,105.52,110.66,105.89Z"/><path class="cls-42" d="M83.28,110.73l.38-.38.38.35a11.05,11.05,0,0,1-.9,2.52C82.82,112.34,83.58,111.55,83.28,110.73Z"/><path class="cls-22" d="M58.55,70.79c-.42-.3,0-.49,0-.7-.35-.31-.5.37-.82.14l-.08-.08a2.33,2.33,0,0,1,.41-.42,1.52,1.52,0,0,1,1.51-.36C59.49,70.08,58.71,70.2,58.55,70.79Z"/><path class="cls-47" d="M63.87,104.27c0-.19-.07-.41,0-.56a16.69,16.69,0,0,0,.85-2.74c0-.09.15-.15.33-.31C65.11,102.07,64.3,103.13,63.87,104.27Z"/><path class="cls-48" d="M60.29,72l-1.11,1.09L59,73c-.3,0-.33.35-.59.37a.23.23,0,0,1-.07-.31c.34-.38.7-.73,1.06-1.1l.2.2c.22,0,.11-.19.18-.28s.31-.36.37-.33C60.39,71.62,60.19,71.87,60.29,72Z"/><path class="cls-49" d="M64.11,59.46a6.54,6.54,0,0,1-1,.73c-.38.14-.52.68-1.06.73a3,3,0,0,1,1.39-1.7C63.5,59.68,63.87,59.37,64.11,59.46Z"/><path class="cls-50" d="M20.81,56.41c.1-.39.19-.64.47-.75,0,0,.09.07.1.13.06.32-.17.7.26.9-.32.32-.45,0-.62-.1-.12.08-.18.26-.47.21s-.42-.66-.69-1.08C20.53,55.48,20.58,56,20.81,56.41Z"/><path class="cls-25" d="M70.92,110.54l.4.42c-.13.55-.63,1-.5,1.59,0,.13,0,.14-.73.47A23.27,23.27,0,0,1,70.92,110.54Z"/><path class="cls-29" d="M68.47,104.59a5.85,5.85,0,0,1,1.07-2.87A7.73,7.73,0,0,1,68.47,104.59Z"/><path class="cls-51" d="M55,71.7c0-.25-.39-.31-.24-.61a.29.29,0,0,1,.48,0c.16.16.34.31.48.43v.65c0,.18.12.46-.24.48,0-.39-.42-.12-.48-.38Z"/><path class="cls-22" d="M52.23,100.26c.28,0,.56-.1.81.09,0,.08.05.2,0,.22a5,5,0,0,1-.63.37s-.11-.11-.22-.21l-.84,1c-.31-.24-.17-.46-.26-.68C51.58,101,51.84,100.63,52.23,100.26Z"/><path class="cls-29" d="M76.57,104.6h.49A3.56,3.56,0,0,1,76.2,107C76.26,106.16,76.76,105.44,76.57,104.6Z"/><path class="cls-49" d="M63.57,80.3c0,.27.37.29.35.38l-1.5,1.5A9,9,0,0,1,63.57,80.3Z"/><path class="cls-52" d="M51.74,76.54c-.06-.15-.13-.27-.11-.28l1.55-1.32C53.23,75.59,53.23,75.59,51.74,76.54Z"/><path class="cls-14" d="M42.51,40.26a.86.86,0,0,0-.28.66,1.21,1.21,0,0,1-1.16-.18c.19-.54.69-.6,1.14-.72C42.37,40,42.52,40,42.51,40.26Z"/><path class="cls-53" d="M61.71,85.86q-.26,0-.24-.24c.18-.47.71-.69.86-1.2.09-.3.51-.26.73-.45.18.2.07.34-.08.5A8,8,0,0,0,61.71,85.86Z"/><path class="cls-54" d="M62.91,57.06a4.78,4.78,0,0,0-1.48.88c-.2.2-.37.39-.68.32a5.18,5.18,0,0,1,1.92-1.68q0,.24.24.24Z"/><path class="cls-55" d="M63.63,88.86A3,3,0,0,1,65,87c-.19.77-.85,1.22-1,1.91A.31.31,0,0,1,63.63,88.86Z"/><path class="cls-47" d="M66.24,102.15a5.53,5.53,0,0,1,.88-2.35A3.14,3.14,0,0,1,66.24,102.15Z"/><path class="cls-56" d="M108,59.69c-.62.05-.32-.64-.75-.68-.17,0-.24.3-.33.26-.32-.13-.31-.27-.26-.48H108A1.39,1.39,0,0,1,108,59.69Z"/><path class="cls-27" d="M82.5,107c-.31.77-.21,1.67-.78,2.33A4,4,0,0,1,82.5,107Z"/><path class="cls-57" d="M57.1,29.64l.28-.24c.35.37.94.55.94,1.34A2.3,2.3,0,0,1,57.1,29.64Z"/><path class="cls-58" d="M112.15,98.06v-2.2l.29-.45c.44.57-.23.9-.11,1.38a5.37,5.37,0,0,1,0,1.27Z"/><path class="cls-59" d="M89.31,110.1c-.36,0-.21-.3-.24-.48a1.89,1.89,0,0,1,.7-1.45C89.87,108.91,89.32,109.45,89.31,110.1Z"/><path class="cls-60" d="M31.71,57.54c.29-.39.29-1,.84-1.2-.3.53.11,1.29-.6,1.68C31.91,57.84,32.07,57.56,31.71,57.54Z"/><path class="cls-61" d="M101,101.32v1.57c0-.65-.66-1.21-.31-2Z"/><path class="cls-62" d="M98,103.82v-2.56a2.16,2.16,0,0,1,.19,1.27c0,.43,0,.86,0,1.29Z"/><path class="cls-63" d="M60.27,108.18c-.23,0-.24-.14-.24-.3s0-.55,0-.81c0-.09-.12-.16-.19-.24.24-.16.48-.06.71-.09C60.68,107.26,60.27,107.68,60.27,108.18Z"/><path class="cls-58" d="M51.87,36.18a3,3,0,0,1-.38,1.76,5.42,5.42,0,0,1-.1-1.52Z"/><path class="cls-44" d="M84.85,113.87c-.26-.9.34-1.3.49-1.86C85.84,112.75,85,113.11,84.85,113.87Z"/><path class="cls-64" d="M117.15,91.38c-.25-.39-.26-.38-.22-1.1.07-.12.19-.1.37-.1.2.37,0,.8.09,1.2Z"/><path class="cls-52" d="M104.81,58c.57.11.88.44,1.49.25C105.4,58.94,105.33,58.92,104.81,58Z"/><path class="cls-65" d="M47.55,101.46c-.33,0-.17-.31-.3-.4a1.4,1.4,0,0,0-.4-.16c0-.23-.17-.49.2-.68a1.27,1.27,0,0,1,.5,1Z"/><path class="cls-56" d="M108.39,61.62l-.37-.71a.58.58,0,0,1,.7-.49c-.23.41-.35.77,0,1.11C108.63,61.67,108.5,61.6,108.39,61.62Z"/><path class="cls-31" d="M75.59,108.87c.08-.79.48-1.14.59-1.6C76.37,107.84,76.37,107.84,75.59,108.87Z"/><path class="cls-15" d="M50,96.65a1.06,1.06,0,0,1-.41,1,1.72,1.72,0,0,1,0-.93Z"/><path class="cls-66" d="M117.15,91.38h.24v1.44c-.22,0-.24-.13-.24-.29Z"/><path class="cls-67" d="M59.09,87a.63.63,0,0,1,.92-.34A.64.64,0,0,1,59.09,87Z"/><path class="cls-68" d="M60.27,105.06c-.41-.08-.24-.54-.48-.72,0-.31.21-.26.48-.18Z"/><path class="cls-69" d="M116,101.2v-.65c.29,0,.29.28.45.29C116.46,101.19,116.31,101.25,116,101.2Z"/><path class="cls-70" d="M44.69,100.76h.64c0,.28-.27.29-.29.45C44.69,101.25,44.63,101.1,44.69,100.76Z"/><path class="cls-20" d="M60.57,88.26l.66-.57A.57.57,0,0,1,60.57,88.26Z"/><path class="cls-39" d="M93.42,109.57v-1.16C93.69,109.12,93.69,109.12,93.42,109.57Z"/><path class="cls-71" d="M116,102.53v.24a.3.3,0,0,1-.39.1c-.14-.09-.08-.22-.09-.33A.29.29,0,0,1,116,102.53Z"/><path class="cls-72" d="M115.47,99.8h.43l.07.35C115.65,100.34,115.45,100.33,115.47,99.8Z"/><path class="cls-16" d="M109.71,61.74V61.5a.29.29,0,0,1,.38-.09c.15.08.08.21.1.32A.28.28,0,0,1,109.71,61.74Z"/><path class="cls-73" d="M112.21,60.66c.18.2.53.29.28.72C112.3,61.17,112,61.08,112.21,60.66Z"/><path class="cls-23" d="M101.1,110.06v-.67C101.32,109.78,101.32,109.78,101.1,110.06Z"/><path class="cls-61" d="M121,85.86h.24c-.09.23.22.61-.24.72Z"/><path class="cls-29" d="M95.86,108.71a.48.48,0,0,1,.06.67C95.65,109.16,95.9,108.91,95.86,108.71Z"/><path class="cls-44" d="M84.63,114.15a.69.69,0,0,1,0,.78A.66.66,0,0,1,84.63,114.15Z"/><path class="cls-37" d="M22.82,53.94l0-.4c.18-.11.31-.12.43,0A.67.67,0,0,1,22.82,53.94Z"/><path class="cls-33" d="M110.88,103.17v.68C110.65,103.45,110.65,103.45,110.88,103.17Z"/><path class="cls-15" d="M49.34,95.67a.68.68,0,0,1,0,.78A.69.69,0,0,1,49.34,95.67Z"/><path class="cls-74" d="M43,99.42a.69.69,0,0,1,.78,0A.69.69,0,0,1,43,99.42Z"/><path class="cls-54" d="M60.75,58.26c0,.18.12.46-.24.48q0-.26-.24-.24C60.29,58.14,60.57,58.29,60.75,58.26Z"/><path class="cls-66" d="M117.35,92.69c.32.27.34.42.18.59C117.28,93.19,117.43,93,117.35,92.69Z"/><path class="cls-15" d="M50.09,96.2c.15.16.16.4,0,.44s0-.22-.1-.32Z"/><path class="cls-23" d="M71.19,114.42a.28.28,0,0,1,0-.48A.29.29,0,0,1,71.19,114.42Z"/><path class="cls-23" d="M71.43,113.22a.29.29,0,0,1,0,.48A.28.28,0,0,1,71.43,113.22Z"/><path class="cls-29" d="M66.86,111.52c.17.19.16.32,0,.47C66.64,111.9,66.71,111.74,66.86,111.52Z"/><path class="cls-44" d="M86.31,110.8c.15.2.16.33,0,.47C86.08,111.17,86.15,111,86.31,110.8Z"/><path class="cls-20" d="M60.47,88.37c.32.27.34.42.18.59C60.4,88.87,60.55,88.65,60.47,88.37Z"/><path class="cls-15" d="M46.48,101.66c-.28.32-.43.34-.59.18C46,101.59,46.19,101.74,46.48,101.66Z"/><path class="cls-49" d="M63.63,80.34a.17.17,0,0,1,.14-.22s.08.06.07.07A.17.17,0,0,1,63.63,80.34Z"/><path class="cls-15" d="M46.35,101.7q0-.26.24-.24A.21.21,0,0,1,46.35,101.7Z"/><path class="cls-22" d="M51.87,100.5a.18.18,0,0,1-.22-.15l.07-.07A.18.18,0,0,1,51.87,100.5Z"/><path class="cls-51" d="M55.23,72.9q0-.25.24-.24A.21.21,0,0,1,55.23,72.9Z"/><path class="cls-27" d="M63.15,63.78q0-.26.24-.24A.21.21,0,0,1,63.15,63.78Z"/><path class="cls-26" d="M61.59,112.5q.16.12,0,.24Q61.43,112.62,61.59,112.5Z"/><path class="cls-33" d="M110.67,105.3a.17.17,0,0,1,.14-.22s.08.06.07.07A.17.17,0,0,1,110.67,105.3Z"/><path class="cls-15" d="M49.47,98q-.12.17-.24,0Q49.35,97.82,49.47,98Z"/><path class="cls-60" d="M31.47,57.78q0-.26.24-.24A.21.21,0,0,1,31.47,57.78Z"/><path class="cls-53" d="M40.11,47.94c-.65.32-.28,1.12-.71,1.55.15.48-.29.86-.25,1.33-.07,0-.2-.06-.2-.09a5.11,5.11,0,0,1,.18-2.39c.2-.43.13-.46.79-.88C40.22,47.53,40.07,47.77,40.11,47.94Z"/><path class="cls-21" d="M45.39,58.5a1.23,1.23,0,0,0,.49-.93,19.06,19.06,0,0,1,.56-1.92c0-.1.17-.17.25-.26a.42.42,0,0,1,.09.61,4.35,4.35,0,0,0-.69,2.48c0,.16-.14.33-.22.5A.6.6,0,0,1,45.39,58.5Z"/><path class="cls-75" d="M44.19,57.54h.37c.29-.45-.06-1,.22-1.45s.21-.83.58-1.24c.15,1.07-.58,1.94-.45,2.93C44.67,57.69,44.3,58,44.19,57.54Z"/><path class="cls-41" d="M52.74,72.35c.26.81-.18,1.43-.41,2.07-.08.22-.26.49-.62.37A9.7,9.7,0,0,1,52.74,72.35Z"/><path class="cls-53" d="M46.35,59.22c-.13-.41.24-.71.24-1.1,0-.61.41-1.14.2-1.93l.53.52a15.5,15.5,0,0,0-.73,2.51Z"/><path class="cls-76" d="M52.07,42.07c.15,1-.47,1.66-.19,2.45C51.27,43.12,51.27,43.12,52.07,42.07Z"/><path class="cls-77" d="M49.23,61.86c.41-1.64.41-1.65,1-2a14.47,14.47,0,0,0-.74,2.5C49.11,62.32,49.26,62,49.23,61.86Z"/><path class="cls-78" d="M33.69,49.18V47.77c.19-.1.44-.08.66-.26C34,48,34.33,48.75,33.69,49.18Z"/><path class="cls-59" d="M54.27,71.94a.21.21,0,0,0,.24-.24h.24c0,.35,0,.7,0,1a.58.58,0,0,1-.4.59c-.26-.35,0-.62.17-.93Z"/><path class="cls-79" d="M32.63,57.83V59h-.35C31.9,58.46,32.58,58.22,32.63,57.83Z"/><path class="cls-59" d="M48.75,59.94v1.2c-.24-.09-.61.22-.72-.24h.36c.23-.23.06-.52.12-.78A.19.19,0,0,1,48.75,59.94Z"/><path class="cls-76" d="M52.11,45.54l-.48.24v-.94H52C52.18,45.07,52.08,45.31,52.11,45.54Z"/><path class="cls-80" d="M42,56.71a1.13,1.13,0,0,1-.9,0v-.33C41.5,56.14,41.65,56.76,42,56.71Z"/><path class="cls-81" d="M30.46,54.82l.41-.4c.3,0,.44.17.59.41A1.56,1.56,0,0,1,30.46,54.82Z"/><path class="cls-45" d="M31.58,56.34a.28.28,0,0,1,.09.39.64.64,0,0,1-.68,0C31.15,56.52,31.27,56.31,31.58,56.34Z"/><path class="cls-51" d="M31.46,55.62l0-.4c.18-.11.31-.12.43,0A.67.67,0,0,1,31.46,55.62Z"/><path class="cls-53" d="M46.59,59.22c.36,0,.2.3.24.48C46.47,59.68,46.62,59.4,46.59,59.22Z"/><path class="cls-82" d="M49.27,102.93l0-.35c.05,0,.09-.15.14-.16.64,0,1.27,0,1.88,0,.39.36,1,.42,1.12,1.21A4.72,4.72,0,0,0,49.27,102.93Z"/><path class="cls-83" d="M90.37,121.29c.61-.24,1-.57,1.55-.31A1.52,1.52,0,0,1,90.37,121.29Z"/><path class="cls-84" d="M47.91,97.87c-.3-.43-.08-.71.26-1,.18.28.09.58.07.91Z"/><path class="cls-61" d="M120.69,86.87c-.29-.24-.09-.63-.48-.67.48-.68.16-1.38.32-2a9.38,9.38,0,0,0,.29-1.91,10.83,10.83,0,0,1,.18,2.26A13.47,13.47,0,0,1,120.69,86.87Z"/><path class="cls-31" d="M120.56,81.5c.13-1.16-.41-2.21-.57-3.47C120.84,78.68,121,79.58,120.56,81.5Z"/><path class="cls-66" d="M62.19,61.86c-.12-.46-.49-.15-.72-.24.11-.55.56,0,.78-.26a5.36,5.36,0,0,1,2-1.38c.24.42,0,.87-.35.88C63.13,60.9,62.77,61.55,62.19,61.86Z"/><path class="cls-85" d="M52.59,60.66c0-.73-.18-1.49.34-2.13.52.54-.32,1-.06,1.57.12.15.29,0,.44.08C53.23,60.59,52.77,60.41,52.59,60.66Z"/><path class="cls-86" d="M64.32,62.09c.09.42-.16.53-.31.71H63c0-.39.25-.49.56-.46A1.1,1.1,0,0,0,64.32,62.09Z"/><path class="cls-59" d="M48.78,59.9v-.67C49,59.62,49,59.62,48.78,59.9Z"/></g></g></g></svg>