<svg xmlns="http://www.w3.org/2000/svg" viewBox="0 0 107.62 181.98"><defs><style>.cls-1{fill:#060606;}.cls-2{fill:#2a2a2a;}.cls-3{fill:#212121;}.cls-4{fill:#171717;}.cls-5{fill:#0a0a0a;}.cls-6{fill:#090909;}.cls-7{fill:#3a3a3a;}.cls-8{fill:#424242;}.cls-9{fill:#3d3d3d;}.cls-10{fill:#4c4c4c;}.cls-11{fill:#4d4d4d;}.cls-12{fill:#363636;}.cls-13{fill:#343434;}.cls-14{fill:#0b0b0b;}.cls-15{fill:#333;}.cls-16{fill:#585858;}.cls-17{fill:#303030;}.cls-18{fill:#242424;}.cls-19{fill:#313131;}.cls-20{fill:#262626;}.cls-21{fill:#323232;}.cls-22{fill:#2c2c2c;}.cls-23{fill:#5d5d5d;}.cls-24{fill:#2d2d2d;}.cls-25{fill:#373737;}.cls-26{fill:#3f3f3f;}.cls-27{fill:#434343;}.cls-28{fill:#2e2e2e;}.cls-29{fill:#383838;}.cls-30{fill:#181818;}.cls-31{fill:#c9c9c9;}.cls-32{fill:#222;}.cls-33{fill:#353535;}.cls-34{fill:#4a4a4a;}.cls-35{fill:#1d1d1d;}.cls-36{fill:#4f4f4f;}.cls-37{fill:#515151;}.cls-38{fill:#565656;}.cls-39{fill:#4e4e4e;}.cls-40{fill:#555;}.cls-41{fill:#494949;}.cls-42{fill:#6e6e6e;}.cls-43{fill:#252525;}.cls-44{fill:#484848;}.cls-45{fill:#535353;}.cls-46{fill:#505050;}.cls-47{fill:#525252;}.cls-48{fill:#2f2f2f;}.cls-49{fill:#454545;}.cls-50{fill:#2b2b2b;}.cls-51{fill:#3c3c3c;}.cls-52{fill:#5b5b5b;}.cls-53{fill:#595959;}.cls-54{fill:#474747;}.cls-55{fill:#6d6d6d;}.cls-56{fill:#414141;}.cls-57{fill:#bdbdbd;}.cls-58{fill:#5a5a5a;}.cls-59{fill:#818181;}.cls-60{fill:#656565;}.cls-61{fill:#4b4b4b;}.cls-62{fill:#afafaf;}.cls-63{fill:#646464;}.cls-64{fill:#919191;}.cls-65{fill:#5e5e5e;}.cls-66{fill:#b1b1b1;}.cls-67{fill:#5f5f5f;}.cls-68{fill:#404040;}.cls-69{fill:#858585;}.cls-70{fill:#cacaca;}.cls-71{fill:#ccc;}.cls-72{fill:#c5c5c5;}.cls-73{fill:#c8c8c8;}.cls-74{fill:#969696;}.cls-75{fill:#b2b2b2;}.cls-76{fill:#c1c1c1;}.cls-77{fill:#131313;}.cls-78{fill:#3e3e3e;}.cls-79{fill:#3b3b3b;}.cls-80{fill:#7c7c7c;}.cls-81{fill:#b9b9b9;}.cls-82{fill:#121212;}.cls-83{fill:#b7b7b7;}.cls-84{fill:#6c6c6c;}.cls-85{fill:#202020;}.cls-86{fill:#080808;}.cls-87{fill:#151515;}.cls-88{fill:#393939;}.cls-89{fill:#8f8f8f;}.cls-90{fill:#949494;}.cls-91{fill:#777;}.cls-92{fill:#444;}.cls-93{fill:#bababa;}.cls-94{fill:#111;}.cls-95{fill:#8c8c8c;}</style></defs><g id="Calque_2" data-name="Calque 2"><g id="star-balloons"><g id="star"><path class="cls-1" d="M72,143.75l1.79-2,.31.26-1.75,2.19,1.4-.17.91.47,1.66.37.76.57h0l1.74.44,1.4.06.68.47,1.67-.27.31.3,1.87.43.68.52.25.17,1.23-.21c0-.18.07-.36.11-.54l.41-.15.52.48-.53.69,2.36.48.79.45.93.14,3.21-3.4.67.64-2.93,1.67.73.76,1.43-1.2v.75c-.08.75,0,1.41,1,1.2l.9.38.47,0h.23l1.93-.23h0l1.23-.2,3.6-2.66,1,1.21-.93,1.26h0l-2,1.32-6.22.82h-.24l-.46-.09h0l-.15-.18-.17.15h0a.21.21,0,0,0-.21.06l-12.9-3.06v-.05l-6.8-1.51-4.28-.5-.06-1.05Z"/><path class="cls-2" d="M22.33,138.71c1.7-1.58,1.61-4.54,4.16-5.52l-3.35,5.28,4.55,1.22c.37-3,2.19-4.9,4.09-6.88h6c-5.77,1.2-9.39,2.1-9.15,6.87H30c.56-2.13,1.63-3.91,4.72-6.54-2.22,3.08-4,4.35-4,6.6h2l3.4-6.06.3.78-3.09,5.19,1.29,0c1.44-2,1.89-4.75,5.18-6.06l-3.15,5.77,1.92.51-2.86.77-3.92-.2V141h3.42l4.53.94c-8.1.55-15.94-.43-23.31-4.09l7.14,1.92Zm13.06.72.51.31,2.21-4.35-.3-.16Q36.6,137.33,35.39,139.43Z"/><path class="cls-3" d="M49.18,157.7l-2,2.41-.65.48-1.21.73h-1.4c-.5-6.13,1.17-12.58-2.69-18.21l3.37.69.25.06c-.11.91-.22,1.82-.3,2.44l1.49,1.34.71,1.88.73-3.5-.17-1,2.15-2.86c-.72,1.72-.84,2.12-1,2.46a1.4,1.4,0,0,0-.22,1.5l.51-1.14.05.08L48.7,145l1.64-1.88.51.36-4.45,6.17.53.35,3.5-4.18.4.33-2.71,3.63-.61,1L46.12,152a.3.3,0,0,1-.08-.18l0-.3-1-.09.22,2.51v.32l.28-.26.06,0,.15.65v.63l1.23-.33h0l.23-.22h0l.48.24h0l-.25.24h0l-.24.25-.09.23-.17.2-.26,1,1.05-.94.19-.24h0l.22.45c-.87,1.1-2.19,2-1.72,3.79L49.17,157l.26-.23h0l.21.44h0Zm-3.55-9.35a.83.83,0,0,0-.08-.22l-.46-.63.19,2.63.44,0Z"/><path class="cls-4" d="M54.29,105.12c4.7,4.78,9.48,3.84,16.76-3.3,1.22-1.19,2.42-2.4,3.63-3.61l.44-.48h0l.42-.32h0l1,0H77a1.49,1.49,0,0,0,0,.21l0,0-.65.54v0l-.27.23c-3,4.5-10.69,9.88-16.67,11.65l-2.27-1.52-.34.48,2.73,1.9,1.9-.3-.28.68c-4.33,1.16-5.4-2.6-7.43-4.91l0-.55h-.24l-.17-.24-.07-.47.55-.3h0Z"/><path class="cls-5" d="M33.58,123.84l-1.34.33c5.58-5,5.14-11,4-17.08l-.23-.93-.26-.21.53-.6.28.2,1.41,1,.71,1.47.26.53.44.32c-1.19.64-.28,1.46-.23,2.41l.71-.87.23.7-.3.44.35.08.24.5L39,115.59l3.77-3c-1.94,2.15-2.79,3.1-3.65,4L38,118.13l.2-1.27-.8,1.28v-.06l0,0-.29,1.67.57-.93c.84,1.21-.62,1.66-.85,2.73l.08.85h0l-.69.3-.21.22H35l-.22.22,0,0-.68.3Zm4.47-7.35h.29v-2.8h-.29Zm1.7-4.59-.62.36.34.38Z"/><path class="cls-6" d="M34.52,95.74a.25.25,0,0,1,.06-.16l.42.64-.29.29,0,1.22.38.86.85-2L36,98v1l-1,1.79-.92-1.08a.22.22,0,0,1,0-.22l-.21-1h0l-.24-1.21c-1.39-4.58-4.13-8.93-2.18-14.06.79-2.09,1.93-2.66,3.87-1.53l.27.51-.74.93-.24-.92c-2.25.7-1.55,2.75-3,5.92l1.56-2.45,0,.56-.48,1.89h-2l2.17,1.23h0l.45.25a.41.41,0,0,1,0,.22l-.27.81-.44-.19.25,1.51,1.24,2.45.2,1.38ZM32,87.21l-.05.08h.08Z"/><path class="cls-7" d="M91.7,89.13l.72-.81c3,4-.17,6.78-2.08,9.55-4.85,7-10.13,13.7-12.83,21.93l-.21-1,3.33-8.45,0,0C84.52,104.7,88.46,99,92.29,93.2c.42-.63.33-1.76-1.09-1.46l-.47.24h0l-.51,0a.47.47,0,0,0-.22-.09.62.62,0,0,0,0-.23c.75-1.47,1.85-.32,3.21-.38Z"/><path class="cls-8" d="M101.52,140.71l-.25,1.65c-2.8-3.54-7.49-3.13-11-5.22-1.89-1.13-3.89-2-6.27-3.28l-6.5-5.18.28-.55L78,128h0C84.62,134.45,93.41,137,101.52,140.71Z"/><path class="cls-9" d="M53.82,104.87l-.55.3c-3.8-5-6.62-10.48-9.41-16-1.23-2.46-4.81-3-5.07-6.23l-.24,0C46.42,89,48.75,97.84,53.82,104.87Z"/><path class="cls-10" d="M33.58,123.84l.55-.4.68-.3,0,0L35,123h1.06c-6.87,7.1-15,6.27-23.38,3.71a37.22,37.22,0,0,0-5.21-.83l-.27-.75c0-.08,0-.16,0-.23,6.54.5,12.63,4.06,19.41,2.83A13.31,13.31,0,0,0,33.58,123.84Z"/><path class="cls-5" d="M61.68,150.54a.45.45,0,0,1,0,.2L61,148.87h0l.57.21,1.32-1.67.49-.92.77-.74,1.14-.73c.66-.79,1.32-1.58,2-2.38l.21,1,2.11-.05.83.22a.19.19,0,0,1,.16,0l-.52.28L68.4,146l-.71,1.72v-1.83c-2.38.85-4.3,1.83-3.4,5.51l-1.68-2a1.74,1.74,0,0,0-.1-.19l-.09.19a.28.28,0,0,1-.07.19l-.18.26h0l-.22.33a.19.19,0,0,1-.09.14Z"/><path class="cls-11" d="M47.75,181.48c5.48-1.47,5.44-6.53,6.86-10.61,2.15-6.13,4.23-12.28,6.34-18.43l.21.23c-2.24,6.81-4.65,13.56-6.64,20.44-1,3.44-1.43,7-5.27,8.51A10.09,10.09,0,0,1,47,182Z"/><path class="cls-12" d="M61.16,152.67l-.21-.23L61,152l0,0v.07c-1.11.69-4,8.92-4.64,13.2-.06.37-.25.71-1,2.64,1.17-7.72,2.34-13.68,5.54-19l.67,1.87Z"/><path class="cls-13" d="M45.12,161.32h.22c0,1.46,0,1.46-.71,1.44h0c-.67.93-1,1.81.42,2.44l-.87,1.4.64.74-1.3.86,1.22,1.08.86-1.75.26.4L47.68,166l.49.41c-.94,1.26-1.87,2.53-2.8,3.79-.31.11-.73.14-.9.35-1.75,2.24.44,4.82-.59,7.14-1.24-5.31-.73-10.61,0-15.91Zm-1.06,1.17h.08l0-.07Z"/><path class="cls-4" d="M43.88,177.7c1-2.32-1.16-4.9.59-7.14.17-.21.59-.24.9-.35h0l-.28.42,0,0-.14.81v.09l0,1,.24,2.16V175l.25,1-.23,1.14.08.87.63.38c.17,1.33.21,2.73,1.91,3.11L47,182C44.74,181.46,44.58,179.38,43.88,177.7Z"/><path class="cls-14" d="M45.61,167.53l-.86,1.75-1.22-1.08,1.3-.86-.64-.74.87-1.4c-1.43-.63-1.09-1.51-.42-2.44h0c.72,0,.72,0,.71-1.44l1.21-.73.49,1-1.13,1.68.55.47.57-1,.28.51h0l-.28.2-1,1.21,0,1.88Z"/><path class="cls-15" d="M44.87,143.86l-.25-.06-.52-1,1.53-1.12-1.47.65-.49-.24,2.18-2.65,0,0,3.26-2.68.29.28c-1.26,1.35-2.51,2.71-3.77,4.07l-.27.31h0l0,0,.27-.31,1.07-.5.41,1.89c.77.32.65.87,0,1.49v-1.1l-1.38,2v-2.06c-.89-.21-.82.37-.77.93Z"/><path class="cls-6" d="M44.1,142.83l.52,1-3.37-.69h0l0-1-.92.09-.48-.26L35.28,141l.5-.29,2.86-.77.29-.42.47,0-.07.23s-.07.06-.06.08a.64.64,0,0,0,.06.18l2.86,1.4.76,1,.72-.24.49.24Z"/><path class="cls-16" d="M80.63,110.4l-5.26,3.35,4.09-1.18-3.65,2.56,1.62.11-4,2.73-.36-.53,2.29-1.72c-.78-1.27.68-1.28.92-1.67-.38-2.39,1.85-2.47,2.69-3.59l0,0c.55.11,1.06-1.21,1.64,0Z"/><path class="cls-17" d="M37,122.44l-.08-.85c.23-1.07,1.69-1.52.85-2.73l.3-.73,1.07-1.45-.23,2,3.81-3.35-3.53,4.35,2.82-.76Z"/><path class="cls-18" d="M77.79,128.13l-.28.55h0l-.47.49h0l-.75,0,.2-.22.28-.28a.26.26,0,0,1,0-.15l-.23-.51L75,125.19l-1,.88-.32-.33c2.63-1.55,2-4.85,3.68-6.89l.21,1c-.92,2.41-1.9,4.83-.46,7.39l.25.28h0a2.46,2.46,0,0,1,0,.26c0,.13-.08.26,0,0,0,.29,0,.16,0,0l.27,0a.26.26,0,0,1,.2.07l0,.24Z"/><path class="cls-7" d="M17.25,136.61l-.77-.06.9-3.92a3.62,3.62,0,0,0-1.78,3.7l-1-.68.44-1c.56-1.64,1.23-3.14,3.4-2.71l.54,1.12Z"/><path class="cls-19" d="M11.36,134.63l-3.22-2.07,1,.45c.55-1.92,1-3.85,3.2-5.24l-2.68,5.47L12.54,130C12.58,131.93,9.89,132.69,11.36,134.63Z"/><path class="cls-20" d="M34.07,99.64l.92,1.08,1-1.79,2.6-3.27L37.44,98h0L37,99.15l-.06.48-.41.56-.2-.86-.83,1.81.77,4.21-.53.6A10.88,10.88,0,0,1,34.07,99.64Z"/><path class="cls-21" d="M19.44,137.12l-.7-.74c1-3.47,3.33-3.89,6.74-2.83-2.86.16-3.27,2.26-4.11,4.07l.78-.12-.53.77-.73-1.19,1.52-3.38c-.66.18-1.23.17-1.47.44C20.21,135,19,135.63,19.44,137.12Z"/><path class="cls-22" d="M7.19,125.09l.27.75-2,4.15.47.73c.77-1.47,1.47-2.82,2.34-4.47.84,2.12-2.14,3-.81,4.83l.89.71-.58.47-1.28-1.18-1.07-.15-.6-1.76,2-3.38.16-.47H7l.25-.24Z"/><path class="cls-23" d="M72,122.89l3.36-1.23-5.69,4.87c-.05,0-.13-.59.85-1.52.46-.44.94-.85,1.42-1.28l-1.35-.61,5.18-3.84.27.37-4,3.26Z"/><path class="cls-24" d="M89.77,94.84l-.24.29-.6.06.41.86L85,101.77l1.63-4.36,1.47-1.3-.59-.44c-.24-.55,1.08-.9-.45-1.5L89,93.55l-.2,1Z"/><path class="cls-6" d="M45.65,142.85v2.06l1.38-2V144l-1.29,2.9L47.33,145l.17,1-1.44,1.62-1.49-1.34c.08-.62.19-1.53.3-2.44v-.08Z"/><path class="cls-25" d="M33.09,90.6l.27-.81.35.57,1.81-4.21.29.11-2,6,.32.11,1.53-3.65.42.14-1.94,5.49L32.9,91.92Z"/><path class="cls-26" d="M46.12,152l1.39-1.19,1.18-.74,1.43-2.17c-.15,3-3.68,3.84-3.08,7l-1.23.33v-.63l-.15-.65Z"/><path class="cls-27" d="M37.94,106.58l-1.41-1-1-4.24.76-.92,1.36,5.81L38.84,104l.07-.09,1.8-2.66.39.26Q39.52,104.06,37.94,106.58Z"/><path class="cls-13" d="M13.46,135.38l-.74-.45-.43-1.87,2.13-2.52.43.32-1.22,1.78L16,131.25l-1.86,2.49.73.94-1.21-.16Z"/><path class="cls-28" d="M102.55,143.3l.44-1,2.07,3.9,2.56-1.25-2.74,2.92-1-1.21Z"/><path class="cls-29" d="M63,119.26,59.39,125l-.9-.64,4.24-5.29Z"/><path class="cls-21" d="M53,154.85l-.45,1.43c-2.16-.43-.49-2.12-1.25-3.07l1.9-.64c-.09.92-.16,1.61-.23,2.3,0-.08,0-.16,0-.05C52.92,154.74,53,154.8,53,154.85Z"/><path class="cls-25" d="M43,142.36l-.76-1c1.4-1.16,1.7-3.43,3.86-3.83l.28-.19a.42.42,0,0,1,.22,0l.21.44a.64.64,0,0,1-.18.06l-.27.22-.66.71.18.75,0,0h-1.4C44.23,140.54,42.31,140.73,43,142.36Z"/><path class="cls-30" d="M54.83,142.13,54,146.69l-.57-.07.22-4.56Z"/><path class="cls-31" d="M33.14,86.2l0-.56-1.56,2.45c1.48-3.17.78-5.22,3-5.92l.24.92Z"/><path class="cls-24" d="M58.2,132.06c2.56-.18,3.89.57,5.11,2.93Z"/><path class="cls-28" d="M49.91,119.36l1.43-1.5,1,2.47-1.23.94Z"/><path class="cls-32" d="M69.91,111.27c-.66,1.47-.86,3.06-3,2.9C67.63,113,68,111.56,69.91,111.27Z"/><path class="cls-33" d="M68.86,136.56a21.31,21.31,0,0,1-2.27-.27,4.14,4.14,0,0,1,0-1l2.2-.13,1.1.65Z"/><path class="cls-19" d="M76.06,139.93h2.77l1.63.64c-1.54,1.17-2.79.28-4,.07C76.27,140.62,76.19,140.2,76.06,139.93Z"/><path class="cls-34" d="M26.71,138.83l-1.53-.15,3.3-5.71C28.52,135.77,25.83,136.52,26.71,138.83Z"/><path class="cls-26" d="M38.84,104l-1.41.6,3.51-7.75c-1.08,3.77-1.55,5.42-2,7.06Z"/><path class="cls-35" d="M49.14,130.8l-3.73,2.06-.65-1.7Z"/><path class="cls-36" d="M79.68,108.27c.53-2.59,3.11-2.88,4.9-4L79.9,108h0l-.27.27Z"/><path class="cls-37" d="M42.89,140.67c-.74-1.08-1.15-1.47-1.08-1.6a22,22,0,0,1,2.79-4.22C43.83,136.43,42.44,137.7,42.89,140.67Z"/><path class="cls-7" d="M33.32,89.57l-.45-.25,0-.11,0,.11L30.7,88.09h2c.73-1.26,1.47-2.51,2.73-4.66C34.49,86.11,33.9,87.84,33.32,89.57Z"/><path class="cls-38" d="M39.4,139.48l-.47,0,3.86-6.05.41.28C41.93,135.65,40.67,137.57,39.4,139.48Z"/><path class="cls-39" d="M43.25,104l1.26-.12,2,3.89-.33.24Z"/><path class="cls-40" d="M100.32,149.34l-1.23.2a6.52,6.52,0,0,1,2.9-4.33C101.77,147.1,99.44,147.53,100.32,149.34Z"/><path class="cls-27" d="M96.48,149.74l-.9-.38c1-1.35,1.91-2.69,3.29-4.64C98.91,147.48,95.88,147.58,96.48,149.74Z"/><path class="cls-41" d="M45.12,174.76l-.24-2.16h.19l3.44-3.76Z"/><path class="cls-9" d="M68.4,146,70,144.08l.52-.28,1.41-.05-1.44,1.32.06,1.05Z"/><path class="cls-42" d="M73.71,127l1.4.17-.81,1.8-1.85.4.47-1v-1.87l.09.11.28.69.32-.23Z"/><path class="cls-37" d="M41.61,134.48l-3.25,4.19-.39-.29,3.13-4.31Z"/><path class="cls-26" d="M39,97.59l-1.63,4.49-.66-.27,1.83-4.46Z"/><path class="cls-43" d="M50.87,166.49,49.92,163l1.82-.63Z"/><path class="cls-15" d="M72.81,108.78c-.59-3.52,1.86-2.41,2.45-3.72Z"/><path class="cls-1" d="M8.32,131.79l-.89-.71,1.42-2.84.52.13Z"/><path class="cls-44" d="M90.53,148.8l-.79-.45,2.58-3.12.4.37Z"/><path class="cls-29" d="M48.5,112.18l1,2.79-.81.26-.93-2.87Z"/><path class="cls-44" d="M65.27,145l-1.14.73q1-2.27,2-4.52l.41.17Z"/><path class="cls-26" d="M47.77,154.85l-.48-.24,3-3.22.89.88Z"/><path class="cls-45" d="M76,117.63l-3.54,3.17-.44-.51,3.67-3Z"/><path class="cls-46" d="M40.06,111.14l-.23-.7L42.52,107l.31.23-2,3.24v0l-.5.75,0,0Z"/><path class="cls-47" d="M36,98l0-1.33,1.76-3.91.42.19Z"/><path class="cls-48" d="M86.52,140.79l.49-.07,1.46,1.55-1.32.08Z"/><path class="cls-34" d="M45.36,176l-.25-1,2.23-2.59.5.46C47,173.91,46.19,174.94,45.36,176Z"/><path class="cls-49" d="M79,110.46H77.28l2.4-2.19,0,0,.27-.27h0l.63.12c-.51.76-1,1.55-1.56,2.33Z"/><path class="cls-50" d="M82.58,98.36l-3.51,3c0-.92-.14-1.53,0-1.64A27.39,27.39,0,0,1,82.58,98.36Z"/><path class="cls-51" d="M38.91,108.58l-.26-.53,2.25-3.68.5.31Z"/><path class="cls-52" d="M45.84,178.37l-.63-.38-.08-.87,3.34-1.75Z"/><path class="cls-41" d="M35,96.22l-.42-.64c.52-1.22,1-2.43,1.54-3.65l.33,0Z"/><path class="cls-11" d="M77,145.47l-.76-.57,3.36-3.9Z"/><path class="cls-3" d="M55.5,132.79v-2.2l1.06.1C56.7,131.66,57.07,132.62,55.5,132.79Z"/><path class="cls-53" d="M47.3,181.11c-.32-2,1-2.45,2.71-3.76Z"/><path class="cls-54" d="M74.62,144.53l-.91-.47,1.92-2.46.39.3Z"/><path class="cls-55" d="M85.39,147.43l-.68-.52,1.41-3,1.12,1.15Z"/><path class="cls-8" d="M87.91,147.18l-.52-.48,2-1.84.46.47Z"/><path class="cls-56" d="M46.06,166.56l0-1.88v.67l1.36-1.49.49.37Z"/><path class="cls-54" d="M78.78,145.92,77,145.48h.85l3.59-2.81Z"/><path class="cls-36" d="M40.12,95.93l1.78,2.21-.36.35-1.93-2Z"/><path class="cls-56" d="M94.57,148.16v-.75L96.12,146l.49.57Z"/><path class="cls-57" d="M89.77,94.84l-.94-.27.2-1,1.87-.77Z"/><path class="cls-58" d="M80.86,146.45l-.68-.47,1.76-2,.35.29Z"/><path class="cls-26" d="M54.9,134.47c1.29,1.25.07,1.92-.37,2.67Z"/><path class="cls-23" d="M40.35,112.16l-.24-.5.22-.51,0,0,.5-.75v0l1.9-1.12Z"/><path class="cls-44" d="M79.87,132.12l-2.69.13C78.08,131.07,78.75,131.31,79.87,132.12Z"/><path class="cls-8" d="M76.29,129.12l.75,0-.79,1.38-1.34-.19Z"/><path class="cls-38" d="M47,161.57l-.49-1,.65-.48,1.91-.43Z"/><path class="cls-59" d="M68.86,136.56l1-.72,2.21,1.78Z"/><path class="cls-39" d="M67.45,143.59l-.21-1,.63-1.44.61.23Z"/><path class="cls-12" d="M57.45,127.72l-1.36,2-.5-.36,1.53-1.92Z"/><path class="cls-60" d="M82.84,146.48l-.31-.3,1.76-1.28.31.45Z"/><path class="cls-12" d="M62.87,147.4l-1.32,1.67-.57-.21,1.62-1.73.11.1.17.18Z"/><path class="cls-44" d="M77,95.77c-.17.57-.33,1.13-.49,1.7l-1,0Z"/><path class="cls-61" d="M79.92,93.66c-.08,1.44-1.21,1.3-2.17,1.42Z"/><path class="cls-16" d="M48.22,156l-.22-.45,1.9-1.23,0,0Z"/><path class="cls-8" d="M70.39,143.76l-.83-.22,2.32-3.25Z"/><path class="cls-27" d="M54.78,129.37l-2,1.32-.54-.53Z"/><path class="cls-62" d="M13.46,135.38l.22-.86,1.21.16.19,0-.44,1Z"/><path class="cls-47" d="M37.57,90.23l1.18,2-.33.21-1.33-1.83Z"/><path class="cls-63" d="M36.49,134.46l-.3-.78,1.26-1.75.26.22Z"/><path class="cls-45" d="M47.31,163.27l-.28-.51,1.33-1.27.69.7Z"/><path class="cls-6" d="M36.3,100.39l-.76.92a.49.49,0,0,1-.06-.17l.83-1.81.2.86Z"/><path class="cls-64" d="M61.15,111.34l.28-.68,0,0,.26-.24.93-.28a.57.57,0,0,1,.08.13Z"/><path class="cls-65" d="M93.86,143.28,95,142.9l.15.45-1.17.36Z"/><path class="cls-14" d="M45.12,161.32l-1.21.47,0-.47Z"/><path class="cls-55" d="M86.87,147.39l-1.23.21C86,147.27,86.3,146.51,86.87,147.39Z"/><path class="cls-3" d="M40.29,142.18l.92-.09,0,1Z"/><path class="cls-66" d="M48.69,150l-1.18.74.61-1Z"/><path class="cls-64" d="M62.6,110.16l1.35-.74.17.36-1.44.51A.57.57,0,0,0,62.6,110.16Z"/><path class="cls-42" d="M49.64,157.2l-.21-.44.84-.58.22.31Z"/><path class="cls-42" d="M73.62,125.74l.32.33-.46.64-.11.11-.36-.23-.09-.11Z"/><path class="cls-12" d="M89.71,92.17c-.17.19-.34.38.55-.59-1.31.42-.93.3-.55.17Z"/><path class="cls-27" d="M99.11,149.55l-1.93.23Z"/><path class="cls-67" d="M81.61,92.46l-1,.74Z"/><path class="cls-20" d="M36,106.16l.23.93Z"/><path class="cls-68" d="M36.45,92l-.33,0,.44-1,.31.14Z"/><path class="cls-69" d="M46.76,137.76l-.21-.44c.19-.1.37-.2-1.09.62Z"/><path class="cls-41" d="M34.73,97.73l0-1.22Z"/><path class="cls-57" d="M89.34,96.05l-.41-.86.6-.06Z"/><path class="cls-20" d="M33.82,98.44l.21,1Z"/><path class="cls-12" d="M63.36,146.48l-.49.92h0l-.17-.18-.11-.1Z"/><path class="cls-13" d="M45.07,172.61h-.19l0-1Z"/><path class="cls-20" d="M33.58,97.24l.24,1.21Z"/><path class="cls-17" d="M36.26,122.74l.69-.3Z"/><path class="cls-44" d="M76.34,98.24,77,97.7Z"/><path class="cls-42" d="M49.18,157.7l.45-.49Z"/><path class="cls-13" d="M44.91,171.48l.14-.81Z"/><path class="cls-10" d="M7.17,124.85l-.69-.2Z"/><path class="cls-5" d="M68.9,146.71l-.2.24-.2-.17.19-.29Z"/><path class="cls-44" d="M75.12,97.73l-.44.48Z"/><path class="cls-1" d="M104,149.15c.08.18.15.37,0,.06v-.06Z"/><path class="cls-9" d="M54.29,105.12l-.48-.26Z"/><path class="cls-8" d="M77,129.17l.47-.49Z"/><path class="cls-13" d="M45.09,170.63l.28-.42Z"/><path class="cls-57" d="M89.71,92.17v-.42l.27,0a.62.62,0,0,1,0,.23Z"/><path class="cls-57" d="M90.73,92l.47-.24Z"/><path class="cls-57" d="M90.22,92l.51,0Z"/><path class="cls-44" d="M77,97.47l.32-.21-.3.42A1.49,1.49,0,0,1,77,97.47Z"/><path class="cls-44" d="M75.55,97.41l-.42.32Z"/><path class="cls-6" d="M36.92,99.63l.06-.48Z"/><path class="cls-9" d="M53.52,105.88h.23l0,.55C53.65,106.24,53.58,106.06,53.52,105.88Z"/><path class="cls-8" d="M76.55,128l.23.51Z"/><path class="cls-4" d="M61.67,110.44l-.26.24Z"/><path class="cls-12" d="M62.42,149.37l.09-.19a1.74,1.74,0,0,1,.1.19h-.19Z"/><path class="cls-42" d="M73.48,126.71l.23.25-.1.09-.24-.23Z"/><path class="cls-8" d="M77.3,127.47l-.25-.28Z"/><path class="cls-28" d="M103,142.33l-.3-.21Z"/><path class="cls-8" d="M77.27,127.72a2.46,2.46,0,0,0,0-.26l.26.24-.27,0Z"/><path class="cls-8" d="M77.79,128l0-.24L78,128h0A.39.39,0,0,1,77.79,128Z"/><path class="cls-12" d="M62.17,149.82l.18-.26Z"/><path class="cls-12" d="M62,150.14l.22-.33Z"/><path class="cls-27" d="M97.18,149.78H97A.24.24,0,0,1,97.18,149.78Z"/><path class="cls-12" d="M61.68,150.54l.19-.26Z"/><path class="cls-9" d="M53.34,105.64l.17.24Z"/><path class="cls-8" d="M76.77,128.62l-.28.28Z"/><path class="cls-44" d="M76.08,98.45l.27-.23Z"/><path class="cls-19" d="M11.73,134.69l-.29-.06Z"/><path class="cls-16" d="M49.9,154.34a.38.38,0,0,1,.12-.09,1,1,0,0,1-.09.13Z"/><path class="cls-69" d="M46.33,137.35l-.28.19Z"/><path class="cls-41" d="M34.52,95.74h-.18A.37.37,0,0,1,34.52,95.74Z"/><path class="cls-26" d="M47.28,154.62l-.23.22Z"/><path class="cls-26" d="M47.52,155.09l.25-.24Z"/><path class="cls-26" d="M47.28,155.33l.24-.25Z"/><path class="cls-26" d="M47,155.76l.17-.2Z"/><path class="cls-16" d="M48,155.57l-.19.24Z"/><path class="cls-69" d="M46.31,138l.27-.22Z"/><path class="cls-42" d="M49.43,156.76l-.26.23Z"/><path class="cls-38" d="M39.33,140a.64.64,0,0,1-.06-.18s0,0,.06-.08Z"/><path class="cls-7" d="M91.43,89.31l.28-.2Z"/><path class="cls-28" d="M102.71,142.12l-.23-.27Z"/><path class="cls-28" d="M102.19,142.87l.28.23a.91.91,0,0,0-.23,0v0Z"/><path class="cls-45" d="M47,163.47l.28-.2Z"/><path class="cls-70" d="M35.78,140.69l-.5.29H31.86v-.49Z"/><path class="cls-71" d="M45.63,148.35l.09,1.75-.44,0-.19-2.63.46.63A.3.3,0,0,0,45.63,148.35Z"/><path class="cls-57" d="M46.06,147.64,47.5,146l-.73,3.5Z"/><path class="cls-72" d="M45.82,154.55v0Z"/><path class="cls-26" d="M45.33,153.89l.28.06-.28.26Z"/><path class="cls-6" d="M45.63,148.35a.3.3,0,0,1-.08-.22A.83.83,0,0,1,45.63,148.35Z"/><path class="cls-26" d="M46,151.77l0-.3Z"/><path class="cls-9" d="M53.76,105.88h0Z"/><path class="cls-10" d="M6.8,125.79l-.11-.46H7Z"/><path class="cls-10" d="M6.47,125.26l-.23,0Z"/><path class="cls-10" d="M7.2,125.08l-.25.24Z"/><path class="cls-73" d="M38.05,116.49v-2.8h.29v2.8Z"/><path class="cls-74" d="M38,118.13l-.3.73-.57.93.29-1.67,0,0,.8-1.28Z"/><path class="cls-69" d="M39.75,111.9l-.28.74-.34-.38Z"/><polygon class="cls-74" points="37.44 118.12 37.41 118.08 37.42 118.14 37.44 118.12"/><path class="cls-33" d="M3.86,123.36c0,.28,0,.55,0,.82C3.87,123.91,3.86,123.64,3.86,123.36Z"/><path class="cls-33" d="M4.31,128l.46-.06Z"/><polygon class="cls-14" points="44.06 162.49 44.12 162.43 44.14 162.5 44.06 162.49"/><path class="cls-14" d="M44.64,162.76h0Z"/><path class="cls-75" d="M45.65,142.85l-.77.93C44.83,143.22,44.76,142.64,45.65,142.85Z"/><path class="cls-76" d="M44.1,142.83l.06-.47,1.47-.65Z"/><path class="cls-8" d="M77.28,127.72c0,.14,0,.27,0,0-.09.28,0,.15,0,0Z"/><path class="cls-6" d="M37.44,98Z"/><path class="cls-6" d="M32.87,89.32l0-.11,0,.11Z"/><path class="cls-18" d="M73.37,126.82l.24.23-.32.23-.28-.69Z"/><path class="cls-5" d="M62.71,147.23l.17.18Z"/></g><g id="balloon1"><path class="cls-33" d="M3.14,122.93q.45-11.43.91-22.86l1.18.52v23.86l1.25.2.69.2h0c0,.07,0,.15,0,.23h0l-.25.24H6.69a.44.44,0,0,1-.22-.07l-.23,0L5.13,128l-.37,0,.11-1.23-.76.36-.24-.84c1.27-1.08.14-2.37.52-3.9l-.54.85Zm1.38-12.25c-.17-1.69-.15-1.53,0,0Z"/><path class="cls-77" d="M5.23,100.59l-1.18-.52V93.88L.34,93.42l2.44-3.28c-3-1.63-2.86-4.37-2.72-6.92a3.78,3.78,0,0,1,4.12-3.85c.29,0,.58.36.87.56l-.73.52A2.12,2.12,0,0,0,1.84,82L3.37,83l-1.06,2.1-.91-.91v2.44c1.8.06,2.55,1.27,3.17,2.62l-.47.81-.75,1.64,1.58.64-1.42.94L6,93.43l-1,.64Zm-5-13,2.71,1.83C2.9,87.81,2,88,.21,87.58Z"/><path class="cls-1" d="M3.87,126.21l.24.84.2.92.46-.06h0l.37,0-.34,1.2.6,1.76,1.07.15,1.28,1.18.4.3,3.22,2.07h.08l.29.06,1,.24.74.45,1.18.27,1,.68.88.22.77.06,1.49-.23.7.74.66-.37v1.56l.79-1.23.73,1.19.71.44,1.31,1-7.14-1.92c-4.64-.59-8.11-3.39-13.08-6.76l.24.11c-.05.37-.11.73-.16,1.1H3.14v-9.34l.71.23a1.41,1.41,0,0,1,0,.2l0,.82Z"/><path class="cls-78" d="M4.32,80.45l.73-.52c1-.45,1.64-.09,2.12.85,1.54,3.08,1.3,5.93-1,8.53a2.54,2.54,0,0,1-.53.41C5.6,92,8.25,91.65,9,93.5L5,94.07l1-.64,1.58-.34-3.47-3,.47-.81c2.64-1.09,3.14-3.37,2.78-5.76C7.13,82,6.92,79.88,4.32,80.45ZM5.85,80v.07l.07,0Z"/><path class="cls-66" d="M4.52,110.68h0C4.37,109.15,4.35,109,4.52,110.68Z"/><polygon class="cls-77" points="5.85 80.04 5.93 80.07 5.87 80.11 5.85 80.04"/></g><g id="balloon2"><path class="cls-4" d="M89.75,59.09,89.52,59l-.24.07-1.42,3.22,2.13.39-.52.72h-6.9l5.91-3.86-.65-.27c-4.86-4.46-6.75-9.11-2.64-14,2.26-2.69,5.68-1.53,8.64-.4-.49,1.15-1.4.61-2.47.44l.52,1L89,44.87c-4.93,1.85-6.26,6.42-2.77,10a42,42,0,0,0,3.73,3l.56.57,0,0ZM86.14,45.86l-.38-.3-1.52,2.26.3.22Zm3.24,11.36Z"/><path class="cls-5" d="M77,97.47h-.47c.16-.57.32-1.13.49-1.7l.74-.69c1-.12,2.09,0,2.17-1.42l.72-.46,1-.74c3-1.46,5.1-4.32,8.7-5l.2-1,1.12-2.15.79,4-.72.81v0l-.28.2c-5.94.45-9.45,5.23-14.12,8Z"/><path class="cls-51" d="M91.63,84.29l-1.12,2.15c-1.55-5.38-.6-10.88-.76-16.32l.28-.06h0l.71.3Q91.19,77.32,91.63,84.29Z"/><path class="cls-60" d="M94.06,45c2.81,2.71,2.06,5.84,1,9.35V52.58l-.73.24-.91-.93.16-.52h0a.28.28,0,0,1,0-.2l.44-.25.1.79c0-1.7,1.82-3.51-.26-5.06l0-.8A.5.5,0,0,0,94,45.7Z"/><path class="cls-79" d="M89.47,63.43l.52-.72,1.87-.58-.72,2.7-.14.78V66l0,.79,0,1.15-.39-.23a.33.33,0,0,1,0-.22l.19-2.9a.48.48,0,0,1,.07-.21l0-1h-.28l0,.5c-.16,1.75-.31,3.5-.46,5.25l-.48,0Z"/><path class="cls-49" d="M93.4,51.89l.91.93c-.82,2.17-1.41,4.49-3.8,5.6L90,57.85A6.52,6.52,0,0,0,93.4,51.89Z"/><path class="cls-49" d="M93.88,45.84l0,.8c0,1.42.1,2.84.16,4.27l-.44.25c-.53-1.61,1.15-4-1.7-4.79l-.52-1c1.07.17,2,.71,2.47-.44l.23,0,0,.73Z"/><path class="cls-61" d="M89.75,59.09l.79-.69L94,61.17l-1,.5Z"/><path class="cls-80" d="M90.53,67.7l.39.23-.18,2.43-.71-.3Z"/><path class="cls-80" d="M90.69,64.58l-.19,2.9Z"/><path class="cls-80" d="M90.74,63.39l0,1Z"/><path class="cls-80" d="M91,66.78,91,66Z"/><path class="cls-80" d="M91,65.61l.14-.78Z"/><path class="cls-80" d="M90.41,63.89l0-.5Z"/><path class="cls-51" d="M91,75.26a.74.74,0,0,1,0,.14s-.08,0-.08,0A.26.26,0,0,1,91,75.26Z"/><path class="cls-80" d="M90,70.06l-.28.06.11-.17Z"/><path class="cls-80" d="M90.47,63.39h0Z"/><path class="cls-61" d="M89.28,59.1l.24-.07Z"/><path class="cls-81" d="M86.14,45.86,84.54,48l-.3-.22,1.52-2.26Z"/><path class="cls-49" d="M93.56,51.36h0Z"/><path class="cls-4" d="M93.88,45.84,94,45.7A.5.5,0,0,1,93.88,45.84Z"/><path class="cls-28" d="M86.71,50.08l-.94-.9,1.56-2.69.75.33Z"/><path class="cls-13" d="M86.55,49l1.06,3.44-1.06.28Z"/></g><g id="balloon3"><path class="cls-82" d="M102.5,124.65l-.55,1,1.53,2.9-1.57.58c1.5,4.17,0,8.47.57,12.68l.23.27h0l.3.21h0l-.44,1a.26.26,0,0,1-.08-.2l-.28-.23-.12.15.18.08v0l-.07,1.21c-1.39-.26-.89-1.2-.9-1.92l.25-1.65V129.15l-3.18-.32,1.27-1.09,1.42-2.92c-2.85-1.06-3-3.21-3-5.52,0-2.1,1.61-2.26,3-2.66l.5,1.27-.73.19-1.21.26c-1.06,1.93-.11,3.41.93,4.86l1.42-.31-.55,1.46.87-.24Zm-.32,3.37,0,0-.07,0-.36-1.65-.63,1.41Z"/><path class="cls-56" d="M102.5,124.65l-.24-.52c1.51-1.34,2.84-2.76,2.37-5-.28-1.36-1.39-1.58-2.32-1.84l-.78.66-.5-1.27a2.69,2.69,0,0,1,3.75,1.13c1.3,2.23.65,4.35-1.25,6.07C103.21,124.13,102.85,124.38,102.5,124.65Z"/><path class="cls-83" d="M102.18,128l-1-.23.63-1.41.36,1.65Z"/><path class="cls-84" d="M100.8,118.1l-1.21.26Z"/><polygon class="cls-83" points="102.16 128.04 102.23 128 102.18 128.03 102.16 128.04"/><path class="cls-84" d="M101.26,120.24c-1-.41-.79-1,0-2.59v2.61Z"/><path class="cls-65" d="M101.24,120.26l1.2,1.76-1.37-.41c.07-.53.13-1,.19-1.37Z"/></g><g id="balloon4"><path class="cls-5" d="M31.94,20.91c-3.32-5.48-5.09-11.27-.64-16.75,2-2.48,5-5.08,9.33-3.84l-1,1.16,1,1a.16.16,0,0,1-.15,0l-.29.5c-4.29-2.45-6.44.12-8.23,3.53-1.81,1-2,2.74-1.89,4.57v3.35l.53.9-.69.63.81,1.22c.81-1.05.72.36,1.18.38l.67,2.29,1.82.8v.75h0l-.24-.06-.87-1.26.21,1.5-.33.83h0Z"/><path class="cls-85" d="M41.08,24.21l3.42,4.45-4.81.86c-.67,6.45-1.19,12.71-.35,19h-.75l-.41.95-.25-14.85.18-1.47V31.54L37,30.74l1.3.44V29.42l-2.55.22.52-1.26,1.66.34.57-1.7L39.21,29l3.52-1-2.15-3.41Z"/><path class="cls-26" d="M40.55,2.46l-1-1c6.58,1.57,8.46,12.8,3.26,19.26a5.41,5.41,0,0,0-.62,1.62L41,21.85c.27-.34.51-.71.8-1C46.59,15.63,45.86,4.64,40.55,2.46Z"/><path class="cls-86" d="M41,21.85l1.25.51-1.15,1.85-.5.3h0l-2.11-1.37L39.14,25h0l-.24.26h0l-.27.23-2.35,2.88-.52,1.26-4.22,2.51,1.85-2.1.63-.53,3.56-5.46L36,23.83l-.48-.78.25-.44.52.06,0,.4,2.2-.26C39.58,23.25,40.27,22.52,41,21.85Z"/><path class="cls-87" d="M38.68,66.05a.16.16,0,0,1,0,.15l.14.8L37.68,80.44,36.93,79l1-13.63.78,0C38.7,65.54,38.69,65.8,38.68,66.05Z"/><path class="cls-88" d="M38.7,65.28l-.78,0q.12-7.92.26-15.85l.41-.95h.75C39.16,52.28,39,56,38.7,61.84Z"/><path class="cls-50" d="M36.27,22.67l-.52-.06-3.31-1.07,3.06,1.51.48.78-2.9-1.42.33-.83c.16.09.33.17.56.28l.35-.46v-.75l4.12,2.16-2.2.26h1.15Z"/><path class="cls-33" d="M36.93,79l.75,1.49L38,82.87l-2.41-.71-.27-.51,1.31-.41C36.7,80.48,36.82,79.71,36.93,79Z"/><path class="cls-50" d="M31.94,20.91l1.13,1.49Z"/><path class="cls-89" d="M34,29.52l-.63.53Z"/><path class="cls-88" d="M38.68,66.05l0-.77Z"/><path class="cls-88" d="M38.82,67l-.14-.8Z"/><path class="cls-33" d="M31.88,6.51a19.8,19.8,0,0,0-.47,9.61l-.21,0,0,0,.27.23.38,1.2c-.46,0-.37-1.43-1.18-.38L29.84,16l.69-.63-.53-.9V11.08C29.88,9.25,30.07,7.55,31.88,6.51Z"/><path class="cls-90" d="M30,11.08v0Z"/><path class="cls-91" d="M34.32,21.4l-.35.46c-.23-.11-.4-.19-.56-.28s-.07-.46-.21-1.5l.87,1.26.24.06Z"/><path class="cls-26" d="M40.4,2.48l-.29.5Z"/><path class="cls-50" d="M34.31,21.4l-.24-.06Z"/><path class="cls-92" d="M40.56,24.51,39.14,25l-.69-1.88Z"/><path class="cls-93" d="M35.5,23.05l-3.06-1.51,3.31,1.07Z"/><path class="cls-92" d="M38.91,25.27l-.27.23Z"/><path class="cls-92" d="M39.14,25l-.24.26Z"/><path class="cls-28" d="M33.48,9.23c-.69-2.08.05-3.32,1.16-4.6l1.4.7Zm.36-2,.33.12.4-1.09-.31-.11Z"/><path class="cls-94" d="M33.8,9.36a15.2,15.2,0,0,1,.69,2.89c0,.47-.38.92-1.5,3.4Z"/><path class="cls-5" d="M31.45,16.36l-.27-.23,0,0,.21,0A.34.34,0,0,1,31.45,16.36Z"/><path class="cls-5" d="M31.18,16.13l0,0Z"/><path class="cls-95" d="M33.84,7.2l.42-1.08.31.11-.4,1.09Z"/></g></g></g></svg>