<svg xmlns="http://www.w3.org/2000/svg" viewBox="0 0 161.24 214.46"><defs><style>.cls-1{fill:#ccc;}</style></defs><g id="Calque_2" data-name="Calque 2"><g id="extra-music"><g id="extra-front"><path d="M99.36 158.82v2.36l-.21.54v.87a2.77 2.77 0 0 0-.2 1.77.21.21 0 0 0 0 .19 2.74 2.74 0 0 0-.44 2 8.2 8.2 0 0 0-.22 3.55c0 1.58.25 3.17.32 4.76a1.91 1.91 0 0 0 1 1.73 15.38 15.38 0 0 1 2.31 1.69 1 1 0 0 1 .3 1.3.9.9 0 0 1-.58.41c-1.89.84-3.74 1.72-5.93 1.47a12.74 12.74 0 0 1-3.18-.93c-1-.39-1.12-1-.52-2l.44.13c.8.26 1.23-.32 1.7-.76s.08-.61-.22-.82a.36.36 0 0 0 .4-.3 7.13 7.13 0 0 0 1.94-4.08c.79-4.27.14-8.58.32-12.87.13-3.23-1-6.19-1.59-9.26-.11-.56-.54-.55-.92-.56a23.55 23.55 0 0 0-5.9.85 2.06 2.06 0 0 0-1.1.89 14 14 0 0 0-2.49 8.05 5.73 5.73 0 0 0 .53 3.16c-.58 0-.77.26-.79.76a38.26 38.26 0 0 0 .06 8.69 21.52 21.52 0 0 1 .2 3.1 61.56 61.56 0 0 0 .81 9 68.05 68.05 0 0 1 .56 7.12 5.63 5.63 0 0 0 3 4.9 4.83 4.83 0 0 1 2.15 5c-.37 1.28-1.65 1.43-2.56 1.91a8.23 8.23 0 0 1-5.68.75 2.5 2.5 0 0 0-1.3-.08c-1.57.6-2.79-.42-4.13-.72-.18-.63.46-.65.61-1.09-.81-1-.3-1.61.71-2.15a13.54 13.54 0 0 0 4.71-5c1.33-2 1-4.34.84-6.53a51.53 51.53 0 0 0-1.32-9.4c-.72-2.76-.33-5.55-.56-8.32s-.32-5.65-.43-8.48c0-1.22 0-2.46.06-3.69a17.27 17.27 0 0 0-.24-4.76 9.12 9.12 0 0 1 .89-5.87 2.51 2.51 0 0 0-.84-3.16c.82-.76 1.09-1.89 2.08-2.6a22.81 22.81 0 0 0 4.4-4.54c.64-.8 1.54-1.31 2-2.36a12 12 0 0 0 1-7.87c-.38-1.45-1-2.44-2.82-2.5a34.62 34.62 0 0 1-5.16-.81 9.79 9.79 0 0 0-2.86-.15 2.37 2.37 0 0 1-1.06 0c-2.83-.88-5.7-.09-8.53-.27-3-.18-6 .38-9 0-4.29-.49-8.52-1.39-12.81-1.83a35.2 35.2 0 0 1-9.67-2.87 16.63 16.63 0 0 1-5.56-3.52c-2.23-2.14-4.84-3.81-7-6a28.51 28.51 0 0 1-5.4-7.31 6.24 6.24 0 0 1-1-4.39 5.35 5.35 0 0 0-.32-2.47c-.48-1.79.41-3.18 1.29-4.5 2.2-3.28 5.57-4 9.21-3.9a3.32 3.32 0 0 1 2.7 1.53 13.74 13.74 0 0 0 1.78 2.09 4.73 4.73 0 0 1 1.5 2.78c.22 1.78 1.57 2.72 2.79 3.68a12.38 12.38 0 0 1 1.89 1.94.59.59 0 0 1-.45.45l-.23-.23a6.13 6.13 0 0 0-3-2.3c.06 1.36 1.1 2.13 1.43 3.2.58 1.9 2.31 2.72 3.55 4a.61.61 0 0 0 .3-.08h.75c2.45 3 4.91 6 8.51 7.7 2.67 1.26 5.32 2.67 8.46 2.16a2.92 2.92 0 0 1 1.06.13c3.29.77 6.5-.23 9.72-.58a33 33 0 0 1 8.42 0 20.65 20.65 0 0 1 5.78 2c2.06 1 4.27 1.71 6.37 2.64a14.08 14.08 0 0 0 5.27 1.13c1.37.06 2.59-.73 3.83-1.24 1.66-.67 3.27-1.45 4.89-2.18a10.32 10.32 0 0 1-2.38-4.73c-.37-1.65-1.41-2.24-3.08-1.8s-3.4.34-5 .84a4.85 4.85 0 0 0-3.35.6 4.27 4.27 0 0 1-1.37.26c-3.36.12-6.48-1-9.67-1.73a34.84 34.84 0 0 1-9.82-4.15c-1.1-.65-2-1.55-3.13-2.18a11.36 11.36 0 0 0-9.3-1 18.39 18.39 0 0 0-3 .87c1.52 1.81 3.43 3.11 4.67 5s3.58 2.76 4.36 5c-4.57-2.29-7.3-6.63-11.3-9.71.16-.7-.38-1.43-.83-2.06a10.08 10.08 0 0 1 .33-11.72 21.69 21.69 0 0 0 2.37-4.62 2 2 0 0 0 1.68-1.43c.73.11.94-.46 1.21-.94A6.1 6.1 0 0 0 60.81 80c.5.6 1 .92 1.72.25.74 0 1.16-.55 1.64-1 1 .12 1.73-.58 2.66-.53 2 0 3.08 1.43 4.61 2.56a63.62 63.62 0 0 1 3.87-20.14.88.88 0 0 0-.82-.08c-2.9.68-5.87.15-8.78.52a1.94 1.94 0 0 1-.59 0 46.92 46.92 0 0 1-7-2.05 4.18 4.18 0 0 1-2.63-1.92c-.89-1.62-1.62-3.27-1.09-5.06a4.79 4.79 0 0 0-.24-4c-.41-.71-.29-1.29.71-1.36a2.51 2.51 0 0 0-.49-1.19c-.62-.73-1.24-1.46-1.87-2.18-.31-.34-.52-.86 0-1 .82-.14.85-.88 1.31-1.27.25.2.24.61.59.73.72 0 .9.46.68 1.06s-.16.94.38 1c2.13.36 2.81 2.14 3.62 3.72 1.38 2.68.9 5.25-.69 7.67-.41.61-.44.59-1.38.84.12.62.63.85 1.1 1.12a14.54 14.54 0 0 0 6.23 1.79c3.17.31 6.32.68 9.46-.28A8.84 8.84 0 0 0 77 57.16c2-1.81 3.57-1.66 5 .65a2.22 2.22 0 0 0 .28.33c.52 0 .62-.68 1.18-.59 1 .94 1.13 2.63 2.58 3.26l.23.29a.42.42 0 0 0 .29.47 1.4 1.4 0 0 0 .75.94 6.12 6.12 0 0 1 .2 5.3 27.61 27.61 0 0 0-1.47 7c-.45 4-.69 8-3 11.45a9 9 0 0 1-6.53 4.15 8.43 8.43 0 0 1-3.25-.59.7.7 0 0 1-.4-.41c-.63-1.7-1.64-3.28-1.69-5.18a1.6 1.6 0 0 0-1.35-1.71c-.64-.1-.91-.64-1.23-1.06a2 2 0 0 0-2.1-.7c-2.32.27-4.06 1.66-5.82 3-.68.51-1.3 1.12-1.94 1.68h-.07a84.15 84.15 0 0 1 7.93 6c3.06 2.43 5.85 5.23 9.35 7.1a58.71 58.71 0 0 1 6 3.84 4.73 4.73 0 0 0 2.73.76 38 38 0 0 0 5.84-.09 13.53 13.53 0 0 1 4.61.54 12.91 12.91 0 0 0 8.68-1.59c1.21-.62 2.35-1.34 3.54-2a6.35 6.35 0 0 0 3-2.63c.63-1.19 2.09-1.46 3.34-1.51a1.37 1.37 0 0 1 1.46 1.26.93.93 0 0 1 0 .29 2.83 2.83 0 0 0 .16 1 3 3 0 0 1-1.23 3.18 10.67 10.67 0 0 0-3 3.17 2.71 2.71 0 0 0 2.65-.71 10.51 10.51 0 0 1 7-2.17c.27 0 .53-.23.86 0s.06.68-.12.94c-1.12 1.66-1.91 3.52-3.17 5.11-1.6 2-5.27 3.56-7.62 2.21a4.57 4.57 0 0 0-1.33-.28c-1.19 1.32-.34 3.11-1.2 4.45-.18.33-.49.62-.38 1.11.81.39.83 1.14 1 2 .09.66-.48 1.18-.2 1.81h-.08c.52-.49.86-1.19 1.62-1.41.17.64.8.52 1.22.74a1.45 1.45 0 0 0 1.23.2.74.74 0 0 1 .21 0l.64.38-.4.3a.22.22 0 0 1-.22 0 .5.5 0 0 0-.53-.15c-1.74-.26-3.33-.11-4.28 1.66-.34-.15-.16-.92-.87-.68a3.41 3.41 0 0 0-1.6 2.77c-.66.48-1 1.34-1.83 1.48 0 1.35.51 2.54.53 3.82 0 .94-.06 2.16.47 2.76.81.92.28 1.57 0 2.18-.65 1.27-2.75 2.22-3.6.85a9.09 9.09 0 0 1-1.75-4.76 8.53 8.53 0 0 0-.28-2c-.43-1.65-1.12-2-2.73-1.38a1 1 0 0 0-.78 1.18v.08a36 36 0 0 1 .92 5.73c0 .28.17.56.36.55.83-.08.78.53.94 1 .45 1.37-.17 2.59-.61 3.8-.26.71 0 1.77-.91 2.09a14.43 14.43 0 0 0-2.48 1.61 2 2 0 0 1-2.8-.38 2 2 0 0 1-.3-.56 8.65 8.65 0 0 1-.91-3.16c-1.27 2.12-3 3.57-4.44 5.38a2.52 2.52 0 0 0 .47.13c3.16-.25 6.3.22 9.46.21 1.41 0 2.62.84 4.08.78 3.12-.13 6.26-.25 9.37-.11 4.5.21 9 .44 13.49.54a.86.86 0 0 0 1-.51 13.87 13.87 0 0 0 .69-1.52 58.65 58.65 0 0 1 3.87-9.35 20.06 20.06 0 0 0 1.55-3.48c.63-1.92 1.22-3.86 2-5.72s1.88-3.89 2.87-5.9a2.23 2.23 0 0 0-2.36 1.9 1 1 0 0 1-.71.85 2 2 0 0 0-1.54.78c-.2.27-.48.22-.74 0a.55.55 0 0 1-.13-.74 6.41 6.41 0 0 0 .32-.76c.22-.76-.25-1.18-1.08-1-.7-.26-1.61.46-2.16-.46h.79c.89-.37 2.32.42 2.73-1.1-.37-.44-.77-.2-1.09-.35l-1-.67a.37.37 0 0 0 0-.21c.74-.27 1.64.38 2.25-.23s.3-1.43.43-2.16c.59-3.33 1-6.68 1.54-10a1.43 1.43 0 0 0-.58-1.56 1.43 1.43 0 0 1-.37-1.85 2 2 0 0 1 1.59-1.31c.82-.07 1.1.76 1.35 1.33a1.51 1.51 0 0 1-.5 1.93 1 1 0 0 0-.54 1.31c.39 1.61-.22 3.16-.46 4.71-.4 2.59-.63 5.2-1.11 7.79.7.37.93-.15 1.09-.56 2.08-5.24 5.32-9.9 7.59-15 .78-1.77 2-3.33 2.76-5.11.51-1.26 1.62-2.41 1.08-4-.28-.83.72-2 1.68-2.3a2.13 2.13 0 0 1 2.46 1.17 1.78 1.78 0 0 1-.77 2.28 5.92 5.92 0 0 0-2.88 4.67 6.64 6.64 0 0 1-1.1 2.19 14.11 14.11 0 0 1-2 3.5c-1.1 1.09-1.12 2.81-2.51 3.68-.49.31-.24 1.23-.75 1.69l-.06-.08.09.06c-.88 2.78-2.52 5.24-3.56 8l2.79.41c.11.62-.69 1-.26 1.53.3.2.44-.3.83-.14a18.44 18.44 0 0 1-.25 4.33c-.21.1-.12.46-.43.49l-.12-1a3.57 3.57 0 0 0-.06-1.38c-.59.16-1 .61-.91 1 .21 1-.46 1.55-1 2.2-.37.47-.69 1.08-.07 1.52s.55.79.27 1.39c-.87 1.87-.47 3.91-.69 5.87l.24.12.58-2.29h.47l-.05.94c-1.21 4.67-1.59 9.47-2.31 14.21-.08.55-.19 1.1-.28 1.64-.37.46-.17 1-.23 1.49s.18.86-.46.9v-.7a.72.72 0 0 0 .1-.93c-.23.13-.35.27-.34.49a.31.31 0 0 1 0 .19l-.18.3a.37.37 0 0 1-.08.18c-.27.21-.2.5-.15.78-1.63 6.26-1.63 12.69-2.22 19.07.71-1.36.66-2.85.94-4.28.34-1.73.32-3.52.76-5.23.49 0 .08-.85.69-.73a23.89 23.89 0 0 1-.41 5c-.58 3.74-.28 7.47-.23 11.21 0 1.33 1.34 1.61 2.17 2.15 1.72 1.1 1.86 1.83.79 3.54s-2.24 2.81-4.19 2.61a45.82 45.82 0 0 0-5.73-.49c-.5 0-.78-.56-1-1a5.25 5.25 0 0 0-.67-1.14c.08-2 1.53-2.76 2.7-3.81 1.44-1.3 1.48-3.21 1.88-4.93 1-4.29 1-8.7 1.56-13a53.45 53.45 0 0 1 1.56-8.67 45.17 45.17 0 0 0 1.77-10.45c.12-1.8.42-3.59.67-5.75-.85.8-1.35 1.59-2.39 1.39-.29-.06-.59.4-.68.86a51.89 51.89 0 0 1-2.76 8.25 4.1 4.1 0 0 1-.83 1.43 2 2 0 0 0-.67 1.25 7.74 7.74 0 0 1-1 3.86c-.21.44-.15.89-.71 1.23s-.27 1-.29 1.58c-.07 2.77-.15 5.55-.29 8.32-.13 2.5-.44 5-.49 7.47-.08 3.33-1 6.55-1.14 9.86a61.4 61.4 0 0 0 .1 10.59c.18 1.48 1 2.79 1 4.3 0 .52.5.66 1 .59.09.63.16 1.18.24 1.73a1.39 1.39 0 0 0 1.26 1.36c.85.11 1.38.82 1.93 1.35s.06 1.25-.33 1.6c-1.84 1.62-3.78 3.08-6.49 2.52a4.72 4.72 0 0 0-1.3-.15c-2.27.15-4.15-.89-6-2-1-.65-1.07-1.43 0-2a16.36 16.36 0 0 0 4-3.17 4.52 4.52 0 0 0 1.42-2.94c.45-5.51 0-11.08 1.1-16.56a40.29 40.29 0 0 0 .37-4.53c.51-1.1.13-2.25.2-3.38.39-.07.46.2.51.5s-.07 0-.07.06v.4a1.32 1.32 0 0 0 0 1.45c.2 1.06-.57 2.09 0 3.42a53.78 53.78 0 0 0 1-13.16 22.18 22.18 0 0 1-.77 4.2l-.25-1.25v-1.13s.08-.05.08-.07a.64.64 0 0 0-.06-.18 25.35 25.35 0 0 0 .42-6.39c-.08-.95.34-2-1.21-2.35-.51-.1-.84-1-1.3-1.5a4.81 4.81 0 0 0-3-1.31c-1.92-.3-3.86-.29-5.79-.55l-.23-.05c-2.79.22-5.52-.55-8.3-.57a1 1 0 0 0-1.13.75 6.27 6.27 0 0 0-.37 2.46 26.93 26.93 0 0 1-.06 4.4.32.32 0 0 0 .16.44.2.2 0 0 0 .13.03zm-69.59-49.15.25.72a8.9 8.9 0 0 0 1.63 1.44l.27.2c.15.3.43.26.69.27.31 1 1 1.18 2 .84a3.4 3.4 0 0 0-.17.7 1 1 0 0 0 .94 1 .9.9 0 0 0 .36-.08h.72a5.5 5.5 0 0 1-.15.77c-.09.54.07.75.6.42l.48.73a3.1 3.1 0 0 0 1.71.73l.69.23c1.55 1.63 2.39-.53 3.62-.78 0 .5-.32.71-.49 1-.94.59-.35.93.21 1.27a2.09 2.09 0 0 0 1.73.67c.66.32 1.07.13 1.42-.53a13.88 13.88 0 0 0 1.08-2.1c.86 1.09-.26 1.48-.48 2.13a1.68 1.68 0 0 0 1.81 1.23.49.49 0 0 0 .52.2h.43a1 1 0 0 0 1 .23c3 .53 5.94.58 8.91.92a60.19 60.19 0 0 0 15.23.31 5.57 5.57 0 0 1 1 0c2.11.11 4.22.38 6.32.3a18.34 18.34 0 0 1 6.64.47c1.74.61 3.64 1.41 3.76 3.8a7.06 7.06 0 0 0 .35 1.13c.63 2.56.72 5.11-.66 7.46a5.63 5.63 0 0 0-.55 4c.2 1.1.88 1.38 1.88.86 2.32-1.24 3-2.43 2.6-5-.45-2.88-1-5.73-1.59-8.59a2.2 2.2 0 0 1 1.53-2.72 2.16 2.16 0 0 1 .8-.08c2.1.07 5 3.51 4.69 5.61a.49.49 0 0 1 0 .24 2.84 2.84 0 0 0 .24 2.52c.24.55.43 1.09 1.13 1s.82-.7.83-1.3a21.45 21.45 0 0 0-.32-4 4.89 4.89 0 0 0-.17-.83c-.64-3.45-1.76-3.8-4.22-3.47-.49-.7-.84-1.51 0-2.1a5.17 5.17 0 0 1 3.2-1.4 7.54 7.54 0 0 0 4.66-1.26 1.06 1.06 0 0 0 .51-1.41.86.86 0 0 0-1.11-.48h-.1a17 17 0 0 0-3.79 1.44 15.56 15.56 0 0 1-4.64 1.81 9.37 9.37 0 0 1-4.34.28 32.38 32.38 0 0 1-8.25-3 24.48 24.48 0 0 0-8.4-2.53c-2.51-.23-4.85.85-7.35.82-2 0-4 .63-6.13.47-1.5-.12-3-.09-4.52-.28a12.12 12.12 0 0 1-4.78-1.38c-1.66-1-3.35-1.87-5-2.91a10.45 10.45 0 0 1-3.31-2.86 7.41 7.41 0 0 0-3-2.82 8.22 8.22 0 0 1-2.4-1.65 14.87 14.87 0 0 1-4.07-7.53c-.64-3.27-2.45-5.64-4.59-7.93-.09-.1-.29-.1-.45-.15a2.44 2.44 0 0 0-3 .64 4.32 4.32 0 0 1-1.62 1.32l.27-.45c.49-.46 1.14-.79 1.24-1.67-.53.18-.81.58-1.35.54s-.45.48-.4.86c-.87.46-1.42 1.38-2.41 1.67-.36-.55-.7-.29-1.07 0-.54.42-.8.88-.31 1.51-.06.25.06.56-.26.73-.9.48-.95 1.21-.52 2.4l.71-1c.23.19.42.47.11.65-1 .57-.78 1.27-.29 2a2.33 2.33 0 0 0-.28 1.39c-.09.44.31.41.53.55a2.12 2.12 0 0 0 .2 2.08l.46.51.23.25c.57.32.25 1.28 1 1.45A24 24 0 0 1 27 101l-.07 1-.26.21c-.66.79-1.77 1.31-1.65 2.6.17.33.11.75.42 1s.46.26.48.6.27.42.55.16l.23.21c-.12.37-.09.68.31.85a.81.81 0 0 0 .39-.86c1-.78 1.71-2 3.12-2.21-.8 1-2 1.58-2.6 2.69-.52.89-.34 1.34.69 1.7a1.78 1.78 0 0 1 .94.7c.03.22.12.21.22.02zm54-27.59-.19.21a.42.42 0 0 0-.1.17c-.2 0-.39 0-.46.29-1.32 1.32-1.62 3.13-2.32 4.75 1.75-1 2.46-2.69 3.12-4.42l.14-.33a.81.81 0 0 0 0-.22l.17-.27a.23.23 0 0 0 0-.2c-.1-.71.64-1.25.5-2.18a3.23 3.23 0 0 0-.89 2.18zm-30 13.15-.19.28a.74.74 0 0 1 0 .21c-.46 1 .69 1.68.45 2.63a.49.49 0 0 0 .17.67c.61-.17.52-.94 1-1.16.1.91-1.18 1.47-.58 2.63 1.83-1.71 2.82-4.22 5.24-5.2-1.32 1.75-3.33 2.91-4.29 5.07 1 .28.82-.69 1.32-.79l.26.5c.88.56 1-.28 1.42-.73l.57-.14c.27.26-.22.48 0 .76a1.16 1.16 0 0 0 1.36-.15 1.58 1.58 0 0 0 .76-1.17c.32 0 .6-1 .94 0l-.09.23a1.1 1.1 0 0 0-.46.71c1.17 1.09 1.63 0 2.22-.67a.35.35 0 0 0 .19-.1l.47.1c0 .29-.45.44-.3.79.55-.07 1-.39 1.58-.29l.2 1a3.14 3.14 0 0 0 2.59-.24c.08.52-.52.63-.39 1.06 1.7 1.46 1.9 1.5 2.76.59.36.19 0 .64.4.91 1.11-.1 2.55-.77 3.17 1 0 .11.28.13.41.21a41 41 0 0 1 3.88 2.32 14 14 0 0 0 8.87 2.84 50.24 50.24 0 0 0 11.45-1.59c2.59-.57 5.09.23 5.63 2.23.46 1.73 1.44 3.25 1.71 5 .78-.06 1-.58 1.25-1.15.59-1.46-.41-2.59-.83-3.82-.18-.5-.19-.81.18-1.15a2.35 2.35 0 0 1 3.3-.37 4.5 4.5 0 0 0 5.61-.43 13 13 0 0 0 2.64-3 1.86 1.86 0 0 0 .15-2.23 8.42 8.42 0 0 0-4.55 1.94 4.38 4.38 0 0 1-3.56 1c-1.26-.14-1.63-.94-.93-2a9.42 9.42 0 0 1 3.26-3.26c.59-.31 1.2-.91.87-1.5a10.25 10.25 0 0 1-.67-2 6.58 6.58 0 0 1-2.5 2.8 22.69 22.69 0 0 1-8.56 4.84c-2 .51-4 1.63-6.19.91a10.5 10.5 0 0 0-3-.47c-.47 0-1 .11-1.43.08-1.86-.11-3.71-.33-5.57-.38s-3.56-.07-4.9-1.16-3.15-1.88-4.65-3c-1.94-1.41-4-2.69-6-4-1.14-.77-1.87-2-3-2.75q-4-3-7.75-6.26c-1.41-1.2-2.68-.85-3.19.87a3.2 3.2 0 0 1-.86 1.39 6.78 6.78 0 0 0-2.13 3.65l-.16.56V94c-.18.52.29.82.42 1.23zm64.32 106.37c0-.27.18-.54-.11-.93-.43.24-1.1-.07-1.45.61.46.67 1.11 0 1.57.31.09.59.65.6 1 .86.53-.24.8-.94 1.5-.62 0 .26-.6.17-.31.7.83-.44 2-.22 2.64-1.17-1.08-.82-1.63.2-2.36.5v-.74c-.54 0-1-.21-1.51 0l-.3.18-.17.08-.31.17a.8.8 0 0 1-.21 0zm-34.32-.78c-.09-.34.47-.56.2-1a2.34 2.34 0 0 0-2.18 2.18c.72-.3 1.11-1.17 2-1.15-.28.35-.73.59-.77 1.14a3.71 3.71 0 0 0 2.82-2c-1-.43-1.37.63-2.09.84zM78.77 64a2.41 2.41 0 0 1 .63-1 17.46 17.46 0 0 0 1.47-1.51c.31-.41.83-1 0-1.44v-.31c0-.18.23-.37-.16-.61l-1.55 2.29c-.38.15-.37.83-1 .7.07-.66.81-1 .73-1.83-1.24.49-1.4 1.68-1.82 2.65-.12.29.23.14.39.1 0 .68.38 1.32.27 2a.28.28 0 0 0 0 .22 6.74 6.74 0 0 0-2.09 5.23 3.55 3.55 0 0 1-.52 2.06 10.77 10.77 0 0 0-1.27 4.8 64.2 64.2 0 0 0 .29 6.65 11.55 11.55 0 0 0 .64 3.6 1.21 1.21 0 0 0 1.39 1 1.13 1.13 0 0 0 .49-.21 6 6 0 0 0 2-1.67c1.36-1.94 2.48-4.07 3.9-6a5.45 5.45 0 0 0 .52-6l-1 .64c.58-1 1.65-1.84 1.68-3.18a5 5 0 0 0 .89-2.63c.07-.37 0-.56-.43-.29l-.47-.71c1.12-.26 1.33-.74 1-2.16a.92.92 0 0 0-.32-.85l-.85.36c.42-.45.87-.89.66-1.6L84 64a.93.93 0 0 0-.23-.76.88.88 0 0 0-.43-.66l-1.52 1.19-.45-1a2.6 2.6 0 0 0 1.46-2.15 2.27 2.27 0 0 0-1.21.9 7.37 7.37 0 0 1-2.42 2.16l-.51.3zm25.92 85.64a23.16 23.16 0 0 0-3.33-.31v.3l2.84.29c4 .85 8.07.24 12.08.91-.52-.61-.89-1.32-1.7-1.27-3.34.18-6.59.16-9.93.08zm-8.81 28.7c.32-.17.56-.58 1-.43.39.57-.47.76-.38 1.22.62.23 1-.34 1.56-.32.23.09-.27.7.35.59.86-.15 1.86.08 2.46-1a12.38 12.38 0 0 0-2.3-1.62 1.26 1.26 0 0 1-.91-1.43c0-.54.25-1.12-.18-1.74-.82 1-.36 2.26-1 3.24-.23.37-.77.85-.59 1.48zm32.75 1.5c.44.37.84.93 1.49.34h.45a.48.48 0 0 0 .52-.18 2.76 2.76 0 0 0 1.27-.5 10.67 10.67 0 0 1-2.12-2.47c-.29-.46-.63-.48-1.11-.27-1.14.48-1.79 1.52-2.69 2.27-.18.14-.15.35 0 .62.76-.6 1.37.3 2.15.19zM123 146.55c-1 .37-1.87-.42-2.71-.22-2.38.59-4.69-.12-7-.3-3.56-.29-7.13-.24-10.69-.43-1.73-.1-3.61.6-5.18.12a29.6 29.6 0 0 0-6-.76 34.38 34.38 0 0 0-6.17-.16c-.42 0-1-.08-1.08.65a1.3 1.3 0 0 0 .86 1.4 4 4 0 0 0 1.74.12c3.06.16 6.1.82 9.16.58 2.55-.19 5.08.12 7.62.14 3.17 0 6.4.18 9.59.49.75.08 1.49-.08 2.26 0 2 .32 3.93.59 5.91.72 1.54.15 2.08-.69 1.69-2.35zm11.85-26.86-.34-.13c-.92 1.78-2 3.51-2.74 5.36-1.18 2.93-1.64 6.13-3.45 8.83-.82 1.23-1 2.78-1.7 4-1.09 1.92-1 4.15-2.07 6a.44.44 0 0 0 .34-.2c1.75-3 2.42-6.39 4.37-9.31 1.34-2 1.81-4.57 2.85-6.8.43-.92.18-2 1-2.82a7.78 7.78 0 0 0 1.77-4.93zm-38.69 30.63a38.65 38.65 0 0 1 1.89 13.11c1.37-4.29.25-8.76 1.29-13.08a9.43 9.43 0 0 0-3.18-.03zm23.61 47.2c-.21.67-1.5.52-1.12 1.53.49.21.8-.48 1.26-.14.07.76-1 .49-1.07 1.4 1.23-.67 2.29.08 3.44.05.87 0 1.16-.39.76-1.22-.67-1.42-1.33-2.85-2-4.26-1.44.21-1.63.46-1.93 2.47.19.24.46-.2.66.17zm-32.16-48.75c-.39-.37-.72-.17-1-.23A3.15 3.15 0 0 0 82.9 151a3.19 3.19 0 0 0-.06.87c.16 1.44.51 2.87.81 4.47a10.18 10.18 0 0 0 .78-2.87c.34-2.01.57-4.12 3.18-4.7zM56.06 55.54c3.19-3.12 2.71-5.51.44-8.54a3.82 3.82 0 0 0 .31 1.74c.11.4.23 1-.09 1.1-.72.31-.49.83-.45 1.29a6 6 0 0 1-.24 2.6 2.28 2.28 0 0 0 .03 1.81zm28.43 5.61c.81 2.33 1.82 4.5 1.76 7.09 1.46-2.98 1.07-5.65-1.76-7.09zm35.9 89.31a2 2 0 0 0 .63 1.22 1.34 1.34 0 0 1 .4 1.31c-.35.93.2 1.45.93 2.24a13.36 13.36 0 0 1 .77-4.89c-1.03.14-1.84-.19-2.73.12zm-19.58-28.12c.92.22 1.58.41 1.89 1.15.07.15.51.55.81.21a5.1 5.1 0 0 0 1.63-2.25c-1.48.06-2.92-.35-4.33.89zm-12.93 77.37c1.39-1.07 1.31-1.87-.12-2.61-.6-.31-1.35-.44-1.56-1.27v2.46c.89.07 1.22.78 1.68 1.42zm31.37-11.93a48.45 48.45 0 0 0 .38-8.6 25.13 25.13 0 0 0-.38 8.6zM143 96.31c-1.09 2.37-2.92 4.38-3.49 7a19.52 19.52 0 0 0 3.49-7zm-11 84.41c-1.33.39-2.74.32-4.26.65 1.84 1.3 2.78 1.14 4.21-.65zm-2.58-6.5a8.94 8.94 0 0 0-.36-4.29c-.78 1.55-1.11 2.94.34 4.29zM73.71 73.41a6.46 6.46 0 0 0 1-4.59 12.53 12.53 0 0 0-1 4.59zm10 125.28c1.63-.83 1.93-1.78 1-3-.84.82.28 2.3-1 3zM128 174.07c.06 1.32-.71 2.16-1 3.19 1.67-1.26 2-2.07 1-3.19zM73.09 82.64a6.39 6.39 0 0 0 .52 4.72c-.25-1.56-.41-3.13-.52-4.72zm46.55 112c1.36-.53 1.48-.93.68-2.25a6 6 0 0 0-.68 2.29zm5.65 5.53a1.58 1.58 0 0 0-1.13-.76l-.51 1.7a2.69 2.69 0 0 0 1.64-.9zm-29.39-51c1.11-.1 2.2.62 3.56 0a5.43 5.43 0 0 0-3.56 0zm36.64-17.92-1.41 2.67c.92-.67 2-1.08 1.41-2.67zM75.46 105.6a4.3 4.3 0 0 0 2.6 1.24 4.8 4.8 0 0 0-2.6-1.24zm4-48.08a4 4 0 0 0-2.34 1.6 3.94 3.94 0 0 0 2.31-1.6zm54 79.78h.32l.36-2.78h-.33c-.06.93-.58 1.82-.41 2.78zm-15.87 61.6c-.59.26-1.16.3-1.24 1.13.75.06 1.35.08 1.18-1.13zm-1.73 2.1c.06-.5-.23-.63-.58-.61s-.62.17-.51.61zm16.33-98.7c.73-.44.64-.83.34-1.31-.63.3-.38.74-.34 1.3zm-59.57.79c.27.26.56.47.9.18a.33.33 0 0 0 0-.46c-.42-.28-.67-.01-.9.27zm12.77 19.71c.38.8 1 .47 1.54.38zm-11.81-18.08c.42.42.74.59 1.23.45-.22-.55-.54-.71-1.23-.45zm49.86 76.52c.08.61.49.66.91.87-.04-.63-.35-.79-.91-.87zm-34.81 20.24c1-.32 1-.32.68-1a2.16 2.16 0 0 0-.68 1zm56.53-108.94c.62.06.84-.17 1.08-.67-.54.13-.87.13-1.08.67zm-54.78 56.79a.79.79 0 0 0-1 .36.72.72 0 0 0 1-.32zm-7.8 49.16a1.11 1.11 0 0 0-.83.92 1.22 1.22 0 0 0 .83-.92zm36.32-7.44c-.17.22-.29.44.06.61a.45.45 0 0 0-.06-.61zm-20.84-26.86c-.21.05-.23.17-.15.34s.07.06.09.05c.18-.1.12-.24.06-.39zm23-11.35v.08c0 .1.08.11.12 0s0-.06 0-.09zM86 195.16V195z" class="cls-1"/><g id="sound"><path d="M141.6 82.11c-.07 1.31-1.32 1.16-2 1.58s-1.24 1.33-2 1.88-1 1.55-2 2.11c.4-1.89 3.1-5.63 6-5.57zM160.84 94.76c-.24-2-1.48-3.54-1.81-5.6 1.8.84 2.81 4.23 1.81 5.6zM152.27 95.63a.57.57 0 0 1-.54-.61.45.45 0 0 1 0-.16 7.84 7.84 0 0 0 .11-2.11c0-.46.16-.83.66-.75a.75.75 0 0 1 .61.87 13.13 13.13 0 0 1-.84 2.76zM143 88.9c-.56.47-1.1.87-1.57 1.34-.23.23-.44.36-.71.17a.52.52 0 0 1-.1-.73 6 6 0 0 1 1.2-1.45c.8-.57 1.01.07 1.18.67zM155.07 95a12 12 0 0 0 .39-2.68.39.39 0 0 1 .37-.39.49.49 0 0 1 .51.22 2.2 2.2 0 0 1-1.27 2.85zM139.73 87.73c-.16-1.06.54-1.54 1.17-2a.45.45 0 0 1 .61.12c.09.14.16.46.09.53-.54.47-.76 1.4-1.87 1.35zM127.44 96.27a2.67 2.67 0 0 1-1.26 1.66.57.57 0 0 1-.53-.62.64.64 0 0 1 .11-.3 1.49 1.49 0 0 1 1.68-.74zM135.61 99.4c-.79-.37-.47-1.16-.81-1.68-.14-.21.35-.47.67-.2.66.53 1 1.12.14 1.88zM128.84 97.75c0 .71-.25 1.09-.87 1.15a.34.34 0 0 1-.39-.28.37.37 0 0 1 0-.18c.18-.58.56-.81 1.26-.69zM137 96.19c.6.27.64.72.51 1.27-.77-.39-.77-.39-.51-1.27zM143 96.31a19.52 19.52 0 0 1-3.49 7c.61-2.62 2.49-4.63 3.49-7zM132.19 102.29c0-.56-.29-1 .34-1.31.3.48.39.87-.34 1.31zM145.16 92.54c.21-.51.54-.58 1.08-.67-.24.5-.46.73-1.08.67z" class="cls-1"/></g></g><g id="extra-back"><path d="M16.76 151.9a3.13 3.13 0 0 0 1.45 1.19l.27.21a1 1 0 0 0 1 .5.57.57 0 0 0 .77-.22l.16-.29a.67.67 0 0 1 .07-.18l.22.46v.21l-.06.08a.49.49 0 0 0 .13.12l.87.23c1.12-.33 2.3.48 3.4-.18a.54.54 0 0 0 .51.21l.19.07c.11.19.2.16.27 0l.19-.06.29-.18.69-.52c.47.34-.32.59 0 1 .33-.26.5.19.82.19 1.48.5 2.53-.37 3.59-1.22.31.57-.47.69-.24 1.23.78.48 1.46.09 2.17-.6.26.73.64.83 1.37.77 3.12-.22 6.1-1.16 9.15-1.56a34.4 34.4 0 0 0 9.84-3.15c3.54-1.61 7.31-2.72 10.56-5 2.06-1.44 4.21-2.68 5.53-4.94.55-.93 1.66-1.41 2.31-2.24a13.25 13.25 0 0 0 2-4.41c.31-1-.39-2.08-.71-3.09s-1.06-1.58-.38-2.74c.33-.56-.44-1.46-1-2.06-.3-.35-.73-.72-.31-1.09s.93.15 1.1.52a22.65 22.65 0 0 1 1.67 4.84l1-.19a1.74 1.74 0 0 1 .1.19c-.79.94.1 1.74.24 2.58a32.88 32.88 0 0 0 1.23 5c1 2.92-.11 5.43-1 8a7.83 7.83 0 0 1-3.37 3.73 2.77 2.77 0 0 0-1.41 3.09 3 3 0 0 1-.8 2.72 7.62 7.62 0 0 1-4.07 2.66c-.63.16-.79.74-1.06 1.22-.2-.09-.43-.29-.58-.25-2.13.63-4.39.94-5.68 3.2a12.37 12.37 0 0 1-3.1 3.54 3.1 3.1 0 0 0-.74 1.21c-.85 1.88-1.63 3.81-3.31 5.16-.06 0-.15.11-.15.17-.26 2.07-2 2.81-3.39 3.9a3.82 3.82 0 0 0-.88 1c2.25-.4 4.56-.26 6.7-1.13 1.17-.47.9-1.47.72-2.36-.23-1.14-.58-2.24.52-3.18a1.65 1.65 0 0 1 2.85 1c.21.73-.08 1.52.34 2.36a6.06 6.06 0 0 0 3.19-2.83 6 6 0 0 1 1.59-1.92 2.1 2.1 0 0 1 2.66-.09 2 2 0 0 1 .69 2.35A4.71 4.71 0 0 1 64.3 174h-.45c-.56-.31-.56-.31-.89.42.41.08.54-.42.9-.45l-.06.49-.23.24a1.23 1.23 0 0 0-.91.77c-.23.08-.29.25-.17.44s.24.14.36 0h.27a.34.34 0 0 0 .2 0c.81-.12 1.66.36 2.42-.2 1.81-.46 3.62-.88 5.41-1.39 1.22-.35 1.76.08 1.54 1.36a10.57 10.57 0 0 1-2.42 5.21 8.13 8.13 0 0 1-4.1 2.83 2.83 2.83 0 0 1-1.41.18c-2.82-.61-5.76-.41-8.52-1.77a6.63 6.63 0 0 0-5.17.1 25 25 0 0 1-6.74 1.36 4.06 4.06 0 0 1-2.62-.93 5.37 5.37 0 0 0-.18 7.58 4.69 4.69 0 0 0 .52.48c2.2 1.59 4.52 2.81 7.33 2.67a16.45 16.45 0 0 0 5.24-1 2.71 2.71 0 0 0 1.21-.76c1.16-1.56 3-2.11 4.56-3a2.09 2.09 0 0 1 2.6.52c.73.68 1.57 1.31 1 2.52a3.55 3.55 0 0 0-.24 1.51 3.53 3.53 0 0 1-1.45 3c1.57.23 2.91 0 4.09.7s2.12 1.21 2.31 2.59a3.81 3.81 0 0 1-1.48 3.53 3 3 0 0 1-1.57.83c-.66.11-1 .86-1.47 1-1.39.43-2.92 1.39-4.34.6-1-.54-2-.72-3-1.19a4.59 4.59 0 0 0-3-.44c-.22 1.06.61 1.42 1.22 1.85a24.88 24.88 0 0 1 4.16 3.2 3.81 3.81 0 0 1 1.43 2.72c0 2.4-3.41 3.63-5.16 2.44a17.61 17.61 0 0 1-6.34-6.57 9.66 9.66 0 0 0-4.55-4.22 9.56 9.56 0 0 0-6.07-.28 42.39 42.39 0 0 1-9.18 1.2 7.67 7.67 0 0 1-6.65-4.81c-.83-2 .2-3.44 1.17-4.69 2.23-2.89 4.21-6 4.69-9.52a10.44 10.44 0 0 0-3.42-9.83 59.09 59.09 0 0 1-7.14-6.83 19.52 19.52 0 0 0-5.85-4.38 8.75 8.75 0 0 1-3.88-3.54 2.07 2.07 0 0 0-.37-.47 5.41 5.41 0 0 1-1.43-5.76A4.42 4.42 0 0 0 6 151a.91.91 0 0 1-.13-.67c.41-.84-.13-1-.76-1.13.47-2.75-.59-4.91-2.25-6.86a12.19 12.19 0 0 1-2.82-5.84 5.67 5.67 0 0 1 .21-2.24A8.32 8.32 0 0 0 .14 130a4.35 4.35 0 0 1 .17-2.69 37.3 37.3 0 0 0 1.4-5.43 24 24 0 0 1 3.9-8.73c.7-1 1.64-2 1.52-3.38a.47.47 0 0 1 .16-.31c2.75-2.31 3.05-5.56 3.31-8.79A10.31 10.31 0 0 1 12 96a65 65 0 0 0 3.83-7.82c.81-1.85 2.37-3 3.76-4.22.91-.82 2.19-1.29 2.92-2.22.56-.72 1-1.64 1.53-2.43a23 23 0 0 0 2.68-4.5c1.14-2.75 0-5-1.29-7.21-.31-.57-1-.55-1.6-.68A7.88 7.88 0 0 1 19 63.56c-.71-1-1.72-1.9-1.67-3.21a9.71 9.71 0 0 1 1.74-5.83A11.62 11.62 0 0 0 21 51.34a3.93 3.93 0 0 1 2.37-2.47c1.83-.76 1.78-.83 1.37-2.74a42.32 42.32 0 0 1-.82-7.37c-.08-2.45-.73-4.79-.92-7.21s-.49-5.06-.9-7.56c-.51-3.13-1-6.27-1.51-9.4a.94.94 0 0 0-.78-.78 2.56 2.56 0 0 1-1.72-3.2 2.5 2.5 0 0 1 .4-.8c.48-.07.71-.49 1.08-.71 1.07-.63 2.05-1.55 3.46-1.21a1.81 1.81 0 0 1 1 2.35 1.66 1.66 0 0 1-.31.51c-.13.2-.18.49-.36.61-2.3 1.64-1.36 3.73-1.05 5.76.69 4.88 1.52 9.72 2.07 14.61.48 4.27 1.12 8.51 1.62 12.76a10.93 10.93 0 0 0 .88 3.33 4.76 4.76 0 0 1 1.72-2.54c1.47-1.48 2.59-3.33 4.46-4.41 1-.59 2-1.48 3.33-1.11.51.13.61-.36.74-.75.39-1.2.56-2.45 1-3.65A45.77 45.77 0 0 1 42 27.83c1.46-2.45 3.56-4.48 5.41-6.67a34.77 34.77 0 0 1 6.49-6.1c1.11-.78 1.16-2.36 2.25-3 2-1.23 4-2.77 6.73-1.53 1.19.54 2.6.59 3.72 1.42 1.34 1 2.83 4.1 2.08 5.34-1.11 1.83-1.66 4-3.38 5.47a6 6 0 0 1-5.09 1.3 2.44 2.44 0 0 1-2-1 .55.55 0 0 0-1 0c-.48-1.22-1.8-1.92-1.9-3.57a19.07 19.07 0 0 0-8.56 6.91l-.47.72-.21.23-.56 1.14a32.38 32.38 0 0 0-4.28 7.8 6.87 6.87 0 0 0-.09 3.31 17.16 17.16 0 0 1 8.24-1.46c.2.22.36.52.74.49a.46.46 0 0 0 .51.17c1.05.56 2-.12 2.79-.5a32.21 32.21 0 0 0 10.64-7.7c1.61-1.77 2.76-3.94 4.65-5.43a5 5 0 0 0 1.82-3.38c.51-2.69 4.32-5.95 6.67-5.77 2.85.22 6.2 2.72 6.64 6.06 0 .15.07.42 0 .45-1.24.56-.58 1.56-.53 2.37a3.25 3.25 0 0 1-1.23 2.49 8.8 8.8 0 0 1-3.1 2c-.62.26-1.26.44-1.56 1.08-1.22-.43-2.5-.34-3.64-.86a3.91 3.91 0 0 1-.85-.35c-1.34-1-2.38-.91-3.5.42A35.58 35.58 0 0 1 65.1 34c-.55.46-1.2.77-1.72 1.27a.69.69 0 0 0-.49.49l-.49-.25 1.81-1.67-.22-.3-7.59 5.27-.51.23a10.07 10.07 0 0 0-5.31 3.44.85.85 0 0 1-.81.41c-1.47 0-2.74.85-4.22.92-1.2 0-2 1.07-3 1.64a19.86 19.86 0 0 0-5.16 4.46 1.25 1.25 0 0 0-.11 1.75.83.83 0 0 0 .22.2 5.33 5.33 0 0 1 1.73 3.82c-.07 2 .58 4-.45 6.08a10.12 10.12 0 0 1-3.88 4.53c-1.21.72-2.69 1-3.68 2.07-.64.38-.63-.87-1.18-.49-.78.51-1.73.93-1.87 2.1.87-.18 1.11-1.26 2-1.15-.81.7-1.69 1.37-1.59 2.62l.18.52a8.61 8.61 0 0 1-.71 3.36 1.33 1.33 0 0 0-.24 1.2 16.31 16.31 0 0 0-2.16 3.13 10.15 10.15 0 0 1-1.45 2.86l-.25.23-.22.26a.56.56 0 0 0-.53.19l-.18.08c-.52.37-1.53.31-1.23 1.4-1.62.63-3.2 1.31-3.86 3.12l-.23.26a63.69 63.69 0 0 0-2.9 6c-.29.29-.29.69-.41 1-.17.89-1 1.59-.79 2.58.07.19.16.21.28 0h.21v.26a.51.51 0 0 1-.09.18l-.21.21c-.62.46-.38 1.15-.49 1.74-.32.38-.07.7.1 1-.23.44-.94.83-.12 1.36-.28.2-.63.33-.65.75-.5 1-.55 2.18-1.21 3.11-.42.75 0 1.73-.72 2.4l-.76.94-.62 1.75a11 11 0 0 0-1.73 1.88l-.21.27a.51.51 0 0 1-.09.18l-.15.33-.2.2H7l-.26.22c-.26.18-.3.4 0 .53s.5.11.51-.28l.25-.23c.24.17.13.45.2.68A9.73 9.73 0 0 0 4.82 118a1.32 1.32 0 0 0 1.18-.68c.29.17.18.46.22.71l-1.72 1.42c-.44.23 0 .89-.21.9-1.23 0-.81 1.18-1.28 1.72-.27.32-.19.67.3.79a11.75 11.75 0 0 0-.89 1.86l.12 1.14.8-.14c-.19.64-.47 1.13-1.26.72-.22 1.23-.22 1.23.08 1.7.21.09.2.29.23.46-.24 1.19-.73 2.36-.24 3.59l.27.5-.27 1.2a1 1 0 0 0-.18 1c-.13.7-.48 1.4-.05 2.12.05.41-.22.88.2 1.24l.06.18c0 .25.26.23.43.28a.48.48 0 0 0 0 .17c-.19.2-.14.37.08.52a5.21 5.21 0 0 0 1 1.45l.86-1 .29.28c.11.63-1.23 1.2 0 1.9a6 6 0 0 0 1.45-1.65c.2.1.4.2.45.45a4 4 0 0 0-1 1.3l.5-.08.49.44c-.16.25-.34.5 0 .74.06.55-.69.32-.75.76a.74.74 0 0 0 .52.85c.41-.09.47-.38.5-.71.06-.73.45-.71 1-.41a2.85 2.85 0 0 0-.88 2.37l.85-.3v.36l-.75 1c.21.39.62.67.69 1.12l.52.51c.66 0 .86-.56 1.19-.95.44.59-.36.63-.46 1s-.13.75.46.41l.29-.19c.17.62.46 1.39 1.12 1.19.5-.14.67.3 1 .18.38.28.75.44 1.13 0l.51.26c1-.24 1.61.43 2.38.75a1 1 0 0 0 .71.47zm12.75 18.71-.23-.24-.25-.22-.23-.15a.4.4 0 0 0-.18-.1 12.93 12.93 0 0 0-4.2-3c.37.82 1.25 1 1.83 1.54a9.83 9.83 0 0 0 1.87 1.72l.21.25.19.29.28.2.27.44c.59 1.59 1.12 3.2 1.77 4.76a13 13 0 0 1 1.24 5.27c0 1.44-.21 2.87-.33 4.42a1.71 1.71 0 0 0 .66-1.12c.86-2.52.46-5.08.06-7.58-.35-2.23-.72-4.61-2.72-6.18zm25.24-5.74.29-.23c1.78-1.68 3.06-3.79 4.72-5.57.49-.33 1.12-.52 1.4-1.06a16.56 16.56 0 0 0 1.46-7.14c0-.16 0-.31-.3-.29a17.52 17.52 0 0 0-.55 3.21c-.34 1.89-1.45 3.48-2 5.29-.72-.12-.55-.45-.27-.9a11.7 11.7 0 0 0 1.68-7c-1.6.41-2.81 1.61-4.39 2a.46.46 0 0 0-.38.4 12.94 12.94 0 0 1-.57 2.61c-.6 2.45-.45 5-1.4 7.42a1.21 1.21 0 0 0-.25 1c-.71 1.49-1.77 2.78-2.36 4.33a.63.63 0 0 1-.74.49.44.44 0 0 1-.19-.07 3.23 3.23 0 0 1 .43-1.82c.34-.89.68-1.79 1-2.69.79-2.31.87-4.76 1.32-7.14a4.14 4.14 0 0 0 0-2.94c-1.74.07-3.25.82-4.72 1.08a63.58 63.58 0 0 1-4.5 20.46c2.18-.33 5.79-3 7.19-6.63a31.79 31.79 0 0 0 2.92-4.5zm7.66-8.87-.18.21-.1.44c-.26.36-.59.71-.32 1.29l.87-.27a11 11 0 0 0 2.35-.84 1.73 1.73 0 0 0 1.16-1.39c.25-1.69.56-3.37.67-5.06a4.85 4.85 0 0 0-.25-2.89 5.15 5.15 0 0 0-1 .49c-.74.64-2.08.93-2.12 1.95a47.51 47.51 0 0 1-.6 5.06l-.2.49a.36.36 0 0 0-.06.2l-.18.29zM27.85 61.18l-.25.22c-.2 0-.4 0-.48.24l-.21.25-.12.21a11.74 11.74 0 0 0-2.52 3.9c.4.28.78.23.79-.16.08-1.68 1.39-2.59 2.28-3.76a.66.66 0 0 1 .76.5c-.48.63-1 1.25-1.43 1.9a1.72 1.72 0 0 0-.32 1.66c.24.51.79.26 1.2.2.62-.1.54-.66.63-1.12.16-.86.55-1.44 1.56-1.23.1.67-.55 1-.48 1.7l1.18-.69c-.21.86.28.72.74.71 1.13 0 1.82-.92 2.69-1.43 2.39-1.38 4.42-2.86 3.92-6.31-.53-3.69-3.24-7.43-6.92-8.36-.3.7-.58 1.23-1.58.89a1.68 1.68 0 0 0-1.84.41c.33.35 1.07-.25 1.14.6l-.76.8a17.05 17.05 0 0 1-3.53 4 3.1 3.1 0 0 0-.26.47 9.68 9.68 0 0 1 2.59-1.3c.52.35-.23 1.14.5 1.42v.49c-2.08 1.35-3.35 3.45-4.88 5.3-1.29 1.56-.91 2.44 1.14 3.06A11.53 11.53 0 0 1 27.64 60c.74 0 .85.38.45 1l-.24.23zm4.55-18.25c-.37.13 0 .39-.1.57-1.72.46-1.52 2.21-2.24 3.34l.16.14.49.26 1.43 1A12.41 12.41 0 0 1 34 45.45a.66.66 0 0 0-.64 0v-.37l.28-.18A5.51 5.51 0 0 0 37 41.77c-.49 0-.49.35-.68.47l-.48-.54c-.4-.06-.59.2-.76.5a6.59 6.59 0 0 0-2.74 1.32 1.63 1.63 0 0 1 .08-.61h.11l-.08-.08zm20.87 109a.49.49 0 0 0 .51-.22 1.87 1.87 0 0 0 1.46-.24c2.32-.49 4.62-1 6.47-2.63 1.6-1.27 3.48-2.19 4.77-3.9l-5.54 3.36c-2.38.92-4.87 1.55-7.17 2.69l-.29.16a1.7 1.7 0 0 0-1.18.51 18.61 18.61 0 0 1-5.19 2c-1.07.2-2.15.1-3.2.34a61.6 61.6 0 0 1-7.23 1.55c-.19 0-.48.08-.42.64a47.84 47.84 0 0 0 16.55-4.06.27.27 0 0 0 .21-.07zM28.05 197.2l.26-.2c.34 0 .52.13.49.48l-.3.44c-.19 0-.37.07-.4.3a.38.38 0 0 0-.08.17l-.26.26c-.85.68-2 1.07-2.24 2.37 1.31-.79 2.49-1.76 4.15-1.81l-.17.44c-.32.17-.15.48-.23.72a2.77 2.77 0 0 0-1.48.93c-.45.57-.38 1 .49 1.14.19-.73.85-1 1.24-1.59l.32-.21a.43.43 0 0 0 .16 0 1.24 1.24 0 0 1 1 .24 4 4 0 0 0-.95 1.62 7.61 7.61 0 0 1 2.4-1.85c.39.38 0 1 .55 1.38.49-.29.75-1.11 1.56-.69l-.18.28a.44.44 0 0 1-.08.2c-.43.47 0 .57.29.48.56-.17 1.19-.07 1.69-.45a20.48 20.48 0 0 0 3.61-2.27c-.2.87-1 1-1.08 1.67a6.31 6.31 0 0 0 .87 0 7.71 7.71 0 0 1 4.31.06 6.15 6.15 0 0 1 1.77.69c1.65 1.39 3.69 2.41 4.63 4.5.28.65.62.28 1 .21 0 .7-.34 1.43.49 1.81.68-.1.49-1 1.17-1.15.05.47-.31.72-.45 1.06-.21.52-.48 1.11.42 1.28l.31.06c0 1.22.65.11 1 .25.18.43-.71.79-.07 1.23s.93-.46 1.82-.6c-1.37.89-.28 1.21-.08 1.77.31-.22.56-.35.61-.66.32.29 0 .8.36 1.11.91.11 1.38-.53 1.69-1.2.23-.5.57-1.18 0-1.66a28.3 28.3 0 0 0-5.48-4c-1.22-.63-1.65-1.22-1.43-2.48s1.18-1.39 2.07-1.43a1.86 1.86 0 0 0 1.8-1.08c0 1.46.69.14.93.62 0 .6 0 .6.43.66l.52.45.19.07c.57.42 1.15.85 1.46-.26.31.9.31.9.72.73 1-.72 1.29-2.22 2.89-2.39-.33 1-1 1.56-1.15 2.48 1.16.2 1.2-1 1.84-1.31l.27.26c-.06.33-.56.45-.43 1 1.59-.41 2.41-1.89 3.73-2.63a1.2 1.2 0 0 0 .25-1.69 2.39 2.39 0 0 0-2.52-1c-2 .6-4.11.86-6.16 1.32a15.14 15.14 0 0 1-4.68.67c-1.26-.11-1.71-.68-1.18-1.82.72-1.57 1.65-3 3.56-3.23l.28-.21c.35.2-.08.71.31.9.5-.16.59-.54.61-1l.22-.24a.51.51 0 0 0 .07-.17c.58.34-.3.92.27 1.29.31.1.33-.48.67-.39.09.24-.2.59.25.68h.19c.14 0 .21-.06.21-.2l.33-.41.22-.27c.27.16 0 .69.51.7s.52-.38.58-.66c.09-.48.68-.71.57-1.26a.47.47 0 0 0 .25-.47 4.33 4.33 0 0 1 .36-.62 1.68 1.68 0 0 0-.12-2.36c-.53-.64-1.33-.29-1.94.19s-1 .67-1.42 1.07a11.27 11.27 0 0 1-6.59 3 16.8 16.8 0 0 1-6-.09c-1.23-.31-2.5-.42-3.72-.75-.83-.23-1.85-.56-2-1.51a4.29 4.29 0 0 0-1.12-2c-.84.44-1.16 1.42-2 1.56a27.11 27.11 0 0 0-3.44 1 4.76 4.76 0 0 1-3.78-.63c-.46-.26-.81-.5-1.4-.17s-.2.88-.23 1.27c-.74.59-1.76.73-2.27 1.7.77.1 1.15-1 1.85-.27 0 .36.4.16.52.42-.67.3-1.37.62-.71 1.54a.82.82 0 0 0-.09.19c-.28.18-.22.34 0 .48.15.32.29.17.43 0zM65.26 20.82c.18 0 .37.05.35-.24a.33.33 0 0 0-.33.26.6.6 0 0 0-.53.43l-4.21 1.16.13.38c1.46-.26 3.06-.07 4.17-1.44.27-.08.47-.22.42-.55zm8.88 3.61c-.28.09-.58.18-.7.5-.57.43-.37 1.71-1.92 1.22.75 1 1 2 2.15 1.89.28.16 0 .72.5.72.41.22.7 0 1-.23a5.47 5.47 0 0 1 2.36-1.26c-.3.94-1.51.88-1.64 1.8.57.2 1-.16 1.47-.16a5.06 5.06 0 0 0 5.11-6.25c-.38-1.8-1.38-2.55-3.17-2.2-1.32.27-3 0-3.54 1.79-1.56.16-2.29 1.71-4 1.89.44.42.66.08.79.33s-.55.6-.29 1a4.67 4.67 0 0 1 3-2l-.74.64a.39.39 0 0 0-.38.32zM73 146.12h-.25c.09-1 .47-2.06-.14-3.1a14.49 14.49 0 0 1-1 4.87c1.3-.18.72-1.28 1.18-1.79.2.21-.29.84.45.7a5 5 0 0 0 2-3.36 12.79 12.79 0 0 1 1-3.42 3.27 3.27 0 0 0-.11-2.4c-.6.62-1 1.28-1.52 1.86S73.16 141 73.33 142a9.9 9.9 0 0 1-.17 3.64.47.47 0 0 0-.16.48zm-16.18 27.17s.13.12.15.11a.21.21 0 0 0 0-.22 4.9 4.9 0 0 0-.39-2.06c-.3.98-.38 1.62.24 2.17zm4.09-157a8.55 8.55 0 0 0-2.69 2.95l.59-.29c-.05.56-.59.83-.77 1.3-.11.27-.39.63.25.59h.32c-.07.66.52.58.81.57 2.89-.06 5.22-.29 6.69-3.27.72-1.46.46-2.3-1-2.82s-3.28-.16-3.92.66zM30.49 181.86c.5 2.37-.46 4.48-1.39 6.61.92.19 1.06-.38 1.23-.84a15.68 15.68 0 0 0 .66-5.74 1.15 1.15 0 0 0 .16-1c.13-1.82-.71-3.39-1.2-5.06a12.48 12.48 0 0 0-5.49-7.65 38.83 38.83 0 0 1-4.24-3.08 16.35 16.35 0 0 0-5.11-3 5.49 5.49 0 0 1-3.44-3.1 7.8 7.8 0 0 1 .31-5.85c-1.3-.47-2.81-.43-4-1.4a9.23 9.23 0 0 1-.26 4.52 1.49 1.49 0 0 0 .09 1.17c1.29 2 2.63 4 4.82 5.18.7.39 1.55.41 2.16.91a34.61 34.61 0 0 0 5.64 3.91A20.5 20.5 0 0 1 27.2 174a18.51 18.51 0 0 1 3.09 7 .74.74 0 0 0 .2.86zm1.2-15.58-.24-.47c0 .36.11.42.27.45a15.1 15.1 0 0 0 2.9 5.54 8.63 8.63 0 0 0-2.93-5.52zm-16.33-13.94c-.43-.73-.88-1-1.48-.11.51.69 1 .5 1.5.08 0 .41-.63 1-.1 1.16.76.27 1.16 1.08 2 1.16a8.59 8.59 0 0 1 3.06.9c.37.19.69.21.8-.33-.08-.07-.16-.2-.25-.21a7.43 7.43 0 0 1-4.62-2.42c-.18-.19-.61-.16-.91-.23zm37.48 13.24c2.11-3.53 1.94-7.57 2.65-11.45-1 .11-1.09.11-1 .79a15.58 15.58 0 0 1-.32 3.41c-.24 1.63-.47 3.25-.86 4.86a4.46 4.46 0 0 0-.41 2.41h-.07zm14.88-10.05c.56-.48 1.27-.88 1.36-1.72a15.63 15.63 0 0 1 1.64-4.81 7.53 7.53 0 0 0 .69-5.71c-1.12.68-1.67 1.92-2.83 2.42-.1 0-.06.44 0 .67a19.75 19.75 0 0 1-1.15 8.62c-.21.15-.32.36-.17.58s.31.11.46 0zm-31.62 2.69h-7.82c-.46 0-1.19-.13-1.35.49a2.08 2.08 0 0 0 .55 2q2.94 2.7 5.6 5.67a12.56 12.56 0 0 1 2.64 6c.67 3.7.26 7.43 0 11.14a13.59 13.59 0 0 1-1 4.75c-.38.84-.92 1.55-.47 2.61a10.19 10.19 0 0 0 3.23-1 1.84 1.84 0 0 0 1.13-2.07 10.48 10.48 0 0 1 1.13-5.55 24.13 24.13 0 0 0 1.26-3.52c.59-1.69 1.06-3.48 1.58-5.23s1.7-2.79 2.23-4.35a32.77 32.77 0 0 0 1.64-9.26 23.21 23.21 0 0 0-.29-3.21 23.35 23.35 0 0 1-6.29 1.8.43.43 0 0 0-.43.49c.27 1.19-.31 2.38 0 3.55.71 2.73.34 5.52.27 8.26-.05 2-.52 4-.39 6.07a12.43 12.43 0 0 1-.24 4.86c-.72 2.1-1.11 4.29-1.84 6.39A4.25 4.25 0 0 1 36 189.8a1.34 1.34 0 0 1 0-1.23 10.12 10.12 0 0 0 .6-2.3 103.38 103.38 0 0 1 1.4-10.79c.76-4.67-.36-9.07-1.4-13.51-.27-1.22-.93-2.38-.49-3.75zm-5.65 31.34c2.63 1.55 2.63 1.55 3.39-1.13 0-.16.12-.3.16-.45a38.59 38.59 0 0 0 .88-11.39c-.21-3.12-2.34-5.5-3.32-8.33-.82-2.39-2.84-3.6-4.92-4.73a2.8 2.8 0 0 1-1.38-1.09c-.66-1.34-1.61-2.56-1.79-4.11-.09-.74-.61-1-1.23-1.1a21.38 21.38 0 0 1-7.63-2.39c-.65.94-1.25 1.86-.64 3a11.43 11.43 0 0 0 4.4 4.79c3.43 2 7.29 3.31 10.36 6 2 1.73 3.64 3.57 4.11 6.29a57.83 57.83 0 0 1 .87 7.64 6.52 6.52 0 0 1-1.46 4.69c-.62.75-1.17 1.49-1.8 2.31zm26.77-14.64a7.24 7.24 0 0 1-1 1.07c-1.21 1-2.31 2.2-4.16 1.93a7.45 7.45 0 0 0-4.06.53 3 3 0 0 1-1.42.07c-.67-.05-1.33-.69-2 0a8.3 8.3 0 0 0-1.49 1.48c-.21.38-1 1.19.09 1.54a2.77 2.77 0 0 0 1.61.09c2.84-.67 5.62-1.8 8.64-1.24a6.73 6.73 0 0 0 1.19-.07c1.3 0 2.62-.46 3.89.16a25 25 0 0 0 3.33 1.2 6.43 6.43 0 0 0 7-1.31 7.5 7.5 0 0 0 2.57-4.48 4.84 4.84 0 0 0-2.63.33c-1.61.76-3 2-4.92 2.12s-2.92-.84-2.64-2.71a.71.71 0 0 0-.34-.86c-1.08.39-2.3 1.32-3.61.16zM49.24 41A6 6 0 0 0 44 39.88a14.93 14.93 0 0 0-9.71 6.73c-.41.62-1.18 1-1.23 1.9a6 6 0 0 1 1.07.62 1.34 1.34 0 0 0 1.9.16 1.2 1.2 0 0 0 .34-.43 35.23 35.23 0 0 1 6.37-6.07 7.17 7.17 0 0 1 4.43-1.44 4.65 4.65 0 0 0 2.07-.35zm-10.58-.17c1.58-.42 1.64-.49 1.68-1.9a19.08 19.08 0 0 1 .16-2.5c.31-2 1.55-3.59 2.52-5.25 2.68-4.63 5.47-9.18 10.46-11.8 1.59-.83 1.6-1.24 1-3.11-6.71 6.1-12.77 12.48-15.34 21.42a5.67 5.67 0 0 0-.48 3.17zm.23 127.37c.28-.39.14-.76.17-1.1.26-2.52-.51-5-.44-7.5 0-.38.14-.87-.37-1a1.34 1.34 0 0 0-1.26.1c-.4.34-.16.79-.08 1.22.24 1.21.7 2.35 1 3.55.37 1.53.46 3.18 1 4.77zm7 .88c-4 7.12-4 7.12-3.88 9.76 1-.77 4-8.18 3.87-9.72zm-16.49-5.3c-.35-.39-.49-.58-.66-.73-1.29-1.11-2.57-2.22-2.8-4.06-.1-.8-.73-.79-1.32-.85-.18 2.27 1.53 4.75 4.77 5.68zm-15.51-9.63c-.77-.45-.8-.47-1-.17-1.61 2.23-1 5.34 1.91 7-1.38-2.27-3-4.33-.92-6.79zm23.56 2.64c3.24.65 6-.86 9-1.49l-.06-.3zm10.32-.53c-.29 0-.71.08-.65.44.2 1.24-.35 2.47 0 3.67A5.7 5.7 0 0 1 47 163a7.94 7.94 0 0 0-.41 2.86c.69-3.16 2-6.22 1.18-9.56zm-23.27-.1c3.3 1.22 2.52 1.18 3.63-.68-.62-.14-1.29.3-1.71.19-1.22-.28-1.18-.41-1.93.53zm41.58-125.4c1.47-1.39 3-2.69 3.69-4.69-1.77 1.16-2.7 2.93-3.69 4.69zm1.54 113.43c1.8-1.38 3.91-2.5 4.88-5.12-2.29 1.34-3.04 3.75-4.88 5.12zm-43.07 29.3a10 10 0 0 0-4.65-4.18c1.26 1.69 3.1 2.74 4.65 4.18zM20.48 62.63l.29.2 3.47-4.31c-1.7 1.02-3.24 2.18-3.76 4.11zm40.79-49.08c.7-.21 1.3-.42 1.91-.57s.51-.47.51-.8-.33-.39-.61-.44c-1.08-.21-1.65.35-1.81 1.81zm4.78 163.36a8.31 8.31 0 0 0-3.71.24c.8 1 1.83.96 3.71-.24zM50.38 40.67c-.82-2-1.75-2.41-3.18-1.69zM20.16 11.41c.58-.21 1.14-.36 1.67-.6a.68.68 0 0 0 .45-.86.42.42 0 0 0-.06-.14c-.26-.47-.59-.34-.93 0-.19.21-.56.24-.83.39a.72.72 0 0 0-.51.87.75.75 0 0 0 .21.34zM66.71 155a7 7 0 0 0 .77-5.49zM80 18.09c-1.5-1.06-2.17-1-3 .23-.33.49-.07.62.49.71a1.25 1.25 0 0 1 1.14-1.28l.33.92c.38-.08.8-.01 1.04-.58zM63.39 172a3.54 3.54 0 0 0 1.88-1.14.54.54 0 0 0 .06-.76.59.59 0 0 0-.82 0 3.14 3.14 0 0 0-1.12 1.9zm-33.13 18.78a2.21 2.21 0 0 0 3 .87 1.82 1.82 0 0 0 .23-.15c-1.26.18-2.02-.8-3.23-.72zm7.44-7a10 10 0 0 0 .68-4.23 10.18 10.18 0 0 0-.68 4.26zm-13.38 15.15a6 6 0 0 0 2.68-2.44 4.56 4.56 0 0 0-2.68 2.44zm4.52-42.17c1-.32 2.12.56 2.62-.89a2 2 0 0 0-2.62.89zm42-130.07a14.39 14.39 0 0 0-2 2.48c2.16-1.39 2.16-1.47 2-2.48zM23.63 155.24c-1.32-.37-1.49-.35-1.95.26 1.77.23 1.77.23 1.95-.26zm11.91.75c-1.77-.45-2.57-.26-2.85.6a6.22 6.22 0 0 0 2.85-.59zm-9.31 40c-.36-.2-.61-.8-1.13-.32s-.37.88.08 1.27a1.29 1.29 0 0 0 1.05-.94zM20.81 60A8.8 8.8 0 0 0 23 57.58a4.54 4.54 0 0 0-2.18 2.33zm-1.62 1.4c.14-1 .41-1.81-.13-2.57a2.24 2.24 0 0 0 .13 2.57zm10.09 6.37c-.87-.34-1.25.19-1.65.57-.18.18-.23.53.31.62zm13.45 125.1c-.4-.68-.8-1.11-1.63-1 .21.89.81.99 1.63 1zM21.21 57.44l-1-.24c-.05.42-.18.76.13 1.14.24-.34.73-.27.87-.9zM35 41.52c-1-.15-1.52.33-2.21 1.06A5.73 5.73 0 0 0 35 41.52zm39.68 95.94c.4-.52 1.23-.91 1-2.1zM31 202.66c.81-.25.91-.85 1.22-1.28-.43.33-1.22.33-1.22 1.28zM52.8 154a2.17 2.17 0 0 0 1.83-.58 2.8 2.8 0 0 0-1.83.58zM22.6 56.27c.48-.21.85-.34 1-.89-.45.21-.86.23-1 .89zM55 197.08c-.27.2-.84.21-.54.83.43-.1.7-.29.54-.83zM21.39 54.37c.36-.17.73-.19.57-.71a.87.87 0 0 0-.57.71zm-.66 1.41c.25-.12.39-.24.32-.46 0-.06-.19-.14-.24-.11-.21.11-.16.31-.08.57zm31.36 98.28a.32.32 0 0 0-.22.17c0 .09 0 .24.14.22a.39.39 0 0 0 .28-.15c.07-.13-.03-.2-.2-.24zM5.65 142.63c-.23 0-.38.15-.29.4 0 .06.23.14.27.11.19-.14.17-.33.02-.51zm61.88 6.65.16.13.06-.07-.16-.15z" class="cls-1"/><g id="antenne"><path d="M9 18.56c-.48-.26-.61-.43-.65-.7a23.67 23.67 0 0 1 0-8.64 5.32 5.32 0 0 1 2.45-3.76c.27-.15.57-.39.85 0s.06.62-.12.88c-.43.61-1.13 1-1.44 1.72a16.84 16.84 0 0 0-1.41 7.3c.07.97-.28 2.01.32 3.2zM34.13 10.31a18.65 18.65 0 0 0 .36-4.6A6.21 6.21 0 0 0 31.81 1c-.33-.21-.49-.42-.33-.76S32 0 32.3.1a4.25 4.25 0 0 1 2.48 2.58 8.11 8.11 0 0 1-.65 7.63zM12.69 17.44c-.85-2.19-2.33-3.81-1.8-6.09A17.61 17.61 0 0 1 12 8.47.82.82 0 0 1 13 8l.17.08c.49.29.16.67-.06 1a7.17 7.17 0 0 0-.41 7.12 2 2 0 0 1 .15.57 2.77 2.77 0 0 1-.16.67zM30.16 9.07c-.42-.67.12-1.35 0-2-.3-1.34-1.35-2-2.17-2.72s-.82-.56-.1-1.36c3.81 1.46 3.94 4.31 2.27 6.08zM26.47 4.88c1.68.25 2.33 2.62 1.41 4.46zM15 9.13c.92.87-.13 2.4 1.13 3-.34.63-.71.78-1.2.37s-.64-2.35.07-3.37zM20.16 11.41a.7.7 0 0 1 0-1 .76.76 0 0 1 .26-.16c.27-.15.64-.18.83-.39.34-.37.67-.5.93 0a.69.69 0 0 1-.26 1h-.13c-.49.19-1.05.34-1.63.55z" class="cls-1"/></g></g><g id="texture"><path d="M7.64 115.12c-.07-.23 0-.51-.2-.68a42.71 42.71 0 0 1 5.23-3.26c1.91-1.22 3.86-2.38 5.7-3.7.31-.23.59-.57 1.06-.47a11.64 11.64 0 0 1-4.36 3.48c-1.5.78-2.86 1.82-4.28 2.74l-.26.23zM53.7 41.68l2.7-2.1.28-.22a2.56 2.56 0 0 0 1.18-.73c1.48-1.11 2.77-2.48 4.54-3.16l.49.25-4.27 3.35a15.88 15.88 0 0 1-3.93 2.55.65.65 0 0 0-.4.78c-.29-.11-.29-.52-.59-.72zM132 150c.64 0 .41-.56.46-.9.06-.5-.14-1 .23-1.49a42 42 0 0 1-.7 8l-.51 3.55c-.61-.12-.2.73-.69.73a13.36 13.36 0 0 1 .09-1.9c.37-2.74.76-5.39 1.12-7.99zM109.73 116.14a1.15 1.15 0 0 1 1.1-.22 40.12 40.12 0 0 0 7 .7l.73.45.25.18-2.91.1a28.75 28.75 0 0 1-3.93-.29 1.47 1.47 0 0 0-1.83.73 2.6 2.6 0 0 0-.41-1.65zM25 154c-1.1.66-2.28-.15-3.4.18a2.75 2.75 0 0 1 1.49-1.61l-.31.86c.91-.21 1.47-.88 2.21-1.19.36-.15.7-.46 1 .06-.09.24-.13.46.22.52l-.91 1a.24.24 0 0 0-.3.18v.06zM21.82 84.67c-.3-1.09.71-1 1.23-1.4.09.8.52.25.75.16 1.81-.71 3.61-1.45 5.41-2.18.28-.12.55-.36 1.23.14-3.05 1.08-5.74 2.38-8.62 3.28zM20.65 153.57l-.22-.46c1.54-1.68 3.13-3.27 5.65-3.23l.14.16c-1.22.65-2.07 1.78-3.2 2.55.11-.5 1-.63.65-1.45a8.59 8.59 0 0 0-3.02 2.43zM136.51 122.3l.12 1c.31 0 .22-.39.43-.49.08 2-.74 3.8-1 5.72a1.68 1.68 0 0 0-.2 1 .31.31 0 0 0 0 .19l-.18.29a.37.37 0 0 0 0 .21l-.23.52H135c.19-1.09.59-2.11.8-3.2.2-1.73.43-3.49.71-5.24zM10.79 108.67c.67-.67.3-1.65.72-2.4.91.11 1.36-.84 2.17-1 0 .29-.43.55-.08.84s.5-.08.75-.14l.26.23zM13.49 101.05c-.17-.32-.42-.64-.1-1 .13.32.39.36.47 0 .37-1.58 1.69-2.1 2.94-2.7-.57.88-1.7 1.19-2.15 2.18A13.25 13.25 0 0 0 17.08 98c.26-.23.57-.63.73.08l-.23.21-.32.17a.49.49 0 0 0-.17.06l-.26.22-.26.23-.25.24zM40.81 99.54a.59.59 0 0 0 .45-.45 24.07 24.07 0 0 1 2.43 5H43a46.35 46.35 0 0 1-2.19-4.55zM14.45 95.07c.12-.35.12-.75.41-1 1-.4 1.56-1.32 2.33-2a12.49 12.49 0 0 1 1.13-.77c.33.64.21 1.14-.35 1.43a7.51 7.51 0 0 0-2.44 2 1 1 0 0 1-1.08.34zM57.1 83.45a2 2 0 0 1-1.68 1.43 17.79 17.79 0 0 1 1.63-3.34c.91.12.87-.77 1.28-1.19h.44v.51c-.92.6-1.08 1.74-1.67 2.59zM13.49 101.05l2.77-1.77.51.26c-.33.63-1.29.65-1.43 1.47a3.52 3.52 0 0 1-2 1.4c-.79-.53-.08-.92.15-1.36zM25.63 81.53l6.8-2.79.26.23a31 31 0 0 1-6.56 2.77zM12.72 108.25a37.82 37.82 0 0 1 5-3 1.62 1.62 0 0 1 .44 0l.16.33-5.6 3z" class="cls-1"/><path d="M12.72 108.25v.26a9.28 9.28 0 0 1-3.31 2.85l.62-1.75c1.05-.14 1.78-.94 2.69-1.36zM120.19 164.77l.25 1.25a16.32 16.32 0 0 1-.19 3.63c0-.3-.12-.57-.51-.5a11.6 11.6 0 0 1 .45-4.38zM127.22 116.63a.37.37 0 0 1 0 .21c-.18.23-.75-.11-.71.46h-.72c-.18-.73-.59-.44-1.17-.4.46.5.85.28 1.17.4a4.38 4.38 0 0 1-2.68 0c-.07-.18-.16-.34-.39-.36a1.13 1.13 0 0 0-.1-.13 16.14 16.14 0 0 1 4.6-.18zM18 87.8c.66-1.81 2.24-2.49 3.86-3.12v.24c-1.49.73-2.38 2.21-3.86 2.88zM25.63 81.53l.5.21-1 .28a1.14 1.14 0 0 1-.94.5 10.15 10.15 0 0 0 1.45-2.86c.19.56.55.3.87.17.51-.21 1-.44 1.52-.66a3.84 3.84 0 0 1-1.49 1.09c-.38.21-1.39.28-.91 1.27zM27.89 154.71c-.32 0-.49-.45-.82-.19-.3-.4.49-.65 0-1l2.61-.88c-.35.95-1.58 1.04-1.79 2.07z" class="cls-1"/><path d="M18 87.8c1.5-.67 2.39-2.15 3.85-2.88.05.28.32.5-.12.8-1.18.79-2.29 1.67-3.43 2.52L18 88v-.2zM22.07 149l1.48-1.59c.56-.13.93-.72 1.9-.74a38.32 38.32 0 0 0-3.84 3.33l-.05-.39.29-.42zM93.86 177.09c.3.21.64.43.22.82s-.9 1-1.7.76l-.44-.13a5 5 0 0 1 1.92-1.45zM62.45 80.4c-.68.67-1.22.35-1.72-.25a2.78 2.78 0 0 1 .71-1.48c.64.42.49 1.33 1.01 1.73zM21.56 149.65l.05.39c-.73.89-1.44 1.8-2.21 2.66-.37.42-.4.75 0 1.1a1 1 0 0 1-1-.5c1.12-1.21 1.84-2.69 3.16-3.65zM17.8 98.13c-.16-.71-.47-.31-.73-.08a13.25 13.25 0 0 1-2.43 1.5c.45-1 1.58-1.3 2.15-2.18.37.12.63-.2 1-.27.08.36.53.67.01 1.03zM14.61 106.24l-.26-.23a8.3 8.3 0 0 1 3.44-1.73c-.94 1.28-2.31 1.21-3.18 1.96zM13.66 105.33a8.32 8.32 0 0 1 2.86-2.12c-.47 1.35-1.73 1.65-2.86 2.12zM32.69 79l-.26-.23c.69-.31 1.37-.64 2.06-.92.41-.17.84-.3 1.22.08A9.32 9.32 0 0 1 32.69 79zM15.34 101c.14-.82 1.1-.84 1.43-1.47l.31-.17.17-.1.27-.17.21-.07.23-.2a.52.52 0 0 1 .24.51c-1.07.33-1.65 1.53-2.86 1.67zM14.18 97.9v-.26a18.61 18.61 0 0 1 3.08-2.21l.07.07a7.75 7.75 0 0 1-3.15 2.4zM57.1 83.45c.59-.85.75-2 1.71-2.61.2.66-.78 1-.5 1.67-.31.49-.48 1.05-1.21.94zM16.33 102.73l-1.23.43 2.06-2c.24 1.04-.56 1.14-.83 1.57zM26.15 152.84c-.35-.06-.31-.28-.22-.52l2-1.57c-.24 1.01-1.25 1.33-1.78 2.09zM118.55 117.07l-.73-.45a20.81 20.81 0 0 1 4.6.18l-.1.13c-1.26-.01-2.53-.31-3.77.14z" class="cls-1"/><path d="M58.8 80.85v-.51c.34-.55.5-1.23 1.25-1.49a4.66 4.66 0 0 1-1.25 2zM58.33 80.35c-.41.42-.37 1.31-1.28 1.19.19-.38.37-.77.57-1.15s.45-.39.71-.04zM119.74 169.14c-.07 1.13.31 2.28-.2 3.38.16-1.12-.31-2.28.2-3.38zM14.4 103.62c-.39.59-.77 1.2-1.64 1 .56-.3.97-.86 1.64-1zM17.74 97.13c-.33.07-.59.39-1 .27a4.54 4.54 0 0 1 1.35-1.11c.24.52-.25.57-.35.84zM65.75 175.64c-.76.56-1.61.08-2.42.2.77-.53 1.67 0 2.42-.2zM26.08 149.88c.21-.4.59-.38 1.07-.56a1.38 1.38 0 0 1-.93.72zM7.19 114.67c0 .39-.31.36-.51.28s-.26-.35 0-.53zM62.66 175.42a1.23 1.23 0 0 1 .91-.77 1.06 1.06 0 0 1-.91.77zM18.22 99.31a.52.52 0 0 0-.22-.51c.14-.1.28-.14.38 0s-.02.37-.16.51zM50.14 38.63c-.38 0-.54-.27-.74-.49a.79.79 0 0 1 .74.49zM64.09 79.41a.36.36 0 0 1 .16-.43c.13.24.16.4-.19.4z" class="cls-1"/><path d="M62.85 175.85c-.12.15-.27.17-.36 0a.29.29 0 0 1 .17-.44zM15.12 103.14a1.16 1.16 0 0 1-.74.5.74.74 0 0 1 .74-.5zM62.89 35.74a.69.69 0 0 1 .49-.49.53.53 0 0 1-.49.49zM63.85 174h.45a.78.78 0 0 1-.5.47l.06-.49zM25.46 154.24A.53.53 0 0 1 25 154h.27zM25.22 154H25a.24.24 0 0 1 .24-.22h.06a1.72 1.72 0 0 0-.08.22zM50.64 38.79a.46.46 0 0 1-.51-.17zM23.23 83.19c.13-.2.33-.18.53-.19a.48.48 0 0 1-.53.19zM94.25 176.8c0 .22-.2.28-.4.3.04-.23.2-.29.4-.3zM17.09 99.36l-.31.17zM17.53 99.09l-.27.17zM16.27 99.28l.25-.24zM18 98.82l-.23.2zM16.52 99.05l.26-.23zM16.78 98.83l.26-.22zM17.21 98.55l.32-.17zM17.54 98.37l.23-.21zM13.88 98.29l.21-.21zM14 97.69c-.12.17-.21.15-.28 0zM20.36 153.29l-.16.29zM26.4 154.05l-.29.18zM122.42 116.8h.18a1.13 1.13 0 0 1 .1.13.28.28 0 0 1-.38 0zM25.92 154.29c-.07.18-.16.21-.27 0zM17.23 95.43l.16-.08-.09.15zM120.26 163.39a.64.64 0 0 1 .06.18l-.08.07zM7.44 114.44l-.25.23zM6.69 114.41l.3-.22zM7 114.19l.2-.2zM63.57 174.65l.23-.24zM7.19 114l.19-.26zM63.13 175.83h-.27a.17.17 0 0 1 .22-.05zM7.47 113.51l.21-.27zM18 88l.29.2zM18 87.78V88h-.23zM23.76 83l.22-.26zM79 74.62l-.58-.44c.38-.55.5-1.24 1.07-1.7s0-.59-.3-.77l1-1.48a6.37 6.37 0 0 0-2.39 2.7l-.45-.1v-.39l.23-.25.21-.23a.39.39 0 0 0 .07-.16c0-.11.11-.21.16-.31a1.42 1.42 0 0 0 .07-.22c.47-.59.91-1.21 1.43-1.75a24.17 24.17 0 0 1 4-3.53l.85-.36a.92.92 0 0 1 .32.85c-1.07 1.67-3 2.57-4.17 4.41a23.82 23.82 0 0 0 3.22-2.25l.47.71c-.16.17-.29.4-.49.49a10.48 10.48 0 0 0-2.49 2.1c-.29.26-.33.42.1.53zM31.21 88.72a2.31 2.31 0 0 0-1.92.88c-.72.76-1.53 1.4-2.29 2.4l1.32-.24c-.17.55-.41.82-.92.81-.85-.48-.93.18-1.19.78l.68-.08-.72.92-.25.27-.21.28c-.72.18-1 1-1.68 1.2a4.37 4.37 0 0 1-1.65 2c-.49-.77-.71-1.47.29-2 .31-.18.12-.46-.11-.65a2.6 2.6 0 0 1 1-1.2 2.74 2.74 0 0 0 1.69-1.45c.22-.22.89-.14.48-.76l.22-.2.3-.26v-.24a.61.61 0 0 1 .47-.49 4.32 4.32 0 0 0 1.58-1.29 2.45 2.45 0 0 1 2.91-.68zM23.5 102.69c.68-.45 1-1.31 1.72-1.67 1.1.64.94-.85 1.66-1 .56-.11.26-.6 0-.92.12-.54.56-.8.83-1.18 1 .46-1.51 2.06.81 1.85a2.54 2.54 0 0 1-1.65 2.23l.07-1a24.07 24.07 0 0 0-2.4 3.2c-.79-.2-.47-1.2-1.04-1.51zM58.57 99.34A14.86 14.86 0 0 1 61.89 96c1 0-.62 1.12 1 .74-1.26.45.22 1.45-.68 1.88-.34-1-.62 0-.94 0-1-.48-1.21.37-1.6.92a1 1 0 0 0 .84.25 1.16 1.16 0 0 1-1.36.15c-.21-.28.28-.5 0-.76zM112.79 118.77c2-.07 4 .21 6-.26a6.31 6.31 0 0 1 3.31.23v.32c-.84.45-1.73.13-2.59.18-2-.17-4 .59-6 .27a1.22 1.22 0 0 1-.46-.06l.4-.3zM26.71 94.79l1.15-.8c.07.46-.2.59-.41.79a37.57 37.57 0 0 0-4.84 5.09c-.22-.14-.62-.11-.53-.55l3.81-4.09.27-.2a.44.44 0 0 0 .22-.07zM53.53 95.72c.22.26.43.44.73.07a11.31 11.31 0 0 1 .93-1c0 .18 0 .39.24.49 0 .15 0 .4.12.43.35.14.37-.32.62-.4l.17.39v.53l-.43.51c-.28-.28-.67.45-1-.13-.11-.2-.58.2-.43.43.51.77-.13 1-.53 1.35.27-.99-.88-1.69-.42-2.67zM78.72 64l-1 1c.11-.7-.28-1.34-.27-2 0-.45.42-.65.7-.92.58.13.57-.55 1-.7.92-.2 1.07-1.19 1.71-1.68v.3a21.91 21.91 0 0 1-2.23 3.24c-.2.31-.71.6.08.79zM108 120.93l-2.47 2.07a3.41 3.41 0 0 1 1.6-2.77c.71-.23.53.55.87.7zM73.71 73.41a12.53 12.53 0 0 1 1-4.59 6.46 6.46 0 0 1-1 4.59zM56.89 99.57l3.79-4 .33.31-3.86 4.21z" class="cls-1"/><path d="M78.73 64c-.79-.19-.28-.48-.08-.79A22.63 22.63 0 0 0 80.88 60c.82.49.3 1 0 1.44A18.19 18.19 0 0 1 79.4 63a2.49 2.49 0 0 0-.67 1zM83.75 200.82c.72-.21 1.08-1.27 2.08-.85A3.71 3.71 0 0 1 83 202c0-.55.49-.79.77-1.14zM28.57 109l2.27-2.81.23.21-1.56 3.3a1.78 1.78 0 0 0-.94-.7zm1.18-.73c-.16.07-.32.15-.22.39.28 0 .22-.24.21-.41h.06zM62.1 98.84l1.69-.62.07.66c-.59.68-1 1.76-2.22.67a1.1 1.1 0 0 1 .46-.71zM125.75 119c-.84.81-1.91.21-2.84.44l-.76-.21a.54.54 0 0 0 0-.18v-.32a22.21 22.21 0 0 1 4.39.22zM120.55 201.83c-.7-.32-1 .38-1.5.62-.32-.26-.88-.27-1-.86a.66.66 0 0 0 .19-.09l.31-.17.17-.08.3-.18a4.5 4.5 0 0 1 1.51 0v.74zM83.75 198.69c1.28-.7.12-2.18 1-3 .93 1.22.63 2.17-1 3zM79.67 64.75c.33-.85 1.11-1.29 1.71-1.9l.45 1a1.55 1.55 0 0 1-.89.72l-.11.21-.44.5c-.04-.52-.48-.37-.72-.53z" class="cls-1"/><path d="M120.52 201.86c.73-.3 1.28-1.32 2.36-.5-.68.95-1.81.73-2.64 1.17-.29-.53.28-.44.31-.7zM35.77 114.69c.61-1.23 1.81-1.79 2.86-2.55-.31 1.18-1.56 1.58-2.14 2.54zM31.93 112c.89-.76 1.23-2 2.31-2.62a6.36 6.36 0 0 1 1-.61c-.8 1.24-2.23 2-2.65 3.5-.23 0-.51.04-.66-.27zM128 174.07c1 1.12.72 1.94-1 3.19.24-1.03 1-1.87 1-3.19zM83.78 200.79c-.88 0-1.27.85-2 1.15a2.35 2.35 0 0 1 2.22-2.07c.27.39-.29.61-.2 1zM49.66 120.64c-.18-1.27 1.27-1.46 1.48-2.76a1.22 1.22 0 0 1-.32 1.71.86.86 0 0 0-.17 1.19l.06.07a1 1 0 0 1-1.05-.21zM54 98.35c.4-.36 1-.58.53-1.35-.15-.23.32-.63.43-.43.34.58.73-.15 1 .13l-.76 1.2c-.53.22-.44 1-1 1.16a.49.49 0 0 1-.17-.67s-.03-.02-.03-.04zM78.2 62.08c-.28.27-.66.47-.7.92-.16 0-.51.19-.39-.1.42-1 .58-2.16 1.82-2.65.07.75-.66 1.17-.73 1.83zM73.09 82.64c.11 1.59.27 3.16.52 4.72a6.39 6.39 0 0 1-.52-4.72zM26.43 106.56l1.34-1.75.21-.19.27-.18a.54.54 0 0 0 .43-.51 1.22 1.22 0 0 1 .86-.28c-.63 1.21-1.89 1.8-2.51 2.92l-.24.25a.74.74 0 0 1-.21 0zM24 91.63a2.09 2.09 0 0 1-1.38 1.5c-.49-.63-.23-1.09.31-1.51.36-.28.7-.54 1.07.01zM119.64 194.68a5.82 5.82 0 0 1 .68-2.25c.8 1.32.68 1.72-.68 2.25zM125.29 200.21a2.74 2.74 0 0 1-1.64.94l.51-1.7a1.58 1.58 0 0 1 1.13.76zM37 115.87a3.12 3.12 0 0 1 1.86-1.75c-.29 1.09-1.24 1.57-1.38 2.48zM27.58 102.68c-.51.52-1.06 1-1.54 1.57a1.78 1.78 0 0 0-.64 1.55c-.31-.26-.25-.68-.42-1 .78-.57 1.06-1.59 1.9-2.1a.79.79 0 0 0 .22-.06l.48.07zM95.9 149.17a5.43 5.43 0 0 1 3.56 0c-1.36.62-2.46-.1-3.56 0zM132.54 131.25c.57 1.59-.49 2-1.41 2.67zM26.91 90.23 26.4 90c0-.38-.09-.9.4-.86s.82-.36 1.35-.54c-.1.84-.75 1.17-1.24 1.63zM75.46 105.6a4.8 4.8 0 0 1 2.6 1.24 4.3 4.3 0 0 1-2.6-1.24zM79.43 57.52a4 4 0 0 1-2.34 1.6 4 4 0 0 1 2.34-1.6z" class="cls-1"/><path d="M26.88 102.69c-.84.51-1.12 1.53-1.9 2.1-.12-1.29 1-1.81 1.65-2.6zM118.08 201.59c-.46-.35-1.11.36-1.57-.31.35-.68 1-.37 1.45-.61.29.39.09.66.11.93zM39.13 117.33a3.22 3.22 0 0 1 2.28-1.33l-1.59 1.6zM133.4 137.3c-.17-1 .35-1.85.35-2.8h.33l-.36 2.78zM80.86 59.7c-.64.49-.79 1.48-1.71 1.68l1.55-2.29c.39.24.17.43.16.61zM104.65 149.68l-.5.28-2.84-.29v-.3a23.3 23.3 0 0 1 3.34.31zM44.84 119v.77a2.06 2.06 0 0 1-1.73-.67l.81-.72c-.22.92.67.3.92.62zM55 92.82a6.22 6.22 0 0 1-1.23 2.38c-.13-.41-.6-.71-.42-1.23.24.33.39.21.6 0s.66-.79 1.05-1.15zM128.59 179.88c.39-.45 1-.28 1.4-.65.57.34-.41.69.09 1-.65.58-1.08.02-1.49-.35zM117.53 198.9c.17 1.21-.43 1.19-1.24 1.13.08-.83.71-.87 1.24-1.13zM22.81 101.93c.54-.45.48-1.33 1.2-1.64-.21.74 0 1.59-.71 2.18zM84.18 82.06h-.39a3.23 3.23 0 0 1 .89-2.18c.14.93-.6 1.47-.5 2.18zM115.86 201h-1.09c-.11-.44.17-.58.51-.61a.49.49 0 0 1 .58.61zM85.39 122.79l1.54.38c-.56.09-1.16.42-1.54-.38zM73.58 104.72c.69-.26 1-.1 1.23.45a1.13 1.13 0 0 1-1.23-.45zM123.44 181.24c.56.08.87.24.91.87-.42-.21-.83-.26-.91-.87zM88.63 201.48a2.16 2.16 0 0 1 .68-1c.27.68.27.68-.68 1zM29.78 109.66c.25-.31.39-.77.91-.77l-.69 1.49zM90.38 149.33a.73.73 0 0 1-1 .38.79.79 0 0 1 1-.38z" class="cls-1"/><path d="M43 117.78c-.15.46.1.85.21 1.27-.61-.34-1.21-.68-.21-1.27zM128.18 117.51a2.63 2.63 0 0 1-1.24-.18l.26-.5zM82.58 198.49a1.22 1.22 0 0 1-.83.92 1.11 1.11 0 0 1 .83-.92zM132 149.24l-.24-.44a.54.54 0 0 1 .34-.49.72.72 0 0 1-.1.93zM120.2 170.11v1.45a1.32 1.32 0 0 1 0-1.45zM111.35 118.53a1.81 1.81 0 0 1 1.23.2 1.45 1.45 0 0 1-1.23-.2zM118.9 191.05a.45.45 0 0 1 .06.61c-.35-.17-.23-.39-.06-.61zM131.48 149.47c0 .26.06.55-.15.78-.05-.25-.12-.57.15-.78zM53.48 93.31a.53.53 0 0 1-.16.56zM112.81 119.42a.53.53 0 0 1-.53-.15.5.5 0 0 1 .53.15zM48.71 120.44l.52.2a.49.49 0 0 1-.52-.2zM64.05 98.78c.21-.25.36-.2.47.1zM83.48 82.46l-.46.29c.07-.24.26-.26.46-.29zM130.53 180.17l.52-.18a.48.48 0 0 1-.52.18zM26.89 102l-.26.21zM40.8 99.54l-.23-.23zM131.74 149l-.18.3zM84.2 64.35c-.13-.07-.23-.15-.19-.32zM53.75 95.23l-.19.28zM120.25 169.65a.45.45 0 0 1 0 .23v-.17s-.02-.04 0-.06zM31.66 111.82l.27.2zM83.82 83.08l.14-.33zM84 82.53l.17-.27zM83.77 82.08l-.19.21zM119 201.08l-.3.18zM118.57 201.34l-.31.17zM29.51 109.64h.26c-.1.22-.19.23-.26 0zM2.62 138.68c-.17-.05-.39 0-.43-.28 1.34-1.46 2.69-2.92 4-4.4a6.07 6.07 0 0 1 2.42-1.63c-.82 1.19-2.32 1.71-2.83 3.23 1.4-1 2.81-2.1 4.21-3.17a39.07 39.07 0 0 1 3.59-3l.14.15a30.45 30.45 0 0 0-2.67 2.4c-2 2.27-4.43 4-6.49 6.17-.53.24-1.52-.21-1.46 1zM2 134.86a1 1 0 0 1 .18-1c.23 0 .47-.07.47-.27 0-1 .68-1.49 1.28-2.06 1-1.05 2.14-2.05 3.28-3s2-2 3.36-2.38a2.14 2.14 0 0 1-.84.82c-.57.37-1.27.71-.32 1.52a17.26 17.26 0 0 0-5.9 5.27 2 2 0 0 1-1.51 1.1zM2.4 128.6c0-.17 0-.37-.23-.46a20.79 20.79 0 0 1 3.3-3.65c1.84-1.39 3.41-3.09 5.34-4.36a7 7 0 0 1 1.23-.76c-.71.57-.89 1.49-1.68 2a19.26 19.26 0 0 0-4.63 4c-.62.19-.72.76-.91 1.27-.34 0-.6 0-.71.42a2 2 0 0 1-1.71 1.54zM3.35 125.72l-.8.14-.12-1.14c.51-.15.75-.63 1.13-1 .07.17.1.52.32.36a.46.46 0 0 0 .16-.63.49.49 0 0 0-.16-.16L7.19 120c.52.28.06.48-.08.68-.25.36-.69.6-.82 1.06h.32l.61.32-2.46 2.59c-.42.08-.59.5-.91.72-.25-.08-.22.12-.26.25z" class="cls-1"/><path d="M2.13 138.22c-.42-.36-.15-.83-.2-1.24 1.48-1.52 2-3.79 4-4.94 1-.61 2-1.39 2.92-2.08l.15.17c.28.65-.3.83-.65 1.09a22.74 22.74 0 0 0-5.72 5.69 2 2 0 0 0-.5 1.31zM4.83 140.14l-.29-.28a.74.74 0 0 0 0-.21A23.11 23.11 0 0 1 9 135.43c1.1-.74 2.29-1.36 3.45-2a48.35 48.35 0 0 1-5.2 4.5c-.84.68-1.57 1.51-2.42 2.21zM6.71 140.84c0-.25-.25-.35-.45-.45a8.37 8.37 0 0 1 2-2.47c.15.8-.61.92-.75 1.54 1.72-.87 3-2.22 4.49-3.17l.2.2-1.65 1.51c.54.3.17.5-.08.68a28.5 28.5 0 0 0-3.21 3l-.15-.12c.13-.69.84-1.05 1-1.81zM3.32 122.86c-.49-.12-.57-.47-.3-.79.47-.54 0-1.7 1.28-1.72.24 0-.23-.67.21-.9.4.63.62 0 .82-.16 1.19-.71 2.34-1.49 3.51-2.24l.54.29c-1.59 1.28-3.43 2.22-4.83 3.76-.49.54-.39 1.48-1.23 1.76zM6.22 118c0-.25.07-.54-.22-.71a7.91 7.91 0 0 1 .91-.92c1.28-.91 2.59-1.79 3.88-2.69H11l.25.21h.7v.23l-.24.22-.93.5c-1.64.91-2.96 2.26-4.56 3.16zM7.93 143.73c-.5-.3-.89-.32-1 .41a.62.62 0 0 1-.5.71c-.37-.16-.44-.5-.52-.85s.81-.21.75-.76c1.29-1.2 2.57-2.4 3.87-3.59a1.94 1.94 0 0 1 1.18-.73c-.87 1.22-2.21 2-3.12 3.12.9-.2 1.26-1.35 2.49-1.32zm.21-1.11h-.08v.12a.07.07 0 0 0 .07-.06c.01-.06.02-.03.01-.06zM12 150.41c-.35.12-.52-.32-1-.18-.66.2-1-.57-1.12-1.19l.91-1.51H11l.25-.2.48-.22.47.25a3.94 3.94 0 0 0-1.77 2.14l3.43-2.5.11.12a19.76 19.76 0 0 0-1.97 3.29zM6.61 121.61h-.32c.13-.46.57-.7.82-1.06.14-.2.6-.4.08-.68a16.05 16.05 0 0 1 3.06-2.18c.38.45.71.13 1-.06a5.62 5.62 0 0 1 1.68-.88 4.45 4.45 0 0 1-1.42 1.25 59.389 59.389 0 0 0-4.9 3.61zM4.32 128.12c.17-.22.34-.45.5-.68l.45-.3.24-.22.28-.23a55 55 0 0 0 4.49-3.44l.57.57a14.78 14.78 0 0 0-2.68 1.9l-3.59 2.94v-.06l-.25-.49z" class="cls-1"/><path d="M6.61 121.61a61.42 61.42 0 0 1 4.9-3.58 4.44 4.44 0 0 0 1.49-1.21h.45l.06.07c-1 1.17-2.36 1.8-3.44 2.83A14.25 14.25 0 0 1 8.43 121l-.49.28-.26.25-.27.25-.25.27zM8.4 148.75l-.52-.51c1.16-1.32 1.94-3 3.51-3.92a1.37 1.37 0 0 1 1.52-.2c-1 .73-2.33 1-2.81 2.27a1.18 1.18 0 0 0-.51.69l-.22.24c-.37.43-.96.74-.97 1.43zM11.27 125.49l.2-.6-.92.1c.22-.54.86-.55 1.19-1 .89.16 1.45-.47 2.11-.87a2.15 2.15 0 0 1 1.41-.49 18.41 18.41 0 0 1-3.99 2.86zM16.52 139.2l-4.84 3.72-.2-.26c1.6-1.27 3.08-2.68 4.77-3.81zM3.35 125.72l.24-.23.26-.25c.32-.22.49-.64.91-.72h.71a20.79 20.79 0 0 0-3.3 3.65c-.3-.47-.3-.47-.08-1.7.79.38 1.07-.11 1.26-.75zM13.68 150.67l-.51-.26 4.69-3.62c.26.82-.19 1.07-.62 1.33a13 13 0 0 0-3.56 2.55zM16.76 151.9c-.28-.09-.57-.17-.7-.48a2.13 2.13 0 0 0 1.57-1c.76-1 2-1 2.77-1.9l.21.29zM12.73 145.41a11.15 11.15 0 0 1 4.16-3.09 13.87 13.87 0 0 1-4.18 3.07zM10.79 147.53 9.88 149l-.29.19c-.59.34-.58.12-.46-.41s.9-.43.46-1a4.53 4.53 0 0 1 1.89-1.71l.3.3c-.35.39-.92.56-.99 1.16zM14.1 112.73l-.43.33-.24.18-.26.22c-.2 0-.41 0-.52-.21 1.47-.87 2.76-2.07 4.55-2.65 0 .7-.6.74-.9 1l-.3.17-.42.07-.22.2-.27.21a.9.9 0 0 0-.22.06l-.3.15-.18.1zM17 116.36c-1.31 1.16-3.06 1.61-4.42 2.68 1.38-1 2.49-2.55 4.43-2.66zM4.56 139.65a.74.74 0 0 1 0 .21l-.86 1a5.21 5.21 0 0 1-1-1.45l-.08-.52a.48.48 0 0 1 0-.17l.5.47c.38-.13.93.48 1.16-.27zM13.92 120.69c.78-1.37 2.31-1.81 3.46-2.72a9.57 9.57 0 0 1-3.47 2.71zM11.29 115.42l.71-.74h.23l.3-.17.9-.59.22-.18.29-.19.2-.08.3-.15.66-.31.52.28c-.88.49-1.76 1-2.65 1.45a4.13 4.13 0 0 0-1.2.92zM8 146.16v-.36a4.76 4.76 0 0 1 3-2.6 42.1 42.1 0 0 0-3 2.96zM13.6 129.48a17 17 0 0 1 3.91-2.82c-1 1.35-2.51 2-3.77 3zM10.85 123.82l-.57-.57c.6-1 1.49-.85 2.47-.64-.15.66-1 .51-1.22 1zM13.2 135.56a5.89 5.89 0 0 1 2.95-1.85 5 5 0 0 1-3 1.84z" class="cls-1"/><path d="m11.29 115.42.49.19v.52l-1.94.94-.46.27-.54-.29.27-.21c.61-.66 1.52-.84 2.18-1.42zM18 145.85l2.6-2.86c-.15.93-1.47 2.27-2.6 2.86zM13 127a7.57 7.57 0 0 1 3.07-2.2c-.7 1.13-2.07 1.45-3.07 2.2zM12.49 138.45a6.71 6.71 0 0 1 3.22-2.35 12 12 0 0 1-3.24 2.33zM13.87 132.18a5.76 5.76 0 0 1 2.81-1.94 7.08 7.08 0 0 1-2.75 2zM13.41 116.81a6.14 6.14 0 0 1 2.78-1.41 4.55 4.55 0 0 1-2.72 1.48zM21.6 146.11a4.92 4.92 0 0 1 2.09-2c-.52.84-1 1.74-2.11 2zM13 116.83a5.62 5.62 0 0 0-1.68.88c-.33.19-.66.51-1 .06.82-.37 1.48-1.39 2.68-.94zM4.28 138.88c-.23.75-.78.14-1.16.27-.06-1.16.93-.71 1.46-1zM8.8 130a8.33 8.33 0 0 1 2.3-1.6 7.36 7.36 0 0 1-2.1 1.73zM15.37 145.91a2.55 2.55 0 0 1 1.59-.7c-.12.9-.87.71-1.33.94zM8.4 148.75c0-.69.57-1 1-1.42l.22.47c-.36.39-.56.96-1.22.95zM20.91 147a3.64 3.64 0 0 1-1.54 1.29 3.3 3.3 0 0 1 1.41-1.43zM15.37 145.91l.26.24a3 3 0 0 1-1.66 1l-.11-.12zM13.91 120.68a1.94 1.94 0 0 1-1.39 1c.35-.46.61-1.06 1.4-1z" class="cls-1"/><path d="M12.48 133.4a2.56 2.56 0 0 1 1.39-1.22l.06.06a1.88 1.88 0 0 1-1.47 1.15zM11.78 146.39l-.3-.3c.35-.35.66-.77 1.25-.68zM12.21 136.49l-.2-.2a2.1 2.1 0 0 1 1.19-.73c-.07.57-.59.69-.99.93zM3.85 123.34A.46.46 0 0 1 4 124a.41.41 0 0 1-.16.16c-.22.16-.25-.19-.32-.36zM6.7 142.5l-.49-.44c.4 0 .62-.35.9-.57l.15.12zM10.55 126.21a.83.83 0 0 1 .73-.73 1 1 0 0 1-.73.73zM13.15 150.4c-.38.45-.75.29-1.13 0zM20.78 146.8a1.55 1.55 0 0 1 .82-.69 1.13 1.13 0 0 1-.67.84 1.06 1.06 0 0 0-.15-.15zM9.59 147.08a1.18 1.18 0 0 1 .51-.69 1 1 0 0 1-.51.69zM12.21 147.31l-.47-.25c.16-.13.34-.22.51 0s-.02.14-.04.25zM11.76 138.92a.89.89 0 0 1 .73-.47.65.65 0 0 1-.73.47zM10.56 133.1l-.11.18-.12-.11s0-.09.05-.09zM15.86 113.21v-.47l.21-.23h.26c.03.34-.21.49-.47.7zM11.77 116.13v-.52c.23.18.28.39 0 .52zM9.37 117.34l.46-.27zM8 121.22l.49-.28zM11.74 147.06l-.48.22zM9.37 147.32l.22-.24zM7.21 121.91l.25-.27zM7.44 121.66l.27-.25zM11.24 147.29l-.25.2zM7.69 121.43l.26-.25zM22.07 149l-.22.22zM18.48 153.3l-.27-.21zM12.23 114H12v-.24h.24zM52.81 152.13a47.84 47.84 0 0 1-16.55 4.06c-.06-.56.23-.62.42-.64a59.67 59.67 0 0 0 7.23-1.55c1-.24 2.13-.14 3.2-.34a18.61 18.61 0 0 0 5.19-2zM27.12 57.32c-.15.49-.53 1 .12 1.44.25.17.08.5-.15.7-.08-.28 0-.67-.46-.71-2.79 1.75-4.88 4.93-3.93 6.07a22.45 22.45 0 0 1 4.4-5.36.94.94 0 0 0 .54.53 11.45 11.45 0 0 0-4.26 5.69c-2.05-.62-2.43-1.5-1.14-3.06 1.53-1.85 2.76-3.95 4.88-5.3zM36.26 42.24c.19-.12.19-.46.68-.47a5.51 5.51 0 0 1-3.33 3.11l-.28.18A23.06 23.06 0 0 0 30.22 47c-.06-.05-.17-.13-.16-.14.72-1.13.52-2.88 2.24-3.34a6.49 6.49 0 0 1 2.7-1.34c-.36 1-1.77.88-2.1 2zM59.78 159.08c.53-1.81 1.64-3.4 2-5.29a17.52 17.52 0 0 1 .55-3.21c.25 0 .31.13.3.29a16.46 16.46 0 0 1-1.48 7.13c-.28.54-.91.73-1.4 1.06zM37.44 156.82l9-1.83.07.35c-3.03.66-5.83 2.13-9.07 1.48zM47.76 156.29c.77 3.34-.49 6.4-1.23 9.54A8.09 8.09 0 0 1 47 163a5.72 5.72 0 0 0 .14-2.57c-.32-1.2.23-2.43 0-3.67-.09-.39.33-.47.62-.47zM15.36 152.34c.3.07.73 0 .9.23a7.43 7.43 0 0 0 4.62 2.43c.09 0 .17.14.25.21-.11.54-.43.52-.8.33a8.59 8.59 0 0 0-3.06-.9c-.83-.08-1.23-.89-2-1.16-.53-.19.13-.75.1-1.16zM62.4 35.48c-1.77.68-3.06 2-4.54 3.16a2.56 2.56 0 0 1-1.18.73.5.5 0 0 0-.31-.56L64 33.53l.25.28zM24.49 156.19c.75-.94.71-.81 1.92-.49.42.11 1.09-.33 1.71-.19-1.12 1.86-.33 1.9-3.63.68zM31.69 166.28a8.63 8.63 0 0 1 2.93 5.52 15.1 15.1 0 0 1-2.9-5.54zM67.62 144.19c1.84-1.37 2.59-3.78 4.88-5.12-.97 2.62-3.08 3.74-4.88 5.12zM24.55 173.49c-1.52-1.44-3.39-2.48-4.65-4.18a10 10 0 0 1 4.65 4.18zM75.8 22.24c.34.6.73 1.21-.46 1.23a4.67 4.67 0 0 0-3 2c-.26-.41.36-.62.29-1s-.35.09-.79-.33c1.67-.14 2.4-1.74 3.96-1.9zM27.78 198.64c.33.19.59 0 .85-.17a1 1 0 0 1 .87-.23c-.39.48 1.15.82 0 1.4l.17-.44c-1.66 0-2.84 1-4.15 1.81.25-1.3 1.41-1.69 2.26-2.37zM61.7 148.8a.89.89 0 0 0-.77-.54l5.54-3.36c-1.29 1.71-3.17 2.63-4.77 3.9zM28.61 71.44c1.52-.67 2.62-1.91 4-2.83.62-.43 1.25-.83 1.89-1.23.3-.18.61-.28.72.22a75.93 75.93 0 0 0-6.43 4.4zM20.48 62.63c.55-1.93 2.06-3.09 3.76-4.11l-3.47 4.31zM2.16 132.19a1.9 1.9 0 0 0 1-1.7 2.4 2.4 0 0 1 1.4-1.89v.06c0 .63-.78.91-.83 1.69 1.14-.8 1.68-2.09 3-2.47l-4.3 4.81zM27.83 52.26c0 1.2-1 2-1.2 3.15a9.68 9.68 0 0 0-2.63 1.3 3.1 3.1 0 0 1 .26-.47 16.76 16.76 0 0 0 3.57-3.98zM66.05 176.91c-1.88 1.2-2.91 1.24-3.71.24a8.31 8.31 0 0 1 3.71-.24zM50.38 40.67 47.2 39c1.43-.74 2.36-.29 3.18 1.67zM72.72 146.1c-.46.51.12 1.61-1.18 1.79a14.49 14.49 0 0 0 1-4.87c.61 1 .23 2.07.14 3.1zM64.84 21.37c-1.11 1.37-2.71 1.18-4.17 1.44l-.13-.38 4.21-1.16zM54.2 164.57l.31.57a31.79 31.79 0 0 1-2.92 4.5.59.59 0 0 1-.68-.32.62.62 0 0 0 .93-.42c.59-1.55 1.65-2.84 2.36-4.33zM34.26 201.78l.32.08c.27-1.49 1.76-1.61 2.67-2.4.07.81-.67.91-1.07 1.3s-.88.75.06 1c-.5.38-1.13.28-1.69.45-.28.14-.72.04-.29-.43zM28.6 169.84l-.5.25a9.83 9.83 0 0 1-1.87-1.72c-.58-.54-1.46-.72-1.83-1.54a13 13 0 0 1 4.2 3.01zM66.71 155l.77-5.49a7 7 0 0 1-.77 5.49zM27.85 194.59c.71-.1 1.26.53 2.31.19-.8 1.11-1.81 1.22-2.5 1.77-.66-.92 0-1.24.71-1.54-.12-.26-.54-.01-.52-.42zM80 18.09c-.22.57-.64.5-1 .58l-.33-.92A1.24 1.24 0 0 0 77.46 19c-.56-.09-.82-.22-.49-.71.84-1.2 1.51-1.29 3.03-.2zM26.79 62.1h.55c-.89 1.17-2.2 2.08-2.28 3.76 0 .39-.39.44-.79.16a11.71 11.71 0 0 1 2.52-3.92zM33.87 199.42c.42-.17.62-.75 1.24-.64.17.63-.45.74-.72 1.05-.56.66-1.52 1.06-1.43 2.16-.5-.34-.16-1-.55-1.38v-.22l.28-.23.4-.09a.44.44 0 0 0 .5-.37v-.06zM30.26 190.78c1.21-.08 2 .9 3.23.72a2.2 2.2 0 0 1-3.08-.49 1.14 1.14 0 0 1-.15-.23zM37.7 183.81a10 10 0 0 1 .68-4.23 10 10 0 0 1-.68 4.23zM28.08 75.32c.57.51 1-.1 1.33-.31.87-.47 1.68-1.06 2.51-1.61l.22.21c-1.3 1.17-2.93 1.85-4.3 2.91a1.33 1.33 0 0 1 .24-1.2zM31.2 68.36c-.27.3-.66.32-1 .46-.94-.11-1.18 1-2.05 1.15.14-1.17 1.09-1.59 1.87-2.1.55-.38.54.87 1.18.49zM60.9 16.25c.16.24.87.11.5.72-.47-.43-.75.07-1 .28A7.87 7.87 0 0 0 58.78 19l-.59.29a8.48 8.48 0 0 1 2.71-3.04zM29.28 200.37a.41.41 0 0 0 .25.48c-.39.54-1.05.86-1.24 1.59-.87-.14-.94-.57-.49-1.14a2.77 2.77 0 0 1 1.48-.93zM59.77 194.85c.32-.71.46-1.69 1.66-1.22.11.55-.48.78-.57 1.26-.06.28-.15.66-.58.66s-.28-.55-.51-.7zM24.32 198.93a4.56 4.56 0 0 1 2.68-2.44 6 6 0 0 1-2.68 2.44zM28.84 156.76a2 2 0 0 1 2.62-.89c-.46 1.45-1.59.57-2.62.89zM70.84 26.69c.17 1 .1 1.09-2 2.48a14.39 14.39 0 0 1 2-2.48zM30 200.6a6 6 0 0 0 2.25-1.5c.28-.25.63-.68 1.09-.2l-.22.26-.23.23-.25.22-.48.24-.2.26-1 .7c-.26-.27-.63-.18-.96-.21zM57.63 194.17c.51-.51 1.09.78 1.61-.36.14.92-.36 1.38-.42 1.94-.45-.09-.16-.44-.25-.68-.34-.09-.36.49-.67.39-.57-.37.31-.95-.27-1.29zM23.63 155.24c-.18.49-.18.49-1.95.26.46-.61.63-.63 1.95-.26zM35.54 156a6.22 6.22 0 0 1-2.85.6c.31-.87 1.08-1.06 2.85-.6z" class="cls-1"/><path d="M36.26 42.24 33 44.19c.33-1.12 1.74-1 2.1-2 .35 0 .68-.07.76-.5zM26.23 196a1.27 1.27 0 0 1-1 .95c-.45-.39-.56-.83-.08-1.27s.72.08 1.08.32zM58.28 20.8a7 7 0 0 1 2.59-2l.23.33-2.5 1.7zM20.81 59.91A4.54 4.54 0 0 1 23 57.58a8.8 8.8 0 0 1-2.19 2.33zM73.67 28l.23-.48.23-.24.23-.24.23-.23.3-.2a.29.29 0 0 0 .18-.11l.21-.17.45-.24h.49c-.09.62-.61.77-1.06 1a1.64 1.64 0 0 0-1.08 1.65c-.43.01-.08-.55-.41-.74zM31 200.84l1-.7.49.25v.22a7.61 7.61 0 0 0-2.4 1.85 4 4 0 0 1 .91-1.62zM59 202.52c0-.7.21-1.13 1-1.1.64.75-1.09 1.1-.25 1.83-.4.17-.4.17-.75-.73zM19.19 61.4a2.24 2.24 0 0 1-.13-2.57c.54.76.27 1.54.13 2.57zM33.36 45.42c-.34.62-1 .66-1.57 1s-.88.37-1.08.86l-.49-.28a23.06 23.06 0 0 1 3.11-1.93zM53 209.66l1.2-1.33c.55.62-.86 1.13 0 1.63-.3-.14-.93 1-.95-.25zM29.28 67.77 28 69c-.54-.09-.49-.44-.31-.62a1.27 1.27 0 0 1 1.59-.61zM15.38 152.31c-.5.42-1 .61-1.5-.08.6-.86 1-.62 1.48.11zM42.73 192.87c-.82 0-1.42-.11-1.63-1 .83-.11 1.23.32 1.63 1z" class="cls-1"/><path d="M57.58 202.78c.45-.3.84-.91 1.46-.26-.31 1.11-.89.68-1.46.26zM21.21 57.44c-.14.63-.63.6-.88.9-.31-.38-.18-.72-.13-1.14zM56.42 194.64c.27-.59.56-.9.92-.06a.94.94 0 0 1-.61 1c-.39-.23.04-.74-.31-.94zM35 41.52a5.73 5.73 0 0 1-2.21 1.06c.65-.73 1.13-1.21 2.21-1.06zM63.34 202a1.73 1.73 0 0 1 .92-1.31c.28.85-.38 1.12-.65 1.57zM74.64 137.46l1-2.1c.23 1.19-.64 1.64-1 2.1zM31 202.66c0-.95.78-.95 1.22-1.28-.3.43-.4 1.03-1.22 1.28zM56.82 173.29c-.62-.55-.54-1.19-.28-2.17a4.9 4.9 0 0 1 .39 2.06zM52.8 154a2.8 2.8 0 0 1 1.83-.58 2.17 2.17 0 0 1-1.83.58zM22.6 56.27c.14-.66.55-.68 1-.89-.15.55-.52.68-1 .89zM55 197.08c.17.54-.1.73-.54.83-.31-.62.26-.63.54-.83zM62.13 156.65c0 .41-.14 1 .55 1l-.87.27c-.27-.56.06-.92.32-1.27zM63.86 173.92c-.36 0-.49.53-.9.45.33-.73.33-.73.89-.42zM26.62 55.41c.81.25.36.94.5 1.42-.73-.28.02-1.07-.5-1.42zM53.77 151.67a2 2 0 0 1 1.46-.24 1.87 1.87 0 0 1-1.46.24zM21.39 54.37a.87.87 0 0 1 .57-.71c.16.52-.21.54-.57.71zM20.73 55.78c-.08-.26-.13-.46.08-.57.05 0 .22 0 .24.11.07.22-.05.34-.32.46zM35.78 41.7c-.08.43-.41.48-.76.5.17-.3.36-.56.76-.5zM53.48 151.11a1.19 1.19 0 0 1-1.18.51 1.7 1.7 0 0 1 1.18-.51zM52.09 154.06c.17 0 .27.11.2.24a.39.39 0 0 1-.28.15c-.14 0-.21-.1-.14-.22a.33.33 0 0 1 .22-.17zM27.34 62.1A.49.49 0 0 1 28 62a.38.38 0 0 1 .1.53.15.15 0 0 1 0 .06.66.66 0 0 0-.76-.49zM56.87 202.26c0-.28.24-.36.46-.42.21.32.06.6.06.87zM28.31 197c.67-.5.74-.11.7.46h-.21c.03-.33-.15-.46-.49-.46zM5.65 142.63c.15.18.17.37 0 .51 0 0-.25 0-.27-.11-.11-.25.04-.36.27-.4zM73 146.12l.21.68c-.74.14-.25-.49-.45-.7zM67.43 155l.29.54c-.15.15-.32.26-.46 0s-.04-.4.17-.54zM54.45 163.61a1.07 1.07 0 0 1-.25 1 1.21 1.21 0 0 1 .25-1zM29.52 199.64a.74.74 0 0 1-.23.72c.08-.24-.09-.55.23-.72zM65.28 20.84a.33.33 0 0 1 .33-.26c0 .29-.17.25-.35.24zM64.75 21.27a.6.6 0 0 1 .53-.43.5.5 0 0 1-.42.55zM67.53 149.28l.06-.09.16.15-.06.07zM28.8 197.48h.2a.76.76 0 0 1-.51.46zM31.72 166.26c-.16 0-.29-.09-.27-.45l.24.47zM27.61 197.22H28c-.1.17-.24.32-.39 0z" class="cls-1"/><path d="m28.52 197.91-.4.3c.03-.21.21-.21.4-.3zM62.87 155l-.2.49zM28.78 170.84l.27.44zM53.27 151.88l.51-.22a.49.49 0 0 1-.51.22zM27.57 196.74v.48c-.22-.14-.28-.3 0-.48zM27.6 61.4l-.48.24c.08-.25.28-.23.48-.24zM56.38 38.81a.52.52 0 0 1-.51.23zM73.16 145.61l-.2.51a.47.47 0 0 1 .2-.51zM32.38 42.9a1.58 1.58 0 0 1-.08.61c.07-.18-.27-.44.1-.57zM2.57 138.85l.08.52c-.22-.15-.27-.32-.08-.52zM61.43 193.63a.53.53 0 0 1 .25-.47.47.47 0 0 1-.25.47zM33.33 45.06l.28-.18z" class="cls-1"/><path d="M32.4 42.93v-.11l.08.08h-.11zM28.09 61l-.24.23zM27.85 61.18l-.25.22zM27.12 61.64l-.21.25zM9.59 149.23l.29-.19zM53.76 151l-.29.16zM53 152.06l.25-.18zM20.61 153.78a.31.31 0 0 1 .07.2.49.49 0 0 1-.13-.12zM62.61 155.68l-.18.29zM62.41 156l-.18.21zM54.74 164.87l.29-.23zM54.52 165.13l.23-.26zM29 170.13l-.23-.19zM28.11 170.1l.21.25zM29.27 170.36l-.25-.22zM28.32 170.35l.19.29zM29.5 170.6l-.23-.24zM28.51 170.64l.28.2zM29.73 170.85l-.22-.24zM56.93 173.18c.1.06.18.13 0 .22s-.1-.07-.15-.11zM57.34 194.58l.22-.24zM56.15 194.84l.28-.21zM59.55 195.12l.22-.27zM59 195.73l.21-.2c.01.14-.06.21-.21.2zM28.05 197.2l.26-.2zM61.15 16l-.24.26zM28 198.38l-.26.26zM29.52 200.85l.32-.21zM34.52 201.3l-.18.28zM28.07 79.16a70.61 70.61 0 0 1 6.56-3.59c-.29.82-5.26 3.43-6.56 3.59zM29.1 76.88a25.32 25.32 0 0 1 5.66-3.53l.22.38zM34.54 70.07a11.55 11.55 0 0 1-3.54 2.2 7.58 7.58 0 0 1 3.54-2.2zM33.12 72.68l2.43-1.45a2 2 0 0 1-2.44 1.44z" class="cls-1"/><path d="m32.14 73.61-.22-.21a3.13 3.13 0 0 1 1.2-.72c.01.65-.54.74-.98.93zM56.68 39.36l-.28.22zM122.37 117.51h-2.13a4.74 4.74 0 0 0-1.44-.3l-.25-.18c1.24-.45 2.51-.15 3.77-.14a.28.28 0 0 0 .38 0c.23 0 .32.18.39.36l-.41.09z" class="cls-1"/><path d="M118.8 117.25a4.74 4.74 0 0 1 1.44.3 18.12 18.12 0 0 1-4.35-.2zM125.77 117.33c-.32-.12-.71.1-1.17-.4.58 0 1-.33 1.17.4zM127.2 116.83l-.26.5h-.45c-.04-.61.51-.27.71-.5z" class="cls-1"/><path d="M25.17 82.01 25.13 81.97 25.17 82.02 25.17 82.01z" class="cls-1"/><path d="M24 100.29a2.61 2.61 0 0 1 1-1.68c1-.84 1.86-1.78 2.82-2.72a.66.66 0 0 1-.12.94.24.24 0 0 1-.09.06 34.07 34.07 0 0 0-3.29 3.4c0 .06-.23 0-.35 0zM44.84 119c-.25-.26-1.14.36-.88-.62a5.72 5.72 0 0 1 2.25-1.38zM33.72 108.25c-.74 1-1.78 1.48-2.13 2.7-.23-1.31.46-2.19 2.13-2.7zM26.9 99.11c.24.32.54.81 0 .92-.72.14-.56 1.63-1.66 1l1.16-1.24c.29-.13.53-.31.52-.67zM27.57 104.34l-1.09.89c.12-1 1-1.33 1.35-2H28l.09.48-.2.2a.56.56 0 0 0-.09.17l-.23.29zM26.85 93.3l-.68.08c.26-.6.34-1.26 1.19-.78z" class="cls-1"/><path d="M26.9 99.11a.72.72 0 0 1-.52.67.93.93 0 0 1 .52-.67zM30.69 108.89a.69.69 0 0 1 .57-.44c0 .4-.25.47-.52.49zM27.58 102.7l-.48-.07c.18-.12.35-.13.48.07zM105.46 139.25c.49.85 0 1.32-.76 1.52a15.89 15.89 0 0 1-2.56.42 2 2 0 0 1-2.11-1.43 3 3 0 0 1 .32-2.6.48.48 0 0 1 .38-.21c1.59.45 3.33-.28 4.85.67.33.2.78.29.82.77s-.56.61-.94.86zm.2-.59c-.42-.65-1-1.12-1.45-.84a5.53 5.53 0 0 1-2 .48c-.36.09-.71.21-.62.69a.69.69 0 0 0 .77.6 6.19 6.19 0 0 0 3.3-.93zM111.65 130.42c.37.29.64 0 1-.07-.12.21-.14.35-.22.39a10.72 10.72 0 0 1-4 1.15c-.78.09-1.52 0-1.87-.84a1.71 1.71 0 0 1 .6-2.08c.93-.88 1.76-1.58 3.13-1s1.71.95 1.36 2.45zm-3.72 0c1.47.51 2.72 0 2.78-1-.39-.07-.65.45-.9.34-.47-.37 0-.62-.15-.88-1.31-.34-1.38.74-1.73 1.55zM122.23 128c-1-.13-2.08-.08-2.32-1.36-.11-.63 0-1.11.79-1.13a2.78 2.78 0 0 0 1.71-.72 4.17 4.17 0 0 1 2.93-.71 1.44 1.44 0 0 1 1.44 1.07 1.49 1.49 0 0 1-.84 1.59 8.63 8.63 0 0 1-3.71 1.26zm3.68-1.93a.94.94 0 0 0-1.11-1.07c-.85 0-1.83-.13-2.37.76a.5.5 0 0 0 .14.71.5.5 0 0 0 .41.07 7.93 7.93 0 0 0 2.93-.54zm-3.93.14a.34.34 0 0 0-.24-.33.25.25 0 0 0-.34.09v.05c-.08.23 0 .37.26.4a.28.28 0 0 0 .35-.2zM114.07 135.1c.07.31.57.24.44.7a5.46 5.46 0 0 1-2.51.8 1.75 1.75 0 0 1-2-1.15 2.41 2.41 0 0 1 3.61-2.54c1.1.62 1.39 1.26.46 2.19zm-2.64-.09c.87.36 1.6-.14 2.33-.43.37-.15.28-.55 0-.76-.69-.41-2.09.3-2.33 1.17zM122.66 142.31a5 5 0 0 1-3.54.73c-.52-.1-1.14-.07-1.37-.76a1.41 1.41 0 0 1 .61-1.66.66.66 0 0 0 .63-.55l.76.53a.81.81 0 0 0 0 .22c-.47.05-.87.19-.94.74-.18.76.39.74.75.57s1.42 0 .94-1.06l-.29-.18-.18-.07-.26-.21a.56.56 0 0 1 .51-.52c.65 0 .6.86 1.16 1l.31.3-.78 1a2 2 0 0 0 1.42-.33zM122.91 120.75a2.37 2.37 0 0 1 2.51-.38c.73.36 1.22.84 1 1.74a1.83 1.83 0 0 0-1 .7c-.76.15-1.48.61-2.31.21s-1.19-.89-.5-1.73a2.58 2.58 0 0 0 .3-.54zM126 122c-1.09-.49-2-1.32-2.74.24.96.65 1.74.16 2.74-.24zM119.82 131.25c-.18-.76-.55-1.37.36-1.83a2.64 2.64 0 0 1 3-.07c.66.49.16 1.56-.82 1.85a2.81 2.81 0 0 1-.82.12c-.54 0-1.12-.04-1.72-.07zm2.45-.75c-.23-.7-.65-.85-1.21-.61-.29.13-.43.45-.21.67.42.44.9.29 1.42-.06z" class="cls-1"/><path d="M120.26 140.08a.56.56 0 0 0-.51.52l-.76-.53a3.28 3.28 0 0 1 3.57-.78 1.79 1.79 0 0 1 1.17 1.64 1.37 1.37 0 0 1-1.08 1.39l-.29-.31c1-.78 1-1.08.07-1.79-.25.37-.17 1-.71 1.15l-.31-.3c.33-.43-.39-1 .21-1.41-.51.12-1.11-.32-1.36.42zM118.59 135.45c.68 0 1.25.15 1.16.84-.14 1.13-1.21 1.15-2 1.36a.71.71 0 0 1-.87-.53.86.86 0 0 1 0-.32c.12-1.09 1.04-1.14 1.71-1.35zm.34.83c-.07 0-.14-.16-.24-.17s-.3 0-.28.24a.31.31 0 0 0 .21.22c.15 0 .28-.07.31-.29zM113.42 121.47c.48-1.18 1.6-1.2 2.47-1.46.57-.16.66.42.4.88a2.35 2.35 0 0 1-2.87.58zM110.87 124.28a1 1 0 0 1-.34-1.37 1.2 1.2 0 0 1 .26-.29A1.76 1.76 0 0 1 113 122a1.63 1.63 0 0 1 .94 1.76 2.88 2.88 0 0 1-.4.85l-.25-.75a1.09 1.09 0 0 0-.8-1.32h-.2a1.2 1.2 0 0 0-1.26.67c-.26.37.09.36.3.44z" class="cls-1"/><path d="m110.87 124.28.49-.72c.7-.47 1.26.33 1.92.24l.25.75a4 4 0 0 1-1.73.49.72.72 0 0 1-.9-.47.7.7 0 0 1-.03-.29zM125.45 122.79a1.83 1.83 0 0 1 1-.7 1.07 1.07 0 0 1-1 .7zM119 140.07a.66.66 0 0 1-.63.55 1 1 0 0 1 .63-.55zM57.79 90.37C56.7 91 56 92.11 55 92.85a13.71 13.71 0 0 1 2.57-4.17c.04.78-.15 1.32.22 1.69zM55.43 95.24c-.2-.1-.2-.31-.24-.49l2.15-3.52c1 .56.49 1.08 0 1.6-.95.55-1.34 1.58-1.91 2.41zM55.19 97.9l.81-1.2.43-.51a5.2 5.2 0 0 0 1.5-1.63c.27 0 .43-.4.74-.19a.43.43 0 0 1-.09.55 12.49 12.49 0 0 1-3.39 2.98z" class="cls-1"/><path d="M57.88 94.56a5.2 5.2 0 0 1-1.5 1.63v-.53a8 8 0 0 0 .82-.83c.26-.31.11-.49-.26-.52.42-.44.64.07.94.25z" class="cls-1"/><path d="M56.9 94.31c.37 0 .52.21.26.52a8 8 0 0 1-.82.83l-.17-.39zM80.44 81.83l-2.1 1.36-.13-.1.65-1c-.32-.52-.62-1.06-1.3-1.15 0-.87.83-1 1.18-1.46.77.6 1.8 1.08 1.7 2.35zM83.28 64.74c-1.49 1.46-3 2.88-4.46 4.39-.48.49-.64 1.26-1.3 1.63h-.24a2.15 2.15 0 0 1 .72-1.47c1.56-1.37 2.66-3.15 4.2-4.54.48-.45.72-.26 1.08-.01z" class="cls-1"/><path d="M80.44 81.83c.1-1.27-.93-1.75-1.7-2.4l.39-.31c.56.34.63-.35 1-.46.63 0 .94-.46 1.34-.82s.53-.71 1-.67a.47.47 0 0 0 .11.13 8.22 8.22 0 0 1-2.41 2.14l2.34-.12c-.62 1.01-1.94 1.31-2.07 2.51z" class="cls-1"/><path d="M80.11 78.66c-.35.11-.42.8-1 .46a.72.72 0 0 1 .11-.19.54.54 0 0 0 .06-.77.62.62 0 0 0-.18-.16c-.35-.11-.69-.17-.42-.7a5.08 5.08 0 0 1 2.42-2.09c.22-.12.19.26.32.39a3.1 3.1 0 0 0-1.88 1.63c.91-.24 1.18-1.16 1.85-1.65.2-.16.37-.45.68-.19l-2 2.32-.19.28-.18.2h.15c.57-.03.44.21.26.47zM81.35 72.43c.52-.79 1.49-1 2.13-1.65.27.51-.17.65-.24.92a38.07 38.07 0 0 0-3.8 3.38c-.25 0-.33-.27-.45-.45zM79.67 64.75c.24.16.68 0 .72.48a12.77 12.77 0 0 0-1.59 2.14c-.26.34-.51 1.07-1.16.46s0-.85.36-1.17v.5l-.08.08-.07.07.12-.17c.35-.36.84-.61.91-1.18 0-.1 0-.1.1 0-.38-.73.42-.82.69-1.21zM79.19 71.71c.31.18.78.38.3.77s-.69 1.15-1.07 1.7l-.42-.29-.19-.47c1-.09 1.36-.79 1.41-1.71zM79 75.36 77.79 77c-.36-1 .41-1.37.75-1.9z" class="cls-1"/><path d="m79 75.36-.45-.25.45-.48c.12.18.2.41.45.45-.08.22-.27.25-.45.28zM79.12 78a.57.57 0 0 1 .26.74.47.47 0 0 1-.14.17zM82.5 77.17c.11-.13.23-.38.4-.13s-.15.21-.29.26a.47.47 0 0 1-.11-.13zM79.91 78.21h-.15L80 78zM77.29 70.74c0 .12-.12.17-.21 0zM83.52 64.28c.15.1.22.19 0 .25zM80.83 64.73l.11-.21a.7.7 0 0 1-.11.21z" class="cls-1"/><path d="M83.52 64.5a.25.25 0 0 1-.23.27.27.27 0 0 1 .23-.27zM78 66.46zM79.93 78l.19-.28zM122.37 117.51l.31-.13zM23.5 94c.55-.5.83-1.31 1.69-1.45A2.74 2.74 0 0 1 23.5 94z" class="cls-1"/><path d="M25.17 92.6c-.09-.41.24-.56.48-.76.41.62-.26.54-.48.76zM25.87 91.64l.3-.26zM26.15 91.41zM79.21 63.76l.06.12v-.14zM6.7 127.88a2.73 2.73 0 0 1 1.7-1.45 3.75 3.75 0 0 1-1.7 1.45zM10.55 125a1.18 1.18 0 0 1-.85.53c.14-.52.48-.55.86-.52zM8.62 126.2v-.2l.59-.23c-.08.33-.35.36-.59.43zM8.38 126.44l.26-.26zM3.85 125.24l-.26.25c.04-.13.01-.33.26-.25z" class="cls-1"/><path d="M4.06 128.35 4.01 128.4 4.08 128.37 4.06 128.35z" class="cls-1"/><path d="m4.08 128.37.24-.25-.25.24zM9.11 116.84l-.27.21zM33.6 199.64a.44.44 0 0 1-.44.44h-.06zM32.15 199.87l.48-.24zM33.12 199.16l.22-.26zM32.89 199.4l.23-.23zM32.63 199.63l.25-.22zM33.87 199.42l-.27.22zM32 200.13l.2-.26zM32.7 200.16l-.28.23zM56.5 211.7zM81.32 23c.48 1.74 0 2.88-1.38 3.29-.85.26-1.13-.6-1.32-1.06a1 1 0 0 1 .53-1.31 1.23 1.23 0 0 1 .33-.08 3.19 3.19 0 0 0 1.84-.84zM73.68 26.85c-.27.11-.11.7-.67.53-.2-.67.35-1 .66-1.5l.33-.2a.22.22 0 0 0 .15-.08l.28-.19a.34.34 0 0 0 .2-.09l.22-.17.27-.22 1-.43c.3.3-.05.42-.09.61-.23.1-.52.05-.67.31l-.22.23-.23.22-.24.22-.3.2-.48.28-.21.27zM61.55 18.38a2.45 2.45 0 0 1 2-1.44c.67.08.79.63.79 1.15a1.83 1.83 0 0 1-2 1.52 1.07 1.07 0 0 1-.79-1.23zM58.78 19a8 8 0 0 1 1.64-1.69c.23-.21.51-.71 1-.28zM27.1 59.46a22.45 22.45 0 0 0-4.4 5.36c-.95-1.14 1.14-4.32 3.93-6.07.44 0 .38.43.46.71zM120.26 140.08c.25-.74.85-.3 1.37-.43-.6.45.12 1-.21 1.41-.56-.06-.51-.96-1.16-.98zM119.73 140.81l-.94.74c.07-.55.47-.69.94-.74zM120 140.81h-.28a.81.81 0 0 1 0-.22zM120.48 141.06l-.29-.18zM126 122c-1 .4-1.76.89-2.74.24.74-1.56 1.63-.73 2.74-.24zM77.75 72.91l1.44-1.2c0 .92-.36 1.62-1.41 1.71z" class="cls-1"/></g></g></g></svg>