<svg xmlns="http://www.w3.org/2000/svg" viewBox="0 0 103.25 136.77"><defs><style>.cls-1{fill:#333;}.cls-2{fill:#636363;}.cls-3{fill:#181818;}.cls-4{fill:#606060;}.cls-5{fill:#7d7d7d;}.cls-6{fill:#6b6b6b;}.cls-7{fill:#323232;}.cls-8{fill:#464646;}.cls-9{fill:#7c7c7c;}.cls-10{fill:#565656;}.cls-11{fill:#bcbcbc;}.cls-12{fill:#4d4d4d;}.cls-13{fill:#191919;}.cls-14{fill:#545454;}.cls-15{fill:#1e1e1e;}.cls-16{fill:#5a5a5a;}.cls-17{fill:#8e8e8e;}.cls-18{fill:#c8c8c8;}.cls-19{fill:#aeaeae;}.cls-20{fill:#7e7e7e;}.cls-21{fill:#8a8a8a;}.cls-22{fill:#9e9e9e;}.cls-23{fill:#1d1d1d;}.cls-24{fill:#4b4b4b;}.cls-25{fill:#353535;}.cls-26{fill:#7a7a7a;}.cls-27{fill:#2f2f2f;}.cls-28{fill:#666;}.cls-29{fill:#828282;}.cls-30{fill:#444;}.cls-31{fill:#bebebe;}.cls-32{fill:#ababab;}.cls-33{fill:#a2a2a2;}.cls-34{fill:#a5a5a5;}.cls-35{fill:#858585;}.cls-36{fill:#a6a6a6;}.cls-37{fill:#adadad;}.cls-38{fill:#9f9f9f;}.cls-39{fill:#9b9b9b;}.cls-40{fill:#737373;}.cls-41{fill:#040404;}.cls-42{fill:#101010;}.cls-43{fill:#2e2e2e;}.cls-44{fill:#060606;}.cls-45{fill:#2d2d2d;}.cls-46{fill:#363636;}.cls-47{fill:#0f0f0f;}.cls-48{fill:#242424;}.cls-49{fill:#707070;}.cls-50{fill:#151515;}.cls-51{fill:#3f3f3f;}.cls-52{fill:#717171;}.cls-53{fill:#535353;}.cls-54{fill:#c2c2c2;}.cls-55{fill:#787878;}.cls-56{fill:#b6b6b6;}.cls-57{fill:#5b5b5b;}.cls-58{fill:#4e4e4e;}.cls-59{fill:#525252;}.cls-60{fill:#171717;}.cls-61{fill:#494949;}.cls-62{fill:#252525;}.cls-63{fill:#8c8c8c;}.cls-64{fill:#838383;}.cls-65{fill:#3a3a3a;}.cls-66{fill:#292929;}.cls-67{fill:#8d8d8d;}.cls-68{fill:#afafaf;}.cls-69{fill:#909090;}.cls-70{fill:#a9a9a9;}.cls-71{fill:#616161;}.cls-72{fill:#393939;}.cls-73{fill:#262626;}.cls-74{fill:#929292;}.cls-75{fill:#9a9a9a;}.cls-76{fill:#9d9d9d;}.cls-77{fill:#6e6e6e;}.cls-78{fill:#4f4f4f;}.cls-79{fill:#424242;}.cls-80{fill:#404040;}.cls-81{fill:#7f7f7f;}.cls-82{fill:#757575;}.cls-83{fill:#232323;}.cls-84{fill:#4c4c4c;}.cls-85{fill:#c7c7c7;}.cls-86{fill:#777;}.cls-87{fill:#5c5c5c;}.cls-88{fill:#686868;}.cls-89{fill:#4a4a4a;}.cls-90{fill:#747474;}.cls-91{fill:#626262;}.cls-92{fill:#484848;}.cls-93{fill:#848484;}.cls-94{fill:#5e5e5e;}.cls-95{fill:#5f5f5f;}.cls-96{fill:#989898;}.cls-97{fill:#6a6a6a;}.cls-98{fill:#c4c4c4;}.cls-99{fill:#121212;}.cls-100{fill:#3e3e3e;}.cls-101{fill:#b8b8b8;}.cls-102{fill:#141414;}.cls-103{fill:#b3b3b3;}.cls-104{fill:#434343;}.cls-105{fill:#a1a1a1;}.cls-106{fill:#969696;}.cls-107{fill:#bdbdbd;}.cls-108{fill:#454545;}.cls-109{fill:#a3a3a3;}.cls-110{fill:#868686;}.cls-111{fill:#999;}.cls-112{fill:#515151;}.cls-113{fill:#939393;}.cls-114{fill:#878787;}.cls-115{fill:#8b8b8b;}.cls-116{fill:#949494;}.cls-117{fill:#acacac;}.cls-118{fill:#595959;}.cls-119{fill:#979797;}.cls-120{fill:#6f6f6f;}.cls-121{fill:#a7a7a7;}.cls-122{fill:#343434;}.cls-123{fill:gray;}.cls-124{fill:silver;}.cls-125{fill:#b7b7b7;}.cls-126{fill:#b9b9b9;}.cls-127{fill:#c3c3c3;}.cls-128{fill:#6c6c6c;}.cls-129{fill:#7b7b7b;}.cls-130{fill:#3d3d3d;}.cls-131{fill:#c9c9c9;}.cls-132{fill:#575757;}.cls-133{fill:#bbb;}.cls-134{fill:#555;}.cls-135{fill:#272727;}.cls-136{fill:#585858;}.cls-137{fill:#1f1f1f;}.cls-138{fill:#383838;}.cls-139{fill:#cacaca;}.cls-140{fill:#b2b2b2;}.cls-141{fill:#b1b1b1;}.cls-142{fill:#0c0c0c;}.cls-143{fill:#bfbfbf;}.cls-144{fill:#c5c5c5;}.cls-145{fill:#b0b0b0;}.cls-146{fill:#313131;}.cls-147{fill:#c1c1c1;}.cls-148{fill:#212121;}.cls-149{fill:#696969;}.cls-150{fill:#373737;}.cls-151{fill:#aaa;}</style></defs><g id="Calque_2" data-name="Calque 2"><g id="planet-winter"><g id="balloon-g"><path class="cls-1" d="M10.79,24.35H9.32l3-4.26C9.74,18.47,7.44,17,8.06,13.43c.5-2.86,2.66-4.16,4.9-4.92,1.71-.58,3,1.19,3.51,2.65,1.32,3.61-.59,6.17-3.12,8.25l1.72,2.81-.2.22L14,21.14,13,20.94l-.48,2.3-.93.17,1.35-2.8c-.78,1.06-2.51,1.54-2.1,3.29ZM9.66,16.47l.38,0a2,2,0,0,0,1.41,2.66c1.93.5,2.82-1,3.68-2.39h0c2-2.46,1.93-5-.34-7.08s-3.49.23-4.71,1.78l.09,0c-.58,1.25-.33.72-.09.19l.47.07L9,15.84,8.6,14.59l-.42.16,1,2.13Z"/><path class="cls-2" d="M12.73,24.15c.16,9.91.42,19.81.43,29.73,0,8.14-.25,16.29-.37,24.43,0,.27.26.53.4.8l-.52.2-.45-.47c1.58-18.24-.19-36.48,0-54.72Z"/><path class="cls-3" d="M12.73,24.15l-.49,0-1.45.23V23.9l.75-.49.93-.17,2.4-.8.2-.22,1.11,1.2Z"/><path class="cls-4" d="M9.66,16.47c-.52-1.28.53-1.85,1.18-2.6l-.54,2.61,0,0H10Z"/><path class="cls-5" d="M10.08,11.41a.15.15,0,0,1,0,.16c-.24.53-.49,1.06.09-.19Z"/><path class="cls-4" d="M11.28,15.48l.8-1-.64,2.21,1.31-1.21-.2,1.28,1.7-1.06-2.33,2.55c-.59-.66-1.1-1.22-1.6-1.79l0,0,1.14-2.67c-.08,1-.11,1.36-.14,1.69l-.16.1Z"/><path class="cls-6" d="M10.77,13.06,11,11.88Z"/></g><g id="balloon-d"><path class="cls-7" d="M83.55,17.86V12l-2.09.1c.9-1.53,1.68-2.87,2.47-4.2-1.58-1.25-3.88-2.18-3.21-4.72A4.39,4.39,0,0,1,85,0c.73,0,1.88,1.11,2.18,2,.93,2.59-1.14,4-2.61,5.65A4.27,4.27,0,0,0,88,11.15L84.31,12c-.2,1.92-.4,3.88-.59,5.83ZM84.94,6.6l.25-.22c.47-.59,1-1.15,1.4-1.77a2.68,2.68,0,0,0-.38-3.5A2.56,2.56,0,0,0,84.28.62C83.74.68,82.7.65,83,1.8l-.9,1h0l-.3,0L81.55,2l-.19,1c-.76.88-.29,1.64.23,2.4l.74.49c.61.8,1.25,1.56,2.42,1l.19-.25ZM83.6,11.17H86L84.23,8.3l-2.09,3.38Z"/><path class="cls-8" d="M83.47,35.9V53.53h-.18V35.89Z"/><path class="cls-9" d="M83.47,35.9h-.18c-.75-6-1-12,.26-18h.17C82.69,23.86,83.17,29.88,83.47,35.9Z"/><path class="cls-10" d="M83,1.8l.25.5a1.36,1.36,0,0,1,0,.2c1.21,1.23-1,2-.41,3.15l-.47.24-.74-.49L81.83,4l.33,0-.34-1.2h0l.3,0,0,0c.23.07.14,0,0,0Z"/><path class="cls-11" d="M81.36,3l.19-1c.15.5.19.62.22.74h0L81.33,3Z"/><path class="cls-12" d="M84.75,6.84l-.06-.25h.25Z"/><path class="cls-12" d="M84.94,6.6l.25-.22Z"/><path class="cls-12" d="M84.71,6.62l-1.94-1L84,3.46c0,.46,0,.7,0,.94l.61-.28-.34,1.12.69-.16Z"/><path class="cls-7" d="M83.21,2.5a1.36,1.36,0,0,0,0-.2A.2.2,0,0,1,83.21,2.5Z"/><path class="cls-7" d="M81.33,3l.49-.26.34,1.2-.33,0-.56-.09Z"/><path class="cls-7" d="M82.08,2.75c.09,0,.18,0,0,0l0,0Z"/></g><g id="gant-d"><path class="cls-13" d="M94.8,82.46l-1.56.83-1.39-1.57,3.9-10.07h1.89c0,.16-.11.31-.17.47-.39,0-.79,0,0,0h0l.43.26,0,.5v0l-1.7.83L94,78.59h0l-.21.27h0l-.92,2.43c-.16,1.56.75,1.22,1.64.92Z"/><path class="cls-14" d="M101.46,81.75c.45,2.87-.18,5.21-3.44,5.67-2,.28-2.3-1.24-2.24-2.83l.65,1,.76,1.14c1.92.8,2.73-.18,3.5-1.73l.55-2.06Z"/><path class="cls-15" d="M96.43,85.61l-.65-1-.48-1.94V80.79h.93l.06.49,0,1.38.48,1.44h0l.21.52h0v.47L98,85l0,0-.72.46.32.9-.45.21-.52-.66-.25-.25Z"/><path class="cls-16" d="M97.63,67.79,97.75,70l2.8,2.08a.28.28,0,0,1,0,.13l.1.08-.19.18,0,.61-2.59-.25,0-.5h2.55c-1.23-.81-1.73-2-2.81-.72h-.43c-.14-1.22.68-2.57-.51-3.65Z"/><path class="cls-9" d="M100.83,74.28a.45.45,0,0,1,.2,0q.21,3.72.43,7.46L101.24,83c-.23-2.9-.45-5.79-.67-8.69Z"/><path class="cls-17" d="M95.29,80.79v1.86l-.5-.19-.25-.26Z"/><path class="cls-18" d="M97.27,73.58l.28.68L94,78.59l2.19-4.87Z"/><path class="cls-19" d="M93.83,78.85l.87-.09.17.16,2.48-1-4.44,3.35Z"/><path class="cls-18" d="M94.05,78.58l-.21.27Z"/><path class="cls-20" d="M96.74,84.09l3-2L97,84.61Z"/><path class="cls-21" d="M96.22,80.78l1.36-1.07.16.19-1.46,1.37Z"/><path class="cls-20" d="M97.27,83.18l-.53.91-.48-1.44.46,0,0,0,.45.41A.27.27,0,0,0,97.27,83.18Z"/><path class="cls-14" d="M97.17,86.78l0-.27.45-.21L98.4,86l.11.29Z"/><path class="cls-20" d="M97,84.61v0Z"/><path class="cls-14" d="M96.68,85.85l-.25-.25Z"/><path class="cls-19" d="M94.94,78.52l2-2.13.29.29-2.16,2C95.05,78.63,95,78.58,94.94,78.52Z"/><path class="cls-22" d="M97.15,83.09l.8-.87.2.21-.88.75A.27.27,0,0,1,97.15,83.09Z"/><path class="cls-20" d="M96.72,82.7l.66-1,.13.13-.81.87Z"/><path class="cls-20" d="M97.64,81.46c0-.09.09-.19,0,.11l.15,0Z"/><path class="cls-20" d="M97.38,81.68l.26-.22.1.09-.23.26Z"/><path class="cls-19" d="M95.1,78.68l-.23.24-.17-.16.24-.24C95,78.58,95.05,78.63,95.1,78.68Z"/><polygon class="cls-15" points="98.03 84.97 97.99 84.92 98.05 84.94 98.03 84.97"/></g><g id="gant-g"><path class="cls-23" d="M2.06,114.59c1.35-3.12.82-7.2,4.74-9.14L7,104.29l.41,1.19.65,1-.61.24-1,.62-.18-1-.47.07L6,107.48l.5-.23.93.64-1,.46-.27.49a.26.26,0,0,0-.16.07l-.28.19-1.06-1.34-.1,1.66,1.18-.34-.34.47-.18.17-.44.37-1.57-1.24,1.34,1.43-1.95,3.84Z"/><path class="cls-3" d="M2.06,114.59l.57-.47.28.24-.07.25-.63,2.2L1,121.32l.24.5,0,0,.25,1.44.23.25.26,0,.51-.25.48.17h0l-.78.86C-2.44,121.09,1.71,117.83,2.06,114.59Z"/><path class="cls-24" d="M7.42,106.67l.61-.24c3.08.5,2.19,3.15,2.71,5l-.38-.23-.45-2.16-3.45-.72,1-.46,3.94.65Z"/><path class="cls-25" d="M7.92,95.15l.25.49-.69,6.81-.24-2,.13-5.22,0-1.31h0l.33,0a.65.65,0,0,1,.15.1l-.2.44,0,.41.22.28Z"/><path class="cls-26" d="M10.36,111.23l.38.23c-.3,2.56.21,5.29-1.5,7.86L7.9,118.21l.25-.73,1.44,2Z"/><path class="cls-14" d="M2.13,124.3l.78-.86.92,0c.83.76.64-.31.92-.52l1.71-2.37h0C5.27,122.11,5.42,125.24,2.13,124.3Z"/><path class="cls-27" d="M8.15,117.48l-.25.73-.29-.64-.18-.08-.18.05c0-.27,0-.53,0-.8l-.51-.47.46-.66.76.45,0,0Z"/><path class="cls-28" d="M6.7,116.27l.51.47c0,.27,0,.53,0,.8-.26,1-.51,2-.77,3.07h0Z"/><path class="cls-23" d="M7.24,100.46l.24,2v.29l0,.88a.17.17,0,0,1,0,.18l-.25-.54Z"/><path class="cls-25" d="M7.16,103.26l.25.54,0,1.68L7,104.29Z"/><path class="cls-25" d="M7.45,103.62l0-.88Z"/><path class="cls-28" d="M7.43,117.49l.18.08A.37.37,0,0,1,7.43,117.49Z"/><path class="cls-29" d="M4.32,112.46l1.9-1.11c-1.82,1.66-2.56,2.34-3.31,3l-.28-.24,2-3.84.23-.19.44-.37.18-.17.34-.47,0,0,.28-.19,0,.19.23,0,0,0c.94,2-1.82,1.92-1.92,3.35l0,.11Z"/><path class="cls-30" d="M5.77,109.08l-1.18.34.1-1.66,1.06,1.34Z"/><path class="cls-30" d="M4.81,110.09l-.23.19-1.34-1.43Z"/><path class="cls-30" d="M5.43,109.55l-.18.17Z"/><path class="cls-30" d="M6.19,108.84l0,.24,0,0-.23,0,0-.19A.26.26,0,0,1,6.19,108.84Z"/><path class="cls-29" d="M2.84,114.61l2.43-1.68h0l-3,3.89Z"/><path class="cls-31" d="M1,121.32c.39-.32.79-.63,1.19-.94v.28l0,.89.22.22-.92,1.47-.25-1.44,0-.09v.11Z"/><path class="cls-11" d="M3.83,123.49l.73-1.8L4.75,123C4.47,123.18,4.66,124.25,3.83,123.49Z"/><path class="cls-32" d="M3.09,119.39l2-2.45.38.35-2.34,2.13Z"/><path class="cls-33" d="M3.12,117l1.69-2.13.32.3L3.1,117Z"/><path class="cls-29" d="M5.27,112.93c.35-.4.7-.79,0,0,.87-.57.43-.28,0,0Z"/><path class="cls-34" d="M3.91,119.62l.5-.54.18.15-.45.57Z"/><path class="cls-35" d="M7.72,114l-.72,1-.23-.19.8-.9A1,1,0,0,1,7.72,114Z"/><path class="cls-36" d="M6.69,110.83l-.59.52L6,111.19l.6-.52Z"/><path class="cls-37" d="M2.16,120.66v-.28l.94-1,0,0Z"/><path class="cls-6" d="M6.52,112.81Z"/><path class="cls-38" d="M2.35,121.77l-.22-.22.66-.73L3,121Z"/><path class="cls-39" d="M3.1,117c-.11.18-.22.37,0,0-.3.21-.13.09.05,0Z"/><path class="cls-40" d="M7.57,113.83l.46-.65.2.15-.51.64A1,1,0,0,0,7.57,113.83Z"/><path class="cls-27" d="M7.92,116.06c0-.13,0-.26,0-.06.13-.16.05-.06,0,0Z"/><path class="cls-3" d="M1.2,121.82v-.11l0,.09Z"/></g><g id="planet"><path class="cls-41" d="M20.37,81.68l.46-.45.29-.78c1.13-.29.09-.88.19-1.31l0-.54-.94,0-.37,0a.22.22,0,0,0,0-.19l-.38-.46,2-1.22.56-2.1-1,.67-1.51,1.45-.84,0a.22.22,0,0,1-.14,0l-.31-.55h0l.34,0h.06l.34-.19c1.83-1,3.15-2.17,1.88-4.37l3.82-6,1-.76.06-.41.2-.29,0-.44,0,0,.49-.75.22-.74h0c1,.83-1,2.18.51,2.92V66.6l1.2-1.18,0,0-1.72,2.86-.22,1.19-1,1.38.79,1,.69.77,1.3.64H29l1,.78.49.23.88.17.54,0,4.75,2.69.76,0,3.1.26.24.29,1,.4.44,0L42,78.6h-.48l-1.24-.23c-2.05-.43-4.34.07-6.06-1.73-.48-.51-1.43-.57-2.17-.83l0,0-7.11-3,1.15,1.93,3.35,1.92c-1.31.5-2.25-.51-3.57-1.4l.26,1.2c-.42.72-.27,1.15.54,1.23l.42-.75h0l.27,0,.07,0h.07l.29.73,3.13,1.42-.5.25H28.73l1.48,1.4,1.75.46.2-.7a.72.72,0,0,1,.2.09l1.19,1.08.57.36,0,.06.51.31a.47.47,0,0,1,.17,0l-.23.54-1,.34,1.06.88c-2.88.61-5.74,1.08-8.46-.64L24.73,84l-.14-1.1-.48.16L22,82.43l-.63-.24-.15-.46-.42.24,0,.7a.36.36,0,0,1,.11.2l.24.28h0l-.48.25h0l-.22-.22a.23.23,0,0,1,0-.2ZM28,80.5l-.2.2a.23.23,0,0,1-.17.11l-.28-.06h0l-.25-.46h0l-.46-.91-.88.67c-.58-1.66-1.9-1.17-3.17-1.52.23.59.38,1,.52,1.36l-.55,1.26,1.42-1,1.5,1,1.38.07,2.24.93.68-.79-1.53-1.09a.61.61,0,0,0-.19,0L28,79.74,28,79l-.45.27v.26l.1.39.44.33a.66.66,0,0,0,0,.2Zm-2.29-5.39L25,73.71l-.8.21-2.53-3.57,1.47,4.88,1.9.52Zm3.11,8.59.1.44,1-.28-.11-.4ZM24.73,66.9l-.27-.15-.82,1.55.21.11Zm8.05,15.28-.29-.32-.81.72.2.23Zm-9.52-11.8.25.15.55-.91-.24-.15Zm.09,8.25ZM21.78,79l.33,0,.24-1-.29-.07Zm4.47-.76-.35,0,.35,2.39Zm3.46,6.27Zm-6.33-9.64c.11,1.46.1,1.27,0,0C23.28,76.11,23.26,76.3,23.38,74.83Zm4.48,8.62,0-.2-.43,0,0,.18Z"/><path class="cls-42" d="M65.52,79.1l-1.61,1.09L65.3,81.7l.3.52.16,1.16.26.48h0l.24,1.2h.11l.1,0,.63,0-.86.71-.56.52-.14,0-.8-3.06-.64-2.49v2.69c0,.07,0,.13-.07.19l-.65-1.18-.08,1.51,1,.62L64,85l-.68-.38-.47.66-1-3.83-1,.9-.2,4.14a.36.36,0,0,0,0,.23c0,1.14,0,2.27,0,3.4a.54.54,0,0,0,0,.18l.27,1,.67,1.2.3.43a.12.12,0,0,0,.15.07L61,95.14l3.22-.58,0,.24-3,.74.89,1.19-.72,1.51-.21-1.16-1,.45-.43-.59c-.39-.13-.78-.27-.07,0-.73.14-.33.06.08,0l-1.35,1.19,1,.71-.47.42h0v.5a1.72,1.72,0,0,1,.07.21l.22.72h0l.23,1h0l-.18.26-.11.68h.51l.49,0-.23.46-.28.65a.53.53,0,0,1-.2.07l-.48.25-.19.25-.8-.79V98.72l-1.56-.5.17,1.71-.46,0-1-1.46.42-.73,0-.37-.22.15L55.21,94v0l1,1-1-5.83L54.73,89v-.52l.21-.24.24-.27.24-.23.3,0,.45-.16.18-.76,1-2.81.85-.65L58,82.39l5-2.37,1.48-.89.68-.31ZM58.9,94.23c.42.13,1,.67,1-.32l.48.66c-1.15-2.8-.26-5.76-.75-9.3L59,87.72l-.7.64v-.88h0l-.19-2.57-.4,0L57.61,86l-.55.69-.19.76a1.34,1.34,0,0,0-.07.18l-.16.3-.28,1.67,0,.49a1.07,1.07,0,0,1,.07.19l.25,1.29a.24.24,0,0,1,0,.12l.64,2.43.23-2.85.32-1.18,1.21-.26v3.26l.9.81a.78.78,0,0,1-.22,0l-.82-.23Zm-1.58,1.41.06-1.07-.51,0-.22,2.31c-.37,1,.3.89,1.15.93Zm1.25.6c.85-.28,1.87.44,2-1.07l-1.81-.59Zm-.82-1.46.36,0,.26-3-.31,0Zm1.86-10.7.44-.18-.49-1.16-.39.16Zm4-3.16-.34-.25-.68,1,.29.22Zm-8.22,15.7.29.09.18-.71-.27-.07Z"/><path class="cls-43" d="M75.84,51.69l1.74.64,1-1.2A7.72,7.72,0,0,1,80.05,53a1.55,1.55,0,0,0,1.66,1.18l.67,1,1.36-.07-1,.49-.23,0,0,1,0,.39-.48,1.12,1.69.32.23-.25h.24c.75,1.09,1.79,2,.62,3.58a3,3,0,0,0-.28,3.49l0,0-1.13,2.07a.52.52,0,0,0-.17,0l-.46-.13-.59-.62c2.91-1.31-1.12-5.27,2.67-6.21l-.83-1-2-.59-.53.58-.18-.62a1.93,1.93,0,0,0-.58.34c-1.11,1.36-2.2,2.73-3.3,4.11h0L74.8,65.61l0,0v-.06l.77.31,0,0,.05.65.67-.4.24.23-4.46,3.45,2.87-3.24-.46-.36-2.18,3-.47-.4,3-4.31-2.08,1.92-.27.24h0l-.27.21h0l-.23.23h0l-.23.23h0l-.23.21,0,0-.21.21,0,0L71,68l0,0-.2.25h0l-.25.24h0l-.28-.3.33-.41.21-.23h0l.23-.23h0l.24-.23h0l.24-.23h0l.23-.23h0l.23-.23h0l.23-.23h0l.23-.24L74.58,62l1.47-1.92-1.49,4.65c2.38-2.71,5-3.81,5.87-6.5l.45-3.3.33,0V58c.67-1.47,1.32-3-.8-3.77l-.49.78-.15-1.48-1.5-1.11-.08,1.44-1.63-.7L74.93,52Zm8.43,10.12L84,61.64l-.5.88.33.18Z"/><path class="cls-44" d="M53.72,119.37l.3-1.27,2.59,1.32.75,1.38.21-1.41,0-.43-.42-1.72,0-.65.24-2.94.92.06a.32.32,0,0,1,.21-.08l.28-.2.09-.05H59l.52-.2.41-.06.54-.18a.21.21,0,0,1,.18-.07l.07.53h0l-1,.26h0l-.73.28,0,0-.52.45c.26,1.23,1.07.64,1.73.52L64,113.68l1.27-.31.57.45,1.62.33,1.44.2h.7l1.46-.17.7,0,.75,2.35a.24.24,0,0,1,0,.2l-.69-1.19a.28.28,0,0,1,0-.2l-.26-.74-.86.47v1.62l-.6,1.17-.39-.16-.27-1.92c-.13-1.41-1-.13-1.49-.43l0,0c-1.52.29.68,2.49-1.4,2.55.07-.31.13-.6.19-.9s.21-.52.32-.77a.25.25,0,0,1-.06-.2l-.7-.76-1.38-.65-.1,1.6h-.68V113l-1.51,5.82-.74-3.94v6.89l-1.08,1.18c.32-.82.5-1.25.41-1v-2.69l-.25-3.53-1.67.37-.78-.14.33.63L58.54,119l-.94,3.52-.09-1.33-.89-.3-.75-.52c-.44-.26-.78-1.28-1.41-.19h-.64Zm8.77-3.18a.86.86,0,0,0,0,.16A.86.86,0,0,0,62.49,116.19Z"/><path class="cls-45" d="M26.85,62.26l-.22.74-.49.75,0,0,0,.44-.2.29-.06.41-1,.76C30.77,48.33,43.79,43,60.71,44.26l-.25.93c-7.22-1-14.16-.28-20.59,3.44l-.44,0-.82.24h0l-1,.73h0l-.74.49,0,0c-2.79,1.72-5.37,3.65-6.91,6.89l.66-.4c-1.14,2.23-2.28,4.47-3.43,6.7l.55.26L29,60.27l.3.12-1.94,4.8c-1.52-.74.49-2.09-.51-2.92l0-.32.37-.47c0-.27.07-.53.1-.8.07,0,.15-.08,0,0h0c0,.26-.06.53-.1.79l-.36.5.17.14A.93.93,0,0,1,26.85,62.26Z"/><path class="cls-42" d="M46.09,97.76l4.51.74h.52l0,0,3.17.74H50.33L42,97.63l1,.71-2.17-.28-8.13-4.81-.1-.14.12-.13,3.53-.6L36,91.46l.78.55,1.1.49-2,.32,1.77,1,1.71.78L38,93.48l.65-.77.27.07v1.78L40,94.7l1,.66-.78.54-2.63-1.53-.21.37,2.83,1.67,1-.1,1.61.57.73.26.49.21,1,0h0Z"/><path class="cls-46" d="M72.44,93.41,70.29,94.7c3.94-4.62,7.52-9.31,9.59-15-.95,2.1-1.75,4.26-2.87,6.26s-2.6,4-4.22,6.4c4.14-3.79,5.82-8.36,7.37-13l-.56-.92L79.14,78,78.3,79V76.5l2.31,1.36.24,0,.24.19.23.25-.2.5h0C79,84.15,77.37,89.76,72.44,93.41Z"/><path class="cls-47" d="M75.84,51.69l-.91.28,1.63,1.23c.9,2.38,1.51,4.75-.51,6.92L74.58,62l.24-1.28h0l1.77-3.85L75.38,53.6l-1.45-1-4.57-4.08.7-.44Zm-1.93-.13.23-.33-2.77-2-.34.5Z"/><path class="cls-48" d="M55.2,133.09l-1-4.33c.83-1.19.73-2.3-.51-4.07v2.88l0,0-.3,3.84a.28.28,0,0,0-.18.06l-.36,0c.07-1.26.13-2.51.2-3.77H52.7l.24,3.76.15.19-.2.89-.56,0,.51-9.7.2.47c.51,1.32,1.37,2,2.82,1.44l1.7.52-.22.41-.23.23h-.19l-.05-.47h0c-1.38.19-2.1,3.23-1.51,6.26a10.45,10.45,0,0,1,.07,1.68Z"/><path class="cls-49" d="M23.06,93.52h.71a.46.46,0,0,1,0,.2L11.47,95c4.55.41,9.07.47,13.46-1l.52.5L11.52,95.88c-.75-.71-1.46-1.54-2.75-1l.6.86-1.2-.07-.25-.49.65-.52-.89-.17.2-.44c.16-.22.31-.45-.66,1,.74-1.54.62-1.3.51-1l-.33,0,.84-2.26.94,2.81,12.66-.83,1.21-.16Z"/><path class="cls-7" d="M71.31,127.17v0l.25.33.46,1,0,0L71.51,132a13.78,13.78,0,0,0-2.45-7.42l-1.59.11-.8,3.61h-.18l-.08-1.21.33-1.9.48-1.22-2,.75-.36-.16-.2.37-.38-.45h0l-1,.19-.21-.16v-.27c2.61-.75,5.16-.37,7.83.2-.59,1.07-.54,1.82.35,2.38Z"/><path class="cls-1" d="M12.22,78.84l.45.47.52-.2c.8-.47,1.61-1,2.42-1.41.25-.6.51-1.2.79-1.86l2.05.34.31.55c-.83.76-2.61.58-2.4,2.3-2.13-1.06-2.51,1.2-3.65,2l-.49-.73h0L10.08,82v-1.2a.37.37,0,0,1,0-.23l.18-.26h0l.67-.54.52-.66.25-.19a.3.3,0,0,1,.23,0l.24,0Z"/><path class="cls-7" d="M63.11,124.21v.27a1,1,0,0,1,0,.17l-.71.43,1.92.26,0,.29.08,0,.09,0h.27l0,0,0,.2-.08.31,0,.37.45.55-.39,1.47-.1,0,.05.18.07.29-.35,1.17-.6-5.84c-.37,2.24-.56,3.42-.86,5.22l-.41-2.72-.65,3.4-.75-4.83L61,125l.44-.78ZM63,125.45h-.26l0,.47.25,0Z"/><path class="cls-8" d="M83.28,67.33a.52.52,0,0,1,.17,0l-1.63,1.93-.73.69L65.52,79.1l-.29-.28,12.52-7.95,5-3.31,0,0Z"/><path class="cls-50" d="M61.42,124.23,61,125l.23.43a.76.76,0,0,1-.06.2l-.68,2.64H60l-.18-3.3-.84.91-.68,2,0,.9-1.17-2.88.23-.23.22-.41-1.7-.52a.2.2,0,0,1-.2,0l.55-.52h1.85l2.5-.19Zm-3,1.78-.1.16.15,0A.84.84,0,0,0,58.45,126Z"/><path class="cls-27" d="M55.2,98.52l1,1.46,1.39,2.26-2.18.7,2.3.75H55.93l-.28,2.16,1.74,1-2.18.61H55l-.08-.23L55,105.8C55.05,103.37,55.12,101,55.2,98.52Z"/><path class="cls-1" d="M50.33,99.27h3.94l-3.17-.74,3.14.23-1.68,1.17a21.6,21.6,0,0,1-11.8-1.87l2.17.28C45.4,98.65,47.74,100,50.33,99.27Zm1.25.28v.08l.1,0Z"/><path class="cls-51" d="M70.06,48.13l-.7.44-8.9-3.38.25-.93A24.29,24.29,0,0,1,70.06,48.13Zm-.63,0Z"/><path class="cls-52" d="M82.78,55.56l1-.49,1.09-.26,0-.38-2,.27-.1-.43,4.59-.91.29,0h0l0,.24-2.33.6.1.67L90,54.6h.51l.92.19-.2.55-2.27-.26-1.3,1.18,0,.27h0l-.49.22v-.28a.48.48,0,0,1,0-.17l.21-.73.1-.18s-.07,0-.11,0Z"/><path class="cls-48" d="M96.7,68l-.7.41-.59-1.16,1.25.12,1.73-2.45,1.48.31.43-1.75.44-1,.27,0-.81,3.68-1.46-.52-.65.9-.46,1.21Z"/><path class="cls-53" d="M71.31,127.17l0-.38,1.25-.45c-1.9-2.5-1-5.46-1.76-8.12l-.22-.59-.48.59-.07-.34.6-1.17,1,2.24.15-1,.47.28c-.49,2.82-1.19,5.65.9,8.3Z"/><path class="cls-54" d="M92.59,61.76l-7.18,5.79-.27-.26,7.2-6Z"/><path class="cls-55" d="M10.09,80.77V82l0,.24h0l-.23.17-.48.55H9.11l-.17-.4L7.74,83.9l-1,.94L5.5,84.12c1.59-.37,1.5-3,3.65-2.64C9.46,81.24,9.77,81,10.09,80.77ZM7.44,82.59l.24.3,1-.75-.27-.34Z"/><path class="cls-56" d="M64.81,128.55l.39-1.47,0-.48.18-1.08h0l0-.78.91.48-.31.66c-.08.5-.15,1-.23,1.5v5.36l-.53,0L64.83,129l-.07-.29A.46.46,0,0,0,64.81,128.55Z"/><path class="cls-57" d="M101,62.52l-.27,0,1-2.11h0l.79-1.64-.86-.52c.13-2.49-2.06-3-3.52-4.09h0c2.79.27,3.59,2.76,5,4.54l.07.06-.75,2.34-.73-.89C101.51,61,101.26,61.74,101,62.52Z"/><path class="cls-58" d="M57.11,125.87l1.17,2.88-.74,4.6-.62-7.48Z"/><path class="cls-9" d="M74.38,108.37l1,2.15.72,1.35H74.81l-.45,2.5H74.2L73.66,113l-1,1.57.46-1.94c1,.81.93-.08,1.25-.9l-1.5.45a.22.22,0,0,1-.16,0l-1.73.25v-.26l3.93-1-.58-2.83Z"/><path class="cls-59" d="M60,128.27h.44l.68-2.64c-.16,1.62-.33,3.24-.49,4.85v-.08c-.13-.59-.06-.26,0,.07v2.09l-.65,0Z"/><path class="cls-60" d="M5.5,84.12l1.21.72-.49,1-.72.43L5,86.69l1,.78L4.81,88l-.57-.32Z"/><path class="cls-48" d="M25.45,94.47l-.52-.5-1.18-.25a.46.46,0,0,0,0-.2l.84-1.14.38.83c.92.64,1.86,1.5,2.62-.19l.95-1.48.7.5-.76.7-.15.53.19.49a.88.88,0,0,0,0,.17Z"/><path class="cls-56" d="M20.15,90.13l-.71,1.68-.2-1.18-1-.26.9-.31-4.79-1.44v-.35l2.89.14.06.27-2,.13,4.65.84Z"/><path class="cls-61" d="M66.25,85.06,66,83.86l5.23-2.07v.35l-.47.29h0l-.27.16.26.07.23.24-2.11.79-2.49.59Z"/><path class="cls-62" d="M56.81,115.58l-.36.84c-.72.18-1.34-1.35-2.17,0l-.08-1.12L54,114.13l.23-.25,0-.38.17-1,.08-.64.22,2.5,1.21.76a.36.36,0,0,1,.2.06l.3.16a.3.3,0,0,1,.18.08Z"/><path class="cls-63" d="M71.23,82.14v-.35L72.46,81l2.17-.42.2,0,.52-.22,4.25-1.86.56.92Z"/><path class="cls-59" d="M74.2,114.38h.16c.07,1.58.14,3.15.24,5.51C73.4,117.55,73.35,116,74.2,114.38Z"/><path class="cls-64" d="M65.6,82.22l-.3-.52,3.34-.93h2.74C68.56,81,67.61,83.11,65.6,82.22Z"/><path class="cls-65" d="M55,107.4h.22l.48.64,0,.27c-.8,0-.67.34-.32.79l.31.17,1.94.79H55.79l1.14.64-.06.52-2.17-1,0-.66.23-.09c0,.07.1.15,0,0l-.06,0-.19-.31v-.3C54.83,108.43,54.91,107.91,55,107.4Z"/><path class="cls-27" d="M80.89,77.39l.59-2.62c.94-.86,1.67-.14,2.93,1l-2-.75-1.31,2.59Z"/><path class="cls-66" d="M4.05,92.78,3.34,93,3,91.14l3.69,1.41L5.26,93l-.68-.19Z"/><path class="cls-67" d="M28.52,93.93a.88.88,0,0,1,0-.17l1.25-.53.37-.91-.9-.28-.7-.5,2.17.94,1.88.26a.49.49,0,0,1,0,.24l-.12.13.1.14Z"/><path class="cls-68" d="M89.24,56.72c.59-1.27,1.57-.56,2.43-.46.06.21.13.43.2.65l-.28.61L88,57.18a.41.41,0,0,1,0-.19h.09l1.18-.24Z"/><path class="cls-69" d="M81.32,78.34l-.23-.25,8.66-3.56h0Z"/><path class="cls-70" d="M91.93,53.39l-4.36.23,0-.24c2.8-.86,5.6-.48,8.4,0l-.69.22Z"/><path class="cls-71" d="M73.15,77.79c-.71-.24-.75-1.22-1.66-.79l-.77,2.07c-1.11,0-2.06-.26-2.91,2.23.49-3,1.89-2.5,2.86-2.84l.14-1.62c.38-.09.93-.41,1.26-.26S72.8,77.37,73.15,77.79Z"/><path class="cls-72" d="M1.45,90.6l.91.86-.24.27L.64,90.53c1.29-1,.77-3.15,3.08-3.19L2,88.62l.29,1Z"/><path class="cls-49" d="M5.26,93l1.43-.44.72,1.38,0,1.31-.59-1-2.06-.64.09-.1,1.55.3Z"/><path class="cls-73" d="M10.76,86.52c.41-.56.83-1.12,1.24-1.69-.6,1.25.5.31.86.76l.27.7-.42.24-.5.22L12,87l-.74.51v0Zm1.3-.08v0c0-.33,0-.15,0,0Z"/><path class="cls-74" d="M7.18,87.47c-.86,2.74,1.29,3,3.36,3.68a3.75,3.75,0,0,1-3.87-1.87,1.14,1.14,0,0,1,.53-1.79Z"/><path class="cls-4" d="M53,123.27l-.2-.47.88-3.43.1.77h.64l1.41.19.75.52-2.7-.16Z"/><path class="cls-71" d="M4.24,87.66l.57.32.13,1.09-.61-.23-.87,1.78L3,90.44Z"/><path class="cls-12" d="M88.07,57a.41.41,0,0,0,0,.19l-3.8,1H84l1.94-1,.86-.48-.86.12-.27,0-.22-.16,1.66-.13v.28l.77.06Z"/><path class="cls-75" d="M85.14,67.29l.27.26L84,69l-.74.31-2.2.67.73-.69Z"/><path class="cls-10" d="M9.12,85.34l-.22.47L7.18,87.47l0,0L5.5,86.24l.72-.43,1.21.79,1.21-1.27,0-.5a.91.91,0,0,1,0-.23L9,84.35Z"/><path class="cls-76" d="M72.51,128l-.37,6.16-.33,0,.43-5.4Z"/><path class="cls-1" d="M73.17,112.67l-.46,1.94-.23,1.94-.75-2.35.72-.53v-.31l.32-1.16a.22.22,0,0,0,.16,0h0l.23.23A.2.2,0,0,1,73.17,112.67Z"/><path class="cls-77" d="M76.07,78.13l.57-.88-2.89,1.07-.13-.42,4.86-1.61-2.41,1.83Z"/><path class="cls-30" d="M91.59,57.52l.28-.61c-.07-.22-.14-.44-.2-.65,1,.08,1.72.53,1.68,1.7h-.26l0,0c-.18-.39-.37-.77.2.43l-.43-.51-.21.3L92,57.62l-.34.83-.25,0,0,0-.06,0Z"/><path class="cls-78" d="M92.68,58.2l.21-.3.23.08,0,0,.18.62.09-.62h0c0,.43,0,.86,0,1.28v-.06l0,0-.7,2.54-.25-.45.25-2.15Z"/><path class="cls-79" d="M101.76,60.37l-1,1.13.65-1.72-2.21-.68,2.34-.14.23,1.41Z"/><path class="cls-46" d="M90.07,71.85,88.31,73c-.15.39-.28.78-.88,2.5l.16-3Z"/><path class="cls-80" d="M90,54.6l1.48-1,.68,1.78-.21.21-.72-.23.2-.55,0-.67-.88.48Z"/><path class="cls-79" d="M83.29,69.26,84,69l2.8,1.54-3.3-1V70.9l0,0C82.67,70.47,82.83,69.88,83.29,69.26Z"/><path class="cls-14" d="M93,70.27l-3.4,1L91.93,69l.3.34-3,1.9,3.38-1.32Z"/><path class="cls-81" d="M97.65,61.27l.48,3.15-.72.92Z"/><path class="cls-32" d="M66.49,128.26h.18L66.45,132l-.36,0Z"/><path class="cls-82" d="M12,87l.22-.23.74.74,0,.76-1.42,1,.53-1.07c-.29-.24-.56-.49-.84-.73v0l1.06.21Z"/><path class="cls-81" d="M95.87,66l-1,.58.27,2.16-1-2.31,1.57-.71Z"/><path class="cls-83" d="M13,88.25l0-.76.38-.49-.62-.47.42-.24.57.7.22,1.2.4.08v.35H14.2l-.53-.19a.41.41,0,0,0-.19,0l-.31-.13-.09,0Z"/><path class="cls-5" d="M91.9,55.57l.21-.21L95,57.48l0,0Z"/><path class="cls-84" d="M15.13,90.36l-1.27-.47-.46,1.17h0l-.2.27c-.87-1.26.58-1.22.91-2.07Z"/><path class="cls-85" d="M66.32,125.22l-.91-.48-.16,0,2-.75-.48,1.22Z"/><path class="cls-11" d="M55.2,133.09l.23.24v3.43H55.2Z"/><path class="cls-1" d="M72.19,118.2l-.47-.28,0-2.36.69,1.19Z"/><path class="cls-14" d="M95,57.48l1.35.31-.75,1.27L95,57.46Z"/><path class="cls-86" d="M80.3,75.14l-1.94-.27c-.24.25-.48.5-1.56,1.66l1.43-2.32Z"/><path class="cls-87" d="M89.71,67.93l-2.25,1.63-.25-.32,2.32-1.49Z"/><path class="cls-88" d="M72.68,79.53l-.84,1-1.07-1h1.92Z"/><path class="cls-78" d="M93,70.27l-.37-.37,1.77-.58.13.31Z"/><path class="cls-11" d="M69.06,129.2l-.17,2.3-.34,0,.35-2.23A.29.29,0,0,1,69.06,129.2Z"/><path class="cls-57" d="M95.32,53.59l.69-.22,2.14.75h0Z"/><path class="cls-89" d="M67.72,130.17v-3.59h.18v3.6Z"/><path class="cls-30" d="M15.29,91.1l-.19-.76.92.31a.48.48,0,0,0,.09.21l-.51,1.3Z"/><path class="cls-90" d="M75.24,119.45l.19-4.2.43,0Z"/><path class="cls-91" d="M6.11,91.62l-.75-.86.95-.87Z"/><path class="cls-58" d="M58.33,127.85l.68-2Z"/><path class="cls-48" d="M3.1,95.57,3.94,95l.13,1.43Z"/><path class="cls-92" d="M69.06,129.2a.29.29,0,0,0-.16,0V126.9h.29Z"/><path class="cls-93" d="M91.56,65.46l.4,1-1.07-.1Z"/><path class="cls-94" d="M2.73,93,4,95.66,2.35,93.23Z"/><path class="cls-93" d="M82.35,71.51l-1,2.46L82,71.41Z"/><path class="cls-69" d="M90.18,74.23l1.25-.65v0l-1.15.78Z"/><path class="cls-12" d="M89.24,56.72l.1,0L88.16,57h-.11Z"/><path class="cls-52" d="M8.6,89.92l.6-.48.18.22-.62.47Z"/><path class="cls-55" d="M11,79.74l-.67.54.29-.89Z"/><path class="cls-95" d="M17.76,93.5l-.62-.37.14-.26.66.38Z"/><path class="cls-96" d="M76.07,78.12c-.18.16-.36.32,0,0-.43.13-.21.06,0,0Z"/><path class="cls-7" d="M72.51,128l-.27.74-.25-.24,0,0Z"/><path class="cls-85" d="M65.78,127.38c.08-.5.15-1,.23-1.5C65.93,126.38,65.86,126.88,65.78,127.38Z"/><path class="cls-32" d="M66.41,127.06l.08,1.21Z"/><path class="cls-49" d="M4.05,92.78l.53,0,.23.66-.09.1Z"/><path class="cls-68" d="M87.87,56.81l-.77-.06.49-.22Z"/><path class="cls-97" d="M81.12,78.84c.1.2.2.4,0,0,0,.39,0,.17,0-.06Z"/><path class="cls-42" d="M54.71,98.26v.26l-.5.27Z"/><path class="cls-48" d="M54,128.28l.26.5Z"/><path class="cls-69" d="M91.68,73.33c0-.12.06-.23,0,0,.26,0,.12,0,0,0Z"/><path class="cls-56" d="M17.2,90.46s0,.07,0,.07-.06,0-.09,0,0-.07,0-.08A.14.14,0,0,1,17.2,90.46Z"/><path class="cls-56" d="M13.67,88.44l.53.19Z"/><path class="cls-57" d="M103.16,58.66l-.69,1.4c.85-1.51.81-1.43.76-1.34Z"/><path class="cls-68" d="M87.59,56.53l0-.27.22.14Z"/><path class="cls-69" d="M89.75,74.53l.43-.3.09.11-.53.18Z"/><path class="cls-61" d="M66,83.86l-.26-.48Z"/><path class="cls-79" d="M83.53,70.9l.09.13a.6.6,0,0,1-.13-.09Z"/><path class="cls-69" d="M91.66,73.31l-.24.25v0l.25-.25Z"/><path class="cls-1" d="M18.79,76.15l-.34,0L18.6,76Z"/><path class="cls-1" d="M19.19,76l-.34.19Z"/><path class="cls-56" d="M16.11,90.86a.48.48,0,0,1-.09-.21Z"/><path class="cls-69" d="M80.89,77.39l.23.23h-.26v0Z"/><path class="cls-70" d="M87.6,53.38l-.29,0Z"/><path class="cls-69" d="M80.85,77.9l-.24,0,.26-.21v.25Z"/><path class="cls-56" d="M13.17,88.26l.31.13Z"/><path class="cls-2" d="M11.75,78.89l-.25.19Z"/><path class="cls-2" d="M12.22,78.84l-.24,0Z"/><path class="cls-88" d="M72.69,79.55v0Z"/><path class="cls-55" d="M10.31,80.28l-.18.26Z"/><polygon class="cls-64" points="68.64 80.78 68.68 80.7 68.62 80.76 68.64 80.78"/><path class="cls-53" d="M71.55,127.54l-.25-.33Z"/><path class="cls-98" d="M53.09,131.65l-.15-.19h0l.37,0Z"/><path class="cls-62" d="M55.18,87.94l-.24.27-.51.22c-.57.8-.26,1.32.55,1.68l-.28.3-.23-.06-.95-.18-.28-.3c.9-3.66.08-7.91,3.87-10.67l-1.66-.71-1.94,2-.26,0c0-.1,0-.2,0,0-.11-.12,0,0,0,0l-.49.71H50.39c-3.2,0-6.39,1.94-9.6.42l-.49-.19h0l.27-.52h0l.79.21c3.45,1.31,6.43-1.18,9.73-1.3L50,79.77l.68-.69,2.66-.23.93-.25.88-1,2.82,1.07,1.57-2,.67-.23-.7-.22a.26.26,0,0,1-.15,0L59.06,76l2.26-1.1,2,.3h1.2l-.88.69-.27,1.73-1.75-2.28-7.35,8.14,2.81-1.06.3.3.66-.34.13.89-.85.65-.45-.28.48-2.09-1.2,2.33-.28,1.41a.47.47,0,0,0-.17,0l-.12-1.44H55Z"/><path class="cls-83" d="M34.5,86.26l-3.05,1.21-.77-.1-2.37.82.64-.36.1-.57c0-1.45-1.14-.56-2.05-1.4L27.6,87l-1.73-1.07c.11.8,1.42,1.29.27,2v0l-1.7-2.46-1.73.19-.65-1.09-1.46-.94v0l.06-.27.48-.25.73.12-.46-1.07.63.24c3.21,4.51,8.15,3.06,12.5,3.65A.28.28,0,0,0,34.5,86.26Zm-5.22-.18-.12-.14.14.12c.13.06.26.13.05,0Z"/><path class="cls-98" d="M43.61,97.14l-.73-.26-.9-.74.62-.42-1.09-.32-.43,0-1-.66c0-.25,0-.49,0-.74h0c-.78-.74.12-.64.42-.91.8-.71,2.59.44,2.72-1.47l1.15.43-.21.27c-.17.06-.35.13,0,0-.12.3-.06.14,0,0l.27-.21.93-.72v.78l-1.93,3.5.4.26.33-.49h.23l-.45,1.46-.18.18A.69.69,0,0,0,43.61,97.14Z"/><path class="cls-99" d="M51.58,83.4l-6.23,1.94-.3.18H44.9l-.5-.28-.28-.39,1-.27.5-.49c2.41,0,4.25-2.89,7-1.42v.5h0Z"/><path class="cls-100" d="M43.21,91.59c-.13,1.91-1.92.76-2.72,1.47-.3.27-1.2.17-.42.91h0l0,.74-1.17-.14V92.78c.92-1.32,3.16-.08,3.8-2l4.47-1.67,1.17-2.27-.8,2.77-4.27,1.6Z"/><path class="cls-101" d="M27.13,89.39l11.74-2.14h0L36.71,88l-9.86,1.64Z"/><path class="cls-82" d="M43.21,91.59l0-.34L50.6,90,49,91.15,48.87,91c-1.51-.16-1.42,1.47-2.28,2L46.52,93l.66-1.38-.63.21h0l0-1.12-1.15,1.45v-.78l-.93.72,0,0Z"/><path class="cls-11" d="M42.67,90.82c-.64,1.88-2.88.64-3.8,2l-.27-.07-.73-.21L36.77,92Z"/><path class="cls-60" d="M12,84.86l0-1.5-.49-1.17,1.25-.94H13l1.22.69.17.75a.85.85,0,0,0,0,.23l-.48.49H13c.24-.32.47-.64,1.09-1.52l-2,.8.9.7Z"/><path class="cls-95" d="M14.35,82.68l-.17-.75.19.09,1.85-.78.35,0-.1.53.57-.32.48-.47.19,1a2.33,2.33,0,0,0-2.64,1.68l-1.16-.31.48-.49.79-.4,0-.16-.15,0Z"/><path class="cls-46" d="M44.12,84.86l.28.39-.27.1-.44.07-.55.09-.66.09-.53.16-.2,0-.25,0-.46,0H38.09v-.23l2-.13,5.51-1.4-.5.49Z"/><path class="cls-102" d="M17.52,81l-.48.47-.47-.21-.35,0-.16-.47.44-1,.56,0c1,1.21,1.72-.33,2.61-.25l0,.79a.31.31,0,0,1,0,.18l-.73.22Z"/><path class="cls-92" d="M37.72,88.9l1.15-.27h.25c.76,0,1.49-.07,1.47-1.11l.69-.54c.36,1.19-.38,1.72-1.29,2.15l-.09,0-.07,0h-1.6L37.92,89A.34.34,0,0,0,37.72,88.9Z"/><path class="cls-79" d="M19.72,80.35l0-.79.37-1,.37,0,.07.57.87-.59,0,.54-.19,1.31-.29.78-.54-1.74Z"/><path class="cls-94" d="M17.27,88.68l-.06-.27,0,0,.26-.2,3.35-.44.06.74Z"/><path class="cls-103" d="M52.56,83.18v-.5l.23-1.42.49-.71,0,0,.26,0L53.3,84.4l-.11-.11.11-2.08-.2,0L53,83.91Z"/><path class="cls-75" d="M27.61,93c-.76,1.69-1.7.83-2.62.19Z"/><path class="cls-104" d="M27.13,89.39l-.28.27h0l-1-.72-.43.91-.46.27,0,0c.4-.72.8-1.44,1.19-2.16v0l.73,1.21Z"/><path class="cls-34" d="M46.09,97.76l-1-.4,1.41-2.43h0L46,96.49l.21,0,.19.16Z"/><path class="cls-103" d="M53.3,84.4,52.84,88l-.54-.5.76-3.18.06,0h.07Z"/><path class="cls-101" d="M41.28,87l-.69.54c-.48-1.18.74-1,1.16-1.47h1.19Z"/><path class="cls-17" d="M44.09,96.84l1.18-2.14.23.11c-.37.77-.73,1.53-1.1,2.29l-.25,0Z"/><path class="cls-89" d="M28.44,90.23l-1.69,1.83-.24-.24,1.71-1.92Z"/><path class="cls-105" d="M53.24,89.87l.28.3-1.4,2.07-.26-.17Z"/><path class="cls-53" d="M31.88,89.59l1,.06.14,1.74Z"/><path class="cls-38" d="M20.91,88.49l-.06-.74,2.52.54Z"/><path class="cls-87" d="M24.93,90.12l-2.18,1.12-.19-.5,2.39-.6Z"/><path class="cls-106" d="M49.42,93.72l1.43-2.67,0,.37-1.45,2.3Z"/><path class="cls-90" d="M48.94,92.44l1.16-1.6.27.19L49.2,92.66Z"/><path class="cls-105" d="M46.07,92.51l-1.41,2.2-.06-.07,1.48-2.12Z"/><path class="cls-74" d="M20.6,83.68l1.46.94Z"/><path class="cls-107" d="M25.39,89.85l.43-.91,1,.72Z"/><path class="cls-108" d="M20.15,90.13l-.24-.48h1.76v.48Z"/><path class="cls-42" d="M32.61,92.74l-1.88-.26Z"/><path class="cls-109" d="M47.19,95.1l.93-1.44.26.17c-.35.47-.69.94-1,1.4Z"/><path class="cls-72" d="M52.3,87.49l.54.5-2.55.35Z"/><path class="cls-50" d="M53.19,84.29h-.07l-.06,0-.1-.4.14-1.72.2,0Z"/><path class="cls-56" d="M52.67,93.31l.73-1,.2.14-.68,1.06Z"/><path class="cls-55" d="M51.12,98.5H50.6L51.53,97a.44.44,0,0,0,.15.12Z"/><path class="cls-38" d="M49.63,96.36l-1.14,1.22.93-1.71h0l.33.26Z"/><path class="cls-34" d="M46.21,96.52l1-1.42.15.13c-.31.49-.63,1-.94,1.45Z"/><path class="cls-89" d="M23.41,88.15l.32-.86.29.09-.21.88Z"/><path class="cls-110" d="M51.67,85.05l.47-.3.12.18-.46.31Z"/><path class="cls-38" d="M51,96l.31-.63.19.1-.33.61Z"/><path class="cls-111" d="M48.65,94.88c.26-.39.52-.77.77-1.16h0L48.76,95Z"/><path class="cls-33" d="M46.55,94.93c.11-.32.22-.63,0,0,.39-.5.19-.24,0,0Z"/><path class="cls-33" d="M48,96.17c-.16.29-.33.58.46-.79-1,1.23-.78,1-.56.7Z"/><path class="cls-9" d="M50.88,91.42l0-.37.47-.89.27.16Z"/><path class="cls-112" d="M32,91.05l.58.41-.13.21-.61-.36Z"/><path class="cls-83" d="M20.37,81.68v0Z"/><path class="cls-17" d="M18.94,80.75l.73-.22Z"/><path class="cls-56" d="M13.92,88.19,13.7,87Z"/><path class="cls-76" d="M48.76,95l-.46.73-.14-.12.49-.71Z"/><path class="cls-113" d="M44.37,95.39h-.23l.46-.76.06.07Z"/><path class="cls-101" d="M44.13,85.35l.27-.1.5.28Z"/><path class="cls-114" d="M51.53,97l.23-.44.17.09-.25.47A.44.44,0,0,1,51.53,97Z"/><path class="cls-103" d="M51.58,83.4l1-.22Z"/><path class="cls-82" d="M49,91.15l-.38.52-.18-.13c.13-.18.26-.36.4-.53Z"/><path class="cls-34" d="M45.14,97.37l-1,0,.33-.07Z"/><path class="cls-98" d="M44.43,97.28l-.33.07-.49-.21a.69.69,0,0,1,.13-.11l.41,0,.25,0A.57.57,0,0,0,44.43,97.28Z"/><path class="cls-82" d="M46.29,92l-.22.48h0l.23-.47Z"/><path class="cls-82" d="M46.29,93.23v.11l0-.09Z"/><polygon class="cls-101" points="42.95 86.05 43.02 86 42.94 86.04 42.95 86.05"/><path class="cls-101" d="M42,85.76l.53-.16Z"/><path class="cls-101" d="M43.14,85.51l.55-.09Z"/><path class="cls-42" d="M54.74,97.87c0,.15,0,.29,0,.44C54.71,98.16,54.73,98,54.74,97.87Z"/><path class="cls-76" d="M48.3,95.71l-.27.46-.1-.09c.07-.17.15-.33.23-.49Z"/><path class="cls-82" d="M46.59,93.05l-.3.18,0,0,.21-.27Z"/><path class="cls-82" d="M46.55,91.81l-.26.22,0,0,.23-.25Z"/><path class="cls-56" d="M17.5,88.19l-.26.2Z"/><path class="cls-101" d="M41.5,85.83l.25,0a1.7,1.7,0,0,0,0,.22Z"/><path class="cls-101" d="M45.05,85.52l.3-.18Z"/><path class="cls-74" d="M20.65,83.39l-.06.27-.18-.28h.24Z"/><path class="cls-83" d="M20.63,83.38h-.22a.28.28,0,0,1,0-.22Z"/><path class="cls-114" d="M26.82,68.26l3.67-3.46-3.11,4.48.21.17L30.2,66.3l.2.14-3.22,4.77.44.32,2.06-2.6.15.13-2,3.27-.77.32-.69-.77.21-2.43Z"/><path class="cls-14" d="M40.3,81.5c-2.11-.22-4.22-.46-6.34-.64-.29,0-1.06-.06-.37.63,0,.06,0,.12,0,.19L32.36,80.6,34,80.28l-2.63-1,.8,1.19-.2.7-1.75-.46.5-1c.17.21.34.42,0,0,.43.23.19.1-.06,0l-.25-.46.5-.25L40.57,81Z"/><path class="cls-83" d="M34.78,82.38l2.89-1.19-.39,1.18c.37.19,1-1,1.18.17l.69.4h0l-.27.21L34.77,84l-.22-1.07Z"/><path class="cls-115" d="M50,79.77l-.29-.16v-.28l.15-.3-4.66-.46-2.95-.41-.44,0-.28-.66,9.15,1.63Z"/><path class="cls-43" d="M42.2,78.16l2.95.41,4,.79v.19l-7.2-1Z"/><path class="cls-69" d="M30,74.07l1.92-3.31.28.17L30.5,74.3Z"/><path class="cls-79" d="M20.07,78.39l-3,1.42-.56,0,3.19-1.84Z"/><path class="cls-46" d="M27.08,72.65l.77-.32.66-.47.63-.24.31.5-1.07,1.17Z"/><path class="cls-116" d="M36.67,77.2l2.74-4-2,4Z"/><path class="cls-29" d="M31.38,74.47l1.61-3,.24.14-1.31,2.85Z"/><path class="cls-68" d="M34.55,82.92,34.77,84l-.16.15-1.06-.88Z"/><path class="cls-117" d="M28.84,83.7l1-.24.11.4-1,.28Z"/><path class="cls-118" d="M24.73,66.9l-.88,1.51-.21-.11.82-1.55Z"/><path class="cls-119" d="M32.78,82.18l-.9.63-.2-.23.81-.72Z"/><path class="cls-92" d="M23.26,70.38l.56-.91.24.15-.55.91Z"/><path class="cls-120" d="M23.35,78.63c1.14-1.47,1-1.26,0,0Z"/><path class="cls-31" d="M21.35,78.6l-.87.59-.07-.57Z"/><path class="cls-121" d="M21.78,79l.28-1,.29.07-.24,1Z"/><path class="cls-43" d="M41.48,77.45l.28.66-1-.4.29-.24Z"/><path class="cls-83" d="M33.55,81.68c0-.07,0-.13,0-.19L34.87,81l-.75,1Z"/><path class="cls-122" d="M27.11,80.28l-.46-.91Z"/><path class="cls-103" d="M27.62,80l-.1-.39v-.26L28,79l.05.7Z"/><path class="cls-123" d="M29.71,84.47Z"/><path class="cls-43" d="M41.51,78.61l-1.24-.23Z"/><path class="cls-124" d="M23.38,74.83c-.12,1.47-.1,1.28,0,0C23.48,76.1,23.49,76.29,23.38,74.83Z"/><path class="cls-125" d="M27.86,83.45l-.43-.07,0-.18.43,0Z"/><path class="cls-83" d="M20.83,82l0,.7Z"/><path class="cls-122" d="M27.62,80l.4-.22c0,.18,0,.36.05.54h0Z"/><path class="cls-1" d="M19.74,76.73l-.84,0Z"/><path class="cls-115" d="M41.06,77.47l-.29.24-.24-.29Z"/><path class="cls-122" d="M27.36,80.74l-.25-.46Z"/><path class="cls-83" d="M34.1,82.1l.51.31Z"/><path class="cls-122" d="M27.52,79.31v0Z"/><path class="cls-122" d="M28.26,80.27l-.21.22a.66.66,0,0,1,0-.2h0A.61.61,0,0,1,28.26,80.27Z"/><path class="cls-122" d="M28,80.5l-.2.2Z"/><path class="cls-122" d="M27.65,80.81l-.37.21.09-.27Z"/><path class="cls-83" d="M20.89,82.87l.24.28Z"/><path class="cls-43" d="M65.67,86.32l.56-.52.48.72.05.28v.41l.16.53A.85.85,0,0,1,67,88l.21.73Q68.5,93,69.84,97.32L69,97.1l-1.45-3.69-1.38.36-.72-1.14,1.6.18Z"/><path class="cls-3" d="M69,97.1l.82.22.3,2.15-.27,1.73,0,1.15a.24.24,0,0,0,0,.2l.79,2.88-.07.78.29.67,0,.52.25,3.36,0,1.43h0v.26l0,.06-.24.39-1.69-.49.24-.22,1.08-.1-.38-1.49c.57-.31.07-.68-.26-1,.92-1.2.4-2.26-.3-3.31l-.35-.24.43-.07v-.43h0l-.3-.52-1.58-1,.24-.4,1-.23v-1h0l.19-.49V100l.09-2.47Z"/><path class="cls-91" d="M69.81,102.55a.24.24,0,0,1,0-.2l1-.32-.64-1.6-.33.77.27-1.73,2.63,6.68.63,1.5v2.77c-.41-2.84-1.59-2.81-2.63-3l0-.52,1.73.52.14-.34-2.16-.85.07-.78,1.92,1.19c-.66-1.62-1.14-2.79-1.64-4Z"/><path class="cls-126" d="M71,82.89l-.23-.24a.89.89,0,0,1,0-.23h0l6.71-1.66-7.2,3.07L70,83.6Zm1-.2-.08.08.08-.09.07,0Z"/><path class="cls-67" d="M70,83.6l.23.24c-1.72.34-2.67,1.58-3.51,3l-.05-.28.38-1.43-.63,0,2.65-1.15Z"/><path class="cls-16" d="M69.6,86,68,88.71l-.28-.15,1.52-2.76Z"/><path class="cls-55" d="M67.16,88.69,67,88,69.45,84Z"/><path class="cls-127" d="M73.4,107.65l-.63-1.5c1.24-.3.61,1,1.1,1.3l-.2.19Z"/><path class="cls-57" d="M68.77,88.39,70,86l.42.24-1.52,2.32Z"/><path class="cls-49" d="M68.61,89.67l.91-1a.57.57,0,0,1,.11.11l-1.4,2.86.41-2Z"/><path class="cls-110" d="M71.47,90.59l-.85,1.32-.24-.15.89-1.4Z"/><path class="cls-74" d="M69.88,90.17,69.08,92l-.33-.17,1-1.7Z"/><path class="cls-71" d="M69.52,88.64l.93-1.55.31.22-1.13,1.44A.57.57,0,0,0,69.52,88.64Z"/><path class="cls-74" d="M70.55,88.92c.24-.48.49-1,0-.09.62-.74.28-.33-.07.08Z"/><path class="cls-128" d="M68.64,89.65c0-.42.09-.84.13-1.26l.16.12-.32,1.16Z"/><path class="cls-74" d="M69.78,90.08c.26-.38.52-.77.77-1.16h0c-.21.42-.43.84-.65,1.26Z"/><path class="cls-126" d="M77.4,80.92Z"/><path class="cls-9" d="M71.47,90.59l-.2-.23.35-.66.28.26Z"/><path class="cls-9" d="M73.67,107.64l.2-.19.51.92h0Z"/><path class="cls-67" d="M66.91,87.74l-.16-.53Z"/><path class="cls-83" d="M57.61,110.76l.43-7.25.8.79,0,.92.14.24c.91,1.06,1.54-.18,3.48,0L60.75,105l.46-.21L66,105h1.92l-1,.26h-.24l-.32.08.09.39-.1.23-1.86.23c-2.07-.85-3.84.48-5.93.68l.21,2.71-.44.25Z"/><path class="cls-33" d="M61.88,81.49l1,3.83-.69.76L62.11,86l.14-.61L60.7,86.53l.2-4.14Z"/><path class="cls-129" d="M62.18,86.08l.69-.76.47-.66L64,85l.53,1.25,0,3-.77.55.35-4c-.83,2.53-2.08,3.21-.82,4.27l-1,0,.25-2-1-.42,1.45-.49,1.83-2.78-1.79,1.59-.26.72h0l-.73.23-1.47-.25h0a.36.36,0,0,1,0-.23l1.55-1.13c0,.22-.1.42-.14.61l-.2.28h0Z"/><path class="cls-130" d="M59,87.72l.05,2.15-1.21.26-1.19,1.48-.25-1.29c1.65-1.08,1-2.81,1.2-4.28l.11-1.1.4,0,.19,2.57h0v.88Z"/><path class="cls-112" d="M63.07,80l.77-1.26-1.69.08h0l0-.23a.52.52,0,0,0,.21,0l.5-.21.78-.2-.3-.54.27-1.73.58,1.84,4.16-4,.22.24c-1.08,1.92-3.75,2.57-4,5.11Z"/><path class="cls-3" d="M60.7,103.3a.44.44,0,0,1-.19.07l-.52-.29.23-.46.48-.28h2.44l0,0H64l3.93.72H62.38Z"/><path class="cls-131" d="M57.61,86c-.24,1.47.45,3.2-1.2,4.28a1.07,1.07,0,0,0-.07-.19l0-.49L56.64,88l.16-.3a1.34,1.34,0,0,1,.07-.18l.19-.76Z"/><path class="cls-132" d="M59.48,98.8l4.11-.29h0c-1.33,1.47-3,.78-4.57.72Z"/><path class="cls-114" d="M57.75,94.78l.31-3,.31,0-.26,3Z"/><path class="cls-96" d="M60.75,101.21l-1.23.44-.23-1a.18.18,0,0,1,.16,0l1.27-.22.25.29Z"/><path class="cls-88" d="M64,83.61l.23,1-1-.62.08-1.51Z"/><path class="cls-92" d="M59.61,84.08l-.44-1.18.39-.16.49,1.16Z"/><path class="cls-26" d="M55.42,87.71l.28-2.39a.47.47,0,0,1,.17,0l-.15,2.36Z"/><path class="cls-130" d="M56.66,91.73l.46.1h0l.4-.51-.23,2.85Z"/><path class="cls-33" d="M60.94,87.49l-.27,2.67c0-1.13,0-2.26,0-3.4h0Z"/><path class="cls-88" d="M64.73,83.22l-.64.2V80.73Z"/><path class="cls-133" d="M61.88,81.49l-1,.9Z"/><path class="cls-33" d="M60.67,90.34l.27,1Z"/><path class="cls-28" d="M60,103.08l.52.29-.8.36Z"/><path class="cls-28" d="M60.7,102.34l-.48.28-.49,0Z"/><path class="cls-96" d="M59.07,99.94l.22.72Z"/><path class="cls-26" d="M56.17,87.5l.18-.76Z"/><path class="cls-26" d="M57.06,86.73l-.19.76Z"/><path class="cls-28" d="M59.51,103.8l-.48.25Z"/><path class="cls-130" d="M56.36,89.64l0,.49Z"/><path class="cls-132" d="M59,99.23v0Z"/><path class="cls-96" d="M59.51,101.65l-.18.26Z"/><path class="cls-26" d="M56.8,87.67l-.16.3Z"/><path class="cls-57" d="M70.54,68.52l-6,6.69h-1.2C65.52,73.1,67.76,71,68.84,68l.26-.23h0l.25.25a.86.86,0,0,1-.06.23l-.18.26-.63,1,.43.41,1.35-1.78Z"/><path class="cls-28" d="M76.29,66.11l2.85-3.6.72.47-3.33,3.36Z"/><path class="cls-134" d="M77,70l5.06-2.89,0-.27v0c.09-.09.17-.18.26-.26h-.08l.59.62,0,.38,0,0Z"/><path class="cls-131" d="M84.27,61.81l-.48.89-.33-.18.5-.88Z"/><path class="cls-57" d="M72.24,66.13l.23-.24Z"/><path class="cls-57" d="M72,66.37l.23-.23Z"/><path class="cls-57" d="M71.77,66.61l.23-.23Z"/><path class="cls-57" d="M72.74,66.38l-.27.24Z"/><path class="cls-57" d="M71.53,66.85l.23-.23Z"/><path class="cls-57" d="M72.48,66.61l-.27.21Z"/><path class="cls-57" d="M71.28,67.09l.24-.23Z"/><path class="cls-57" d="M72.2,66.83l-.23.23Z"/><path class="cls-57" d="M71,67.33l.24-.23Z"/><path class="cls-57" d="M72,67.07l-.23.23Z"/><path class="cls-12" d="M83.75,58.44l.23-.25Z"/><path class="cls-57" d="M70.81,67.57l.23-.23Z"/><path class="cls-57" d="M71.72,67.31l-.23.21Z"/><path class="cls-57" d="M70.59,67.81l.21-.23Z"/><path class="cls-57" d="M71.46,67.54l-.21.21Z"/><path class="cls-57" d="M71.22,67.78,71,68Z"/><path class="cls-57" d="M71,68l-.2.25Z"/><path class="cls-57" d="M70.79,68.28l-.25.24Z"/><path class="cls-73" d="M61.15,119.22l-.7-2.74-.21,0-.15,1.27c0,1.89.15,3.85-1.35,5.4l-.23-1.15,1-5-.64-.1-.18,2.92h-.16V119l.24-2.41.91-.08-.46-.41,1.67-.37Z"/><path class="cls-135" d="M67.88,115.4c-.24,1.92-.48,3.85-1,8l-.76-5L65.61,120l-.36-3-.22-.29a1.79,1.79,0,0,0,0-.23l.08-.58,1.14-.59.7.76-.22.92,0,0-.19.9C68.56,117.89,66.36,115.69,67.88,115.4Z"/><path class="cls-135" d="M69.35,115.8c-.41,2-.81,4.08-1.17,5.93-.11-2-.21-4.19-.32-6.36C68.31,115.67,69.22,114.39,69.35,115.8Z"/><path class="cls-136" d="M66,111.52H67.9l1.4.5h0l.06.18-.24.22-1.36.12.46.55-.15.17-2.26-.43v1l-.57-.45,0-.2,2.1-1.1-1.64-.17Z"/><path class="cls-137" d="M66,111.52l-.24.38-4.08,1.24-.94.27-.07-.53,4.1-1.19.53-.16Z"/><path class="cls-37" d="M60.71,113.41l.94-.27v.29l-.72.47h0l-1,.51-.14.37.42.12c-.66.12-1.47.71-1.73-.52l.52-.45,0,0,.73-.28h0l1-.26Z"/><path class="cls-138" d="M70.07,121.33c-1.18-1.07-.57-2.37-.45-3.61l.39.16.07.34C70.08,119.26,70.08,120.3,70.07,121.33Z"/><path class="cls-130" d="M65,116.49a1.79,1.79,0,0,1,0,.23l-.17.31v3.44h-.29l-.5-4.2h.68Z"/><path class="cls-136" d="M68.85,114.18l-.78-.93.15-.17,2.81.31,1.41,0v.31l-2.86.43a1.94,1.94,0,0,1,0,.24h-.7S68.86,114.24,68.85,114.18Z"/><path class="cls-137" d="M58.07,111.72l.23,2-.92-.06-.3-2.18.64.56Z"/><path class="cls-139" d="M65,116.49l-.26-.22.1-1.6,1.38.65-1.14.59Z"/><path class="cls-140" d="M64,113.68l-.69-.09-.43-.21,2.42-.21,0,.2Z"/><path class="cls-94" d="M57.54,119l-.42-1.72Z"/><path class="cls-97" d="M56.61,119.42l1,0-.21,1.41Z"/><path class="cls-125" d="M59.23,116.06l.46.41-.91.08-.33-.63Z"/><path class="cls-1" d="M69.59,114.1l1.44.07-1.46.17A1.94,1.94,0,0,0,69.59,114.1Z"/><path class="cls-1" d="M68.85,114.18c0,.06,0,.12,0,.17l-1.44-.2Z"/><path class="cls-135" d="M67,116.28c-.11.25-.22.51-.32.77l0,0Z"/><path class="cls-137" d="M60.71,113.41l-1,.26Z"/><path class="cls-137" d="M59.76,113.66l-.73.28Z"/><path class="cls-1" d="M71.73,115.36l-.26-.74Z"/><path class="cls-137" d="M59.07,113.92l-.52.45Z"/><path class="cls-137" d="M59,113.39l.52-.2Z"/><path class="cls-137" d="M59.92,113.13l.54-.18Z"/><path class="cls-137" d="M58.51,113.63l.28-.2Z"/><path class="cls-16" d="M39.87,48.63l-8.45,6.94L37,50l0,0,.74-.49h0l1-.73h0l.82-.24Z"/><path class="cls-31" d="M38.62,48.83l-1,.73Z"/><path class="cls-31" d="M39.43,48.6l-.82.24Z"/><path class="cls-139" d="M50.33,99.27c-2.59.73-4.93-.62-7.4-.93l-1-.71Z"/><path class="cls-71" d="M41.27,95.88v.43l-1,.1V95.9l.78-.54.43,0Z"/><path class="cls-100" d="M37.66,93.77l.29-.29,1.42,1.07Z"/><path class="cls-22" d="M75.38,53.6c-1.28.9-.92-.7-1.45-1Z"/><path class="cls-98" d="M52.94,131.46l-.24-3.76h.42c-.07,1.26-.13,2.51-.2,3.77Z"/><path class="cls-141" d="M57.56,125.23l-.22.41Z"/><path class="cls-50" d="M56.87,125.39h0Z"/><path class="cls-9" d="M97.27,73.58l-1,.14,1.7-.83Z"/><path class="cls-117" d="M97.47,72.11h0c-.75,0-.35,0,0,0Z"/><path class="cls-142" d="M64.75,125.24l-.06-.34.2-.37.36.16.16,0c0,.26,0,.52,0,.78h0l-.18,1.08-.46-.24a.23.23,0,0,1,0-.2l.08-.31a.28.28,0,0,0,0-.2l0,0C64.78,125.5,64.76,125.37,64.75,125.24Z"/><path class="cls-50" d="M64.31,124.45Z"/><path class="cls-50" d="M63.33,124.64l-.11,0-.11,0a1,1,0,0,0,0-.17Z"/><path class="cls-50" d="M64.79,126.36l.46.24,0,.48-.45-.55A.16.16,0,0,1,64.79,126.36Z"/><path class="cls-143" d="M63,125.45l0,.46-.25,0,0-.47Z"/><path class="cls-50" d="M64.75,125.24c0,.13,0,.26,0,.39h-.25v-.24Z"/><path class="cls-50" d="M64.81,128.55a.46.46,0,0,1,0,.2l-.05-.18Z"/><path class="cls-142" d="M64.54,125.38v.24h-.19l0-.29A.54.54,0,0,1,64.54,125.38Z"/><path class="cls-50" d="M64.35,125.63h.17l-.09,0Z"/><path class="cls-50" d="M64.81,125.65a.28.28,0,0,1,0,.2Z"/><path class="cls-44" d="M58.07,111.72l-.35.31-.64-.56-.21-.24.06-.52.68.05.75-.94,1.56-.31.31.54Z"/><path class="cls-94" d="M55.94,115.07l-1.21-.76,3.78.33Z"/><path class="cls-94" d="M56.44,115.29l-.3-.16Z"/><path class="cls-94" d="M56.81,115.58l-.19-.21.18,0A.6.6,0,0,1,56.81,115.58Z"/><path class="cls-48" d="M55.66,124.69l-.53-.45.63-.31.45.24Z"/><path class="cls-58" d="M58.46,126a1.29,1.29,0,0,1,0,.19l-.15,0A.58.58,0,0,1,58.46,126Z"/><path class="cls-144" d="M69.43,48.09Z"/><path class="cls-14" d="M2.43,123.27l.5-.41h0l0,.59Z"/><path class="cls-14" d="M1.66,123.49l.26,0Z"/><path class="cls-68" d="M87.14,56.3l.21-.73Z"/><path class="cls-33" d="M70.07,121.33c0-1,0-2.07,0-3.11l.48-.59.22.59Z"/><path class="cls-24" d="M8.65,84.6l.72-1.68.48-.55.23-.17h0l1.44,0L12,83.36l-1,.33-.27,0c-.06-.31-.13-.63-.31-1.51l-1.22,1.2,1.55.29,0,.23-.25.23L9,84.35Z"/><path class="cls-145" d="M9.11,82.91l-1.37,1,1.2-1.39Z"/><path class="cls-85" d="M65.43,125.52Z"/><path class="cls-146" d="M100.57,74.27l0-1.15,0-.61s0-.08,0-.11a.65.65,0,0,1,.1-.15.28.28,0,0,0,0-.13l.28,2.16Z"/><path class="cls-106" d="M9,84.35l1.47-.25L9.12,85.34Z"/><path class="cls-147" d="M10.76,83.87l0-.23,0,0,.27,0Z"/><path class="cls-67" d="M28.5,92.74l.94.47-1.09.06Z"/><path class="cls-48" d="M53.73,127.57l.1,0-.07,0Z"/><path class="cls-49" d="M7.7,94.87l.22.28Z"/><path class="cls-27" d="M55.69,108.05l.76.31-.1.23-.68-.27Z"/><path class="cls-138" d="M85.65,56.76l-2.11,0,1.89-.18Z"/><path class="cls-106" d="M8.64,85.33l0-.5Z"/><path class="cls-9" d="M72.93,112.22l.23.23Z"/><path class="cls-16" d="M59.31,76.24c-1.48,1.25-4.29-.36-5.09,2.36l-.93.25c.71-3.42,3.92-1.74,5.77-2.83Z"/><path class="cls-12" d="M57.08,82.43,60,79l.81-.16.39-.06,1,0h0a6.3,6.3,0,0,0-4.77,3.89Z"/><path class="cls-36" d="M56.87,83.65l-.72.24,1.2-2.33Z"/><path class="cls-14" d="M40.56,81l.79.21Z"/><path class="cls-16" d="M59.49,76.68l0-.45.7.22Z"/><path class="cls-14" d="M40.79,81.68l-.49-.19Z"/><path class="cls-124" d="M53.27,80.55c-.06-.07-.13-.15,0,0,0-.15,0,0,0,0Z"/><path class="cls-103" d="M26.87,89.16,26.14,88c1.15-.73-.16-1.22-.27-2L27.6,87l1.45.26-.1.57-.64.36Z"/><path class="cls-101" d="M34.53,86.08a6.06,6.06,0,0,1,5.54-.58l-2,.13v.23H41l-6.54.4A.28.28,0,0,1,34.53,86.08Z"/><path class="cls-101" d="M38.87,87.25c.24-.14.47-.28,0,0,.48-.11.22,0,0,0Z"/><path class="cls-42" d="M41.27,95.88l.24-.48,1.09.32-.62.42Z"/><path class="cls-82" d="M44.14,92.28c-.07.16-.13.32,0,0-.33.12-.15,0,0,0Z"/><path class="cls-100" d="M40.07,94h0Z"/><path class="cls-82" d="M44.15,92.29l.21-.27,0,0-.27.21Z"/><path class="cls-74" d="M44.12,84.86l1-.27Z"/><path class="cls-1" d="M12.75,81.25,12.69,81l.27.25h-.21Z"/><path class="cls-110" d="M69.35,68.05l-.25-.25,2.1-2.68a.52.52,0,0,1,.11.1Z"/><path class="cls-26" d="M31.89,70,30.5,71.75l-.23-.17,1.35-1.81Z"/><path class="cls-87" d="M31,59.62l-1.11,1.79-.27-.15,1.05-1.83Z"/><path class="cls-55" d="M29.14,71.62l-.63.24,1.4-1.76.17.19Z"/><path class="cls-105" d="M34.65,72.53l-.81,1.29-.26-.17.82-1.28Z"/><path class="cls-63" d="M35.74,73.56c-.21.56-.42,1.12,0,.1-.62.89-.28.4,0-.08Z"/><path class="cls-106" d="M73,62.86c-.39.54-.77,1.08-1.15,1.63a1.06,1.06,0,0,1-.15-.15l1.14-1.62A1.07,1.07,0,0,1,73,62.86Z"/><path class="cls-69" d="M29.68,68.93l.93-1.16.24.2-1,1.09Z"/><path class="cls-41" d="M28.56,65.42c.25-.41.51-.82,0,0,.87-.41.41-.19-.05,0Z"/><path class="cls-64" d="M29.91,70.1c.16-.24.32-.47-.26.36l.43-.17Z"/><path class="cls-16" d="M30.7,56.54l.74-1Z"/><path class="cls-63" d="M35.75,73.58c.09-.19.17-.38,0-.07.25-.23.1-.09,0,0Z"/><path class="cls-47" d="M74.27,60.76c0,.15,0,.3,0,.1-.08.19,0,0,0-.08Z"/><path class="cls-5" d="M72.84,62.72l.4-.48.14.11-.38.51A1.07,1.07,0,0,0,72.84,62.72Z"/><path class="cls-115" d="M36.24,75.47c0-.17.1-.33,0,0,.36-.08.16,0,0,0Z"/><path class="cls-86" d="M71.2,65.12c.17-.26.34-.52.5-.78a1.06,1.06,0,0,0,.15.15l-.54.73A.52.52,0,0,0,71.2,65.12Z"/><path class="cls-6" d="M36.22,75.45v.06c-.11.28,0,.12,0,0Z"/><path class="cls-47" d="M74.3,60.78l.52,0h-.55Z"/><path class="cls-110" d="M69.1,67.8l-.26.23Z"/><path class="cls-110" d="M69.11,68.54l.18-.26Z"/><path class="cls-65" d="M34.07,78.45l-1.56-1.26.26-.33,1.51,1.26Z"/><path class="cls-46" d="M30.37,77.75l-.09-1.19.36,0,.14,1.22Z"/><path class="cls-41" d="M32,75.82h.1c.33.24.13.1-.07,0Z"/><path class="cls-62" d="M49.19,79.55v-.19l.47,0v.28Z"/><path class="cls-24" d="M39.81,82.49l1.83-.23-.52,1.12H39.81l-.23-.69Z"/><path class="cls-63" d="M39.58,82.69l.23.69L38.54,84.9l.56-1.75,0-.21h0l.2-.22A.91.91,0,0,1,39.58,82.69Z"/><path class="cls-24" d="M39.35,82.72l-.2.22-.69-.4.9-.06C39.36,82.56,39.35,82.64,39.35,82.72Z"/><path class="cls-83" d="M39.35,82.72c0-.08,0-.16,0-.24h.45l-.23.2A.91.91,0,0,0,39.35,82.72Z"/><path class="cls-24" d="M39.13,82.94l0,.21h-.24Z"/><path class="cls-143" d="M30.69,79.81c.25.13.49.26.06,0,.3.38.13.17,0,0Z"/><path class="cls-28" d="M62.38,103.1c1.76,1.13,3.67.61,5.55.51l-.24.4a13.14,13.14,0,0,1-7-.71Z"/><path class="cls-144" d="M69.5,106.24l-5-.06,1.86-.23,2.77,0Z"/><path class="cls-43" d="M67.84,100h-.36l-.29-.05L67,99.25l2.19.14V97.57L69.06,100,68.4,100Z"/><path class="cls-144" d="M69.57,105.5,67,105.26l1-.26,1.36,0Z"/><path class="cls-9" d="M71,110.76l0,1.43Z"/><path class="cls-144" d="M69.58,105.93v0Z"/><path class="cls-85" d="M67,99.25l.23.71c-2-.11-3.63,1.85-5.75.92l-.28-.16-.19,0-.25-.29c1.36-.23,2.92.71,4.08-.71Z"/><path class="cls-45" d="M64.8,99.75c-1.16,1.42-2.72.48-4.08.71l-1.27.22c1.34-1.8,3.25-.7,4.89-1l0,.16.32-.11A.31.31,0,0,0,64.8,99.75Z"/><path class="cls-148" d="M62.37,90.15l1,0,.47-.25.77-.55,1.15-.18-.26,1L65,90.3l-.29-.15h-.12l-.79.43-1.19.67-3-2.26Z"/><path class="cls-148" d="M65.77,97.35l1-.42-1.24-.23a4.55,4.55,0,0,1,1.5-.14,2.11,2.11,0,0,1,1.47,1.53L66,97.58Z"/><path class="cls-89" d="M63.83,90.58l.79-.43L65.18,96l-.27.07Z"/><path class="cls-5" d="M65.77,97.35l.23.23-2.42.92h0Z"/><path class="cls-88" d="M65.33,91.49l.86-.31.12.27-.88.4Z"/><path class="cls-149" d="M66.83,94.27l-.47.39-.16-.2.47-.38Z"/><path class="cls-22" d="M65.48,90.11l.26-1Z"/><path class="cls-129" d="M64.54,86.3l.48-.5Z"/><path class="cls-85" d="M64.61,99.78l-.32.11,0-.16Z"/><path class="cls-89" d="M64.74,90.15l.29.15Z"/><path class="cls-121" d="M68.38,73.78l3.85-1.66L68.6,74Z"/><path class="cls-67" d="M72.22,72.13l3.89-1.87.22.21Z"/><path class="cls-134" d="M76.33,70.47l-.22-.21L77,70l0,.27Z"/><path class="cls-91" d="M61,100.75l.19,0,.28.16c2.12.93,3.77-1,5.75-.92l.29.05c-2.25.36-4.21,2.39-6.73,1.2Z"/><path class="cls-91" d="M67.84,100l.56,0Z"/><path class="cls-144" d="M66,105h0Z"/><path class="cls-149" d="M60,105l-1.05.47-.14-.24Z"/><path class="cls-149" d="M60.75,105,60,105l1.24-.26Z"/><path class="cls-144" d="M66.71,105.25l-.23.47-.09-.39Z"/><path class="cls-60" d="M60.94,87.49l-.25-.73,1.47.25,1,.22v0l-1.45.49Z"/><path class="cls-33" d="M62.89,86.78l.22.45-1-.22Z"/><path class="cls-33" d="M63.14,86.06l-.26.72Z"/><path class="cls-33" d="M61.91,86.29l.2-.28.07.07-.28.2Z"/><path class="cls-33" d="M61.9,86.28h0Z"/><path class="cls-42" d="M57.1,96.1a1,1,0,0,0,.07-.15s0-.06-.07-.08A.45.45,0,0,0,57.1,96.1Z"/><path class="cls-42" d="M57.09,95.9l.27-.28Z"/><path class="cls-42" d="M57.13,91.82h0Z"/><path class="cls-150" d="M79.86,63l-.72-.47,2.22-2.64-.73,2.4Z"/><path class="cls-150" d="M81.34,59.9l.26-.51Z"/><path class="cls-43" d="M82.31,66.59l-.26.26C82.14,66.76,82.22,66.67,82.31,66.59Z"/><path class="cls-43" d="M82.05,66.81l0,.27L81.83,67Z"/><path class="cls-151" d="M90.24,60.37l1.09-1.89.06,0,0,0c-.4.62-.8,1.24-1.21,1.85Z"/><path class="cls-151" d="M89.74,60.84c-.08.09-.15.18,0,0l0,0Z"/><path class="cls-151" d="M90,60.6l-.24.24h0l.24-.24Z"/><path class="cls-151" d="M90.22,60.35,90,60.6h0l.25-.24Z"/><path class="cls-43" d="M84.56,65.27v-.08a.08.08,0,0,0,0,0Z"/><path class="cls-86" d="M77,64c-.12.28-.24.55,0,0-.59.26-.29.13,0,0Z"/><path class="cls-129" d="M77,64l.49-.73h0L77,64Z"/><polygon class="cls-43" points="75.59 65.89 75.62 65.87 75.57 65.86 75.59 65.89"/><path class="cls-139" d="M64.86,117l.17-.31.22.29Z"/><path class="cls-44" d="M60.24,116.53l.21,0A.26.26,0,0,1,60.24,116.53Z"/><path class="cls-45" d="M66.72,108.85l-.24-.31a.76.76,0,0,0,0-.15H67l1,.73-.68.23-.39.43-.64.26h-6l-.31-.54c2-1.54,4.2.21,6.24-.47Z"/><path class="cls-136" d="M65.27,111.53l-.53.16Z"/><path class="cls-50" d="M55.76,123.93l-.63.31-1.71-.68.31-.67Z"/><path class="cls-4" d="M61.66,113.43l1.19-.05.43.21-2.34.31Z"/><path class="cls-4" d="M61,113.89l-1,.51Z"/><path class="cls-14" d="M2.93,122.86c0-.13,0-.27,0,0v0Z"/><polygon class="cls-1" points="12.22 80.28 12.18 80.33 12.21 80.28 12.22 80.28"/><path class="cls-147" d="M10.79,83.64l-1.55-.29,1.22-1.2c.18.88.25,1.2.31,1.51Z"/><path class="cls-58" d="M66.47,108.39a.76.76,0,0,1,0,.15l-6,.07Z"/><path class="cls-58" d="M67.94,109.13l-1-.73a2.76,2.76,0,0,1,2.89,1.17Z"/><path class="cls-58" d="M60.48,108.59l-1.47.74Z"/><path class="cls-83" d="M59,109.31l-.27.26Z"/><path class="cls-58" d="M66.87,109.79l.39-.43Z"/><path class="cls-96" d="M61.44,100.88l-.28-.16Z"/><path class="cls-58" d="M66.72,108.85l-.56.19Z"/></g></g></g></svg>