<svg xmlns="http://www.w3.org/2000/svg" viewBox="0 0 75.54 192.25">
  <defs/>
  <defs/>
  <g id="Calque_2" data-name="Calque 2">
    <g id="scrollTop">
      <g id="star">
        <path d="M53 187v.24c-.37 0-.14.37-.33.46s-.16-.1-.15-.22v-.24q0-.24-.24-.24c-.39 0-.18-.35-.28-.65l-.56-.54c-.3-.06-.59.11-.82-.1s.13-.74-.26-1c.05-.61-.77-.54-.82-1.07-1.09-.6-2-1.48-3-2.18 0-.19.17-.23.21-.31-.18-.36-.28-.81-.64-.93-.53-.18-.76-.72-1.25-.92-.32-.22-.76-.38-.93-.68-.25-.46-.75-.19-1-.52q0-.24-.24-.24c-.3.12-.46-.2-.72-.24a.59.59 0 00-.68-.48.61.61 0 01-.72-.39l.4-.17c-.48-.45-1.2-.72-1.4-.52.29.17.23.55.46.75l-.7.33a1.32 1.32 0 00-1-.23c-.24-.14-.34-.44-.63-.49-.07-.4-.54-.23-.72-.48-.15 0-.32.08-.44-.08a3.68 3.68 0 00-1.24-.86.67.67 0 01.09-.79c.21-.25.51-.12.79-.19l-1.45-2 .52-.48c.63.86 1.59 1.22 2.21 2h1a1.18 1.18 0 00.49.79c.69.66 1.67.88 2.32 1.6.61-.18.86.69 1.36.53a12.89 12.89 0 003 2.11c1.16 1.08 2.43 1.7 3.43 2.65 0 .19.15.24.22.35s-.24.13-.14.37h.4c0 .2.18.24.23.37l-.22.25c.28.17.4.47.72.6s.77.41.71.94c-.09.33.13.51.34.7l.27-.19c.33-.09.36.27.59.21 0 .5.41.92.24 1.44a.19.19 0 00.18.24c.16 0 .32 0 .3-.24v-.48c.39 0 .12.42.37.48h.59v.48c-.26.08-.43-.13-.65-.2-.02.18-.21.23-.21.46zm-14.19-11.7c-.74-.11-1.26-.88-2.18-.77a4.19 4.19 0 002.1 1.14c.13-.09.07-.21.08-.37z" class="cls-1"/>
        <path d="M40.73 125.79a.2.2 0 01.27.21v.89c.16.2.33.09.48.12 0 .35-.49.39-.48.76s.17.48.36.68c.26 0 .54.07.79-.06a1.17 1.17 0 00-.15-1.06c.36-.27.16-.65.19-1a7.51 7.51 0 000-.95c0-.33-.08-.7.24-1-.25-.29 0-.58 0-.87a1.25 1.25 0 00-.17-1c.08-.13.22-.17.18-.33a.17.17 0 01.14-.21c.11.07.16.24.34.21.33.57.33.68 0 1.42.18.36.47.73 0 1.1l.23.25a7.07 7.07 0 000 3.74.72.72 0 00-.27.15c-.12.12-.33 0-.4.19.13.27.43 0 .71.29.07.11 0 .4 0 .66-.13.83.31 1.59.26 2.41s0 1.6 0 2.4c0 .37.3.68.25 1.1a1.23 1.23 0 00.18 1.09s-.14.16-.18.22c-.1.29.21.34.22.55-.15.36-.43.68 0 1.13a2 2 0 01.28 1.2c0 .73.23 1.46.36 2.27-.06.07-.23 0-.38 0q0-.24-.24-.24c.18-.71-.3-1.34-.25-2 0-.34.14-.72-.23-1 .17-.49-.42-.95-.2-1.31s-.07-.6-.05-.9a2 2 0 000-1c-.36-.61 0-1.26-.25-1.82a5.9 5.9 0 01-.21-1.81c0-.3.11-.62-.13-.91a5.27 5.27 0 00-.83 2.65h-1v.72a1.1 1.1 0 01-.48-1c0-.18-.12-.46.24-.48s.12.42.37.47c.14-.18.4-.28.36-.5s-.54-.06-.49-.45v-.24H41a.17.17 0 00.14.22s.08-.06.08-.07a.18.18 0 00-.22-.15c0-.25.36-.41.24-.72l.45-.17c-.65 0-.23-.55-.69-.55q-.24 0-.24-.24c.36-.77.35-.88-.37-1.59a2.23 2.23 0 01-.35 2.07l-.24.48c-.37 1-1.23 1.81-1.56 2.88-.08.25-.35.28-.6.24a1.55 1.55 0 01.07-.45c.33-.58.54-1.23.91-1.77a1.14 1.14 0 000-1.38v-.59c.09-.17.29-.09.46-.21-.05-.81.4-1.64-.1-2.54h1.19a2.33 2.33 0 00.37-1.7q.25 0 .24-.24zm1.36 4.86l.61-.12c-.14-.22.07-.46-.17-.66h-.31a.61.61 0 01-.13.78z" class="cls-2"/>
        <path d="M70 155.55h1.74l-.32-.41c.67 0 1.26.27 1.9.16-.1.45-.48.1-.63.32.56.19.56.19 1.3-.07l.15.42c.21.17.35 0 .49-.13s.18.25.32.18.34-.13.47-.25a.69.69 0 01-.26 1H74a4.24 4.24 0 01-1.07 0c-.32-.07-.58.44-.88 0-.24.39-.73.06-1 .27s-.67.13-1 .22a9.22 9.22 0 01-2.58.7c-.14 0-.18.27-.38.23s-.46-.12-.48.24c-.12 0-.21 0-.2.17s.3.05.44.07v.24c-.23 0-.49-.08-.56.27l-.29-.25c-.58.63-1.57.3-2.15.94a2.9 2.9 0 00-1.62.37 5.33 5.33 0 01-1.59.45 22 22 0 00-2.75 1.12 44.27 44.27 0 00-4.2 2.19c.05-.38-.41-.11-.47-.4.28-.12.37-.49.71-.56 0 .15.1.27.18.23.26-.14.65-.09.78-.47.4.08.61-.26 1-.33-.45-.33-.71 0-1 .09 0-.36-.3-.2-.48-.24.33-.44 1-.25 1.32-.71.87.07 1.43-.89 2.33-.73.55-.62 1.41-.47 2.07-.8s1.41-.43 2.07-.81c.35-.19.93-.1 1.26-.39s1 .11 1.32-.32c1.06-.22 2-.77 3-1s2.25-.56 3.48-.86a2.32 2.32 0 00-1.23-.09c-.35.05-.62-.35-1-.05a.89.89 0 01-1-.12.27.27 0 00-.2-.08c-1 .17-1.92-.28-2.9-.26a4.34 4.34 0 01-2.19-.21.7.7 0 00-.85.24 1.7 1.7 0 00-1-.26c-1.22.17-2.4-.27-3.62-.25-.16 0-.33-.15-.5-.23 0-.39-.35-.19-.54-.23s-.42.08-.42-.25c.54 0 1.07.15 1.58.18s1 .6 1.46.1c.7.45 1.46.11 2.19.2a8.11 8.11 0 002.3.24c1.14-.18 2.23.36 3.37.25.08 0 .18.15.26.23l.26-.24a6.49 6.49 0 003 .16 2.15 2.15 0 00-1.12-.16c-.16 0-.33 0-.31-.24v-.24c.19 0 .39 0 .53.16s.29.05.43.08z" class="cls-3"/>
        <path d="M8.57 156c-.34.07-.44.44-.72.57.22.37.61.46.94.63.13.06.37 0 .44.08.46.57 1.29.55 1.74 1.12.11.5.59.54.94.7a.7.7 0 01.43.5c-.49-.23-.93-.41-1.37 0-.22 0-.46.09-.68-.08a25.09 25.09 0 00-3.4-1.6 2.7 2.7 0 01-.87-.5c-.07-.09-.18-.21-.27-.21-.87 0-1.52-.6-2.32-.72-.25-.12-.06-.49-.37-.58.25-.34.68 0 1-.28-.5-.09-.73-.52-1.09-.81-.13 0-.16.26-.36.22h-.52c0-.22-.14-.22-.3-.24a.19.19 0 01-.18-.24h.85c.26-.25 0-.6.16-.89a11.45 11.45 0 012.27-.58c1.1-.22 2.27-.09 3.3-.67.25-.14.46.4.77 0 .11-.13.53 0 .81 0h.48c.24-.09.61.23.72-.24h.72c.32 0 .66-.09 1 .1-.17.33-.68-.11-.73.38q0 .26.24.24v.24a1 1 0 00-.24 0c-1.26.33-2.55.57-3.83.82-.35.07-.81 0-1 .16a3 3 0 01-2.09.45c-.22 0-.47-.07-.68.08a.29.29 0 00.09.4H5l.48.24v.48h1.41c.24-.09.61.23.72-.24h1c0 .18.14.23.22.34a.17.17 0 01-.26.13zm-1.92-2.16c.18 0 .46.12.36-.26a1.64 1.64 0 001.39-.26l.31.28c.08-.45.65 0 .78-.48-.82 0-1.64-.18-2.36.48h-.48c-.18 0-.46-.12-.49.27-.2.14-.51-.23-.69.11a.44.44 0 00.7-.14zm4.57-1.18l-1.43.34.34.39c.25-.39.87-.09 1.09-.7zM5 154.24a.68.68 0 00-.78 0 .69.69 0 00.78 0z" class="cls-4"/>
        <path d="M11 159.63c.44-.41.88-.23 1.37 0a.7.7 0 00-.43-.5c-.35-.16-.83-.2-.94-.7.2 0 .46-.08.59 0 1.17.89 2.55 1.43 3.73 2.27.92.66 1.95 1.12 2.87 1.77a35.52 35.52 0 003.35 2c.39.21.8.41 1.19.6s.21.38.37.51l.24-.21.9.48.29-.22s.13 0 .15.08c.29.61.52 1.27 1.26 1.49.35.77 1.43.91 1.51 1.92-.44.38-.44.38-1 0 0-.27.33-.51.13-.82-.3 0-.45-.4-.89-.3a4.76 4.76 0 01-.5 2.61c-.14 0-.31.07-.51-.16l.51-.29a4 4 0 000-.93c-.14-.5-.08-1.07-.47-1.5v-1.36c-.23-.11-.37-.1-.48 0s.09.39-.08.56-.31 0-.38.17c.29.22.22.76.7.82a.56.56 0 00.23.59.72.72 0 00-.23.69c0 .18.06.4-.24.4v-1.3c-.53-.35-.92 0-1.32.11-.31-.4 0-.67.12-1 .27 0 .27-.26.23-.44s.23-.28.2-.48-.27-.41-.65-.23c.32.33.2.74.22 1.15h-.72c-.15-.41-.53-.62-.81-.92a.67.67 0 01-.15-.52c.41.08.5.57 1 .71-.2-.75-.79-1.22-1.11-1.87a1.86 1.86 0 01-.86-.28c-.35 0-.11.37-.36.48-.68.09-.49-.85-1.08-1s-.7-.69-1.2-.84a2.42 2.42 0 01-1.4-.69c.06-.23.37 0 .46-.25-.36-.31-.81 0-1.23-.22s-.57-.48-.93-.63-.47-.58-.86-.67l-.26.21c-.66-.09-1-.6-1.4-1h-.64a.67.67 0 01-.49-.29z" class="cls-5"/>
        <path d="M53.93 163c-.34.07-.43.44-.71.56.06.29.52 0 .47.4h-.24a.21.21 0 00-.24.24 2.94 2.94 0 00-.71 2c0 .29-.36.54-.07.85-.35.28-.14.67-.17 1a3.2 3.2 0 000 1.07c.06.27-.35.4-.16.58s-.09.29-.1.44a5.77 5.77 0 000 .72c0 .37-.2.8.18 1.12-.26.27-.16.62-.19 1a1 1 0 00.25.85 5.4 5.4 0 000 3.28l-.26.27c0 .33.31.57.28 1a8.51 8.51 0 00.43 3.16c.18.6.09 1.28.23 1.93a8.14 8.14 0 00.43 1.75c.17.37 0 .84.33 1.17h-.35c-.25-.06 0-.52-.37-.48-.14 0-.21-.06-.24-.17 0-.26.14-.58-.11-.76s0-.58-.37-.76v.73c-.23.06-.26-.3-.59-.21l-.27.19c-.21-.19-.43-.37-.34-.7h.48l.48.25v-.49h.41a1.29 1.29 0 00-.17-1.2c0-.4.1-.82-.07-1.2h-.41a.62.62 0 00-.22-.6l.24-.28c-.14-.44-.54-.86-.07-1.37a.73.73 0 000-.78 1.22 1.22 0 010-1.3c.14-.26-.24-.32-.15-.58a1.78 1.78 0 00-.13-1.05 6.13 6.13 0 01-.09-1.27 6.37 6.37 0 010-1.31c.14-1.1-.32-2.14-.26-3.24s0-2.22 0-3.34c0-.14.12-.37-.16-.45l-.08.21h-1a2.13 2.13 0 011.06-1.21c.23-.14.6-.11.68-.47.34.06.55-.11.83-.64-.49.31-.89.24-1.07.64-.41-.13-.73.53-1.17.15-.06-.16-.06-.36.12-.37.53 0 .61-.73 1.13-.74a1.67 1.67 0 001.16-.63c.2-.19.46 0 .68-.09s.46.12.48-.24c.26 0 .42-.35.72-.24s.46-.12.48.24c-.18 0-.46-.12-.48.24zm-2 2.12a2.54 2.54 0 00-.22 2.2c.06-.9.53-1.46.19-2.21z" class="cls-6"/>
        <path d="M8.57 156a.17.17 0 00.22-.14c-.08-.11-.25-.16-.22-.34l.75-.37c-.67-.36-1.16.21-1.74.15a17 17 0 00-1.89 0c0-.24.24-.29.34-.48.28 0 .61.1.82 0a2.68 2.68 0 011.71-.19c.61.08 1.11-.38 1.7-.26.83.17 1.59-.32 2.41-.25.57-.5 1.39 0 2-.48.71.09 1.34-.4 2.06-.24.29-.3.65.1.87 0a8.88 8.88 0 013-.65c.93-.17 1.79-.74 2.8-.54.13 0 .26-.23.49-.25s.27-.28.5-.22c.57.17 1-.32 1.58-.26.21 0 .41-.2.45-.46l.48.24c.55.13 1-.4 1.57-.25 0 0 .1-.15.16-.15.44-.05.49-.58.9-.68a.34.34 0 00.25-.36q.25 0 .24.24c0 .3-.37.37-.47.68a1.75 1.75 0 001.49-.23.33.33 0 01.18.35c-.05 0-.09.15-.15.16-1 .18-1.94.32-2.89.54s-2 .49-3 .67a8.52 8.52 0 00-1.41.34c-1.24.44-2.55.6-3.81.94.19.38.62 0 .87.24 0 .05-.08.15-.1.15-.49-.17-.87.25-1.34.25s-.94-.16-1.34.23c-.82-.16-1.6.27-2.41.24a7.46 7.46 0 00-1.89.42.63.63 0 00-.57-.18c-.23.09-.61-.22-.72.24-.24 0-.33.23-.45.36 0 .14.25.18.21.36h-.48a.16.16 0 00-.14-.21s-.08 0-.07.07a.16.16 0 00.21.14c0 .39-.33.2-.52.24-.35.07-.77-.16-1 .24-.22-.1-.22-.3-.45-.3-.1-.2.31-.22.17-.45-.39-.09-.54.15-.65.45l-.27.15c-.21.18-.39.21-.45-.15zm2.18-.36c-.22-.15-.37-.22-.47 0 .14.2.27.19.47.03z" class="cls-7"/>
        <path d="M43.85 142.11q.26 0 .24.24l.42.35a19.28 19.28 0 00.66 2.78c.16.39.15.38-.12.93 0 .28.28.36.48.66a2 2 0 00.33 1.43c.32 0 .49.37.76.56l.19-.19a3.73 3.73 0 002.55.92c.25 0 .43.16.63.22a14.76 14.76 0 002.19.49 3.73 3.73 0 011.88 1c.25-.37.63-.19 1-.22l.43.43c.38-.29.77 0 1.09.08 1.23.27 2.42.68 3.63 1.05v.35a2.84 2.84 0 01-2.29-.69l-.28.22c-.63-.27-.63-.27-1.14 0l-.51-.48h-1.65a10.38 10.38 0 00-3.38-.95 19.65 19.65 0 01-2.3-.52 4.83 4.83 0 00-1.36-.22c-.14-.29-.5-.25-.73-.43l-.08.08v.36h-.38l-.4-.87-1.14-.57v-.72c0-.11 0-.26.16-.18s.35.33.6 0a5.36 5.36 0 01-.73-2.63 3.17 3.17 0 00-.41-1.26c0-.09-.1-.12 0-.18l.24-.24a2.44 2.44 0 01-.58-1.8z" class="cls-8"/>
        <path fill="#111" d="M47.21 152.43h-.59c-.18-.49-.87-.66-.85-1.29.25-.2.66-.21.72-.63.53.69.51.77 1.28.89.6.09 1.17.48 1.79.3.38-.11.54.29.85.26.38-.19.84-.34 1-.24a8.31 8.31 0 002.22.7 7.62 7.62 0 002.67.5 1.43 1.43 0 01.7.08 12.8 12.8 0 002.48.66c0 .22.13.24.3.24h1.62q0 .25.24.24h2.88a2.34 2.34 0 00.15.27c.14.22.18.39-.15.45v-.11c-.4-.08-.8-.18-1.2-.24-.15 0 .13 0 0 .11s-.68.12-.81 0c-.51-.53-1.27.11-1.73-.44-.34.42-.64.14-1 0s-.8 0-1.16-.08a9 9 0 00-2.57-.44c-.33 0-.72.17-1-.21-.59.13-1.08-.37-1.69-.27a1.19 1.19 0 01-1.15-.28l-.39.36-.35-.58c-.13.13-.19.23-.25.23-.39 0-.91.19-1.15 0s-.8.36-1.06-.2c0-.07-.38 0-.58 0 0-.21-.12-.24-.29-.24z"/>
        <path fill="#1d1d1d" d="M38.57 131.31a1.14 1.14 0 010 1.38c-.37.54-.58 1.19-.91 1.77a1.55 1.55 0 00-.07.45 3.13 3.13 0 01-.14.78 20.78 20.78 0 01-2 3.37 17.38 17.38 0 01-1 1.73 11.1 11.1 0 00-1.17 1.8.54.54 0 00-.47.44 2.93 2.93 0 01-1 1.37v.47a1.19 1.19 0 00-.72 1.32c-.1.36-.5.48-.64.78a4.38 4.38 0 01-1.45 1.62c-.18 0-.46.12-.48-.24.14-.38.5-.58.75-.86a2.86 2.86 0 00.59-.82 3.22 3.22 0 011-1.48c.16-.12.05-.29.08-.44a2.66 2.66 0 001.2-1.44c.41-.07.23-.53.48-.72 1-1.24 1.69-2.67 2.62-3.94-.06-.47.67-.58.5-1a11.14 11.14 0 00.55-1.09c-.63.18-.54.59-.55 1.09-.19-.17-.23 0-.46.13.06-1.08.86-1.77 1.18-2.67h.24a.17.17 0 00.14.22s.08-.06.08-.07a.18.18 0 00-.22-.15l.24-.48c.51-.06.09-.57.39-.81a.92.92 0 00.33-.87c.41-.16.25-.35 0-.56 0-.25.21-.11.39-.22.12-.17-.05-.76.52-.86z"/>
        <path d="M39.77 131.79l.24-.48c.21 0 .5.11.49-.29 0-.12.08-.21.23-.19s.08.25.24.24a1.28 1.28 0 00-.24 1 3.48 3.48 0 00-.93 2.16c.34-.06.07-.51.45-.48a1.1 1.1 0 00.48 1 4.27 4.27 0 01-1.1 1.7c-.13 1-.91 1.7-1.37 2.55a38.09 38.09 0 01-2.32 4c-.18.25-.13.65-.49.8a1.48 1.48 0 01.49-1.31c.3-.25.22-.55.23-.85.36 0 .21-.29.24-.46.27-.16.59-.26.42-.73a.65.65 0 00-.42.73c-.16 0-.24.06-.24.22h-.24c0-.14-.08-.32.08-.43s.16-.34.16-.53a.63.63 0 00.49-.53.57.57 0 01.45-.43c.08.14-.07.33.14.47.16-.2.56-.3.27-.68-.17 0-.19.26-.41.21v-.72a2.94 2.94 0 001.13-1.94c-.53.41-.62 1.11-1.13 1.46a1.4 1.4 0 01.23-.86 6.7 6.7 0 001.07-1.93 4.8 4.8 0 01.71-1.7 4.15 4.15 0 00.49-1 11 11 0 01.6-1z" class="cls-11"/>
        <path d="M51.77 181.47h.41c.17.38 0 .8.07 1.2H52c-.18 0-.46-.12-.48.24h-.24v-.48c0-.18.12-.46-.24-.48a1.6 1.6 0 00-.25-1.21c-.46-.5 0-1.25-.47-1.73.09-1.2-.57-2.31-.48-3.51-.41-.61-.2-1.29-.23-1.94a10.38 10.38 0 00-.43-2 1 1 0 010-.45c.39-1.14-.24-2.27 0-3.4.06-.29-.21-.39-.26-.67.45-.48.07-1 .06-1.55s-.48-1.09-.25-1.7c.37-.24.64-.05.93.29-.09.4.15.88-.14 1.32.34.94-.11 2 .29 2.9a1 1 0 010 .89.86.86 0 000 1.07c.22.29 0 .57-.19.85a3 3 0 01.38 1.59 19.15 19.15 0 00.34 2.41 11.19 11.19 0 01.17 2.3c0 .32.23.48.27.74.14 1 .34 1.95.46 2.93 0 .35.3.55.36.88.25-.17.14-.34.17-.49z" class="cls-12"/>
        <path d="M22.25 167.55H23c-.11.3-.43.57-.12 1 .4-.08.79-.46 1.32-.11V170c-.06 0-.19.06-.19.08.05.49-.31.89-.29 1.36a.48.48 0 010 .12 28.31 28.31 0 00-1.18 4.54c-.06.23-.2.39-.27.61-.33 1.1-.71 2.18-1 3.3-.37 1.47-1.12 2.82-1.44 4.31 0 0-.13.06-.2.08-.36 0-.2-.29-.24-.48a1.19 1.19 0 01.25-1 2.77 2.77 0 00.47-1.29 5.86 5.86 0 00.45-1.36 1.9 1.9 0 01.32-1.06c.4-.47.24-1.05.5-1.53a3.44 3.44 0 00.43-1.63 1.29 1.29 0 01.47-.92 3.25 3.25 0 01.47-2.28c.52-.44.23-.9.05-1.37l.48-.17a.53.53 0 01-.21-.8 1.63 1.63 0 000-1.46l.17-.19a.79.79 0 00-.89.12c-.24-.31.12-.42.16-.62s0-.32-.24-.31v-.48z" class="cls-1"/>
        <path d="M22.25 168c.23 0 .26.15.24.31s-.4.31-.16.62a.79.79 0 01.89-.12l-.17.19a1.63 1.63 0 010 1.46.53.53 0 00.21.8l-.48.17c.18.47.47.93-.05 1.37l-.08-.2a.86.86 0 00-.56.76 15 15 0 01-.83 2.56c-.18.86-.68 1.65-.87 2.5a4.25 4.25 0 00-.29 1.44c0 .29-.26.38-.25.62-.18 0-.46.12-.48-.24.4-.17.33-.57.64-1.06-.53.28-.69.48-.64.82-.22 0-.22.14-.24.3a.19.19 0 01-.24.18 1 1 0 010-.35 18.9 18.9 0 011-2.47 14.87 14.87 0 001.17-3 7 7 0 00.49-2.79c-.06-.48.35-.73.48-1.12v-2c-.03-.29.18-.46.22-.75z" class="cls-13"/>
        <path d="M31.13 146.19a1.19 1.19 0 01.72-1.32v-.47a2.93 2.93 0 001-1.37.54.54 0 01.47-.44v.24c.1.2-.3.22-.15.48h1.11v.36a20.72 20.72 0 00-1.43 2l-1.22 1.68h.5c-.19.75-1 1-1.3 1.67a1.78 1.78 0 01-.86 1q0-.24-.24-.24l.24-.48q.26 0 .24-.24a.17.17 0 00.22-.14s-.06-.07-.08-.07a.16.16 0 00-.14.21.21.21 0 00-.24.24h-.48l-.24-.48h.51a2.29 2.29 0 00.93-1.17c.13-.25.22-.58.43-.73a1.21 1.21 0 00.53-1 .17.17 0 00.22-.14s-.06-.07-.08-.07a.16.16 0 00-.14.21z" class="cls-14"/>
        <path d="M12.17 153.15v-.24c.12 0 .21 0 .2-.16s-.29-.05-.44-.08c.05-.49.56 0 .73-.38-.31-.19-.65-.06-1-.1 0-.32.25-.24.43-.23a8.32 8.32 0 002.56-.42 4.43 4.43 0 011.66-.29 7.23 7.23 0 001.68-.31 2.65 2.65 0 001.49-.41c.12-.1.38 0 .58 0s.51-.13.71.14c-.18.23-.46 0-.71.22.16.31-.1.55-.24.84-.36.06-.79-.16-1.09.25-.12-.16-.25-.31-.48-.23s0 .4-.26.44c-.12-.18-.32-.31-.49-.21-.46.28-1 .14-1.44.26a6.13 6.13 0 00-1 .2 11.12 11.12 0 01-2.89.71zm1.2-.6q-.12-.17-.24 0 .12.18.24 0z" class="cls-15"/>
        <path fill="#373737" d="M36.89 176c.18.25.65.08.72.48h-1a28.39 28.39 0 003.24 1.95h.63a2.43 2.43 0 001.38 1.2 1.19 1.19 0 01.37.22c.18.36.77.42.69.95-.26-.25-.63-.2-.93-.31l-.09-.37c-1.07 0-1.53-1.07-2.51-1.35s-1.56-1.11-2.55-1.33l-.31.25-.21-.31c-.74-.43-1.24.07-1.8.06q-.24 0-.24-.24a.61.61 0 00.68-.36c-.23-.44-.8-.43-1.15-.73v-.51c1-.35 1.54.58 2.36.88.19-.2.58-.16.72-.48z"/>
        <path d="M47.21 152.43h.91c.17 0 .31 0 .29.24-.15 0-.32-.07-.44.09-.18.35.3.5.25.8a8.36 8.36 0 003.28.76 8.92 8.92 0 011.89.38 1.4 1.4 0 001.34-.15.58.58 0 001 .1c.11-.09.17.07.16.18 0 .33.25.21.42.25s.5-.16.54.23c-.19 0-.41-.09-.5.18-.75-.34-1.58 0-2.26-.23a6.73 6.73 0 00-2.31-.17 7.53 7.53 0 01-2.05-.46c-.76.36-1.38-.31-1.92-.29l-1.05-1.06c0-.21.27-.08.41-.17s.01-.45.04-.68z" class="cls-11"/>
        <path d="M18.89 180.51a.19.19 0 00.24-.18c0-.16 0-.31.24-.3v.24c0 .36.3.21.48.24-.14.46-.59.81-.48 1.35-.52.77-.61 1.76-1.28 2.44-.15.16-.26.43-.5.3-.83 1.27-1 2.74-1.79 4l.2.2-.56.31c0 .32.31.73-.15.78v-.48a1.22 1.22 0 010-.47c.59-1.22.95-2.54 1.48-3.78.28-.64.53-1.29.81-2l.35-.09c-.16-.39.16-.68.26-1a2.59 2.59 0 01.7-1.56z" class="cls-17"/>
        <path fill="#515151" d="M40.73 134.43V134h1c.08 1-.19 2 .23 3 .14.32-.09.59-.28.93.38.14.33.48.28.78-.16 1.18.32 2.3.27 3.47 0 .21.19.38 0 .65s.2.44.25.72c.12.65.55 1.24.45 1.95 0 .14.08.2.15.29a2.35 2.35 0 01.33 1.65c-.24 0-.29-.24-.47-.34l.18-.21a9.47 9.47 0 01-1-3.3.71.71 0 00-.06-.25 3.35 3.35 0 01-.32-2c.09-.61-.36-1.08-.28-1.69a3.3 3.3 0 000-1.77c-.44-.84.16-1.79-.43-2.56.37-.31.21-.69.2-1.08-.23.01-.3.23-.5.19z"/>
        <path d="M64.49 154.83c.33-.06.29-.23.15-.45a2.34 2.34 0 01-.15-.27.71.71 0 00.51-.11.56.56 0 01.8.14c.13-.14.26-.3.52-.19l.14.39c.18.07.19-.19.26-.19.38 0 .65.53 1 0 .2.3.55.16.79.26l.28.59-.15.16c0 .15.07.17.19.16v.24a6 6 0 01-1.75 0 7 7 0 00-2.39-.45.19.19 0 01-.2-.28z" class="cls-19"/>
        <path d="M51.53 188.43a9.12 9.12 0 00-2.09-2c-.68-.39-1.14-1.14-1.85-1.58-.38-.23-.66-.61-1.07-.85a1.81 1.81 0 01-.86-1c-.53-.06-.72-.57-1.07-.85-.11-.09-.29-.17-.26-.37a1.82 1.82 0 011.5.95 2.38 2.38 0 001 .87c.69.32 1 1.07 1.73 1.32.13 0 .17.31.25.46.57 0 .83.42 1.12.74.57.62 1.48.86 1.88 1.66-.5.05-.19.42-.28.65z" class="cls-12"/>
        <path fill="#6c6c6c" d="M19.85 151.71c.14-.29.4-.53.24-.84.25-.22.53 0 .71-.22-.2-.27-.48-.08-.71-.14 0-.06.05-.19.09-.19a17.38 17.38 0 003.84-1c.36.13-.11.68.39.72a.19.19 0 01-.18.24h-.94c-.15.38-.64.36-.8.72 0 .22-.13.26-.29.24a2.81 2.81 0 00-1.59.36 2.61 2.61 0 01-.76.11z"/>
        <path fill="#393939" d="M20.81 188.19a11 11 0 00-1.91 2.29 9.27 9.27 0 01-1.3 1.52c-.23.12-.59-.08-.77.26l-.52-.52c-.06-.06 0-.11.05-.17.38-.23-.18-.81.37-1h.48a1.93 1.93 0 000 .24.64.64 0 00-.46.4c.12.12.25.11.43 0v-.4a.65.65 0 00.61-.24c.8-.83 1.62-1.64 2.44-2.45.17-.16.27-.41.54-.43s.25.08.24.24a.21.21 0 00-.2.26z"/>
        <path d="M22.49 151c.16-.36.65-.34.8-.72h.94a.19.19 0 00.18-.24 9.5 9.5 0 002.39-.59c.34-.09.34-.11.81.08.41-.31.28-1 .88-1.17 0 .36.3.21.48.24q0 .25.24.24l.24.48a1.81 1.81 0 00-1.63.57c-.16.18-.34.15-.53.15 0-.15-.06-.2-.2-.24-.27.17-.63.2-.84.45a11.79 11.79 0 00-1.59.11c.07.29.43 0 .44.43a2.55 2.55 0 00-1.19.18 5.16 5.16 0 01-1.42.03z" class="cls-22"/>
        <path fill="#343434" d="M17.21 190.59h-.48a4.15 4.15 0 01.69-2.22 42 42 0 001.84-4.5h.11c0 .19-.12.46.24.48 0 .23.06.46-.07.68-.57.95-.91 2-1.38 3a12.75 12.75 0 00-.68 2c-.07.19-.28.32-.27.56z"/>
        <path d="M62.09 154.11h-.48q0-.24-.24-.24h-1.62c-.17 0-.32 0-.3-.24a4.11 4.11 0 001.21-.07c-.1-.28-.53 0-.49-.41v-.24h.24c.36.59 1 .48 1.5.48a.18.18 0 00.18-.24c.2-.1.28.43.56.08.1-.12.31.25.57.17.49-.15.86.2 1.27.29v.42h-1.92a.18.18 0 00-.18-.23c-.16-.02-.32.01-.3.23z" class="cls-19"/>
        <path fill="#626262" d="M28.85 180.51c-.67.71-1.47 1.14-2.07 1.81a6.77 6.77 0 01-2 1.78.52.52 0 01.11-.8c.61-.4 1.09-.94 1.69-1.36s1.21-.95 1.82-1.42c.05-.06.21-.01.45-.01z"/>
        <path d="M22.39 185.52a25.5 25.5 0 01-3.28 2.71c-.31-.16-.17-.38-.26-.62l.76-.62H20a3.71 3.71 0 012.39-1.47z" class="cls-25"/>
        <path d="M15.29 189.39v.48c.05.2-.19.23-.21.38l.2.23c.09.26-.16.35-.21.48s.17.35.23.55a.62.62 0 01-.63.53 6.07 6.07 0 01-.3-2.57c.13-.15.3-.05.44-.08h.48z" class="cls-13"/>
        <path fill="#595959" d="M32.81 145.71a20.72 20.72 0 011.43-2c.06-.07 0-.24 0-.36.26 0 .35-.25.49-.44.36-.52.54-1.19 1.19-1.48h.24v.24a1.44 1.44 0 00-.72.7 39.53 39.53 0 01-2.16 3.38h-.48z"/>
        <path fill="#8c8c8c" d="M32.57 142.59c-.25.19-.07.65-.48.72l-.1-.25a3.12 3.12 0 00-1.1 1.69c-.55.16-.7.92-1.59 1 .37-.36.59-.6.82-.82a4 4 0 00.68-.89 7.53 7.53 0 011.77-2.16c0 .18 0 .35-.13.5s-.02.2.13.21z"/>
        <path d="M52.49 187.47c0 .12 0 .2.15.22s0-.5.33-.46c0 .26 0 .51.15.78a1.6 1.6 0 01.1 1.89c-.07.12.05.32-.11.43a.31.31 0 01-.38-.13c.27-.58.48-1.25-.24-1.77 0-.21.11-.49-.3-.48a.19.19 0 01-.18-.24z" class="cls-28"/>
        <path d="M53 187c0-.22.22-.27.31-.44.22.07.39.28.65.2s.74.19 1.1.27c.16-.29-.23-.31-.14-.51.15 0 .31-.06.44.08l.76.76c-.23.12-.2.39-.35.6-.67 0-1-.57-1.46-1z" class="cls-6"/>
        <path fill="#727272" d="M44.05 149.55h.49a6.46 6.46 0 00.33 1.64l.38.08c0 .78.65 1.47.48 2.47a23.21 23.21 0 01-1.68-4.19z"/>
        <path d="M12.17 155.79c0-.18-.16-.22-.21-.36.12-.13.21-.33.45-.36 0 .21.18.25.24.35 1.3 0 2.55-.41 3.84-.35 0 .07-.06.2-.08.2a10.46 10.46 0 00-2.22.34 17.22 17.22 0 01-2.02.18z" class="cls-30"/>
        <path d="M51.29 182.91h.24a.56.56 0 01-.24.6.57.57 0 01.24.6h-.48c.06-.53-.32-.79-.71-.94s-.44-.43-.72-.6l.22-.25c-.05-.13-.27-.17-.23-.37H50l.22.48h.37c0 .32.29.17.39.29a1.25 1.25 0 01.17.39c.13.01.15-.11.14-.2z" class="cls-31"/>
        <path fill="#989898" d="M66.89 158.91v-.24q0-.24-.24-.24c0-.36.3-.2.48-.24.11.44.45.29.64.18a28.07 28.07 0 013.1-.89.27.27 0 01.35.14 24.73 24.73 0 01-2.62.81 13.2 13.2 0 00-1.71.48z"/>
        <path fill="#8b8b8b" d="M24.89 171.87c-.12.66-.51 1.23-.61 1.9 0 .21-.09.44-.1.66a.59.59 0 01-.49.56h-.24c-.11-.33.25-.52.26-.83 0-.14.27-.25.22-.49-.13-.74.37-1.24.72-1.8z"/>
        <path d="M34.25 177.15q0 .25.24.24c0 .15-.06.21-.18.24-1.05.24-1.9 1-2.94 1.2v-.11a10 10 0 012.88-1.57z" class="cls-34"/>
        <path d="M24.89 171.87h-.24c-.39 0-.12-.41-.38-.48h-.58c0-.47.34-.87.29-1.36 0 0 .13-.05.19-.08 0 .93 0 .93 1 1 0 .15.08.33-.08.44s-.2.29-.2.48z" class="cls-5"/>
        <path d="M36.89 134.67l-.24.48h-.24l-.28-.11.87-1.74.66-.31a.92.92 0 01-.33.87c-.3.24.12.75-.39.81a.16.16 0 00-.14-.21s-.08 0-.07.07a.16.16 0 00.16.14z" class="cls-35"/>
        <path d="M1.61 154.59a.19.19 0 00.18.24c.16 0 .32 0 .3.24v.12l-2.09.36c-.06-.28.29-.37.19-.63.25-.18.57 0 .78-.11a.93.93 0 01.64-.22z" class="cls-22"/>
        <path d="M21.05 188q0-.24-.24-.24a.91.91 0 01.59-.66 2.5 2.5 0 00.73-.53c.23-.18.34-.54.72-.49 0 0 .08.06.09.1s0 .06 0 .08a15.33 15.33 0 01-1.89 1.74z" class="cls-36"/>
        <path d="M28.73 180.51c.16-.74 1-.87 1.29-1.44h.87c0 .15-.13.19-.16.29-.11.43-.89-.11-.82.57-.38 0-.56.37-.83.57-.08.06-.23.01-.35.01z" class="cls-37"/>
        <path fill="#a0a0a0" d="M23.45 175h.24c0 .16.11.2.2.35a8.33 8.33 0 00-.77 2.06c-.15 0-.28 0-.4-.17a9.92 9.92 0 01.59-1.46 1.68 1.68 0 00.14-.78z"/>
        <path d="M32.81 145.71h.24v.29a4.38 4.38 0 01-1 1.44h-.5z" class="cls-12"/>
        <path fill="#020202" d="M52 187.71a.19.19 0 00.18.24c.41 0 .28.27.3.48a.21.21 0 00-.24.24c0 .3-.23.3-.39.2s-.34-.2-.33-.44-.22-.6.24-.72z"/>
        <path d="M70 155.55h-.24c-.09-.36-.39-.49-.76-.56l.32-.32c.52.25 1.16.11 1.63.51-.21.38-.79-.18-.95.37z" class="cls-37"/>
        <path d="M22.08 185.55c.79-.62 1.2-1.36 2-1.65a2.52 2.52 0 01-.66.82c-.27.29-.55.56-.83.83z" class="cls-25"/>
        <path fill="#6b6b6b" d="M19.13 154.59c.95-.17 1.84-.69 2.83-.42-.15.34-.44.13-.65.18s-.5-.11-.68.08-.52.14-.78.16-.48 0-.72 0z"/>
        <path d="M44.33 149.07l-.24.48a3.66 3.66 0 01-.72-2.16c.23 0 .22.14.25.3a2.46 2.46 0 00.71 1.38z" class="cls-41"/>
        <path d="M16.49 155.07c0-.06.06-.19.08-.19.87 0 1.68-.45 2.56-.29 0 .07-.05.19-.08.19-.86-.01-1.68.45-2.56.29z" class="cls-34"/>
        <path fill="#b0b0b0" d="M32.42 177.1a1.6 1.6 0 01-1.52 1.12z"/>
        <path fill="#999" d="M33.44 147.15a2.63 2.63 0 01.47-1.44.34.34 0 01.37.2z"/>
        <path d="M54.87 186.61l-1.18-1.18c.38-.38.56.26.88.16.08.32.43.55.3 1.02z" class="cls-6"/>
        <path d="M62.09 153.15a.18.18 0 01-.18.24c-.55 0-1.14.11-1.5-.48.59-.1 1.08.42 1.68.24z" class="cls-8"/>
        <path d="M21.3 166.13a1.86 1.86 0 01-1.19-.59c.59-.14.59-.14 1.19.59z" class="cls-5"/>
        <path fill="#3e3e3e" d="M43.85 181.47c-.31-.25-.84-.21-1-.72a1.1 1.1 0 011 .48z"/>
        <path fill="#858585" d="M49.61 182h-.4c-.1-.24.14-.24.14-.37s-.25-.16-.22-.35 0-.13.08-.2c.48.11.4.51.4.92z"/>
        <path d="M35 144.27v.61l-.34.33s-.13-.08-.13-.13a.65.65 0 01.47-.81z" class="cls-11"/>
        <path d="M32.57 141.87c-.08-.38.26-.6.33-1h.4c-.3.42-.25.89-.73 1z" class="cls-46"/>
        <path d="M51.29 164.43c.18-.4.58-.33 1.07-.64-.28.53-.49.7-.83.64z" class="cls-47"/>
        <path d="M22.21 153.48a1.06 1.06 0 01-1 .06c.39-.24.7-.09 1-.06z" class="cls-46"/>
        <path d="M9.29 156c.11-.3.26-.54.65-.45.14.23-.27.25-.17.45z" class="cls-4"/>
        <path d="M35 144.27v-.48h.48a.6.6 0 01-.48.48z" class="cls-11"/>
        <path d="M44.57 148.35v.72h-.24c.09-.23-.22-.6.24-.72z" class="cls-41"/>
        <path d="M11 152.19c-.11.47-.48.15-.72.24.08-.43.46-.15.72-.24z" class="cls-15"/>
        <path d="M43.85 181.47v-.24a.6.6 0 01.48.48c-.18-.03-.46.12-.48-.24z" class="cls-48"/>
        <path d="M12.41 155.07c.11-.46.49-.15.72-.24-.13.47-.48.17-.72.24z" class="cls-30"/>
        <path d="M53.69 162.51c0 .36-.3.21-.48.24.02-.36.3-.2.48-.24z" class="cls-3"/>
        <path d="M51.05 182c.36 0 .21.3.24.48-.36-.07-.2-.34-.24-.48z" class="cls-31"/>
        <path d="M50.81 166.11l.08-.21c.28.08.11.31.16.45q-.24.02-.24-.24z" class="cls-49"/>
        <path d="M31.37 178.83c0 .36-.3.21-.48.24.02-.36.3-.2.48-.24z" class="cls-34"/>
        <path d="M50.33 166.11h.24c0 .12 0 .23-.16.19s-.05-.12-.08-.19z" class="cls-49"/>
        <path d="M2.33 155.07h.24c0 .12 0 .23-.16.19s-.05-.12-.08-.19z" class="cls-22"/>
        <path d="M50.57 182.43a.16.16 0 01.14-.21s.08.05.08.07a.17.17 0 01-.22.14z" class="cls-31"/>
        <path d="M10 152.43h-.23c0-.11 0-.22.16-.19s.07.13.07.19z" class="cls-15"/>
        <path d="M53.21 164.19a.21.21 0 01.24-.24q.02.26-.24.24z" class="cls-3"/>
        <path d="M33.05 146v-.24h.24q.01.24-.24.24z" class="cls-14"/>
        <path d="M53.93 186.51v-.24c.12 0 .22 0 .19.16s-.12.06-.19.08z" class="cls-6"/>
        <path d="M22.25 167.79v.21c-.12 0-.22 0-.19-.16s.13-.02.19-.05z" class="cls-5"/>
        <path d="M20.81 188.19a.21.21 0 01.24-.24q.02.26-.24.24z" class="cls-36"/>
        <path d="M52.25 188.67a.21.21 0 01.24-.24q.02.26-.24.24z" class="cls-28"/>
        <path d="M15.05 189.39h-.24c0-.11 0-.22.16-.19s.03.13.08.19z" class="cls-17"/>
        <path fill="#3a3a3a" d="M44.33 179.79c-.34.12-.59-.15-.84-.27a35.83 35.83 0 01-4.11-2.17c-.05 0-.06-.13-.09-.2l.7-.33c-.23-.2-.17-.58-.46-.75.2-.2.92.07 1.4.52l-.4.17a.61.61 0 00.72.39.59.59 0 01.68.48l-.19.08c.45.52.48.52.91.16q.26 0 .24.24a.59.59 0 00.33.68 7.13 7.13 0 00.69.29.62.62 0 01.42.71z"/>
        <path fill="#454545" d="M46.49 181.47a16.64 16.64 0 01-1.92-1.2c0-.19.16-.23.24-.36l-.24-.23c.08-.13.27-.17.24-.37.49.2.72.74 1.25.92.36.12.46.57.64.93-.04.08-.24.12-.21.31z"/>
        <path d="M44.81 179.31c0 .2-.16.24-.24.37l.24.23c-.08.13-.27.17-.24.36-.36 0-.2-.29-.24-.48a.62.62 0 00-.42-.71 7.13 7.13 0 01-.69-.29.59.59 0 01-.33-.68c.24.33.74.06 1 .52.16.3.6.46.92.68z" class="cls-31"/>
        <path fill="#c6c6c6" d="M38.81 175.3c0 .16 0 .28-.08.37a4.19 4.19 0 01-2.1-1.14c.92-.11 1.44.66 2.18.77z"/>
        <path fill="#929292" d="M52.25 184.83v-.73c.41.18.1.58.37.76s.06.5.11.76c0 .11.1.2.24.17v.48h-.48c.17-.52-.24-.94-.24-1.44z"/>
        <path d="M42.65 177.87c-.43.36-.46.36-.91-.16l.19-.08c.26.04.42.37.72.24z" class="cls-31"/>
        <path d="M52.49 186.27H53c0 .23-.14.26-.3.24a.19.19 0 01-.21-.24z" class="cls-6"/>
        <path d="M52.49 187.23q-.24 0-.24-.24.26.01.24.24z" class="cls-28"/>
        <path fill="#ababab" d="M40.73 130.83c-.15 0-.24.07-.23.19 0 .4-.28.27-.49.29a2.23 2.23 0 00.35-2.07c.72.76.73.82.37 1.59z"/>
        <path fill="#bababa" d="M40.25 133.71c-.38 0-.11.42-.45.48a3.48 3.48 0 01.93-2.16v.72c-.36 0-.2.3-.24.48-.36.02-.2.3-.24.48z"/>
        <path d="M40.49 133.23c0-.18-.12-.46.24-.48 0 .39.43.12.49.45s-.22.32-.36.5c-.25-.05.02-.52-.37-.47z" class="cls-11"/>
        <path fill="#ccc" d="M40.73 132a1.28 1.28 0 01.24-1c.46 0 0 .6.69.55l-.45.17z"/>
        <path d="M42.09 130.65a.61.61 0 00.13-.74h.31c.24.2 0 .44.17.66z" class="cls-35"/>
        <path d="M40.73 132l.48-.24c.12.31-.2.47-.24.72h-.24zM41 132.51a.18.18 0 01.22.15s-.06.07-.08.07a.17.17 0 01-.14-.22z" class="cls-11"/>
        <path d="M54.89 162.51c.3-.11.56-.42 1-.09-.4.07-.61.41-1 .33zM53.93 163l.48-.24h.48c-.13.38-.52.33-.78.47-.11.03-.21-.09-.18-.23z" class="cls-57"/>
        <path fill="#707070" d="M5 154.59v.48h-.62a.29.29 0 01-.09-.4c.21-.15.46-.05.71-.08z"/>
        <path d="M5.69 155.31c0 .32.25.23.42.24s.32 0 .3.24h-1v-.48zM6.89 155.79c.11-.46.49-.15.72-.24-.11.45-.48.15-.72.24z" class="cls-7"/>
        <path d="M24.41 168c-.48-.06-.41-.6-.7-.82.07-.19.25-.11.38-.17s0-.38.08-.56.25-.16.48 0v1.36a.21.21 0 00-.24.19z" class="cls-1"/>
        <path fill="#909090" d="M23 167.59c0-.43.09-.84-.23-1.17.38-.18.47.12.65.23s-.25.26-.2.48.02.39-.22.46z"/>
        <path d="M51.53 184.11a.57.57 0 00-.24-.6.56.56 0 00.24-.6c0-.36.3-.2.48-.24v1.69z" class="cls-1"/>
        <path fill="#c5c5c5" d="M51.9 165.11c.34.75-.13 1.31-.22 2.2a2.54 2.54 0 01.22-2.2z"/>
        <path fill="#a7a7a7" d="M52 183.87v-1.2h.24a1.29 1.29 0 01.17 1.2z"/>
        <path d="M54.89 162.75h-.48c0-.36.3-.2.48-.24z" class="cls-3"/>
        <path d="M27.29 150v.59c-.13.22-.43.32-.48.61l-.48-.24c-.07-.39.5-.08.49-.44s.18-.42.47-.52z" class="cls-22"/>
        <path d="M10.75 155.67c-.2.16-.33.17-.47 0 .1-.22.25-.15.47 0zM11.69 155.79a.16.16 0 01-.21-.14s0-.07.07-.07a.16.16 0 01.14.21z" class="cls-4"/>
        <path d="M64.49 154.83h-.91c-.17 0-.3 0-.29-.24s-.15-.13 0-.11c.4.06.8.16 1.2.24.01 0 0 .07 0 .11z" class="cls-19"/>
        <path d="M62.09 154.11c0-.22.14-.25.3-.23a.18.18 0 01.18.23zM61.37 153.87q.26 0 .24.24-.24.02-.24-.24z" class="cls-8"/>
        <path d="M36.65 135.15a.18.18 0 01.22.15s-.06.07-.08.07a.17.17 0 01-.14-.22z" class="cls-2"/>
        <path d="M37.13 138.27c.51-.35.6-1.05 1.13-1.46a2.94 2.94 0 01-1.13 1.94z" class="cls-47"/>
        <path fill="silver" d="M37.1 139.46c.23.06.25-.18.42-.2.29.38-.11.48-.27.68-.25-.14-.06-.33-.15-.48z"/>
        <path fill="#a8a8a8" d="M19.37 180.27V180c-.05-.34.11-.54.64-.82-.31.52-.24.92-.64 1.09z"/>
        <path d="M37.13 138.75c-.38.53-.94.95-1 1.68a7.35 7.35 0 00-1.92 2.88h-1.07c-.15-.26.25-.28.15-.48a8.81 8.81 0 002.88-3.38 2 2 0 00.27-.73c0-.32.32-.5.69-.45z" class="cls-11"/>
        <path d="M24.41 168a.21.21 0 01.24-.24q.02.24-.24.24z" class="cls-5"/>
      </g>
      <g id="balloon">
        <path d="M45.53 25a15.8 15.8 0 011.69.53c-.08.2-.29.24-.25.44.35.7 1.34.19 1.68.85a.5.5 0 01-.39.56c-.89 0-1.64.59-2.5.6-.34 0-.78.36-1.11-.12-.39.1-.72.51-1.11.22a2 2 0 00-.66 1.63 3 3 0 01-.22 1.82v.23c.1.5.35.94 0 1.5-.23.4.19 1-.25 1.44.49.46-.13.89 0 1.36a6.18 6.18 0 010 1.55c0 .58.31 1.14.07 1.73.38.29-.28.51-.06.78-.18 0-.46.12-.48-.24a12.72 12.72 0 00-.17-2.88c.17-.34.17-.34-.11-.91.63-.72 0-1.72.48-2.56 0-.13-.34-.19-.09-.57l.12-.14c-.05-.05-.14-.09-.16-.16a1.81 1.81 0 010-1.27c.47-1-.07-2.15.4-3.19h-1.6c-.53.59-1.3.41-2 .44-.57-.14-.56-.9-1.16-1v-.74a30.12 30.12 0 003.81-6.36 4.52 4.52 0 01-.46-1.79.18.18 0 00-.18-.23c-.16 0-.32 0-.3.23h-1.47q0-.24-.24-.24h-.24c0-.39.35-.17.54-.24s.58.23.66-.24h.48q.26 0 .24-.24h.72c.09.24-.22.61.24.72l.48.24c.36 0 .21-.29.24-.48.24-.09.61.23.72-.24q.26 0 .24-.24.25 0 .24-.24.26 0 .24-.24l.48-.24.24.48a.21.21 0 00-.24.24.21.21 0 00-.24.24c-.18 0-.46-.12-.48.24a.21.21 0 00-.24.24v.24c-.06 0-.18 0-.19.08a1.63 1.63 0 00.19 1.36v.24l-.09.24-.55-.47c-.26.53.06.92.18 1.29-.18.22-.35.11-.5.14a.57.57 0 00-.42-.44 3.6 3.6 0 01-1.12 2.12L39.43 26c-.31-.13-.41.2-.62.37l.24.22a54 54 0 005.73-.9c.06-.24 0-.36-.24-.42a.58.58 0 01-.45-.71.57.57 0 01.49-.48c.37 0 .11.43.38.48h.33c.04.14-.12.44.24.44zm-3.12 1.76c1.2.59 2.47.35 3.72.41.1-.15.3-.21.31-.42s-.17-.23-.26-.25c-1.29-.27-2.5.36-3.59.55a1.75 1.75 0 00-1.36 0 1 1 0 001.18-.3z" class="cls-64"/>
        <path d="M44.33 17.55l-.24-.48c.65-.85 1.28-1.71 2-2.54a4.61 4.61 0 001.16-3.12 1.26 1.26 0 01.25-1c-.6-1.19.13-2.46-.46-3.56 0-.12.28-.1 0-.45-.42-1.72-1.81-3.15-2.75-4.83l-.89-.45c-1.22-.34-2.19.16-3.2.13a5.55 5.55 0 01-2.47.68 3 3 0 00-1.5 1c-.53.51-.65 1.29-1.22 1.78a2.82 2.82 0 01-.21 1.34c-.17.45.1.9.22 1.34v.21c-.33.24-.2.59-.19.89a21.08 21.08 0 00.2 4.34 3.92 3.92 0 00.35 1.17 4.44 4.44 0 001 1.28l-.25.24a1.56 1.56 0 01.9.68 4.39 4.39 0 002.74 1.8c-.08.47-.44.16-.66.24s-.5-.15-.54.24c-.49-.36-1-.67-1.47-1.08a19.47 19.47 0 01-1.89-2.4c.13-.43-.65-.15-.48-.62a3.65 3.65 0 01-.73-2.62 15.49 15.49 0 000-1.67c0-.2-.07-.48 0-.58.44-.42.14-.77-.07-1.08l.33-.43c-.1-.36-.45-.62-.11-1.07a1.23 1.23 0 00-.06-1.28c.17-.51.38-1 .52-1.56s.49-.9.65-1.42.67-.82 1-1.19c.88-.06 1.51-.77 2.37-.74S40.18.31 41 .29s1.66-.5 2.61-.18c.55 0 .5.72 1.06.92s.76.67 1.13 1v.47c.09.27.4.08.49.29v.48c.37.19.76.29.75.88 0 .33.29.67.45 1a6.34 6.34 0 01.49 3v2.51a.61.61 0 00.32.53c-.46.49-.25 1.1-.32 1.63a6.71 6.71 0 00-.86 1.6 3.81 3.81 0 01-1 1.51c-.62.58-.99 1.33-1.79 1.62z" class="cls-48"/>
        <path d="M42.17 80.43c-.12.35.29.53.25.86s0 .57 0 .84.33.59.27 1-.16.69.17 1c.1.1.07.37 0 .56a2.26 2.26 0 00.46 1.65c.06.22-.06.28-.14.37a6.91 6.91 0 01-.03 3.29c-.1.24.26.27.22.5s-.16.25-.23.38c.3.17.21.47.24.74a1 1 0 01-.22.73c.26.15.19.4.22.63 0 .54-.17 1.12.13 1.62s-.18 1.12.33 1.54c-.38.18.1.57-.19.77.33.23.16.57.2.87s-.15.73.22 1c-.28.23-.2.55-.22.85a2.8 2.8 0 00.22 1 4.08 4.08 0 01-.12 1.66c0 .26.42.51 0 .78a1.17 1.17 0 000 .64c.18.27.08.54.11.8s0 .64 0 1-.14.64.12.9c.07.08.11.13.06.17-.41.34 0 .85-.26 1.22a.81.81 0 01-.16.16.85.85 0 01-.07 1.31l.33.48c-.66.73.06 1.72-.46 2.55a1.78 1.78 0 000 1.17 4.07 4.07 0 010 2.45c-.06.26-.5.46-.23.7s0 .38 0 .55a10.41 10.41 0 01-.45 2.93 9.63 9.63 0 000 2.15c-.18 0-.23-.14-.34-.21a.17.17 0 00-.14.21c-.38.06-.11-.42-.45-.48a2.21 2.21 0 01-.3 1l.27.3c-.09.12-.27.18-.24.38a3.87 3.87 0 01-.32 1.55 1.83 1.83 0 00-.12 1.1c.16.32-.12.69.2.92-.15 0-.32.08-.48-.12v-.89a.2.2 0 00-.24-.19v-1.08c0-.36.3-.51.27-.86 0-.2.17-.38 0-.65s.31-.4.23-.73a2.35 2.35 0 01.32-1.42 9.73 9.73 0 00.8-4.08c0-.45.33-.76.27-1.23a1.46 1.46 0 01.17-1.12c.17-.25 0-.7 0-1v-1.8c.55-.37 0-1.07.46-1.51.14-.12 0-.53 0-.81.07-.81-.21-1.64.22-2.42.14-.24-.11-.43-.24-.63.11-.31.36-.6.25-1-.56-1.86 0-3.81-.38-5.72a3.15 3.15 0 000-2c0-.14-.15-.26-.13-.42a13.32 13.32 0 00-.28-3c0-.55-.14-1.13-.23-1.7 0-.29.43-.42.12-.68s.31-.3 0-.53-.06-.52-.08-.79 0-.48 0-.72v-2.4a4.33 4.33 0 010-.72c0-.26-.39-.46 0-.78.16-.15-.3-.4-.23-.72a5.12 5.12 0 000-1c0-.27-.32-.42-.25-.74a1.61 1.61 0 000-.95 4.49 4.49 0 01-.22-2 .21.21 0 01.32-.18z" class="cls-25"/>
        <path fill="#3b3b3b" d="M42.17 80.43a.21.21 0 00-.24.24c-.07 0-.19 0-.19-.08 0-1.47-.72-2.85-.53-4.34-.48-1.26-.16-2.57-.23-3.86 0-.4-.18-.87.22-1.21-.34-.38.11-.73 0-1.13a9.5 9.5 0 010-1.31c0-.29.33-.41.25-.74a3.92 3.92 0 010-.84c0-.27-.08-.56.22-.75-.35-.22 0-.42 0-.63s.07-.64-.25-.86c.06-.33.28-.6.27-1-.05-1.31 0-2.63 0-3.95 0-.45-.24-.89 0-1.36.13-.28-.14-.49-.21-.69s.33-.35.21-.54a.63.63 0 010-.77c-.32-.26-.23-.63-.24-1v-5c0-.27-.08-.68.06-.8.38-.31-.17-.42-.08-.68a2.61 2.61 0 000-.84c0-.35-.14-.83 0-1 .31-.38-.12-.59 0-.91a7.57 7.57 0 000-1.07c0-.41-.15-.85.21-1.24.12-.12 0-.46 0-.69-.25-1-.26-1 .24-1.89-.44-.29-.12-.57 0-.86a.17.17 0 00.22-.14s-.06-.07-.08-.07a.16.16 0 00-.14.21q-.49-.36 0-.72c0 .36.3.21.48.24 0 .19-.09.42.18.51.09.23-.21.28-.19.49a17.05 17.05 0 01-.15 3l.22.24c-.62.48 0 1.32-.56 1.95.2.33.44.73.07 1.15.31.42.09.86.09 1.3s.1.94.1 1.42.16 1 0 1.41a1.72 1.72 0 00-.1 1.14c.08.39-.52.88.16 1.14l-.26.28a6.9 6.9 0 01.24 1.62v1a2.35 2.35 0 00.09 1c.15.25-.22.51.14.72s-.33.33-.12.55.07.53.13.78-.19.41-.23.63a1.32 1.32 0 000 .71 5.71 5.71 0 01.2 2.78 17.33 17.33 0 00-.21 2.17c-.39.17.11.58-.21.77.43.12-.27.57.2.68-.29.56-.14 1.2-.33 1.77 0 .14-.16.25-.14.42a31 31 0 01-.23 4.09 3 3 0 00.07 1c.08.25.2.59-.07.84.36.26.07.78.26 1 .36.32-.12.46 0 .67a1.26 1.26 0 01.24.74v.83c0 .26.27.5.11.81s.26.4.11.67z"/>
        <path d="M45.29 24.51H45c-.27-.05 0-.47-.38-.48a.57.57 0 00-.49.48c-.2 0-.29-.14-.36-.25a12.67 12.67 0 01-.83-1.43c-.1-.22-.37-.41-.25-.72q0-.24-.24-.24t-.24-.24c.15 0 .32.08.5-.14-.12-.37-.44-.76-.18-1.29l.55.47.09-.24c.3.05.45.31.6.51a3.35 3.35 0 01.36.79 10.4 10.4 0 011.16 2.78zM43.13 20.19a1.63 1.63 0 01-.19-1.36s.13 0 .19-.08a1.73 1.73 0 00.23 1.17c.08.08-.02.29-.23.27zM45.53 25c-.36 0-.2-.29-.24-.48.36.01.21.29.24.48zM40.49 18.75c0-.22.14-.25.3-.23a.18.18 0 01.18.23zM43.37 18.27c0-.36.3-.2.48-.24-.02.36-.3.21-.48.24zM44.09 17.79a.21.21 0 01.24-.24q.02.26-.24.24zM43.13 18.51a.21.21 0 01.24-.24q.02.26-.24.24zM38.81 18.51q.25 0 .24.24-.24.02-.24-.24z" class="cls-48"/>
        <path d="M43.85 18a.21.21 0 01.24-.24q.02.24-.24.24zM41.21 17.79c.46.12.15.49.24.72-.45-.11-.15-.51-.24-.72zM42.17 18.27c.11-.46.49-.15.72-.24-.11.47-.48.15-.72.24zM41.93 18.75c0-.18-.12-.46.24-.48-.03.19.12.46-.24.48zM40.49 17.79c0-.22.14-.25.3-.23a.18.18 0 01.18.23z" class="cls-48"/>
        <path d="M40.25 18a.21.21 0 01.24-.24q.01.24-.24.24zM43.37 17.55a.21.21 0 01.24-.24q.02.26-.24.24zM42.89 18a.21.21 0 01.24-.24q.02.24-.24.24z" class="cls-48"/>
        <path d="M43.13 17.79a.21.21 0 01.24-.24q.02.26-.24.24z" class="cls-48"/>
        <path d="M41.93 40.59a.16.16 0 01.14-.21s.08 0 .08.07a.17.17 0 01-.22.14zM42.65 22.11q-.24 0-.24-.24.26 0 .24.24z" class="cls-64"/>
        <path fill="#1e1e1e" d="M36.41 8.43a2.42 2.42 0 011.1-2.11 1.39 1.39 0 00-1 .43c-.18 0-.18 0-.84-.68a6.29 6.29 0 011.61-2.91c.45-.06.32.31.4.48.23-.1.31-.34.55-.25.36.25-.05.44-.07.64.35.35.51-.37.83-.13s0 .47.16.64c.33 0 .38-.62.84-.36-.19.74-1 1.12-1.15 1.85-.23 0-.21.15-.24.3a6 6 0 01-1.09 2.13l-.11-.27c.12-.29.42-.55.13-1-.22.2-.46.36-.37.72-.15 0-.24.07-.23.19-.02.44-.31.31-.52.33z"/>
        <path fill="#2a2a2a" d="M40.49 11.55c.37 0 .42-.61.87-.45.46.78-.53 1.29-.38 2 .3 0 .57-.35.93-.05-.39.61-1.21.82-1.5 1.56h-.55c-.29-.48.06-.87.19-1.29-.3-.2-.34.1-.46.19a2.57 2.57 0 00-.4.41 1.87 1.87 0 01-1.31-.57c-.15-.37.1-.6.21-.88.15 0 .32-.07.44.08l-.18.35a1.55 1.55 0 00.93 0l-.28-.34c.05-.41.65-.52.49-1 .21-.26.18-.74.66-.78.09-.15-.1-.16-.15-.32.66-.48.66-1.42 1.29-2l.39.35c-.31.77-.46 1.55-1.23 1.94v.59c-.3.1-.52.26-.46.62.12.14.26.13.46 0z"/>
        <path fill="#3f3f3f" d="M36.41 8.43c.21 0 .5.11.49-.29 0-.12.08-.21.23-.19q0 .25.24.24l.11.27a6 6 0 001.09-2.13c0-.15 0-.31.24-.3 0 .15-.07.32.12.48.14-.25.19-.56.47-.71.19 0 .39-.07.56.06a.68.68 0 010 .22 4 4 0 01-.74 1.24 37.74 37.74 0 00-1.89 3.76 3.11 3.11 0 00-.48 2c-.11.18-.23.15-.41.16-.28-.86.25-1.58.32-2.5-.61-.55.25-1.24.09-1.89-.01-.3-.49-.03-.44-.42z"/>
        <path d="M39.53 11.55c.16.49-.44.6-.49 1l.24.36a1.55 1.55 0 01-.93 0l.18-.35c-.12-.15-.29-.05-.44-.08a16.49 16.49 0 011.6-3.62 10.32 10.32 0 01.93-1.62h.58a5.34 5.34 0 00-.68 1.38c-.07.56-.62.85-.62 1.43a1.32 1.32 0 01-.47.76c-.2.19-.33.56.1.74z" class="cls-12"/>
        <path fill="#383838" d="M42.35 15.43l-.35-.36a18.76 18.76 0 011.31-2.37c.27.73-.16 1.26-.32 2 0 0 .31.07.12.38z"/>
        <path fill="#bcbcbc" d="M40.49 11.55v.39c-.2.12-.34.13-.46 0-.06-.36.16-.52.46-.62z"/>
        <path fill="#c1c1c1" d="M37.37 8.19q-.24 0-.24-.24c-.09-.36.15-.52.37-.72.29.41-.01.67-.13.96z"/>
        <path d="M40.73 126q0 .25-.24.24a.21.21 0 01.24-.24z" class="cls-25"/>
      </g>
    </g>
  </g>
</svg>
