<svg xmlns="http://www.w3.org/2000/svg" viewBox="0 0 30.96 26.92"><defs><style>.cls-1{fill:none;stroke:#fff;stroke-miterlimit:10;}</style></defs><g id="Calque_2" data-name="Calque 2"><g id="Calque_1-2" data-name="Calque 1"><g id="Calque_2-2" data-name="Calque 2"><g id="Capa_1" data-name="Capa 1"><path class="cls-1" d="M30.46,7.64h0a7.14,7.14,0,1,0-7.14,7.14h0a7,7,0,0,0,2.31-.39C24,23.61,16.84,29.55,23.5,24.66,30.88,19.23,30.46,7.85,30.46,7.64Z"/><path class="cls-1" d="M7.6,14.77a7,7,0,0,0,2.31-.39C8.31,23.6,1.12,29.54,7.78,24.65c7.39-5.42,7-16.8,7-17h0a7.14,7.14,0,1,0-7.14,7.14h0Z"/></g></g></g></g></svg>